<svg width="151" height="125" viewBox="0 0 151 125" fill="none" xmlns="http://www.w3.org/2000/svg">
<g clip-path="url(#clip0_15_362)">
<path d="M142.25 60.5876L129.7 72.8625L118.162 95.0376L105.162 120.075L89.1998 112.55L71.9623 103.663L83.0123 82.4751L89.8498 58.75C85.0123 61.9875 76.0248 66.3875 65.2248 64.1C53.5373 61.6125 59.1498 17.3875 59.1498 17.3875L71.9623 17.05L73.2373 48.2125L87.7373 41.775L87.7748 41.8125C88.6373 41.4375 89.4248 41.0625 89.7998 40.8375C97.8248 36.4375 103.062 35.9125 111.687 38.9875L124.087 43.125C127.287 44.7001 139.062 50.5001 142.25 60.5876Z" fill="#BE1527"/>
<g clip-path="url(#clip1_15_362)">
<path d="M101.441 65.3943L100.969 66.0503L98.8526 65.0807L101.206 61.7929L101.953 62.1354L100.072 64.7672L101.441 65.3943Z" fill="white"/>
<path d="M103.006 66.9621C103.02 66.9374 103.032 66.9033 103.032 66.8622C103.036 66.7214 102.901 66.6146 102.814 66.5728C102.663 66.5002 102.469 66.5391 102.313 66.6661C102.201 66.6149 102.09 66.5637 101.978 66.5126L101.111 66.1154C102.575 65.2798 104.037 64.445 105.499 63.6101C105.15 64.9547 104.802 66.2999 104.452 67.6444L103.696 67.2978C103.466 67.1869 103.236 67.0745 103.006 66.9621ZM102.451 66.7274C103.458 65.6932 104.465 64.6591 105.475 63.6242C104.193 64.5328 102.912 65.4413 101.63 66.3514C101.903 66.4763 102.177 66.6018 102.451 66.7274Z" fill="white"/>
<path d="M105.86 66.4158L106.155 64.0608L106.93 64.4156L106.708 65.8313L108.111 64.9567L108.991 65.36L106.6 66.7564L105.591 68.1681L104.85 67.829L105.86 66.4158Z" fill="white"/>
<path d="M107.635 66.9291C108.309 65.8777 109.565 65.4941 110.558 66.0123C111.505 66.5056 111.722 67.5582 111.083 68.5431C110.407 69.5865 109.154 69.9583 108.166 69.4429C107.229 68.9558 107.001 67.9146 107.635 66.9291ZM110.343 68.1879C110.759 67.5821 110.625 66.9277 110.091 66.6725C109.55 66.4101 108.794 66.6602 108.379 67.2717C107.975 67.8631 108.086 68.5124 108.63 68.7761C109.189 69.0481 109.937 68.7801 110.343 68.1879Z" fill="white"/>
<path d="M115.446 68.3175L111.433 70.953L111.357 70.9182L112.176 66.8191L112.934 67.1664L112.432 69.4141L114.579 67.9204L115.446 68.3175Z" fill="white"/>
<path d="M116.086 69.4734L115.627 70.1151L116.767 70.6378L116.295 71.2952L115.154 70.7726L114.67 71.4517L116.013 72.0672L115.542 72.7232L113.455 71.7672L115.808 68.4794L117.896 69.436L117.431 70.0859L116.088 69.4705L116.086 69.4734Z" fill="white"/>
<path d="M118.693 72.4314L118.742 74.1927L117.915 73.814L117.926 71.7772L116.827 73.3152L116.082 72.974L118.434 69.6855L119.499 70.1734C120.065 70.4327 120.455 71.0945 119.982 71.8092C119.683 72.2526 119.196 72.4978 118.693 72.4314ZM119.043 70.8332L118.71 70.6804L118.117 71.5061L118.449 71.662C118.759 71.8075 119.083 71.7254 119.243 71.4781C119.404 71.2256 119.298 70.9499 119.043 70.8332Z" fill="white"/>
<path d="M119.908 74.725C120.11 74.8177 120.349 74.7289 120.442 74.5265C120.535 74.3242 120.446 74.085 120.243 73.9923C120.041 73.8996 119.802 73.9885 119.709 74.1908C119.616 74.3932 119.705 74.6323 119.908 74.725Z" fill="#C84B4F"/>
<path d="M105.428 63.7265L102.899 66.626C102.899 66.626 102.801 66.5501 102.719 66.5434C102.637 66.5366 102.637 66.5366 102.637 66.5366L105.428 63.7265Z" fill="#C84B4F"/>
</g>
<path d="M98.3623 38.1123C98.3623 38.1123 98.0623 38.2623 97.5748 38.6373C97.0873 38.9748 96.4123 39.5748 95.7748 40.4123C95.1373 41.2748 94.4998 42.4123 94.0123 43.7248C93.4873 45.0373 93.1123 46.5873 92.6998 48.1623C91.8373 51.3248 91.0498 54.1873 90.4873 56.2873C90.1873 57.2998 89.9623 58.1373 89.8123 58.7373C89.7373 58.9998 89.6623 59.2248 89.6248 59.4123C89.5873 59.5623 89.5498 59.6373 89.5498 59.6373C89.5498 59.6373 89.5498 59.5623 89.5873 59.4123C89.6248 59.2248 89.6998 58.9998 89.7373 58.7373C89.8873 58.1373 90.1123 57.3123 90.3748 56.2498C90.9373 54.1373 91.6873 51.2873 92.5123 48.0873C92.9248 46.5123 93.3373 44.9623 93.8623 43.6498C94.3873 42.2998 95.0248 41.1623 95.6998 40.3373C96.3748 39.4748 97.0498 38.9123 97.5748 38.5623C97.8373 38.4123 98.0248 38.2998 98.1748 38.2248C98.2873 38.1498 98.3623 38.1123 98.3623 38.1123Z" fill="#263238"/>
<g opacity="0.3">
<g opacity="0.3">
<path opacity="0.3" d="M93.6734 44.3623C90.0734 54.1123 83.6234 59.5748 74.5234 64.4623C74.5234 64.4623 82.3609 63.8998 89.5859 58.9248" fill="black"/>
</g>
</g>
<g opacity="0.3">
<g opacity="0.3">
<path opacity="0.3" d="M101.45 37.4375C102.988 61.8625 104.488 86.3 106.025 110.762L101.525 120.063L101.45 37.4375Z" fill="black"/>
</g>
</g>
<path d="M119.238 62.7749C119.2 62.8124 118.713 61.6499 118.075 60.2499C117.438 58.8624 116.875 57.7624 116.913 57.7249C116.95 57.7249 117.1 57.9874 117.363 58.3999C117.625 58.8499 117.925 59.4499 118.263 60.1749C118.6 60.8874 118.825 61.5249 119.013 61.9874C119.2 62.4749 119.275 62.7749 119.238 62.7749Z" fill="#FAFAFA"/>
<path d="M129.462 57.6126C129.5 57.6501 128.412 58.4001 127.025 59.2626C125.637 60.1251 124.512 60.7626 124.475 60.7251C124.437 60.6876 125.525 59.9376 126.912 59.0751C128.262 58.2501 129.425 57.5751 129.462 57.6126Z" fill="#FAFAFA"/>
<path d="M125 53.925C124.962 53.925 124.85 53.0251 124.812 51.9251C124.737 50.8376 124.737 49.925 124.812 49.925C124.85 49.925 124.962 50.8251 125 51.9251C125.075 53.0251 125.075 53.925 125 53.925Z" fill="#FAFAFA"/>
<path d="M135.2 53.2125C135.162 53.25 134.337 52.8 133.362 52.2C132.387 51.6 131.6 51.075 131.637 51C131.675 50.9625 132.5 51.4125 133.475 52.0125C134.45 52.6125 135.237 53.175 135.2 53.2125Z" fill="#FAFAFA"/>
<path d="M119.65 73.4999C119.612 73.4624 120.062 72.2999 120.662 70.8999C121.262 69.4749 121.787 68.3374 121.862 68.3749C121.9 68.4124 121.45 69.5749 120.85 70.9749C120.212 72.4124 119.687 73.5374 119.65 73.4999Z" fill="#FAFAFA"/>
<path d="M115.076 78.1249C115.038 78.1624 114.626 77.4124 114.176 76.5124C113.726 75.6124 113.388 74.8124 113.426 74.8124C113.463 74.7749 113.876 75.5249 114.326 76.4249C114.813 77.3374 115.151 78.0874 115.076 78.1249Z" fill="#FAFAFA"/>
<path d="M118.9 84.3377C118.9 84.3752 118.075 84.6752 116.987 84.8252C115.9 84.9877 115 84.9501 115 84.9001C115 84.8251 115.9 84.7876 116.95 84.6376C118 84.4876 118.863 84.2627 118.9 84.3377Z" fill="#FAFAFA"/>
<path d="M123.775 77.5249C123.737 77.4874 124.037 76.6999 124.45 75.6749C124.862 74.6999 125.237 73.8999 125.312 73.8999C125.35 73.9374 125.05 74.7249 124.637 75.7499C124.187 76.7749 123.812 77.5624 123.775 77.5249Z" fill="#FAFAFA"/>
<path d="M111.926 91.9125C111.888 91.95 111.326 91.2 110.576 90.3C109.826 89.4375 109.151 88.7626 109.188 88.7251C109.226 88.6876 109.976 89.2875 110.726 90.1875C111.476 91.0375 111.963 91.875 111.926 91.9125Z" fill="#FAFAFA"/>
<path d="M109.749 76.4749C109.787 76.5124 109.374 77.3374 108.774 78.3624C108.174 79.3749 107.687 80.1749 107.612 80.1749C107.574 80.1374 107.987 79.3124 108.587 78.2874C109.187 77.2249 109.712 76.4374 109.749 76.4749Z" fill="#FAFAFA"/>
<path d="M111.288 71.1252C111.288 71.1627 110.35 70.9752 109.188 70.6752C108.025 70.3752 107.125 70.1127 107.125 70.0377C107.125 70.0002 108.063 70.1877 109.225 70.4877C110.388 70.7877 111.325 71.0877 111.288 71.1252Z" fill="#FAFAFA"/>
<path d="M111.213 60.25C111.25 60.2125 111.738 60.925 112.338 61.7875C112.938 62.65 113.425 63.3249 113.388 63.3624C113.35 63.3999 112.788 62.7625 112.188 61.9C111.55 61 111.175 60.25 111.213 60.25Z" fill="#FAFAFA"/>
<path d="M107.774 59.6874C107.812 59.7249 107.212 60.2874 106.462 60.9624C105.712 61.5999 105.074 62.1249 105.037 62.0874C104.999 62.0499 105.599 61.4874 106.349 60.8124C107.099 60.1749 107.737 59.6499 107.774 59.6874Z" fill="#FAFAFA"/>
<path d="M110.463 54C110.425 54.0375 109.6 53.3625 108.738 52.3C107.875 51.2875 107.313 50.3375 107.35 50.3C107.388 50.2625 108.025 51.1625 108.888 52.15C109.75 53.2125 110.5 53.9625 110.463 54Z" fill="#FAFAFA"/>
<path d="M120.063 52.2375C120.063 52.275 119.126 52.6125 117.963 52.9875C116.801 53.3625 115.826 53.5875 115.788 53.55C115.788 53.5125 116.726 53.175 117.888 52.8C119.088 52.425 120.063 52.2 120.063 52.2375Z" fill="#FAFAFA"/>
<path d="M106.563 43.05C106.488 43.05 106.525 42.1876 106.413 41.1251C106.3 40.0751 106.038 39.2375 106.113 39.2375C106.15 39.2375 106.488 40.0251 106.6 41.1251C106.713 42.1876 106.6 43.0875 106.563 43.05Z" fill="#FAFAFA"/>
<path d="M98.0623 70.375C98.0623 70.4125 97.7248 70.6376 97.1623 71.0126C96.5998 71.3876 95.8498 71.95 95.0248 72.5875C94.1998 73.225 93.4873 73.8251 92.9998 74.2876C92.4748 74.7376 92.1748 75.0001 92.1748 75.0001C92.1748 75.0001 92.4373 74.6625 92.9248 74.2125C93.4123 73.725 94.1248 73.125 94.9123 72.475C95.7373 71.8375 96.4873 71.3125 97.0873 70.9375C97.6498 70.525 98.0248 70.3375 98.0623 70.375Z" fill="#FAFAFA"/>
<path d="M97.537 67.3252C97.4995 67.3627 96.862 66.3877 95.9995 65.2127C95.137 64.0502 94.3495 63.1752 94.387 63.1377C94.4245 63.1377 94.612 63.3252 94.9495 63.6627C95.287 64.0002 95.6995 64.4877 96.1495 65.0877C96.5995 65.6502 96.937 66.2127 97.1995 66.6252C97.462 67.0627 97.5745 67.3252 97.537 67.3252Z" fill="#FAFAFA"/>
<path d="M99.8256 55.4377C99.8631 55.4752 99.0381 55.9627 98.0256 56.5252C97.0131 57.0877 96.1506 57.5002 96.1506 57.4627C96.1131 57.4252 96.9381 56.9377 97.9506 56.3752C98.9631 55.8127 99.8256 55.4002 99.8256 55.4377Z" fill="#FAFAFA"/>
<path d="M97.5744 50.2376C97.5744 50.2751 97.3119 50.0876 96.9369 49.7126C96.5619 49.3751 96.0744 48.8876 95.5869 48.2876C95.0994 47.6876 94.6869 47.1251 94.4619 46.6751C94.1994 46.2251 94.0869 45.9626 94.0869 45.9626C94.1244 45.9251 94.7619 47.0126 95.7369 48.1876C96.7119 49.3751 97.6119 50.2001 97.5744 50.2376Z" fill="#FAFAFA"/>
<path d="M101.475 50.1251C101.437 50.0876 101.737 49.3751 102.15 48.4626C102.562 47.5626 102.975 46.8876 103.012 46.9251C103.05 46.9626 102.75 47.6751 102.337 48.5751C101.887 49.4501 101.512 50.1626 101.475 50.1251Z" fill="#FAFAFA"/>
<path d="M100.424 44.175C100.349 44.175 100.424 43.0125 100.199 41.575C99.9744 40.15 99.5619 39.05 99.6369 39.05C99.6744 39.05 99.7869 39.3125 99.9369 39.7625C100.087 40.2125 100.274 40.85 100.387 41.575C100.499 42.2875 100.537 42.9626 100.499 43.4251C100.499 43.9126 100.462 44.175 100.424 44.175Z" fill="#FAFAFA"/>
<path d="M101.4 74.1751C101.362 74.1751 101.4 73.7626 101.4 73.0876C101.437 72.4126 101.437 71.4751 101.4 70.4501C101.362 69.4251 101.325 68.5001 101.25 67.8126C101.175 67.1376 101.137 66.7251 101.175 66.7251C101.212 66.7251 101.287 67.1376 101.4 67.8126C101.475 68.4876 101.587 69.4251 101.625 70.4876C101.662 71.5376 101.625 72.4876 101.55 73.1626C101.475 73.7626 101.4 74.1751 101.4 74.1751Z" fill="#FAFAFA"/>
<path d="M100.837 83.5499C100.799 83.5874 100.162 82.8374 99.187 82.1999C98.212 81.5624 97.237 81.2999 97.2745 81.2624C97.2745 81.2249 98.287 81.3749 99.2995 82.0499C100.274 82.6874 100.874 83.5124 100.837 83.5499Z" fill="#FAFAFA"/>
<path d="M105.513 89.3499C105.55 89.3874 104.388 90.0624 102.925 90.7749C101.463 91.5249 100.3 92.0874 100.263 92.0499C100.225 92.0124 101.388 91.3749 102.85 90.6249C104.275 89.8749 105.475 89.3124 105.513 89.3499Z" fill="#FAFAFA"/>
<path d="M92.288 91.9123C92.2505 91.9498 91.388 90.8623 90.3755 89.4998C89.363 88.1498 88.5755 86.9748 88.6505 86.9748C88.688 86.9373 89.5505 88.0248 90.563 89.3873C91.5755 90.7373 92.363 91.8748 92.288 91.9123Z" fill="#FAFAFA"/>
<path d="M88.2379 81.2124C88.2004 81.2124 88.1629 80.9124 88.1629 80.4249C88.1254 79.9374 88.1254 79.2999 88.1629 78.5374C88.2004 77.8249 88.2754 77.1499 88.3129 76.6499C88.3879 76.1624 88.4254 75.8999 88.4629 75.8999C88.5004 75.8999 88.3879 77.0624 88.3504 78.5374C88.2754 80.0124 88.2754 81.2124 88.2379 81.2124Z" fill="#FAFAFA"/>
<path d="M83.8128 99.4749C83.7753 99.5124 82.8003 98.7624 81.6378 97.7874C80.4753 96.8124 79.5378 95.9749 79.5753 95.9374C79.6128 95.8999 80.5878 96.6499 81.7503 97.6374C82.9503 98.6124 83.8503 99.4374 83.8128 99.4749Z" fill="#FAFAFA"/>
<path d="M86.4754 98.9126C86.4379 98.9126 86.3629 97.6001 86.3254 95.9751C86.2879 94.3626 86.2879 93.0376 86.3629 93.0376C86.4004 93.0376 86.4754 94.3501 86.5129 95.9751C86.5504 97.5876 86.5129 98.9126 86.4754 98.9126Z" fill="#FAFAFA"/>
<path d="M91.6871 110.238C91.6871 110.275 91.2371 110.088 90.4496 109.825C89.6996 109.6 88.6496 109.3 87.4496 109.15C86.2496 109 85.1621 108.963 84.3746 109C83.5871 109.038 83.0996 109.075 83.0996 109.038C83.0996 109.038 83.2121 109 83.4371 108.963C83.6621 108.925 83.9621 108.888 84.3746 108.85C85.1621 108.775 86.2871 108.775 87.4871 108.925C88.6871 109.075 89.7746 109.413 90.5246 109.675C90.8996 109.825 91.1996 109.938 91.3871 110.05C91.5746 110.163 91.6871 110.238 91.6871 110.238Z" fill="#FAFAFA"/>
<path d="M95.9629 112.313C95.9629 112.275 96.3004 112.5 96.8254 112.913C97.3129 113.288 97.9879 113.888 98.6629 114.575C99.3379 115.25 99.9379 115.925 100.313 116.425C100.688 116.913 100.913 117.25 100.913 117.288C100.875 117.288 100.65 116.988 100.238 116.538C99.8254 116.05 99.2254 115.413 98.5504 114.738C97.8754 114.063 97.2379 113.463 96.7504 113.038C96.2629 112.613 95.9629 112.35 95.9629 112.313Z" fill="#FAFAFA"/>
<path d="M97.8376 92.7C97.8001 92.7375 97.3501 91.725 96.8626 90.5125C96.3751 89.275 96.0376 88.25 96.0751 88.25C96.1126 88.2125 96.5626 89.225 97.0501 90.4375C97.5376 91.6875 97.9126 92.7 97.8376 92.7Z" fill="#FAFAFA"/>
<path d="M82.8132 54.5624C82.8132 54.5624 82.6257 54.8249 82.2507 55.1999C81.8757 55.5749 81.3132 56.0249 80.6382 56.4749C79.9632 56.9249 79.3257 57.2624 78.8382 57.4874C78.3507 57.7124 78.0507 57.7874 78.0507 57.7874C78.0132 57.7499 79.2132 57.2249 80.5257 56.3249C81.8382 55.4374 82.7382 54.5249 82.8132 54.5624Z" fill="#FAFAFA"/>
<path d="M83.7367 50.5751C83.6992 50.5751 83.6617 49.8251 83.7367 48.8751C83.7742 47.9376 83.8492 47.2126 83.9242 47.2126C83.9617 47.2126 83.9992 47.9626 83.9242 48.9126C83.8867 49.8251 83.8117 50.5751 83.7367 50.5751Z" fill="#FAFAFA"/>
<path d="M76.2879 53.925C76.2504 53.9625 75.3879 53.625 74.3379 53.1375C73.2879 52.65 72.4629 52.2375 72.4629 52.1625C72.5004 52.125 73.3629 52.4625 74.4129 52.95C75.4629 53.4375 76.2879 53.8875 76.2879 53.925Z" fill="#FAFAFA"/>
<path d="M89.625 48.8124C89.5875 48.8124 89.5875 47.8749 89.7 46.7374C89.775 45.6124 89.8875 44.6624 89.9625 44.6624C90 44.6624 90 45.5999 89.8875 46.7374C89.775 47.8999 89.6625 48.8124 89.625 48.8124Z" fill="#FAFAFA"/>
<path d="M72.3133 61.9125C72.3133 61.95 71.3008 61.65 70.1758 60.975C69.0508 60.3 68.3008 59.55 68.3383 59.5125C68.3758 59.475 69.1633 60.15 70.2883 60.7875C71.3758 61.45 72.3133 61.8375 72.3133 61.9125Z" fill="#FAFAFA"/>
<path d="M66.7247 54.2252C66.7622 54.2627 66.0497 55.1252 65.1122 56.1502C64.1747 57.1627 63.4247 57.9627 63.3872 57.9252C63.3497 57.8877 64.0622 57.0252 64.9997 56.0002C65.9372 54.9752 66.6872 54.1877 66.7247 54.2252Z" fill="#FAFAFA"/>
<path d="M66.2745 47.3749C66.237 47.4124 65.412 47.0749 64.512 46.3999C63.612 45.7249 63.062 44.9999 63.0995 44.9999C63.137 44.9624 63.7745 45.5999 64.637 46.2374C65.5245 46.8874 66.2745 47.3374 66.2745 47.3749Z" fill="#FAFAFA"/>
<path d="M62.7991 48.8125C62.8366 48.85 62.4991 49.3375 62.0116 49.9C61.5241 50.4625 61.1116 50.9125 61.0741 50.875C61.0366 50.8375 61.3741 50.35 61.8616 49.7875C62.3116 49.225 62.7241 48.775 62.7991 48.8125Z" fill="#FAFAFA"/>
<path d="M70.2875 36.0877C70.325 36.1252 69.6875 36.9877 68.825 38.0502C67.9625 39.1002 67.25 39.9002 67.2125 39.9002C67.175 39.8627 67.8125 39.0002 68.675 37.9377C69.5 36.8752 70.25 36.0502 70.2875 36.0877Z" fill="#FAFAFA"/>
<path d="M63.8499 37.5124C63.8124 37.5499 63.0999 36.7999 62.2374 35.8124C61.4124 34.8374 60.7374 34.0374 60.7749 33.9999C60.8124 33.9624 61.5249 34.7124 62.3874 35.6999C63.2499 36.6874 63.8874 37.4749 63.8499 37.5124Z" fill="#FAFAFA"/>
<path d="M67.0619 29.35C67.0244 29.3875 66.4994 28.5625 65.9369 27.575C65.3744 26.5625 64.9244 25.725 64.9994 25.6875C65.0369 25.65 65.5619 26.475 66.1244 27.4625C66.6869 28.475 67.0994 29.35 67.0619 29.35Z" fill="#FAFAFA"/>
<path d="M66.9119 24.0753C66.8744 24.0378 67.4369 23.3253 67.8869 22.3003C68.3369 21.2753 68.4869 20.3753 68.5619 20.4128C68.5994 20.4128 68.5244 21.3503 68.0744 22.3753C67.5869 23.4378 66.9119 24.1128 66.9119 24.0753Z" fill="#FAFAFA"/>
<path d="M60.7005 23.7751C60.663 23.7751 60.588 22.6876 61.1505 21.4751C61.413 20.8751 61.788 20.3876 62.0505 20.0876C62.3505 19.7876 62.538 19.6001 62.5755 19.6376C62.613 19.6751 61.8255 20.3876 61.3005 21.5626C60.813 22.7251 60.7755 23.7751 60.7005 23.7751Z" fill="#FAFAFA"/>
<path d="M114.738 14.8124C114.626 13.2374 114.513 11.6874 114.663 10.1124C114.851 8.5749 115.376 6.9874 116.388 5.8249C117.401 4.6249 118.976 3.8624 120.551 4.0499C121.526 4.1624 122.426 4.6499 123.363 4.6124C124.488 4.5749 125.463 3.8999 126.476 3.4124C128.051 2.6999 129.888 2.5124 131.576 2.8874C132.476 3.0749 133.338 3.4499 134.013 4.1249C134.651 4.7624 135.026 5.7374 134.801 6.6499C135.926 6.6499 137.088 6.6499 138.176 6.9499C139.263 7.2499 140.313 7.8499 140.876 8.8374C141.438 9.8124 141.401 11.1749 140.613 11.9624C141.663 11.7374 142.751 12.5624 143.013 13.5749C143.276 14.6249 142.751 15.7624 141.888 16.3624C141.026 16.9999 139.413 17.2624 138.401 17.0749C137.351 16.8874 136.151 16.5874 135.326 15.9499" fill="#263238"/>
<path d="M113.912 50.2751C118.225 51.4001 122.612 48.8126 123.737 44.4751C124.375 42.0626 124.9 40.0376 124.9 40.0376C124.9 40.0376 131.162 41.1251 133.225 35.1501C135.287 29.2001 138.85 15.1251 138.85 15.1251C132.95 9.81264 124.625 8.15014 117.175 10.7501L116.05 11.1251L108.1 40.2251C106.937 44.6251 109.562 49.1501 113.912 50.2751Z" fill="#B65B52"/>
<path d="M124.963 39.9626C124.963 39.9626 121.1 38.9876 117.95 35.1501C117.95 35.1501 118.363 40.0751 124.475 41.5501L124.963 39.9626Z" fill="#994840"/>
<path d="M114.775 17.5999C114.7 17.5249 111.1 14.9999 109.862 19.1374C108.625 23.2749 113.012 23.6499 113.05 23.5374C113.087 23.3999 114.775 17.5999 114.775 17.5999Z" fill="#B65B52"/>
<path d="M112.262 21.5876C112.262 21.5876 112.187 21.6251 112.037 21.6251C111.887 21.6251 111.7 21.6251 111.512 21.4751C111.137 21.1751 110.95 20.3876 111.175 19.6251C111.287 19.2501 111.475 18.9126 111.7 18.6501C111.925 18.3876 112.187 18.2376 112.412 18.2751C112.637 18.2751 112.75 18.4626 112.787 18.6126C112.825 18.7626 112.75 18.8001 112.787 18.8376C112.787 18.8376 112.9 18.8001 112.9 18.6126C112.9 18.5376 112.9 18.4251 112.825 18.3126C112.75 18.2001 112.6 18.1251 112.45 18.0876C112.112 18.0126 111.737 18.2376 111.512 18.5001C111.25 18.7626 111.025 19.1376 110.912 19.5876C110.687 20.4126 110.875 21.3251 111.437 21.7001C111.7 21.8501 111.962 21.8501 112.112 21.7751C112.225 21.6626 112.262 21.5876 112.262 21.5876Z" fill="#B65B52"/>
<path d="M133.813 23.7374C133.663 24.1874 133.175 24.4499 132.688 24.3374C132.2 24.1874 131.938 23.7374 132.05 23.2874C132.2 22.8374 132.688 22.5749 133.175 22.6874C133.7 22.8374 133.963 23.2874 133.813 23.7374Z" fill="#263238"/>
<path d="M134.938 23.175C134.788 23.25 134.3 22.575 133.4 22.2375C132.5 21.9375 131.675 22.1625 131.6 22.0125C131.563 21.9375 131.75 21.7875 132.125 21.675C132.5 21.5625 133.063 21.525 133.625 21.7125C134.188 21.9 134.6 22.275 134.825 22.575C134.975 22.9125 135.013 23.1375 134.938 23.175Z" fill="#263238"/>
<path d="M124.813 20.7249C124.663 21.1749 124.175 21.4374 123.688 21.3249C123.2 21.1749 122.938 20.7249 123.05 20.2749C123.2 19.8249 123.688 19.5624 124.175 19.6749C124.7 19.7874 124.963 20.2749 124.813 20.7249Z" fill="#263238"/>
<path d="M125.9 20.3125C125.75 20.3875 125.262 19.7125 124.362 19.375C123.462 19.075 122.637 19.3 122.562 19.15C122.525 19.075 122.712 18.925 123.087 18.8125C123.462 18.7 124.025 18.6625 124.587 18.85C125.15 19.0375 125.562 19.4125 125.787 19.7125C125.937 20.05 125.937 20.275 125.9 20.3125Z" fill="#263238"/>
<path d="M124.025 27.9876C124.175 28.0251 123.838 29.0376 124.475 30.0251C125.075 31.0001 126.2 31.2626 126.163 31.4126C126.163 31.4876 125.863 31.5251 125.413 31.3751C124.963 31.2251 124.363 30.8876 123.988 30.2876C123.613 29.6876 123.575 29.0126 123.688 28.5876C123.763 28.1376 123.95 27.9501 124.025 27.9876Z" fill="#263238"/>
<path d="M135.125 21.4375C134.9 21.5875 134.337 21.175 133.587 20.9125C132.837 20.6125 132.125 20.575 132.05 20.3125C132.012 20.2 132.2 20.0125 132.537 19.9C132.875 19.7875 133.4 19.7875 133.925 19.975C134.45 20.1625 134.825 20.5 135.012 20.8C135.237 21.1 135.237 21.3625 135.125 21.4375Z" fill="#263238"/>
<path d="M125.788 16.5875C125.638 16.6625 125.413 16.55 125.151 16.3625C124.851 16.2125 124.513 15.9875 124.063 15.8375C123.613 15.6875 123.238 15.575 122.901 15.5375C122.563 15.4625 122.338 15.425 122.263 15.275C122.226 15.125 122.376 14.9 122.788 14.75C123.201 14.6 123.801 14.5625 124.438 14.7875C125.076 15.0125 125.526 15.4625 125.713 15.8375C125.938 16.25 125.938 16.5125 125.788 16.5875Z" fill="#263238"/>
<path d="M138.563 17.0751C138.563 17.0751 134.138 17.0751 130.025 13.6876C127.325 11.4626 123.95 9.9251 123.05 10.3751C122.113 10.8251 121.25 13.9126 118.025 14.1376C118.025 14.1376 116.863 20.1626 114.538 19.4126C112.213 18.6626 115.775 9.7001 115.775 9.7001L122.263 8.1626L128.9 8.3876L134.863 9.7376L140 12.7126L138.563 17.0751Z" fill="#263238"/>
<path d="M105.7 96.6126L109.788 110.5L141.525 100.825C148.35 98.7501 152.138 91.4126 149.925 84.6001L142.125 60.2876L125.225 64.5001L134.525 87.0126L105.7 96.6126Z" fill="#BE1527"/>
<path d="M142.25 100.563C142.25 100.563 142.212 100.6 142.1 100.6C141.987 100.638 141.837 100.675 141.65 100.75C141.237 100.863 140.637 101.05 139.887 101.313C138.312 101.8 136.062 102.475 133.212 103.35C127.512 105.088 119.462 107.525 110.087 110.388L110.012 110.425L109.975 110.35C108.55 106.1 107.2 101.425 105.587 96.6501L105.55 96.5751L105.625 96.5376C105.887 96.4626 106.15 96.3501 106.412 96.2751C116.975 92.7376 126.762 89.5001 134.45 86.9376L134.412 87.0501C132.162 81.5876 130.325 77.1126 129.05 73.9876C128.412 72.4501 127.925 71.2376 127.587 70.3751C127.437 69.9626 127.287 69.6626 127.212 69.4376C127.137 69.2126 127.1 69.1001 127.1 69.1001C127.1 69.1001 127.137 69.2126 127.25 69.4001C127.325 69.6251 127.475 69.9251 127.662 70.3376C128 71.1626 128.525 72.3751 129.162 73.9126C130.437 77.0376 132.312 81.4751 134.562 86.9376L134.6 87.0126L134.525 87.0501C126.837 89.6126 117.1 92.8876 106.525 96.4251C106.262 96.5001 105.962 96.6126 105.737 96.6876L105.812 96.5751C107.387 101.35 108.775 106.063 110.162 110.275L110.05 110.2C119.425 107.375 127.475 104.963 133.175 103.238C136.025 102.375 138.312 101.7 139.85 101.238C140.637 101.013 141.237 100.825 141.65 100.713C141.837 100.638 141.987 100.6 142.1 100.6C142.212 100.563 142.25 100.563 142.25 100.563Z" fill="#263238"/>
<path d="M140.412 91.0002C140.375 91.0002 140.187 90.6627 139.737 90.1377C139.325 89.6127 138.65 88.9377 137.787 88.3627C136.925 87.8002 136.062 87.4627 135.387 87.2752C134.75 87.0877 134.3 87.0502 134.337 87.0127C134.337 87.0127 134.45 87.0127 134.637 87.0127C134.825 87.0127 135.087 87.0877 135.425 87.1627C136.1 87.3127 137 87.6502 137.9 88.2502C138.762 88.8502 139.437 89.5252 139.85 90.1002C140.037 90.3627 140.187 90.6252 140.3 90.7752C140.375 90.9252 140.412 91.0002 140.412 91.0002Z" fill="#263238"/>
<path d="M132.688 65.6375C132.65 65.6375 132.575 64.7375 132.575 63.5625C132.575 62.4375 132.613 61.4875 132.688 61.4875C132.725 61.4875 132.8 62.3875 132.8 63.5625C132.8 64.725 132.763 65.6375 132.688 65.6375Z" fill="#FAFAFA"/>
<path d="M139.063 65.9751C139.025 65.9751 138.688 65.1126 138.388 64.0126C138.05 62.9251 137.825 61.9751 137.9 61.9751C137.938 61.9751 138.275 62.8376 138.575 63.9376C138.913 65.0376 139.138 65.9751 139.063 65.9751Z" fill="#FAFAFA"/>
<path d="M135.126 71.7376C135.126 71.7751 134.226 71.7751 133.213 71.4376C132.163 71.1376 131.413 70.6876 131.451 70.6501C131.488 70.6126 132.276 70.9501 133.288 71.2501C134.263 71.5751 135.126 71.7001 135.126 71.7376Z" fill="#FAFAFA"/>
<path d="M142.325 74.925C142.287 74.925 142.362 74.025 142.55 72.9625C142.737 71.875 142.925 71 143 71.0375C143.037 71.0375 142.962 71.9375 142.775 73C142.587 74.0625 142.4 74.925 142.325 74.925Z" fill="#FAFAFA"/>
<path d="M139.737 80.1251C139.7 80.1626 139.287 79.3376 138.8 78.3126C138.35 77.3001 138.012 76.4251 138.05 76.4251C138.087 76.3876 138.5 77.2126 138.987 78.2376C139.475 79.2626 139.812 80.0876 139.737 80.1251Z" fill="#FAFAFA"/>
<path d="M138.688 84.6376C138.65 84.6751 137.863 84.3376 136.925 83.8876C135.95 83.4376 135.2 83.0251 135.238 82.9501C135.275 82.9126 136.063 83.2501 137 83.7001C137.975 84.1876 138.725 84.6001 138.688 84.6376Z" fill="#FAFAFA"/>
<path d="M146.826 83.4375C146.863 83.475 146.526 84.225 146.113 85.175C145.701 86.125 145.401 86.9125 145.363 86.8625C145.326 86.8625 145.513 86.0375 145.926 85.0875C146.338 84.15 146.751 83.4375 146.826 83.4375Z" fill="#FAFAFA"/>
<path d="M144.538 94.3876C144.5 94.3876 144.35 93.4501 144.238 92.2751C144.125 91.1126 144.088 90.1626 144.125 90.1626C144.163 90.1626 144.313 91.1001 144.425 92.2751C144.575 93.4126 144.613 94.3501 144.538 94.3876Z" fill="#FAFAFA"/>
<path d="M138.837 97.8126C138.8 97.8501 138.125 97.2876 137.337 96.5751C136.55 95.8626 135.95 95.2251 135.987 95.1876C136.025 95.1501 136.7 95.7126 137.487 96.4251C138.237 97.1751 138.875 97.7751 138.837 97.8126Z" fill="#FAFAFA"/>
<path d="M128.938 98.8376C128.975 98.8751 128.45 99.6251 127.775 100.575C127.1 101.513 126.5 102.238 126.463 102.2C126.425 102.163 126.95 101.413 127.625 100.463C128.3 99.5126 128.9 98.8001 128.938 98.8376Z" fill="#FAFAFA"/>
<path d="M132.05 94.1627C132.013 94.2002 131.3 93.6376 130.513 92.8126C129.763 91.9876 129.238 91.2376 129.313 91.2001C129.35 91.1626 129.913 91.8752 130.663 92.7002C131.45 93.5252 132.088 94.1252 132.05 94.1627Z" fill="#FAFAFA"/>
<path d="M124.587 95.2248C124.587 95.2623 123.949 95.4873 123.087 95.4123C122.224 95.3373 121.624 95.0748 121.624 94.9998C121.662 94.9623 122.262 95.1498 123.087 95.1873C123.912 95.2623 124.587 95.1873 124.587 95.2248Z" fill="#FAFAFA"/>
<path d="M119.875 103.462C119.837 103.462 119.65 102.75 119.5 101.837C119.35 100.937 119.275 100.188 119.312 100.188C119.35 100.188 119.537 100.9 119.687 101.8C119.837 102.713 119.95 103.462 119.875 103.462Z" fill="#FAFAFA"/>
<path d="M114.287 106.287C114.25 106.325 113.425 105.837 112.412 105.2C111.4 104.562 110.612 104 110.612 103.962C110.65 103.925 111.475 104.412 112.487 105.05C113.537 105.687 114.325 106.25 114.287 106.287Z" fill="#FAFAFA"/>
<path d="M116.313 96.2749C116.35 96.3124 115.825 96.9499 115.188 97.8124C114.588 98.6374 114.138 99.3874 114.1 99.3499C114.063 99.3124 114.438 98.5624 115.038 97.6874C115.638 96.8374 116.275 96.2374 116.313 96.2749Z" fill="#FAFAFA"/>
<path d="M111.963 98.2C111.925 98.2375 111.438 98.05 110.875 97.75C110.275 97.45 109.825 97.1875 109.863 97.15C109.9 97.1125 110.388 97.3 110.95 97.6C111.55 97.85 112 98.125 111.963 98.2Z" fill="#FAFAFA"/>
<g opacity="0.2">
<g opacity="0.2">
<path opacity="0.2" d="M134.263 86.4128C135.95 86.6003 137.675 86.7503 139.363 86.9753C139.963 87.0503 140.525 87.1253 141.088 87.3503C141.613 87.5753 142.138 87.9878 142.325 88.5503C142.513 89.1128 142.363 89.8253 141.838 90.1253C141.388 90.4253 140.788 90.3128 140.3 90.0503C139.813 89.7878 139.438 89.4128 139.025 89.0378C138.275 88.4003 137.375 87.9503 136.438 87.6878C136.025 87.5753 135.575 87.5003 135.2 87.2378C134.825 87.0128 134.563 86.5628 134.675 86.1128" fill="black"/>
</g>
</g>
<path d="M127.25 28.8873C127.625 28.8498 128.012 28.8498 128.387 28.9123C128.562 28.9123 128.737 28.9123 128.787 28.8123C128.837 28.6373 128.837 28.4498 128.787 28.2748C128.712 27.8373 128.625 27.3498 128.537 26.8498C128.2 24.8373 128 23.1998 128.075 23.1873C128.15 23.1748 128.512 24.7998 128.825 26.8123C128.9 27.3123 128.987 27.7748 129.05 28.2373C129.112 28.4623 129.1 28.7123 129 28.9373C128.962 28.9873 128.912 29.0373 128.862 29.0748C128.8 29.1123 128.737 29.1248 128.675 29.1373C128.575 29.1498 128.475 29.1498 128.375 29.1373C127.987 29.0873 127.612 29.0123 127.25 28.8873Z" fill="#263238"/>
<path d="M103.029 0H-148.689V125.039H103.029V0Z" fill="#E9ECF2"/>
<path d="M105.963 109.112L110.313 107L107.913 99.8874L102.663 98.6874C102.176 98.5749 101.613 98.4624 101.013 98.2749C100.301 98.0874 99.6256 97.7499 99.0256 97.3374C98.2756 96.8124 97.3381 96.0999 96.9256 95.5624C96.4381 94.8874 95.3506 95.1499 95.3881 95.8999C95.3881 96.6499 96.7006 98.5749 99.1006 99.9249C101.463 101.275 97.3006 101.925 95.7631 102.187C94.2631 102.45 89.5756 103.5 89.3131 104.037C88.9006 104.825 89.6881 105.387 91.1881 105.087C92.7256 104.787 97.3006 104.225 97.4131 105.012C97.4131 105.012 97.4131 105.012 97.4131 105.05C96.6631 106.212 96.7381 107.8 97.6006 108.887C98.4631 109.937 99.7006 111.3 100.638 111.075C102.413 110.65 105.963 109.112 105.963 109.112Z" fill="#B65B52"/>
</g>
<defs>
<clipPath id="clip0_15_362">
<rect width="150.562" height="125" fill="white"/>
</clipPath>
<clipPath id="clip1_15_362">
<rect width="23.5615" height="4.20349" fill="white" transform="translate(100.564 61.3489) rotate(24.6157)"/>
</clipPath>
</defs>
</svg>
