<svg width="153" height="204" viewBox="0 0 153 204" fill="none" xmlns="http://www.w3.org/2000/svg">
<g clip-path="url(#clip0_14_1061)">
<path d="M136.412 106.593C136.412 106.593 123.365 156.684 105.8 166.088C94.2385 172.295 84.0209 164.887 77.182 153.183L52.452 112.984C51.129 108.222 53.714 103.276 58.3343 101.668L78.9731 94.4012L99.5305 131.364L125.828 99.103" fill="#F6B493"/>
<path d="M65.8651 74.882C80.0517 78.8713 80.6827 85.3642 87.7862 96.8438L98.9808 117.401L80.3367 129.39L76.9173 137.124L75.0854 203.539L0 203.172L13.4743 149.377L8.10084 114.063C7.61234 108.486 6.00439 98.0854 7.71411 92.712C13.0468 75.92 32.9122 74.1289 45.1245 71.5846C47.6484 71.0554 50.0909 71.8696 52.1262 72.5006" fill="#021442"/>
<path d="M76.7342 140.503C76.6731 139.933 76.6527 139.383 76.6935 138.813C76.6935 137.633 76.6934 136.045 76.7545 134.152V134.112C77.6908 132.422 78.5049 130.672 79.197 128.881C80.0722 126.744 80.2757 124.403 79.8279 122.144C79.2173 119.599 77.8333 117.462 76.897 115.345C76.0421 113.452 75.4926 111.458 75.2076 109.402C75.0244 108.038 75.0041 106.634 75.1059 105.27C75.1059 104.782 75.2076 104.415 75.2483 104.151C75.2483 104.008 75.289 103.886 75.3501 103.764C75.3908 104.273 75.3908 104.782 75.3501 105.27C75.3094 106.634 75.3908 107.998 75.6147 109.341C75.92 111.336 76.5103 113.29 77.3651 115.121C78.2811 117.198 79.7262 119.375 80.3571 122.001C80.8456 124.362 80.6014 126.805 79.6855 129.023C78.9731 130.835 78.1386 132.585 77.1616 134.274V134.193C77.0598 136.086 76.9988 137.674 76.9377 138.854C76.897 139.383 76.8563 139.953 76.7342 140.503Z" fill="#E30B22"/>
<path d="M66.4553 72.5412C66.5164 72.7041 66.5571 72.8669 66.5774 73.0501C66.6792 73.5386 66.7199 74.0474 66.7403 74.5563C66.8013 76.4288 66.496 78.3014 65.8243 80.0314C64.8474 82.6367 63.1376 84.896 60.9191 86.565C58.1306 88.5597 54.7315 89.4756 51.3324 89.1093C49.582 88.9261 47.8722 88.4579 46.2846 87.7252C44.8191 87.0332 43.4554 86.0765 42.2749 84.9571C40.3006 83.0235 38.7944 80.6624 37.8785 78.0368C37.2475 76.2863 36.9015 74.4545 36.8201 72.5819C36.7794 72.0731 36.7794 71.5642 36.8201 71.0757C36.8201 70.8926 36.8201 70.7297 36.8608 70.5669C36.9219 70.5669 36.8608 71.2793 36.9829 72.5819C37.1254 74.4138 37.5325 76.2049 38.1634 77.9146C39.0997 80.4589 40.6059 82.7589 42.5599 84.6314C43.72 85.7305 45.0227 86.6261 46.4678 87.2978C48.0147 88.0102 49.6634 88.4579 51.3527 88.6208C54.6297 88.9871 57.9067 88.1323 60.6137 86.2394C64.2978 83.5323 66.4757 79.1969 66.496 74.597C66.5571 73.274 66.3942 72.5616 66.4553 72.5412Z" fill="#24263B"/>
<path d="M95.5818 111.173C94.8898 111.702 94.1367 112.17 93.3632 112.557C91.9792 113.412 90.0456 114.491 87.9288 115.773C85.8323 117.055 83.9394 118.256 82.5757 119.111C81.8633 119.62 81.1102 120.067 80.3164 120.434C80.9474 119.823 81.6394 119.294 82.3925 118.806C83.6951 117.869 85.5677 116.607 87.6845 115.325C89.8013 114.043 91.7553 112.964 93.2004 112.231C93.9535 111.824 94.7473 111.458 95.5818 111.173Z" fill="#24263B"/>
<path d="M10.2583 112.069C10.2583 112.069 10.299 112.231 10.4008 112.516L10.7468 113.839L12.0698 118.928C13.1893 123.345 14.7972 129.634 16.7308 137.267L16.4866 137.124L51.2306 126.194L52.0651 125.889L51.9023 126.174C50.2333 118.338 47.9537 110.623 45.0634 103.154C42.3767 96.2943 39.2829 90.351 35.8024 86.0563C34.2555 84.1023 32.4033 82.413 30.3069 81.09C28.7396 80.0723 26.9485 79.421 25.0963 79.2378C24.7503 79.1767 24.3839 79.136 24.0175 79.136L23.0609 79.1971C22.7759 79.1971 22.491 79.1971 22.2264 79.2581L21.5751 79.3803L20.6591 79.5634C20.5574 79.5838 20.4556 79.6041 20.3538 79.6245C20.4556 79.5838 20.5574 79.5431 20.6388 79.5227L21.5343 79.2988L22.206 79.136C22.4503 79.0749 22.7352 79.0749 23.0405 79.0546L24.0175 78.9935C24.3839 78.9935 24.7503 79.0139 25.1166 79.0546C27.0095 79.2174 28.8414 79.8484 30.4493 80.8661C32.5661 82.1891 34.459 83.8785 36.0466 85.8324C39.6493 90.1271 42.7838 96.1111 45.4908 102.991C48.4015 110.481 50.7014 118.215 52.3908 126.092V126.296L52.1873 126.357L51.3528 126.662C38.3263 130.835 26.2768 134.499 16.568 137.531L16.3645 137.592L16.3238 137.389C14.4512 129.756 12.9043 123.426 11.8255 118.989C11.2963 116.811 10.9096 115.101 10.6043 113.9L10.299 112.557C10.2583 112.374 10.2583 112.231 10.2583 112.069Z" fill="#E30B22"/>
<path d="M50.8848 121.391C50.8848 121.533 42.9061 123.853 32.9734 126.621C23.0408 129.39 15.001 131.506 15.001 131.384C15.001 131.262 22.9797 128.921 32.892 126.153C42.8044 123.385 50.8441 121.268 50.8848 121.391Z" fill="#E30B22"/>
<path d="M47.8315 12.7009C45.5315 7.67345 39.2218 5.3124 33.8891 6.6354C28.5564 7.95841 24.3635 12.3548 22.1042 17.4026C19.8653 22.43 19.2547 28.1087 19.214 33.645C19.214 36.5759 19.3361 39.5476 18.7458 42.3971C18.1556 45.267 16.7511 48.0962 14.3087 49.7042C12.3954 50.9661 10.0344 51.3325 7.97862 52.3298C5.92288 53.3272 4.02997 55.4643 4.53881 57.7236C5.14943 60.4103 8.48746 61.2245 11.2149 61.5094C11.3574 66.374 15.3671 70.2209 20.1909 70.0784C22.1856 70.0173 24.0785 69.2846 25.6051 67.982C24.7706 71.3811 27.7422 74.8819 31.1617 75.289C34.5811 75.6961 37.8988 73.5386 39.7917 70.628C41.6846 67.7174 42.2342 64.1351 42.3766 60.6749C42.5191 57.1944 42.2749 53.6935 42.6209 50.2944" fill="#7C5142"/>
<path d="M86.6058 19.0309C86.6058 19.0309 89.1297 1.97439 65.8449 1.64873C39.8123 1.30272 35.1106 23.7327 39.5681 35.5379L52.5131 22.5929L86.6058 19.0309Z" fill="#7C5142"/>
<path d="M66.1705 74.882C66.4351 70.3431 66.6183 66.6387 66.6183 66.6387C66.6183 66.6387 79.9501 66.944 81.9041 55.3016C83.858 43.6388 86.1173 16.4867 86.1173 16.4867C74.2103 8.71157 58.8228 8.97617 47.1804 17.1177L46.0813 17.8912L37.6548 71.8086C36.4132 79.6855 41.6848 87.074 49.4803 88.3766C57.2962 89.6793 64.6847 84.3262 65.967 76.4492C66.0891 75.92 66.1502 75.4112 66.1705 74.882Z" fill="#FFBE9D"/>
<path d="M81.3745 37.1662C81.2524 37.9804 80.4993 38.5299 79.7055 38.3874C78.9117 38.2653 78.3622 37.5122 78.4843 36.6981C78.6064 35.9246 79.3188 35.3751 80.0922 35.4565C80.9064 35.5582 81.4763 36.291 81.3949 37.1255C81.3745 37.1458 81.3745 37.1662 81.3745 37.1662Z" fill="#263238"/>
<path d="M82.4533 35.7617C82.2498 35.9448 81.2728 34.9068 79.7259 34.6218C78.179 34.3165 76.9171 35.0086 76.7746 34.7847C76.6321 34.5608 76.9374 34.3369 77.487 34.0316C78.2197 33.6448 79.0542 33.5227 79.8684 33.6652C80.6826 33.8077 81.4356 34.2148 82.0056 34.8254C82.433 35.2935 82.5551 35.7006 82.4533 35.7617Z" fill="#263238"/>
<path d="M65.743 35.66C65.7226 36.4741 65.0509 37.1255 64.2368 37.1051C63.4226 37.0848 62.7916 36.3927 62.812 35.5786C62.812 35.4972 62.812 35.4361 62.8324 35.3547C62.8527 34.5405 63.5244 33.8892 64.3385 33.9299C65.1527 33.9503 65.7837 34.6423 65.7633 35.4565C65.7633 35.5175 65.7633 35.5786 65.743 35.66Z" fill="#263238"/>
<path d="M66.5166 34.337C66.3131 34.5202 65.3361 33.4414 63.7892 33.1972C62.2423 32.9529 60.9803 33.5839 60.8379 33.36C60.7768 33.2582 61.0007 32.9122 61.5706 32.6069C62.3033 32.2202 63.1379 32.098 63.952 32.2405C64.7662 32.383 65.5193 32.7901 66.0892 33.4007C66.5166 33.8688 66.6184 34.2556 66.5166 34.337Z" fill="#263238"/>
<path d="M68.5312 46.4678C69.4065 46.4271 70.2613 46.4678 71.1162 46.651C71.5233 46.7121 71.91 46.7324 72.0321 46.4475C72.1542 46.02 72.1542 45.5723 72.0321 45.1245C71.91 44.005 71.7879 42.8245 71.6454 41.6033C71.1569 36.5962 70.8923 32.5254 71.0755 32.5051C71.2587 32.4847 71.8082 36.5148 72.3171 41.5218C72.4188 42.7431 72.541 43.9236 72.6427 45.0431C72.7649 45.613 72.6834 46.2236 72.4392 46.7324C72.256 46.997 71.9711 47.1599 71.6657 47.1802C71.4419 47.1802 71.218 47.1599 70.9941 47.0988C70.1392 47.0377 69.3251 46.8138 68.5312 46.4678Z" fill="#263238"/>
<path d="M66.6588 66.6385C61.2853 65.804 56.2579 63.4022 52.2075 59.7385C52.2075 59.7385 55.0367 69.0199 66.4552 69.773L66.6588 66.6385Z" fill="#EB996E"/>
<path d="M67.0051 51.1087C66.9441 50.091 66.3741 49.1547 65.4786 48.6255C64.868 48.2592 64.1352 48.1777 63.4635 48.4016C62.7919 48.6662 62.3441 49.2972 62.3237 50.0096C62.4255 50.8034 62.9751 51.4751 63.7485 51.699C64.5219 51.9025 65.2954 51.9636 66.0892 51.8414C66.3131 51.8414 66.5166 51.7804 66.7202 51.699C66.9237 51.5972 67.0458 51.3936 67.0458 51.1698" fill="#EB996E"/>
<path d="M63.6056 46.8547C63.5039 46.8547 63.2393 47.2415 63.1986 48.0149C63.1375 50.1317 64.6437 51.9839 66.6994 52.3299C67.4729 52.4317 67.9207 52.2689 67.9207 52.1467C67.9207 51.8821 66.1295 51.7804 64.8676 50.2538C63.6056 48.7069 63.8499 46.8954 63.6056 46.8547Z" fill="#263238"/>
<path d="M44.4529 33.0954C44.2697 32.9732 37.8176 30.1644 35.9857 37.8175C34.1335 45.4909 42.9671 44.6971 43.0281 44.4732C43.0892 44.2696 44.4529 33.0954 44.4529 33.0954Z" fill="#FFBE9D"/>
<path d="M41.2167 41.2776C41.2167 41.2776 41.0539 41.3387 40.7893 41.3794C40.4229 41.4405 40.0566 41.3794 39.7309 41.1759C38.9371 40.6874 38.53 39.2626 38.815 37.8582C38.9575 37.1865 39.2424 36.5759 39.6495 36.0263C39.9344 35.5582 40.4229 35.2529 40.9521 35.2325C41.2982 35.2122 41.6035 35.4361 41.7052 35.7821C41.7663 36.0263 41.7052 36.1688 41.7052 36.1892C41.7052 36.2095 41.9088 36.0874 41.9291 35.7617C41.9291 35.5582 41.8477 35.375 41.7256 35.2122C41.5424 35.0086 41.2778 34.8662 40.9928 34.8458C40.3008 34.8255 39.6291 35.1308 39.2221 35.7007C38.7336 36.2706 38.3672 36.983 38.2044 37.7361C37.8787 39.3033 38.3672 40.9113 39.4663 41.4812C39.8937 41.6847 40.3822 41.7254 40.8097 41.5626C41.1557 41.4608 41.2371 41.298 41.2167 41.2776Z" fill="#EB996E"/>
<path d="M83.4917 11.1133C86.2395 13.1079 87.4404 16.6495 86.4634 19.9265C85.3236 23.5902 81.9245 27.5592 72.5006 27.437L74.6378 25.0353C70.3431 28.353 64.7051 29.33 59.5352 27.7016L62.1812 22.5318C62.1812 22.5318 50.2539 35.2733 43.5981 35.8228L44.4327 22.2468C46.0406 9.42388 51.4954 5.577 59.7184 4.88497C62.7918 4.60001 65.8653 4.66108 68.9184 5.0478C74.2104 5.80089 79.2174 7.87699 83.4917 11.1133Z" fill="#7C5142"/>
<path d="M36.8812 0.00012207C37.5122 0.162953 38.1024 0.407199 38.6316 0.773569C41.3387 2.36117 43.4962 4.76293 44.7785 7.65318C45.0838 8.22308 45.267 8.85405 45.3688 9.50538C45.2467 9.56644 44.29 6.7169 41.8883 4.0709C39.4662 1.40454 36.7998 0.162953 36.8812 0.00012207Z" fill="#7C5142"/>
<path d="M12.8842 43.4556C12.8842 43.4556 12.7214 43.2927 12.355 43.0485C11.8258 42.7432 11.1948 42.5803 10.5842 42.6007C9.60724 42.621 8.69132 43.0892 8.06035 43.8423C7.30726 44.921 7.14443 46.3051 7.65327 47.5263C8.26389 48.9918 9.60724 50.0299 11.1541 50.2334C12.9453 50.5183 14.7975 49.9688 16.1612 48.7476C17.7081 47.4449 18.7868 45.6538 19.1939 43.6591C19.4178 42.621 19.4178 41.5423 19.1939 40.5042C18.9497 39.4255 18.5629 38.3874 18.0745 37.3901C17.6063 36.3724 17.0975 35.3547 16.7107 34.2963C16.324 33.2583 16.0798 32.1592 15.9577 31.06C15.7745 28.9636 16.0187 26.8468 16.67 24.8521C17.7895 21.4734 19.7638 18.461 22.3691 16.0796C24.0788 14.4513 25.9514 13.0062 27.9257 11.7239C28.6178 11.2761 29.1877 10.9301 29.554 10.7062C29.7372 10.5841 29.9408 10.4823 30.1443 10.4009C29.9815 10.5637 29.7983 10.6858 29.6151 10.808L28.0478 11.8867C26.1142 13.2097 24.3027 14.6752 22.593 16.3035C20.0691 18.6849 18.1762 21.6769 17.0771 24.9742C16.4665 26.9282 16.2426 28.9636 16.4054 30.999C16.5276 32.0777 16.7718 33.1158 17.1382 34.1335C17.5249 35.1512 18.0337 36.1485 18.5019 37.2069C19.0107 38.2246 19.3975 39.3034 19.6621 40.4228C19.9063 41.5219 19.9063 42.6821 19.6621 43.7812C19.2143 45.8777 18.0745 47.7502 16.4258 49.1139C14.9603 50.3962 13.0063 50.9661 11.0727 50.6608C9.363 50.4166 7.91787 49.2768 7.30726 47.6484C6.77806 46.2847 6.9816 44.7786 7.8161 43.6184C8.50814 42.8042 9.50548 42.3361 10.5639 42.3564C11.2152 42.3564 11.8665 42.5396 12.3957 42.9263C12.5993 43.0688 12.7621 43.252 12.8842 43.4556Z" fill="#7C5142"/>
<path d="M43.3741 17.83C43.1095 17.3619 42.9467 16.853 42.906 16.3238C42.7024 15.0619 42.7635 13.7593 43.0485 12.538C43.3334 11.2964 43.8626 10.1159 44.5954 9.07787C45.1653 8.28407 45.6334 7.89734 45.6741 7.95841C45.7148 7.99911 44.1476 9.83096 43.5166 12.6601C42.8856 15.469 43.537 17.8097 43.3741 17.83Z" fill="#263238"/>
<path d="M36.4334 42.621C35.9856 43.0077 35.6396 43.5165 35.4157 44.0661C35.2325 44.6564 35.2732 45.2873 35.5581 45.8572C35.9449 46.5086 36.6369 46.936 37.39 46.9971C38.1431 47.1192 38.8962 46.8953 39.4661 46.3864C39.9139 45.9387 40.1378 45.3484 40.1378 44.7378C40.1174 44.1272 39.9342 43.5572 39.6086 43.0484C39.6086 43.0484 39.7917 43.1095 39.9953 43.3741C40.2802 43.7608 40.4634 44.2086 40.4838 44.6971C40.5245 45.4298 40.2802 46.1625 39.7714 46.6917C39.1201 47.3227 38.2041 47.6077 37.3086 47.4652C36.4334 47.3838 35.6396 46.8749 35.1714 46.1218C34.8458 45.4502 34.8254 44.6971 35.09 44.005C35.2528 43.5573 35.5378 43.1705 35.9245 42.8856C36.2298 42.6617 36.413 42.621 36.4334 42.621Z" fill="#455A64"/>
<path d="M88.5391 22.939C88.4374 22.939 88.8241 21.6363 88.8241 19.5399C88.8851 13.9018 85.8117 8.6709 80.8861 6.00455C79.0339 4.98685 77.7312 4.7019 77.7719 4.62048C78.0772 4.62048 78.4029 4.68154 78.6878 4.78331C79.502 5.00721 80.2958 5.31251 81.0489 5.69924C86.2391 8.28418 89.4143 13.7187 89.1701 19.5399C89.1294 20.3947 89.0276 21.2496 88.8241 22.0841C88.763 22.3894 88.6612 22.6744 88.5391 22.939Z" fill="#7C5142"/>
<path d="M67.2693 31.3451C67.2286 31.4061 66.903 31.1008 66.3127 30.7345C65.5596 30.2663 64.7251 29.9814 63.8499 29.8796C62.9747 29.7982 62.0994 29.9 61.2649 30.2053C60.6136 30.4292 60.2472 30.6734 60.2065 30.592C60.1658 30.5309 60.4915 30.2053 61.1225 29.8796C61.9773 29.4522 62.9339 29.269 63.8906 29.3708C64.8472 29.4725 65.7428 29.8389 66.4959 30.4292C67.0861 30.9177 67.31 31.3044 67.2693 31.3451Z" fill="#7C5142"/>
<path d="M82.1076 32.7902C81.1102 32.953 80.0925 32.953 79.0952 32.7902C78.0775 32.7902 77.0802 32.6274 76.1235 32.3221C77.1209 32.1592 78.1386 32.1592 79.1359 32.3221C80.1332 32.3017 81.1509 32.4646 82.1076 32.7902Z" fill="#7C5142"/>
<path d="M136.412 106.593C136.412 106.593 141.174 95.1544 134.722 96.396C124.83 98.2889 126.296 107.998 126.296 107.998L136.412 106.593Z" fill="#F6B493"/>
<path d="M145.591 55.2812C144.757 54.9759 143.881 54.8131 143.006 54.7724C148.38 58.8024 149.825 69.1625 146.08 79.6244C142.416 89.8217 134.987 96.7624 128.412 96.7217L127.883 96.5792C122.652 92.4677 121.268 82.2297 124.993 71.89C128.718 61.5502 136.35 54.4874 143.006 54.7724C142.334 54.2635 141.581 53.8564 140.788 53.5511C133.664 50.9458 124.403 58.375 120.21 70.1599C116.098 81.5988 118.235 92.9155 124.911 95.9482H124.769L111.6 129.919C111.01 131.425 111.743 133.114 113.249 133.705C114.755 134.295 116.424 133.562 116.994 132.056L130.285 97.9633C137.429 100.569 146.649 93.1394 150.883 81.3545C155.137 69.5493 152.735 57.9068 145.591 55.2812Z" fill="#24263B"/>
<path d="M139.648 85.9951C139.75 85.6288 139.872 85.2827 140.055 84.9571L141.276 82.2093C142.681 79.2173 143.759 76.0828 144.533 72.8669C145.266 69.651 145.266 66.3333 144.533 63.1174C144.167 61.7944 143.698 60.5121 143.128 59.2705C143.373 59.5555 143.576 59.8608 143.739 60.2068C144.207 61.1024 144.594 62.0386 144.859 63.0156C145.713 66.2722 145.754 69.6713 145.001 72.9483C144.228 76.1846 143.088 79.3191 141.602 82.2907C141.032 83.4305 140.564 84.3465 140.238 84.9571C140.075 85.3642 139.892 85.6898 139.648 85.9951Z" fill="#C9CBD1"/>
<path d="M138.264 88.7226C138.366 88.8244 137.958 89.3943 137.348 90.0049C136.737 90.6155 136.188 91.0226 136.086 90.9208C135.984 90.819 136.391 90.2491 137.002 89.6589C137.612 89.0686 138.182 88.6208 138.264 88.7226Z" fill="#C9CBD1"/>
<path d="M123.914 101.464C122.896 99.5101 121.716 96.8437 119.925 95.5818C118.134 94.3199 115.65 92.8747 113.534 94.7269C116.18 98.5331 118.643 102.482 120.881 106.553L123.914 101.464Z" fill="#F6B493"/>
<path d="M137.938 98.0243C137.938 98.0243 137.551 95.765 134.254 96.7624C130.977 97.7597 120.678 99.9172 122.673 102.136C124.667 104.334 128.168 103.357 128.168 103.357C128.168 103.357 122.449 104.599 122.998 105.82C123.548 107.021 124.504 109.117 126.927 107.815C129.349 106.512 136.106 104.293 136.106 104.293L137.938 98.0243Z" fill="#F6B493"/>
<path opacity="0.5" d="M137.572 103.072C137.572 103.072 137.572 102.848 137.572 102.502C137.551 102.034 137.246 101.607 136.798 101.444C136.065 101.362 135.333 101.464 134.661 101.769L131.934 102.502C129.98 103.011 128.229 103.459 126.927 103.744C126.255 103.947 125.542 104.069 124.83 104.13C125.481 103.825 126.153 103.581 126.845 103.418C128.107 103.031 129.857 102.563 131.811 102.034L134.559 101.322C135.312 101.016 136.147 100.935 136.941 101.098C137.49 101.322 137.836 101.891 137.775 102.482C137.734 102.889 137.572 103.092 137.572 103.072Z" fill="#263238" fill-opacity="0.3"/>
<path d="M49.8059 127.11L59.7386 145.693L109.036 120.637C109.036 120.637 116.282 106.573 117.503 106.756C118.704 106.939 124.036 109.26 124.036 109.26C124.036 109.26 131.608 105.128 133.236 106.247C134.865 107.367 137.083 120.963 135.638 125.156C134.213 129.349 119.233 137.816 119.233 137.816C119.233 137.816 78.8509 164.602 61.2855 173.985C49.7245 180.172 39.5272 172.784 32.668 161.06L20.9849 136.127" fill="#FFBE9D"/>
</g>
<defs>
<clipPath id="clip0_14_1061">
<rect width="153" height="203.539" fill="white"/>
</clipPath>
</defs>
</svg>
