<svg width="333" height="271" viewBox="0 0 333 271" fill="none" xmlns="http://www.w3.org/2000/svg">
<path d="M138.774 250.366L0.0507812 249.966L-0.00408124 270.602L138.719 271.002L138.774 250.366Z" fill="#897262"/>
<path d="M128.867 250.338L9.96289 250.001C10.0044 232.91 23.3553 219.086 39.7699 219.138L99.2179 219.311C115.641 219.354 128.909 233.247 128.867 250.338Z" fill="#BE8B64"/>
<path d="M185.766 127.067C182.877 132.288 173.32 130.983 166.039 130.741C166.03 130.741 166.022 130.741 166.014 130.741C164.569 130.697 163.224 131.527 162.502 132.833L136.398 179.914C132.246 187.954 134.953 198.035 142.6 202.625L181.847 226.209C189.635 230.895 199.598 228.111 204.099 220.002L225.171 181.981C228.592 175.808 232.976 164.578 233.391 157.463L263.638 102.903L215.266 73.8296L185.766 127.067Z" fill="#F7D7C7"/>
<path d="M102.117 132.745L96.3047 143.227L120.751 157.923L126.563 147.442L102.117 132.745Z" fill="#9E7353"/>
<path d="M84.3683 99.1232L59.46 144.043L88.2208 161.334L113.129 116.414L84.3683 99.1232Z" fill="#BE8B64"/>
<path d="M89.4301 81.362L79.4668 99.3301L115.418 120.943L125.381 102.975L89.4301 81.362Z" fill="#897262"/>
<path d="M85.2777 88.8483L83.6172 91.843L119.568 113.456L121.229 110.461L85.2777 88.8483Z" fill="#FFCB1E"/>
<path d="M57.1792 139.518L47.2158 157.487L83.1669 179.099L93.1302 161.131L57.1792 139.518Z" fill="#897262"/>
<path d="M53.0268 147.005L51.3662 149.999L87.3173 171.612L88.9778 168.618L53.0268 147.005Z" fill="#FFCB1E"/>
<path d="M127.416 142.966L117.453 160.934L128.957 167.85L138.921 149.882L127.416 142.966Z" fill="#FFCB1E"/>
<path d="M130.521 144.836L120.558 162.804L206.84 214.675L216.804 196.707L130.521 144.836Z" fill="#897262"/>
<path d="M158.956 177.65C161.58 172.912 167.466 171.356 171.958 174.287C176.234 177.071 177.488 182.992 174.964 187.548L162.003 210.925C159.429 215.559 153.742 217.15 149.291 214.47C144.841 211.79 143.313 205.868 145.887 201.234L158.956 177.65Z" fill="#FBE8DE"/>
<path d="M184.08 209.87C186.704 205.133 192.59 203.577 197.082 206.507C201.358 209.291 202.612 215.213 200.088 219.769L194.251 230.307C191.677 234.941 185.99 236.532 181.539 233.852C177.089 231.172 175.561 225.25 178.135 220.616L184.08 209.87Z" fill="#FBE8DE"/>
<path d="M172.747 191.542C175.37 186.805 181.257 185.249 185.749 188.179C190.025 190.963 191.279 196.885 188.755 201.441L178.127 220.616C175.553 225.25 169.866 226.841 165.415 224.161C160.965 221.481 159.437 215.559 162.011 210.925L172.747 191.542Z" fill="#FBE8DE"/>
<path d="M139.203 174.503C141.827 169.765 147.714 168.209 152.206 171.14C156.482 173.924 157.735 179.846 155.211 184.402L145.879 201.234C143.305 205.868 137.618 207.458 133.167 204.778C128.717 202.098 127.189 196.176 129.763 191.543L139.203 174.503Z" fill="#FBE8DE"/>
<path d="M148.785 139.801L144.833 146.934L140.648 154.489C138.332 158.665 139.71 163.999 143.712 166.403L169.509 181.912C173.519 184.324 178.642 182.889 180.95 178.722C183.266 174.546 181.888 169.212 177.886 166.809L166.603 160.022L183.125 130.223C171.095 122.995 155.726 127.283 148.785 139.801Z" fill="#F7D7C7"/>
<path d="M171.02 152.043L166.603 160.014L177.886 166.8C181.896 169.212 183.266 174.546 180.95 178.713C179.97 180.477 178.484 181.748 176.798 182.448C179.248 182.076 181.523 180.589 182.859 178.186C185.176 174.01 183.798 168.676 179.796 166.273L168.512 159.486L172.232 152.769L171.02 152.043Z" fill="#EFCCBD"/>
<path d="M190.154 110.648L186.003 118.134L243.525 152.715L247.676 145.228L190.154 110.648Z" fill="white"/>
<path d="M246.709 0L186.563 108.48L251.275 147.383L333 0H246.709Z" fill="#021442"/>
</svg>
