<svg width="144" height="344" viewBox="0 0 144 344" fill="none" xmlns="http://www.w3.org/2000/svg">
<rect width="2.70866" height="344" rx="1.35433" fill="#DCDCDC"/>
<rect width="2.70866" height="68.6194" rx="1.35433" fill="#021442"/>
<rect y="70.4252" width="2.70866" height="68.6194" rx="1.35433" fill="#021442"/>
<circle cx="27.9895" cy="34.3098" r="3.61155" fill="#021442"/>
<circle cx="27.9895" cy="102.929" r="3.61155" fill="#021442"/>
<circle cx="27.9895" cy="172.451" r="3.61155" fill="#DCDCDC"/>
<circle cx="27.9895" cy="241.974" r="3.61155" fill="#DCDCDC"/>
<circle cx="27.9895" cy="314.205" r="3.61155" fill="#DCDCDC"/>
<path d="M44.1656 36.8847L45.9331 31.7962H46.7943L44.5735 37.7953H43.9595L44.1656 36.8847ZM42.5133 31.7962L44.2644 36.8847L44.4828 37.7953H43.8689L41.6522 31.7962H42.5133ZM49.1552 37.8777C48.8448 37.8777 48.5632 37.8255 48.3105 37.7211C48.0606 37.614 47.8449 37.4643 47.6636 37.272C47.4851 37.0797 47.3478 36.8518 47.2516 36.5881C47.1555 36.3244 47.1074 36.0359 47.1074 35.7228V35.5498C47.1074 35.1872 47.161 34.8644 47.2681 34.5815C47.3752 34.2958 47.5208 34.0541 47.7048 33.8563C47.8889 33.6586 48.0976 33.5089 48.3311 33.4072C48.5646 33.3056 48.8063 33.2548 49.0563 33.2548C49.3749 33.2548 49.6496 33.3097 49.8803 33.4196C50.1138 33.5295 50.3047 33.6833 50.453 33.8811C50.6014 34.0761 50.7112 34.3068 50.7827 34.5733C50.8541 34.837 50.8898 35.1254 50.8898 35.4385V35.7805H47.5606V35.1583H50.1275V35.1006C50.1166 34.9029 50.0754 34.7106 50.0039 34.5238C49.9353 34.337 49.8254 34.1832 49.6743 34.0623C49.5232 33.9415 49.3172 33.8811 49.0563 33.8811C48.8832 33.8811 48.7239 33.9181 48.5783 33.9923C48.4328 34.0637 48.3078 34.1708 48.2034 34.3137C48.099 34.4565 48.018 34.6309 47.9603 34.837C47.9026 35.043 47.8738 35.2806 47.8738 35.5498V35.7228C47.8738 35.9343 47.9026 36.1335 47.9603 36.3202C48.0207 36.5043 48.1073 36.6663 48.2199 36.8064C48.3352 36.9465 48.474 37.0564 48.636 37.136C48.8008 37.2157 48.9876 37.2555 49.1964 37.2555C49.4656 37.2555 49.6935 37.2006 49.8803 37.0907C50.0671 36.9809 50.2306 36.8339 50.3706 36.6499L50.8321 37.0166C50.736 37.1621 50.6137 37.3009 50.4654 37.4327C50.3171 37.5646 50.1344 37.6717 49.9174 37.7541C49.7032 37.8365 49.4491 37.8777 49.1552 37.8777ZM52.542 34.0376V37.7953H51.7798V33.3372H52.5214L52.542 34.0376ZM53.9347 33.3125L53.9305 34.0211C53.8674 34.0074 53.8069 33.9992 53.7492 33.9964C53.6943 33.9909 53.6311 33.9882 53.5597 33.9882C53.3839 33.9882 53.2287 34.0157 53.0941 34.0706C52.9595 34.1255 52.8455 34.2024 52.7521 34.3013C52.6587 34.4002 52.5846 34.5183 52.5296 34.6557C52.4775 34.7903 52.4431 34.9386 52.4266 35.1006L52.2124 35.2243C52.2124 34.9551 52.2385 34.7024 52.2907 34.4661C52.3456 34.2299 52.4294 34.0211 52.542 33.8399C52.6546 33.6558 52.7975 33.513 52.9705 33.4113C53.1463 33.307 53.3551 33.2548 53.5968 33.2548C53.6517 33.2548 53.7149 33.2616 53.7863 33.2754C53.8577 33.2864 53.9072 33.2987 53.9347 33.3125ZM55.4674 33.3372V37.7953H54.701V33.3372H55.4674ZM54.6433 32.1547C54.6433 32.0311 54.6804 31.9267 54.7546 31.8415C54.8315 31.7564 54.9441 31.7138 55.0924 31.7138C55.238 31.7138 55.3493 31.7564 55.4262 31.8415C55.5058 31.9267 55.5457 32.0311 55.5457 32.1547C55.5457 32.2728 55.5058 32.3744 55.4262 32.4596C55.3493 32.542 55.238 32.5832 55.0924 32.5832C54.9441 32.5832 54.8315 32.542 54.7546 32.4596C54.6804 32.3744 54.6433 32.2728 54.6433 32.1547ZM57.7088 37.7953H56.9465V32.9499C56.9465 32.612 57.0125 32.3264 57.1443 32.0929C57.2762 31.8594 57.4643 31.6822 57.7088 31.5614C57.9533 31.4405 58.2431 31.3801 58.5782 31.3801C58.7759 31.3801 58.9696 31.4048 59.1591 31.4542C59.3487 31.5009 59.5437 31.56 59.7442 31.6314L59.6165 32.2742C59.4901 32.2247 59.3432 32.178 59.1756 32.1341C59.0108 32.0874 58.8295 32.064 58.6317 32.064C58.3049 32.064 58.0686 32.1382 57.923 32.2865C57.7802 32.4321 57.7088 32.6532 57.7088 32.9499V37.7953ZM58.6194 33.3372V33.9223H56.242V33.3372H58.6194ZM60.1191 33.3372V37.7953H59.3569V33.3372H60.1191ZM63.1558 37.2514C63.337 37.2514 63.5046 37.2143 63.6584 37.1402C63.8122 37.066 63.9386 36.9644 64.0375 36.8353C64.1364 36.7034 64.1927 36.5537 64.2064 36.3862H64.9316C64.9178 36.6499 64.8286 36.8957 64.6638 37.1237C64.5017 37.3489 64.2888 37.5316 64.0251 37.6717C63.7614 37.809 63.4716 37.8777 63.1558 37.8777C62.8206 37.8777 62.5281 37.8186 62.2781 37.7005C62.0309 37.5824 61.8249 37.4203 61.6601 37.2143C61.498 37.0083 61.3758 36.7721 61.2934 36.5057C61.2137 36.2365 61.1739 35.9522 61.1739 35.6528V35.4797C61.1739 35.1803 61.2137 34.8974 61.2934 34.6309C61.3758 34.3618 61.498 34.1242 61.6601 33.9181C61.8249 33.7121 62.0309 33.5501 62.2781 33.4319C62.5281 33.3138 62.8206 33.2548 63.1558 33.2548C63.5046 33.2548 63.8095 33.3262 64.0705 33.469C64.3314 33.6091 64.536 33.8014 64.6844 34.0459C64.8354 34.2876 64.9178 34.5623 64.9316 34.8699H64.2064C64.1927 34.6859 64.1405 34.5197 64.0499 34.3714C63.962 34.223 63.8411 34.1049 63.6873 34.017C63.5362 33.9264 63.359 33.8811 63.1558 33.8811C62.9223 33.8811 62.7259 33.9278 62.5666 34.0211C62.41 34.1118 62.285 34.2354 62.1916 34.392C62.101 34.5458 62.0351 34.7175 61.9938 34.907C61.9554 35.0938 61.9362 35.2847 61.9362 35.4797V35.6528C61.9362 35.8478 61.9554 36.0401 61.9938 36.2296C62.0323 36.4191 62.0969 36.5908 62.1875 36.7446C62.2809 36.8984 62.4059 37.0221 62.5624 37.1154C62.7218 37.2061 62.9195 37.2514 63.1558 37.2514ZM68.4173 37.033V34.7381C68.4173 34.5623 68.3816 34.4098 68.3102 34.2807C68.2415 34.1489 68.1371 34.0472 67.997 33.9758C67.857 33.9044 67.6839 33.8687 67.4779 33.8687C67.2856 33.8687 67.1167 33.9017 66.9711 33.9676C66.8283 34.0335 66.7156 34.12 66.6332 34.2272C66.5536 34.3343 66.5138 34.4496 66.5138 34.5733H65.7515C65.7515 34.4139 65.7927 34.256 65.8751 34.0994C65.9575 33.9429 66.0756 33.8014 66.2295 33.675C66.386 33.5459 66.5728 33.4443 66.7898 33.3701C67.0096 33.2932 67.254 33.2548 67.5232 33.2548C67.8473 33.2548 68.133 33.3097 68.3802 33.4196C68.6302 33.5295 68.8252 33.6956 68.9653 33.9181C69.1081 34.1379 69.1796 34.4139 69.1796 34.7463V36.8229C69.1796 36.9712 69.1919 37.1292 69.2166 37.2967C69.2441 37.4643 69.2839 37.6085 69.3361 37.7294V37.7953H68.5409C68.5025 37.7074 68.4722 37.5906 68.4503 37.4451C68.4283 37.2967 68.4173 37.1594 68.4173 37.033ZM68.5492 35.0924L68.5574 35.628H67.7869C67.5699 35.628 67.3763 35.6459 67.206 35.6816C67.0357 35.7146 66.8928 35.7654 66.7775 35.8341C66.6621 35.9027 66.5742 35.9892 66.5138 36.0936C66.4533 36.1953 66.4231 36.3147 66.4231 36.4521C66.4231 36.5922 66.4547 36.7199 66.5179 36.8353C66.5811 36.9506 66.6758 37.0427 66.8022 37.1113C66.9313 37.1773 67.0892 37.2102 67.276 37.2102C67.5095 37.2102 67.7155 37.1608 67.894 37.0619C68.0726 36.963 68.214 36.8421 68.3184 36.6993C68.4256 36.5565 68.4832 36.4178 68.4915 36.2832L68.817 36.6499C68.7977 36.7652 68.7456 36.893 68.6604 37.033C68.5753 37.1731 68.4613 37.3077 68.3184 37.4368C68.1783 37.5632 68.0108 37.6689 67.8158 37.7541C67.6235 37.8365 67.4065 37.8777 67.1648 37.8777C66.8626 37.8777 66.5975 37.8186 66.3695 37.7005C66.1443 37.5824 65.9685 37.4245 65.8422 37.2267C65.7186 37.0262 65.6567 36.8023 65.6567 36.5551C65.6567 36.3161 65.7034 36.106 65.7968 35.9247C65.8902 35.7407 66.0248 35.5882 66.2006 35.4673C66.3764 35.3437 66.5879 35.2504 66.8351 35.1872C67.0824 35.124 67.3584 35.0924 67.6633 35.0924H68.5492ZM71.1408 34.0376V37.7953H70.3785V33.3372H71.1202L71.1408 34.0376ZM72.5334 33.3125L72.5293 34.0211C72.4661 34.0074 72.4057 33.9992 72.348 33.9964C72.2931 33.9909 72.2299 33.9882 72.1585 33.9882C71.9827 33.9882 71.8275 34.0157 71.6929 34.0706C71.5583 34.1255 71.4443 34.2024 71.3509 34.3013C71.2575 34.4002 71.1834 34.5183 71.1284 34.6557C71.0762 34.7903 71.0419 34.9386 71.0254 35.1006L70.8112 35.2243C70.8112 34.9551 70.8373 34.7024 70.8895 34.4661C70.9444 34.2299 71.0282 34.0211 71.1408 33.8399C71.2534 33.6558 71.3962 33.513 71.5693 33.4113C71.7451 33.307 71.9539 33.2548 72.1956 33.2548C72.2505 33.2548 72.3137 33.2616 72.3851 33.2754C72.4565 33.2864 72.506 33.2987 72.5334 33.3125ZM76.1592 31.4666V37.7953H75.3929V31.4666H76.1592ZM77.1811 35.6157V35.5209C77.1811 35.1995 77.2278 34.9015 77.3212 34.6268C77.4146 34.3494 77.5491 34.109 77.7249 33.9058C77.9007 33.6998 78.1136 33.5404 78.3636 33.4278C78.6135 33.3125 78.8937 33.2548 79.2041 33.2548C79.5173 33.2548 79.7988 33.3125 80.0488 33.4278C80.3015 33.5404 80.5157 33.6998 80.6915 33.9058C80.8701 34.109 81.006 34.3494 81.0994 34.6268C81.1928 34.9015 81.2395 35.1995 81.2395 35.5209V35.6157C81.2395 35.9371 81.1928 36.2351 81.0994 36.5098C81.006 36.7845 80.8701 37.0248 80.6915 37.2308C80.5157 37.4341 80.3028 37.5934 80.0529 37.7088C79.8057 37.8214 79.5255 37.8777 79.2124 37.8777C78.8992 37.8777 78.6177 37.8214 78.3677 37.7088C78.1177 37.5934 77.9035 37.4341 77.7249 37.2308C77.5491 37.0248 77.4146 36.7845 77.3212 36.5098C77.2278 36.2351 77.1811 35.9371 77.1811 35.6157ZM77.9433 35.5209V35.6157C77.9433 35.8382 77.9694 36.0483 78.0216 36.2461C78.0738 36.4411 78.1521 36.6142 78.2565 36.7652C78.3636 36.9163 78.4968 37.0358 78.6561 37.1237C78.8154 37.2088 79.0008 37.2514 79.2124 37.2514C79.4211 37.2514 79.6038 37.2088 79.7603 37.1237C79.9197 37.0358 80.0515 36.9163 80.1559 36.7652C80.2603 36.6142 80.3386 36.4411 80.3907 36.2461C80.4457 36.0483 80.4731 35.8382 80.4731 35.6157V35.5209C80.4731 35.3012 80.4457 35.0938 80.3907 34.8988C80.3386 34.701 80.2589 34.5266 80.1518 34.3755C80.0474 34.2217 79.9155 34.1008 79.7562 34.0129C79.5997 33.925 79.4156 33.8811 79.2041 33.8811C78.9954 33.8811 78.8113 33.925 78.652 34.0129C78.4954 34.1008 78.3636 34.2217 78.2565 34.3755C78.1521 34.5266 78.0738 34.701 78.0216 34.8988C77.9694 35.0938 77.9433 35.3012 77.9433 35.5209ZM83.9795 37.2514C84.1608 37.2514 84.3283 37.2143 84.4821 37.1402C84.636 37.066 84.7623 36.9644 84.8612 36.8353C84.9601 36.7034 85.0164 36.5537 85.0301 36.3862H85.7553C85.7416 36.6499 85.6523 36.8957 85.4875 37.1237C85.3254 37.3489 85.1125 37.5316 84.8488 37.6717C84.5852 37.809 84.2954 37.8777 83.9795 37.8777C83.6444 37.8777 83.3518 37.8186 83.1019 37.7005C82.8546 37.5824 82.6486 37.4203 82.4838 37.2143C82.3218 37.0083 82.1995 36.7721 82.1171 36.5057C82.0375 36.2365 81.9976 35.9522 81.9976 35.6528V35.4797C81.9976 35.1803 82.0375 34.8974 82.1171 34.6309C82.1995 34.3618 82.3218 34.1242 82.4838 33.9181C82.6486 33.7121 82.8546 33.5501 83.1019 33.4319C83.3518 33.3138 83.6444 33.2548 83.9795 33.2548C84.3283 33.2548 84.6332 33.3262 84.8942 33.469C85.1551 33.6091 85.3598 33.8014 85.5081 34.0459C85.6592 34.2876 85.7416 34.5623 85.7553 34.8699H85.0301C85.0164 34.6859 84.9642 34.5197 84.8736 34.3714C84.7857 34.223 84.6648 34.1049 84.511 34.017C84.3599 33.9264 84.1827 33.8811 83.9795 33.8811C83.746 33.8811 83.5496 33.9278 83.3903 34.0211C83.2337 34.1118 83.1087 34.2354 83.0153 34.392C82.9247 34.5458 82.8588 34.7175 82.8176 34.907C82.7791 35.0938 82.7599 35.2847 82.7599 35.4797V35.6528C82.7599 35.8478 82.7791 36.0401 82.8176 36.2296C82.856 36.4191 82.9206 36.5908 83.0112 36.7446C83.1046 36.8984 83.2296 37.0221 83.3862 37.1154C83.5455 37.2061 83.7432 37.2514 83.9795 37.2514ZM89.241 37.033V34.7381C89.241 34.5623 89.2053 34.4098 89.1339 34.2807C89.0652 34.1489 88.9609 34.0472 88.8208 33.9758C88.6807 33.9044 88.5076 33.8687 88.3016 33.8687C88.1093 33.8687 87.9404 33.9017 87.7948 33.9676C87.652 34.0335 87.5394 34.12 87.457 34.2272C87.3773 34.3343 87.3375 34.4496 87.3375 34.5733H86.5752C86.5752 34.4139 86.6164 34.256 86.6988 34.0994C86.7812 33.9429 86.8994 33.8014 87.0532 33.675C87.2097 33.5459 87.3965 33.4443 87.6135 33.3701C87.8333 33.2932 88.0777 33.2548 88.3469 33.2548C88.6711 33.2548 88.9567 33.3097 89.2039 33.4196C89.4539 33.5295 89.6489 33.6956 89.789 33.9181C89.9319 34.1379 90.0033 34.4139 90.0033 34.7463V36.8229C90.0033 36.9712 90.0156 37.1292 90.0404 37.2967C90.0678 37.4643 90.1077 37.6085 90.1598 37.7294V37.7953H89.3646C89.3262 37.7074 89.296 37.5906 89.274 37.4451C89.252 37.2967 89.241 37.1594 89.241 37.033ZM89.3729 35.0924L89.3811 35.628H88.6106C88.3936 35.628 88.2 35.6459 88.0297 35.6816C87.8594 35.7146 87.7165 35.7654 87.6012 35.8341C87.4858 35.9027 87.3979 35.9892 87.3375 36.0936C87.277 36.1953 87.2468 36.3147 87.2468 36.4521C87.2468 36.5922 87.2784 36.7199 87.3416 36.8353C87.4048 36.9506 87.4995 37.0427 87.6259 37.1113C87.755 37.1773 87.9129 37.2102 88.0997 37.2102C88.3332 37.2102 88.5392 37.1608 88.7178 37.0619C88.8963 36.963 89.0378 36.8421 89.1421 36.6993C89.2493 36.5565 89.307 36.4178 89.3152 36.2832L89.6407 36.6499C89.6215 36.7652 89.5693 36.893 89.4841 37.033C89.399 37.1731 89.285 37.3077 89.1421 37.4368C89.0021 37.5632 88.8345 37.6689 88.6395 37.7541C88.4472 37.8365 88.2302 37.8777 87.9885 37.8777C87.6863 37.8777 87.4213 37.8186 87.1933 37.7005C86.968 37.5824 86.7922 37.4245 86.6659 37.2267C86.5423 37.0262 86.4805 36.8023 86.4805 36.5551C86.4805 36.3161 86.5272 36.106 86.6206 35.9247C86.7139 35.7407 86.8485 35.5882 87.0243 35.4673C87.2001 35.3437 87.4116 35.2504 87.6589 35.1872C87.9061 35.124 88.1821 35.0924 88.487 35.0924H89.3729ZM92.0304 31.4666V37.7953H91.2641V31.4666H92.0304ZM94.0823 33.3372V37.7953H93.3159V33.3372H94.0823ZM93.2583 32.1547C93.2583 32.0311 93.2953 31.9267 93.3695 31.8415C93.4464 31.7564 93.559 31.7138 93.7074 31.7138C93.853 31.7138 93.9642 31.7564 94.0411 31.8415C94.1208 31.9267 94.1606 32.0311 94.1606 32.1547C94.1606 32.2728 94.1208 32.3744 94.0411 32.4596C93.9642 32.542 93.853 32.5832 93.7074 32.5832C93.559 32.5832 93.4464 32.542 93.3695 32.4596C93.2953 32.3744 93.2583 32.2728 93.2583 32.1547ZM98.6269 37.169V37.7953H95.3843V37.169H98.6269ZM98.5075 33.8769L95.5574 37.7953H95.0918V37.2349L98.0213 33.3372H98.5075V33.8769ZM98.1696 33.3372V33.9676H95.1247V33.3372H98.1696ZM102.121 37.033V34.7381C102.121 34.5623 102.085 34.4098 102.014 34.2807C101.945 34.1489 101.841 34.0472 101.701 33.9758C101.561 33.9044 101.388 33.8687 101.181 33.8687C100.989 33.8687 100.82 33.9017 100.675 33.9676C100.532 34.0335 100.419 34.12 100.337 34.2272C100.257 34.3343 100.217 34.4496 100.217 34.5733H99.4551C99.4551 34.4139 99.4963 34.256 99.5787 34.0994C99.6611 33.9429 99.7792 33.8014 99.9331 33.675C100.09 33.5459 100.276 33.4443 100.493 33.3701C100.713 33.2932 100.958 33.2548 101.227 33.2548C101.551 33.2548 101.837 33.3097 102.084 33.4196C102.334 33.5295 102.529 33.6956 102.669 33.9181C102.812 34.1379 102.883 34.4139 102.883 34.7463V36.8229C102.883 36.9712 102.896 37.1292 102.92 37.2967C102.948 37.4643 102.988 37.6085 103.04 37.7294V37.7953H102.245C102.206 37.7074 102.176 37.5906 102.154 37.4451C102.132 37.2967 102.121 37.1594 102.121 37.033ZM102.253 35.0924L102.261 35.628H101.491C101.274 35.628 101.08 35.6459 100.91 35.6816C100.739 35.7146 100.596 35.7654 100.481 35.8341C100.366 35.9027 100.278 35.9892 100.217 36.0936C100.157 36.1953 100.127 36.3147 100.127 36.4521C100.127 36.5922 100.158 36.7199 100.221 36.8353C100.285 36.9506 100.379 37.0427 100.506 37.1113C100.635 37.1773 100.793 37.2102 100.98 37.2102C101.213 37.2102 101.419 37.1608 101.598 37.0619C101.776 36.963 101.918 36.8421 102.022 36.6993C102.129 36.5565 102.187 36.4178 102.195 36.2832L102.521 36.6499C102.501 36.7652 102.449 36.893 102.364 37.033C102.279 37.1731 102.165 37.3077 102.022 37.4368C101.882 37.5632 101.714 37.6689 101.519 37.7541C101.327 37.8365 101.11 37.8777 100.868 37.8777C100.566 37.8777 100.301 37.8186 100.073 37.7005C99.8479 37.5824 99.6721 37.4245 99.5458 37.2267C99.4221 37.0262 99.3603 36.8023 99.3603 36.5551C99.3603 36.3161 99.407 36.106 99.5004 35.9247C99.5938 35.7407 99.7284 35.5882 99.9042 35.4673C100.08 35.3437 100.292 35.2504 100.539 35.1872C100.786 35.124 101.062 35.0924 101.367 35.0924H102.253ZM106.892 36.93V31.4666H107.659V37.7953H106.958L106.892 36.93ZM103.893 35.6157V35.5292C103.893 35.1885 103.934 34.8795 104.016 34.6021C104.101 34.3219 104.221 34.0816 104.375 33.8811C104.531 33.6805 104.717 33.5267 104.931 33.4196C105.148 33.3097 105.39 33.2548 105.656 33.2548C105.936 33.2548 106.181 33.3042 106.389 33.4031C106.601 33.4992 106.78 33.6407 106.925 33.8275C107.073 34.0115 107.19 34.234 107.275 34.495C107.36 34.7559 107.42 35.0512 107.453 35.3808V35.7599C107.422 36.0868 107.363 36.3807 107.275 36.6416C107.19 36.9026 107.073 37.1251 106.925 37.3091C106.78 37.4931 106.601 37.6346 106.389 37.7335C106.178 37.8296 105.931 37.8777 105.648 37.8777C105.387 37.8777 105.148 37.8214 104.931 37.7088C104.717 37.5961 104.531 37.4382 104.375 37.2349C104.221 37.0317 104.101 36.7927 104.016 36.518C103.934 36.2406 103.893 35.9398 103.893 35.6157ZM104.659 35.5292V35.6157C104.659 35.8382 104.681 36.0469 104.725 36.242C104.772 36.437 104.843 36.6087 104.939 36.757C105.035 36.9053 105.158 37.0221 105.306 37.1072C105.454 37.1896 105.631 37.2308 105.837 37.2308C106.09 37.2308 106.297 37.1773 106.46 37.0701C106.624 36.963 106.756 36.8215 106.855 36.6457C106.954 36.4699 107.031 36.279 107.086 36.073V35.08C107.053 34.929 107.005 34.7834 106.942 34.6433C106.881 34.5005 106.802 34.3741 106.703 34.2642C106.606 34.1516 106.487 34.0623 106.344 33.9964C106.204 33.9305 106.038 33.8975 105.846 33.8975C105.637 33.8975 105.457 33.9415 105.306 34.0294C105.158 34.1145 105.035 34.2326 104.939 34.3837C104.843 34.5321 104.772 34.7051 104.725 34.9029C104.681 35.0979 104.659 35.3067 104.659 35.5292ZM108.643 35.6157V35.5209C108.643 35.1995 108.69 34.9015 108.783 34.6268C108.877 34.3494 109.011 34.109 109.187 33.9058C109.363 33.6998 109.576 33.5404 109.826 33.4278C110.076 33.3125 110.356 33.2548 110.666 33.2548C110.979 33.2548 111.261 33.3125 111.511 33.4278C111.764 33.5404 111.978 33.6998 112.154 33.9058C112.332 34.109 112.468 34.3494 112.562 34.6268C112.655 34.9015 112.702 35.1995 112.702 35.5209V35.6157C112.702 35.9371 112.655 36.2351 112.562 36.5098C112.468 36.7845 112.332 37.0248 112.154 37.2308C111.978 37.4341 111.765 37.5934 111.515 37.7088C111.268 37.8214 110.988 37.8777 110.675 37.8777C110.361 37.8777 110.08 37.8214 109.83 37.7088C109.58 37.5934 109.366 37.4341 109.187 37.2308C109.011 37.0248 108.877 36.7845 108.783 36.5098C108.69 36.2351 108.643 35.9371 108.643 35.6157ZM109.406 35.5209V35.6157C109.406 35.8382 109.432 36.0483 109.484 36.2461C109.536 36.4411 109.614 36.6142 109.719 36.7652C109.826 36.9163 109.959 37.0358 110.118 37.1237C110.278 37.2088 110.463 37.2514 110.675 37.2514C110.883 37.2514 111.066 37.2088 111.223 37.1237C111.382 37.0358 111.514 36.9163 111.618 36.7652C111.722 36.6142 111.801 36.4411 111.853 36.2461C111.908 36.0483 111.935 35.8382 111.935 35.6157V35.5209C111.935 35.3012 111.908 35.0938 111.853 34.8988C111.801 34.701 111.721 34.5266 111.614 34.3755C111.51 34.2217 111.378 34.1008 111.218 34.0129C111.062 33.925 110.878 33.8811 110.666 33.8811C110.458 33.8811 110.274 33.925 110.114 34.0129C109.958 34.1008 109.826 34.2217 109.719 34.3755C109.614 34.5266 109.536 34.701 109.484 34.8988C109.432 35.0938 109.406 35.3012 109.406 35.5209ZM114.42 34.0376V37.7953H113.658V33.3372H114.399L114.42 34.0376ZM115.812 33.3125L115.808 34.0211C115.745 34.0074 115.685 33.9992 115.627 33.9964C115.572 33.9909 115.509 33.9882 115.438 33.9882C115.262 33.9882 115.107 34.0157 114.972 34.0706C114.837 34.1255 114.723 34.2024 114.63 34.3013C114.537 34.4002 114.462 34.5183 114.407 34.6557C114.355 34.7903 114.321 34.9386 114.304 35.1006L114.09 35.2243C114.09 34.9551 114.116 34.7024 114.169 34.4661C114.223 34.2299 114.307 34.0211 114.42 33.8399C114.532 33.6558 114.675 33.513 114.848 33.4113C115.024 33.307 115.233 33.2548 115.475 33.2548C115.53 33.2548 115.593 33.2616 115.664 33.2754C115.736 33.2864 115.785 33.2987 115.812 33.3125ZM121.42 36.93V31.4666H122.187V37.7953H121.486L121.42 36.93ZM118.421 35.6157V35.5292C118.421 35.1885 118.462 34.8795 118.544 34.6021C118.629 34.3219 118.749 34.0816 118.903 33.8811C119.059 33.6805 119.245 33.5267 119.459 33.4196C119.676 33.3097 119.918 33.2548 120.184 33.2548C120.464 33.2548 120.709 33.3042 120.917 33.4031C121.129 33.4992 121.308 33.6407 121.453 33.8275C121.601 34.0115 121.718 34.234 121.803 34.495C121.888 34.7559 121.948 35.0512 121.98 35.3808V35.7599C121.95 36.0868 121.891 36.3807 121.803 36.6416C121.718 36.9026 121.601 37.1251 121.453 37.3091C121.308 37.4931 121.129 37.6346 120.917 37.7335C120.706 37.8296 120.459 37.8777 120.176 37.8777C119.915 37.8777 119.676 37.8214 119.459 37.7088C119.245 37.5961 119.059 37.4382 118.903 37.2349C118.749 37.0317 118.629 36.7927 118.544 36.518C118.462 36.2406 118.421 35.9398 118.421 35.6157ZM119.187 35.5292V35.6157C119.187 35.8382 119.209 36.0469 119.253 36.242C119.3 36.437 119.371 36.6087 119.467 36.757C119.563 36.9053 119.686 37.0221 119.834 37.1072C119.982 37.1896 120.159 37.2308 120.365 37.2308C120.618 37.2308 120.825 37.1773 120.988 37.0701C121.152 36.963 121.284 36.8215 121.383 36.6457C121.482 36.4699 121.559 36.279 121.614 36.073V35.08C121.581 34.929 121.533 34.7834 121.47 34.6433C121.409 34.5005 121.329 34.3741 121.231 34.2642C121.134 34.1516 121.015 34.0623 120.872 33.9964C120.732 33.9305 120.566 33.8975 120.374 33.8975C120.165 33.8975 119.985 33.9415 119.834 34.0294C119.686 34.1145 119.563 34.2326 119.467 34.3837C119.371 34.5321 119.3 34.7051 119.253 34.9029C119.209 35.0979 119.187 35.3067 119.187 35.5292ZM123.171 35.6157V35.5209C123.171 35.1995 123.218 34.9015 123.311 34.6268C123.405 34.3494 123.539 34.109 123.715 33.9058C123.891 33.6998 124.104 33.5404 124.354 33.4278C124.604 33.3125 124.884 33.2548 125.194 33.2548C125.507 33.2548 125.789 33.3125 126.039 33.4278C126.292 33.5404 126.506 33.6998 126.682 33.9058C126.86 34.109 126.996 34.3494 127.09 34.6268C127.183 34.9015 127.23 35.1995 127.23 35.5209V35.6157C127.23 35.9371 127.183 36.2351 127.09 36.5098C126.996 36.7845 126.86 37.0248 126.682 37.2308C126.506 37.4341 126.293 37.5934 126.043 37.7088C125.796 37.8214 125.516 37.8777 125.203 37.8777C124.889 37.8777 124.608 37.8214 124.358 37.7088C124.108 37.5934 123.894 37.4341 123.715 37.2308C123.539 37.0248 123.405 36.7845 123.311 36.5098C123.218 36.2351 123.171 35.9371 123.171 35.6157ZM123.933 35.5209V35.6157C123.933 35.8382 123.96 36.0483 124.012 36.2461C124.064 36.4411 124.142 36.6142 124.247 36.7652C124.354 36.9163 124.487 37.0358 124.646 37.1237C124.806 37.2088 124.991 37.2514 125.203 37.2514C125.411 37.2514 125.594 37.2088 125.751 37.1237C125.91 37.0358 126.042 36.9163 126.146 36.7652C126.25 36.6142 126.329 36.4411 126.381 36.2461C126.436 36.0483 126.463 35.8382 126.463 35.6157V35.5209C126.463 35.3012 126.436 35.0938 126.381 34.8988C126.329 34.701 126.249 34.5266 126.142 34.3755C126.038 34.2217 125.906 34.1008 125.746 34.0129C125.59 33.925 125.406 33.8811 125.194 33.8811C124.986 33.8811 124.801 33.925 124.642 34.0129C124.486 34.1008 124.354 34.2217 124.247 34.3755C124.142 34.5266 124.064 34.701 124.012 34.8988C123.96 35.0938 123.933 35.3012 123.933 35.5209ZM131.634 37.1072L132.854 33.3372H133.633L132.03 37.7953H131.519L131.634 37.1072ZM130.617 33.3372L131.873 37.1278L131.96 37.7953H131.449L129.834 33.3372H130.617ZM134.098 35.6157V35.5209C134.098 35.1995 134.145 34.9015 134.238 34.6268C134.332 34.3494 134.466 34.109 134.642 33.9058C134.818 33.6998 135.031 33.5404 135.281 33.4278C135.531 33.3125 135.811 33.2548 136.121 33.2548C136.434 33.2548 136.716 33.3125 136.966 33.4278C137.219 33.5404 137.433 33.6998 137.609 33.9058C137.787 34.109 137.923 34.3494 138.016 34.6268C138.11 34.9015 138.157 35.1995 138.157 35.5209V35.6157C138.157 35.9371 138.11 36.2351 138.016 36.5098C137.923 36.7845 137.787 37.0248 137.609 37.2308C137.433 37.4341 137.22 37.5934 136.97 37.7088C136.723 37.8214 136.443 37.8777 136.129 37.8777C135.816 37.8777 135.535 37.8214 135.285 37.7088C135.035 37.5934 134.821 37.4341 134.642 37.2308C134.466 37.0248 134.332 36.7845 134.238 36.5098C134.145 36.2351 134.098 35.9371 134.098 35.6157ZM134.86 35.5209V35.6157C134.86 35.8382 134.886 36.0483 134.939 36.2461C134.991 36.4411 135.069 36.6142 135.174 36.7652C135.281 36.9163 135.414 37.0358 135.573 37.1237C135.732 37.2088 135.918 37.2514 136.129 37.2514C136.338 37.2514 136.521 37.2088 136.677 37.1237C136.837 37.0358 136.969 36.9163 137.073 36.7652C137.177 36.6142 137.256 36.4411 137.308 36.2461C137.363 36.0483 137.39 35.8382 137.39 35.6157V35.5209C137.39 35.3012 137.363 35.0938 137.308 34.8988C137.256 34.701 137.176 34.5266 137.069 34.3755C136.964 34.2217 136.833 34.1008 136.673 34.0129C136.517 33.925 136.333 33.8811 136.121 33.8811C135.912 33.8811 135.728 33.925 135.569 34.0129C135.412 34.1008 135.281 34.2217 135.174 34.3755C135.069 34.5266 134.991 34.701 134.939 34.8988C134.886 35.0938 134.86 35.3012 134.86 35.5209ZM138.911 35.6157V35.5209C138.911 35.1995 138.957 34.9015 139.051 34.6268C139.144 34.3494 139.279 34.109 139.454 33.9058C139.63 33.6998 139.843 33.5404 140.093 33.4278C140.343 33.3125 140.623 33.2548 140.934 33.2548C141.247 33.2548 141.528 33.3125 141.778 33.4278C142.031 33.5404 142.245 33.6998 142.421 33.9058C142.6 34.109 142.736 34.3494 142.829 34.6268C142.922 34.9015 142.969 35.1995 142.969 35.5209V35.6157C142.969 35.9371 142.922 36.2351 142.829 36.5098C142.736 36.7845 142.6 37.0248 142.421 37.2308C142.245 37.4341 142.032 37.5934 141.782 37.7088C141.535 37.8214 141.255 37.8777 140.942 37.8777C140.629 37.8777 140.347 37.8214 140.097 37.7088C139.847 37.5934 139.633 37.4341 139.454 37.2308C139.279 37.0248 139.144 36.7845 139.051 36.5098C138.957 36.2351 138.911 35.9371 138.911 35.6157ZM139.673 35.5209V35.6157C139.673 35.8382 139.699 36.0483 139.751 36.2461C139.803 36.4411 139.882 36.6142 139.986 36.7652C140.093 36.9163 140.226 37.0358 140.386 37.1237C140.545 37.2088 140.73 37.2514 140.942 37.2514C141.151 37.2514 141.333 37.2088 141.49 37.1237C141.649 37.0358 141.781 36.9163 141.885 36.7652C141.99 36.6142 142.068 36.4411 142.12 36.2461C142.175 36.0483 142.203 35.8382 142.203 35.6157V35.5209C142.203 35.3012 142.175 35.0938 142.12 34.8988C142.068 34.701 141.988 34.5266 141.881 34.3755C141.777 34.2217 141.645 34.1008 141.486 34.0129C141.329 33.925 141.145 33.8811 140.934 33.8811C140.725 33.8811 140.541 33.925 140.382 34.0129C140.225 34.1008 140.093 34.2217 139.986 34.3755C139.882 34.5266 139.803 34.701 139.751 34.8988C139.699 35.0938 139.673 35.3012 139.673 35.5209Z" fill="#021442"/>
<path d="M44.4498 100.947L42.4639 106.415H41.6522L43.9389 100.416H44.4622L44.4498 100.947ZM46.1144 106.415L44.1243 100.947L44.112 100.416H44.6353L46.9302 106.415H46.1144ZM46.0114 104.194V104.845H42.6411V104.194H46.0114ZM50.4283 105.549V100.086H51.1947V106.415H50.4942L50.4283 105.549ZM47.4288 104.235V104.149C47.4288 103.808 47.47 103.499 47.5524 103.221C47.6375 102.941 47.757 102.701 47.9109 102.5C48.0674 102.3 48.2528 102.146 48.4671 102.039C48.6841 101.929 48.9258 101.874 49.1922 101.874C49.4724 101.874 49.7169 101.924 49.9257 102.022C50.1372 102.119 50.3157 102.26 50.4613 102.447C50.6096 102.631 50.7264 102.853 50.8115 103.114C50.8967 103.375 50.9557 103.671 50.9887 104V104.379C50.9585 104.706 50.8994 105 50.8115 105.261C50.7264 105.522 50.6096 105.744 50.4613 105.928C50.3157 106.113 50.1372 106.254 49.9257 106.353C49.7141 106.449 49.4669 106.497 49.184 106.497C48.9231 106.497 48.6841 106.441 48.4671 106.328C48.2528 106.216 48.0674 106.058 47.9109 105.854C47.757 105.651 47.6375 105.412 47.5524 105.137C47.47 104.86 47.4288 104.559 47.4288 104.235ZM48.1952 104.149V104.235C48.1952 104.458 48.2171 104.666 48.2611 104.861C48.3078 105.056 48.3792 105.228 48.4753 105.376C48.5715 105.525 48.6937 105.641 48.842 105.727C48.9904 105.809 49.1675 105.85 49.3735 105.85C49.6262 105.85 49.8336 105.797 49.9957 105.69C50.1605 105.582 50.2924 105.441 50.3912 105.265C50.4901 105.089 50.567 104.898 50.622 104.692V103.699C50.589 103.548 50.5409 103.403 50.4778 103.263C50.4173 103.12 50.3377 102.993 50.2388 102.884C50.1427 102.771 50.0232 102.682 49.8803 102.616C49.7402 102.55 49.5741 102.517 49.3818 102.517C49.173 102.517 48.9931 102.561 48.842 102.649C48.6937 102.734 48.5715 102.852 48.4753 103.003C48.3792 103.151 48.3078 103.324 48.2611 103.522C48.2171 103.717 48.1952 103.926 48.1952 104.149ZM53.2095 101.957V106.415H52.4431V101.957H53.2095ZM52.3854 100.774C52.3854 100.65 52.4225 100.546 52.4967 100.461C52.5736 100.376 52.6862 100.333 52.8345 100.333C52.9801 100.333 53.0914 100.376 53.1683 100.461C53.2479 100.546 53.2878 100.65 53.2878 100.774C53.2878 100.892 53.2479 100.994 53.1683 101.079C53.0914 101.161 52.9801 101.203 52.8345 101.203C52.6862 101.203 52.5736 101.161 52.4967 101.079C52.4225 100.994 52.3854 100.892 52.3854 100.774ZM56.2173 105.871C56.3986 105.871 56.5661 105.834 56.7199 105.76C56.8738 105.685 57.0001 105.584 57.099 105.455C57.1979 105.323 57.2542 105.173 57.2679 105.006H57.9931C57.9794 105.269 57.8901 105.515 57.7253 105.743C57.5632 105.968 57.3503 106.151 57.0866 106.291C56.8229 106.428 56.5332 106.497 56.2173 106.497C55.8822 106.497 55.5896 106.438 55.3397 106.32C55.0924 106.202 54.8864 106.04 54.7216 105.834C54.5596 105.628 54.4373 105.391 54.3549 105.125C54.2753 104.856 54.2354 104.572 54.2354 104.272V104.099C54.2354 103.8 54.2753 103.517 54.3549 103.25C54.4373 102.981 54.5596 102.744 54.7216 102.538C54.8864 102.332 55.0924 102.169 55.3397 102.051C55.5896 101.933 55.8822 101.874 56.2173 101.874C56.5661 101.874 56.871 101.946 57.132 102.088C57.3929 102.229 57.5975 102.421 57.7459 102.665C57.897 102.907 57.9794 103.182 57.9931 103.489H57.2679C57.2542 103.305 57.202 103.139 57.1114 102.991C57.0235 102.842 56.9026 102.724 56.7488 102.636C56.5977 102.546 56.4205 102.5 56.2173 102.5C55.9838 102.5 55.7874 102.547 55.6281 102.641C55.4715 102.731 55.3465 102.855 55.2531 103.011C55.1625 103.165 55.0966 103.337 55.0554 103.526C55.0169 103.713 54.9977 103.904 54.9977 104.099V104.272C54.9977 104.467 55.0169 104.659 55.0554 104.849C55.0938 105.039 55.1584 105.21 55.249 105.364C55.3424 105.518 55.4674 105.641 55.624 105.735C55.7833 105.825 55.981 105.871 56.2173 105.871ZM59.6783 101.957V106.415H58.9119V101.957H59.6783ZM58.8542 100.774C58.8542 100.65 58.8913 100.546 58.9655 100.461C59.0424 100.376 59.155 100.333 59.3033 100.333C59.4489 100.333 59.5602 100.376 59.6371 100.461C59.7167 100.546 59.7566 100.65 59.7566 100.774C59.7566 100.892 59.7167 100.994 59.6371 101.079C59.5602 101.161 59.4489 101.203 59.3033 101.203C59.155 101.203 59.0424 101.161 58.9655 101.079C58.8913 100.994 58.8542 100.892 58.8542 100.774ZM60.7001 104.235V104.14C60.7001 103.819 60.7468 103.521 60.8402 103.246C60.9336 102.969 61.0682 102.728 61.244 102.525C61.4198 102.319 61.6326 102.16 61.8826 102.047C62.1326 101.932 62.4127 101.874 62.7231 101.874C63.0363 101.874 63.3178 101.932 63.5678 102.047C63.8205 102.16 64.0347 102.319 64.2105 102.525C64.3891 102.728 64.5251 102.969 64.6184 103.246C64.7118 103.521 64.7585 103.819 64.7585 104.14V104.235C64.7585 104.556 64.7118 104.854 64.6184 105.129C64.5251 105.404 64.3891 105.644 64.2105 105.85C64.0347 106.053 63.8219 106.213 63.5719 106.328C63.3247 106.441 63.0445 106.497 62.7314 106.497C62.4182 106.497 62.1367 106.441 61.8867 106.328C61.6368 106.213 61.4225 106.053 61.244 105.85C61.0682 105.644 60.9336 105.404 60.8402 105.129C60.7468 104.854 60.7001 104.556 60.7001 104.235ZM61.4623 104.14V104.235C61.4623 104.458 61.4884 104.668 61.5406 104.865C61.5928 105.06 61.6711 105.234 61.7755 105.385C61.8826 105.536 62.0158 105.655 62.1751 105.743C62.3345 105.828 62.5199 105.871 62.7314 105.871C62.9401 105.871 63.1228 105.828 63.2794 105.743C63.4387 105.655 63.5705 105.536 63.6749 105.385C63.7793 105.234 63.8576 105.06 63.9098 104.865C63.9647 104.668 63.9922 104.458 63.9922 104.235V104.14C63.9922 103.921 63.9647 103.713 63.9098 103.518C63.8576 103.32 63.7779 103.146 63.6708 102.995C63.5664 102.841 63.4346 102.72 63.2752 102.632C63.1187 102.544 62.9346 102.5 62.7231 102.5C62.5144 102.5 62.3303 102.544 62.171 102.632C62.0145 102.72 61.8826 102.841 61.7755 102.995C61.6711 103.146 61.5928 103.32 61.5406 103.518C61.4884 103.713 61.4623 103.921 61.4623 104.14ZM66.4767 102.908V106.415H65.7144V101.957H66.4355L66.4767 102.908ZM66.2954 104.017L65.9781 104.004C65.9809 103.699 66.0262 103.418 66.1141 103.16C66.202 102.899 66.3256 102.672 66.4849 102.48C66.6442 102.288 66.8338 102.139 67.0535 102.035C67.276 101.928 67.5218 101.874 67.791 101.874C68.0108 101.874 68.2086 101.904 68.3843 101.965C68.5601 102.022 68.7098 102.116 68.8335 102.245C68.9598 102.374 69.0559 102.542 69.1219 102.748C69.1878 102.951 69.2208 103.2 69.2208 103.493V106.415H68.4544V103.485C68.4544 103.252 68.4201 103.065 68.3514 102.925C68.2827 102.782 68.1825 102.679 68.0506 102.616C67.9188 102.55 67.7567 102.517 67.5644 102.517C67.3749 102.517 67.2018 102.557 67.0453 102.636C66.8914 102.716 66.7582 102.826 66.6456 102.966C66.5357 103.106 66.4492 103.267 66.386 103.448C66.3256 103.627 66.2954 103.816 66.2954 104.017ZM73.0073 105.652V103.357C73.0073 103.182 72.9716 103.029 72.9001 102.9C72.8315 102.768 72.7271 102.667 72.587 102.595C72.4469 102.524 72.2739 102.488 72.0678 102.488C71.8756 102.488 71.7066 102.521 71.5611 102.587C71.4182 102.653 71.3056 102.739 71.2232 102.847C71.1435 102.954 71.1037 103.069 71.1037 103.193H70.3415C70.3415 103.033 70.3827 102.875 70.4651 102.719C70.5475 102.562 70.6656 102.421 70.8194 102.294C70.976 102.165 71.1628 102.064 71.3798 101.99C71.5995 101.913 71.844 101.874 72.1132 101.874C72.4373 101.874 72.723 101.929 72.9702 102.039C73.2201 102.149 73.4152 102.315 73.5553 102.538C73.6981 102.757 73.7695 103.033 73.7695 103.366V105.442C73.7695 105.591 73.7819 105.749 73.8066 105.916C73.8341 106.084 73.8739 106.228 73.9261 106.349V106.415H73.1309C73.0924 106.327 73.0622 106.21 73.0402 106.064C73.0183 105.916 73.0073 105.779 73.0073 105.652ZM73.1391 103.712L73.1474 104.247H72.3769C72.1599 104.247 71.9662 104.265 71.7959 104.301C71.6256 104.334 71.4828 104.385 71.3674 104.453C71.252 104.522 71.1641 104.609 71.1037 104.713C71.0433 104.815 71.0131 104.934 71.0131 105.071C71.0131 105.212 71.0447 105.339 71.1078 105.455C71.171 105.57 71.2658 105.662 71.3921 105.731C71.5212 105.797 71.6792 105.83 71.866 105.83C72.0994 105.83 72.3054 105.78 72.484 105.681C72.6625 105.582 72.804 105.462 72.9084 105.319C73.0155 105.176 73.0732 105.037 73.0814 104.903L73.4069 105.269C73.3877 105.385 73.3355 105.512 73.2504 105.652C73.1652 105.793 73.0512 105.927 72.9084 106.056C72.7683 106.183 72.6007 106.288 72.4057 106.373C72.2134 106.456 71.9964 106.497 71.7547 106.497C71.4526 106.497 71.1875 106.438 70.9595 106.32C70.7343 106.202 70.5585 106.044 70.4321 105.846C70.3085 105.646 70.2467 105.422 70.2467 105.174C70.2467 104.936 70.2934 104.725 70.3868 104.544C70.4802 104.36 70.6148 104.208 70.7906 104.087C70.9664 103.963 71.1779 103.87 71.4251 103.807C71.6723 103.743 71.9484 103.712 72.2533 103.712H73.1391ZM75.7307 102.657V106.415H74.9685V101.957H75.7101L75.7307 102.657ZM77.1234 101.932L77.1193 102.641C77.0561 102.627 76.9957 102.619 76.938 102.616C76.883 102.61 76.8199 102.608 76.7484 102.608C76.5726 102.608 76.4175 102.635 76.2829 102.69C76.1483 102.745 76.0343 102.822 75.9409 102.921C75.8475 103.02 75.7733 103.138 75.7184 103.275C75.6662 103.41 75.6319 103.558 75.6154 103.72L75.4011 103.844C75.4011 103.574 75.4272 103.322 75.4794 103.086C75.5343 102.849 75.6181 102.641 75.7307 102.459C75.8434 102.275 75.9862 102.132 76.1593 102.031C76.335 101.926 76.5438 101.874 76.7855 101.874C76.8405 101.874 76.9036 101.881 76.9751 101.895C77.0465 101.906 77.0959 101.918 77.1234 101.932ZM80.6833 102.814V108.129H79.9169V101.957H80.6174L80.6833 102.814ZM83.6869 104.149V104.235C83.6869 104.559 83.6485 104.86 83.5716 105.137C83.4947 105.412 83.382 105.651 83.2337 105.854C83.0881 106.058 82.9082 106.216 82.694 106.328C82.4797 106.441 82.2339 106.497 81.9564 106.497C81.6735 106.497 81.4236 106.45 81.2066 106.357C80.9896 106.264 80.8055 106.128 80.6544 105.949C80.5034 105.771 80.3825 105.556 80.2919 105.306C80.204 105.056 80.1435 104.775 80.1106 104.462V104C80.1435 103.671 80.2053 103.375 80.296 103.114C80.3866 102.853 80.5061 102.631 80.6544 102.447C80.8055 102.26 80.9882 102.119 81.2024 102.022C81.4167 101.924 81.6639 101.874 81.9441 101.874C82.2243 101.874 82.4728 101.929 82.6898 102.039C82.9068 102.146 83.0895 102.3 83.2378 102.5C83.3862 102.701 83.4974 102.941 83.5716 103.221C83.6485 103.499 83.6869 103.808 83.6869 104.149ZM82.9206 104.235V104.149C82.9206 103.926 82.8972 103.717 82.8505 103.522C82.8038 103.324 82.731 103.151 82.6322 103.003C82.536 102.852 82.4124 102.734 82.2613 102.649C82.1103 102.561 81.9303 102.517 81.7216 102.517C81.5293 102.517 81.3617 102.55 81.2189 102.616C81.0788 102.682 80.9593 102.771 80.8605 102.884C80.7616 102.993 80.6805 103.12 80.6174 103.263C80.5569 103.403 80.5116 103.548 80.4814 103.699V104.767C80.5363 104.959 80.6132 105.14 80.7121 105.31C80.811 105.478 80.9429 105.614 81.1077 105.718C81.2725 105.82 81.4799 105.871 81.7298 105.871C81.9358 105.871 82.113 105.828 82.2613 105.743C82.4124 105.655 82.536 105.536 82.6322 105.385C82.731 105.234 82.8038 105.06 82.8505 104.865C82.8972 104.668 82.9206 104.458 82.9206 104.235ZM87.288 105.652V103.357C87.288 103.182 87.2523 103.029 87.1809 102.9C87.1122 102.768 87.0079 102.667 86.8678 102.595C86.7277 102.524 86.5546 102.488 86.3486 102.488C86.1563 102.488 85.9874 102.521 85.8418 102.587C85.699 102.653 85.5864 102.739 85.504 102.847C85.4243 102.954 85.3845 103.069 85.3845 103.193H84.6222C84.6222 103.033 84.6634 102.875 84.7458 102.719C84.8282 102.562 84.9464 102.421 85.1002 102.294C85.2568 102.165 85.4435 102.064 85.6605 101.99C85.8803 101.913 86.1247 101.874 86.3939 101.874C86.7181 101.874 87.0037 101.929 87.2509 102.039C87.5009 102.149 87.6959 102.315 87.836 102.538C87.9789 102.757 88.0503 103.033 88.0503 103.366V105.442C88.0503 105.591 88.0626 105.749 88.0874 105.916C88.1148 106.084 88.1547 106.228 88.2068 106.349V106.415H87.4116C87.3732 106.327 87.343 106.21 87.321 106.064C87.299 105.916 87.288 105.779 87.288 105.652ZM87.4199 103.712L87.4281 104.247H86.6576C86.4406 104.247 86.247 104.265 86.0767 104.301C85.9064 104.334 85.7635 104.385 85.6482 104.453C85.5328 104.522 85.4449 104.609 85.3845 104.713C85.324 104.815 85.2938 104.934 85.2938 105.071C85.2938 105.212 85.3254 105.339 85.3886 105.455C85.4518 105.57 85.5465 105.662 85.6729 105.731C85.802 105.797 85.9599 105.83 86.1467 105.83C86.3802 105.83 86.5862 105.78 86.7648 105.681C86.9433 105.582 87.0848 105.462 87.1891 105.319C87.2963 105.176 87.354 105.037 87.3622 104.903L87.6877 105.269C87.6685 105.385 87.6163 105.512 87.5311 105.652C87.446 105.793 87.332 105.927 87.1891 106.056C87.0491 106.183 86.8815 106.288 86.6865 106.373C86.4942 106.456 86.2772 106.497 86.0355 106.497C85.7333 106.497 85.4683 106.438 85.2403 106.32C85.015 106.202 84.8392 106.044 84.7129 105.846C84.5893 105.646 84.5275 105.422 84.5275 105.174C84.5275 104.936 84.5742 104.725 84.6676 104.544C84.7609 104.36 84.8955 104.208 85.0713 104.087C85.2471 103.963 85.4586 103.87 85.7059 103.807C85.9531 103.743 86.2291 103.712 86.534 103.712H87.4199ZM91.845 105.232C91.845 105.122 91.8203 105.021 91.7709 104.927C91.7242 104.831 91.6266 104.745 91.4783 104.668C91.3327 104.588 91.113 104.519 90.8191 104.462C90.5719 104.409 90.348 104.348 90.1475 104.276C89.9497 104.205 89.7808 104.118 89.6407 104.017C89.5033 103.915 89.3976 103.796 89.3234 103.658C89.2493 103.521 89.2122 103.36 89.2122 103.176C89.2122 103 89.2506 102.834 89.3276 102.678C89.4072 102.521 89.5185 102.382 89.6613 102.261C89.8069 102.141 89.9813 102.046 90.1846 101.977C90.3878 101.908 90.6144 101.874 90.8644 101.874C91.2215 101.874 91.5264 101.937 91.7791 102.064C92.0318 102.19 92.2255 102.359 92.3601 102.57C92.4946 102.779 92.5619 103.011 92.5619 103.267H91.7997C91.7997 103.143 91.7626 103.024 91.6885 102.908C91.617 102.79 91.5113 102.693 91.3712 102.616C91.2339 102.539 91.0649 102.5 90.8644 102.5C90.6529 102.5 90.4812 102.533 90.3494 102.599C90.2203 102.663 90.1255 102.744 90.0651 102.842C90.0074 102.941 89.9785 103.046 89.9785 103.156C89.9785 103.238 89.9923 103.312 90.0198 103.378C90.05 103.441 90.1022 103.5 90.1763 103.555C90.2505 103.607 90.3549 103.657 90.4895 103.704C90.6241 103.75 90.7957 103.797 91.0045 103.844C91.3698 103.926 91.6706 104.025 91.9068 104.14C92.1431 104.256 92.3188 104.397 92.4342 104.565C92.5496 104.732 92.6073 104.936 92.6073 105.174C92.6073 105.37 92.5661 105.548 92.4837 105.71C92.404 105.872 92.2873 106.012 92.1334 106.13C91.9824 106.246 91.8011 106.336 91.5896 106.402C91.3808 106.465 91.146 106.497 90.885 106.497C90.4922 106.497 90.1598 106.427 89.8879 106.287C89.616 106.147 89.41 105.966 89.2699 105.743C89.1298 105.521 89.0597 105.286 89.0597 105.039H89.8261C89.8371 105.247 89.8975 105.413 90.0074 105.537C90.1173 105.658 90.2519 105.744 90.4112 105.797C90.5705 105.846 90.7284 105.871 90.885 105.871C91.0938 105.871 91.2682 105.843 91.4083 105.788C91.5511 105.733 91.6596 105.658 91.7338 105.562C91.8079 105.466 91.845 105.356 91.845 105.232ZM96.2042 105.232C96.2042 105.122 96.1795 105.021 96.1301 104.927C96.0834 104.831 95.9859 104.745 95.8375 104.668C95.692 104.588 95.4722 104.519 95.1783 104.462C94.9311 104.409 94.7072 104.348 94.5067 104.276C94.3089 104.205 94.14 104.118 93.9999 104.017C93.8626 103.915 93.7568 103.796 93.6826 103.658C93.6085 103.521 93.5714 103.36 93.5714 103.176C93.5714 103 93.6099 102.834 93.6868 102.678C93.7664 102.521 93.8777 102.382 94.0205 102.261C94.1661 102.141 94.3405 102.046 94.5438 101.977C94.747 101.908 94.9737 101.874 95.2236 101.874C95.5807 101.874 95.8856 101.937 96.1383 102.064C96.391 102.19 96.5847 102.359 96.7193 102.57C96.8539 102.779 96.9212 103.011 96.9212 103.267H96.1589C96.1589 103.143 96.1218 103.024 96.0477 102.908C95.9763 102.79 95.8705 102.693 95.7304 102.616C95.5931 102.539 95.4241 102.5 95.2236 102.5C95.0121 102.5 94.8404 102.533 94.7086 102.599C94.5795 102.663 94.4847 102.744 94.4243 102.842C94.3666 102.941 94.3378 103.046 94.3378 103.156C94.3378 103.238 94.3515 103.312 94.379 103.378C94.4092 103.441 94.4614 103.5 94.5355 103.555C94.6097 103.607 94.7141 103.657 94.8487 103.704C94.9833 103.75 95.155 103.797 95.3637 103.844C95.729 103.926 96.0298 104.025 96.266 104.14C96.5023 104.256 96.6781 104.397 96.7934 104.565C96.9088 104.732 96.9665 104.936 96.9665 105.174C96.9665 105.37 96.9253 105.548 96.8429 105.71C96.7632 105.872 96.6465 106.012 96.4927 106.13C96.3416 106.246 96.1603 106.336 95.9488 106.402C95.74 106.465 95.5052 106.497 95.2442 106.497C94.8514 106.497 94.5191 106.427 94.2471 106.287C93.9752 106.147 93.7692 105.966 93.6291 105.743C93.489 105.521 93.419 105.286 93.419 105.039H94.1853C94.1963 105.247 94.2567 105.413 94.3666 105.537C94.4765 105.658 94.6111 105.744 94.7704 105.797C94.9297 105.846 95.0877 105.871 95.2442 105.871C95.453 105.871 95.6274 105.843 95.7675 105.788C95.9103 105.733 96.0188 105.658 96.093 105.562C96.1672 105.466 96.2042 105.356 96.2042 105.232ZM100.596 105.652V103.357C100.596 103.182 100.561 103.029 100.489 102.9C100.421 102.768 100.316 102.667 100.176 102.595C100.036 102.524 99.863 102.488 99.657 102.488C99.4647 102.488 99.2958 102.521 99.1502 102.587C99.0074 102.653 98.8948 102.739 98.8124 102.847C98.7327 102.954 98.6929 103.069 98.6929 103.193H97.9306C97.9306 103.033 97.9718 102.875 98.0542 102.719C98.1366 102.562 98.2547 102.421 98.4086 102.294C98.5651 102.165 98.7519 102.064 98.9689 101.99C99.1887 101.913 99.4331 101.874 99.7023 101.874C100.026 101.874 100.312 101.929 100.559 102.039C100.809 102.149 101.004 102.315 101.144 102.538C101.287 102.757 101.359 103.033 101.359 103.366V105.442C101.359 105.591 101.371 105.749 101.396 105.916C101.423 106.084 101.463 106.228 101.515 106.349V106.415H100.72C100.682 106.327 100.651 106.21 100.629 106.064C100.607 105.916 100.596 105.779 100.596 105.652ZM100.728 103.712L100.737 104.247H99.966C99.749 104.247 99.5554 104.265 99.3851 104.301C99.2148 104.334 99.0719 104.385 98.9566 104.453C98.8412 104.522 98.7533 104.609 98.6929 104.713C98.6324 104.815 98.6022 104.934 98.6022 105.071C98.6022 105.212 98.6338 105.339 98.697 105.455C98.7602 105.57 98.8549 105.662 98.9813 105.731C99.1104 105.797 99.2683 105.83 99.4551 105.83C99.6886 105.83 99.8946 105.78 100.073 105.681C100.252 105.582 100.393 105.462 100.498 105.319C100.605 105.176 100.662 105.037 100.671 104.903L100.996 105.269C100.977 105.385 100.925 105.512 100.84 105.652C100.754 105.793 100.64 105.927 100.498 106.056C100.357 106.183 100.19 106.288 99.9949 106.373C99.8026 106.456 99.5856 106.497 99.3439 106.497C99.0417 106.497 98.7766 106.438 98.5487 106.32C98.3234 106.202 98.1476 106.044 98.0213 105.846C97.8977 105.646 97.8359 105.422 97.8359 105.174C97.8359 104.936 97.8826 104.725 97.9759 104.544C98.0693 104.36 98.2039 104.208 98.3797 104.087C98.5555 103.963 98.767 103.87 99.0142 103.807C99.2615 103.743 99.5375 103.712 99.8424 103.712H100.728ZM105.446 101.957H106.138V106.32C106.138 106.713 106.058 107.048 105.899 107.325C105.74 107.603 105.517 107.813 105.232 107.956C104.949 108.101 104.622 108.174 104.251 108.174C104.097 108.174 103.916 108.149 103.707 108.1C103.501 108.053 103.298 107.972 103.097 107.857C102.9 107.744 102.733 107.592 102.599 107.399L102.999 106.946C103.185 107.171 103.38 107.328 103.584 107.416C103.79 107.504 103.993 107.548 104.193 107.548C104.435 107.548 104.644 107.502 104.82 107.412C104.995 107.321 105.131 107.187 105.228 107.008C105.326 106.832 105.376 106.615 105.376 106.357V102.937L105.446 101.957ZM102.376 104.235V104.149C102.376 103.808 102.416 103.499 102.496 103.221C102.578 102.941 102.695 102.701 102.846 102.5C103 102.3 103.185 102.146 103.402 102.039C103.619 101.929 103.864 101.874 104.136 101.874C104.416 101.874 104.66 101.924 104.869 102.022C105.081 102.119 105.259 102.26 105.405 102.447C105.553 102.631 105.67 102.853 105.755 103.114C105.84 103.375 105.899 103.671 105.932 104V104.379C105.902 104.706 105.843 105 105.755 105.261C105.67 105.522 105.553 105.744 105.405 105.928C105.259 106.113 105.081 106.254 104.869 106.353C104.658 106.449 104.41 106.497 104.127 106.497C103.861 106.497 103.619 106.441 103.402 106.328C103.188 106.216 103.004 106.058 102.85 105.854C102.696 105.651 102.578 105.412 102.496 105.137C102.416 104.86 102.376 104.559 102.376 104.235ZM103.139 104.149V104.235C103.139 104.458 103.161 104.666 103.205 104.861C103.251 105.056 103.321 105.228 103.415 105.376C103.511 105.525 103.633 105.641 103.781 105.727C103.93 105.809 104.107 105.85 104.313 105.85C104.566 105.85 104.774 105.797 104.939 105.69C105.104 105.582 105.234 105.441 105.331 105.265C105.429 105.089 105.506 104.898 105.561 104.692V103.699C105.531 103.548 105.484 103.403 105.421 103.263C105.361 103.12 105.281 102.993 105.182 102.884C105.086 102.771 104.967 102.682 104.824 102.616C104.681 102.55 104.513 102.517 104.321 102.517C104.112 102.517 103.932 102.561 103.781 102.649C103.633 102.734 103.511 102.852 103.415 103.003C103.321 103.151 103.251 103.324 103.205 103.522C103.161 103.717 103.139 103.926 103.139 104.149ZM109.146 106.497C108.836 106.497 108.554 106.445 108.301 106.341C108.051 106.233 107.836 106.084 107.654 105.891C107.476 105.699 107.339 105.471 107.242 105.207C107.146 104.944 107.098 104.655 107.098 104.342V104.169C107.098 103.807 107.152 103.484 107.259 103.201C107.366 102.915 107.512 102.673 107.696 102.476C107.88 102.278 108.088 102.128 108.322 102.027C108.555 101.925 108.797 101.874 109.047 101.874C109.366 101.874 109.64 101.929 109.871 102.039C110.105 102.149 110.295 102.303 110.444 102.5C110.592 102.695 110.702 102.926 110.773 103.193C110.845 103.456 110.881 103.745 110.881 104.058V104.4H107.551V103.778H110.118V103.72C110.107 103.522 110.066 103.33 109.995 103.143C109.926 102.956 109.816 102.803 109.665 102.682C109.514 102.561 109.308 102.5 109.047 102.5C108.874 102.5 108.715 102.538 108.569 102.612C108.424 102.683 108.299 102.79 108.194 102.933C108.09 103.076 108.009 103.25 107.951 103.456C107.893 103.662 107.865 103.9 107.865 104.169V104.342C107.865 104.554 107.893 104.753 107.951 104.94C108.011 105.124 108.098 105.286 108.211 105.426C108.326 105.566 108.465 105.676 108.627 105.755C108.792 105.835 108.978 105.875 109.187 105.875C109.456 105.875 109.684 105.82 109.871 105.71C110.058 105.6 110.221 105.453 110.361 105.269L110.823 105.636C110.727 105.782 110.604 105.92 110.456 106.052C110.308 106.184 110.125 106.291 109.908 106.373C109.694 106.456 109.44 106.497 109.146 106.497ZM112.599 101.957V106.415H111.832V101.957H112.599ZM111.775 100.774C111.775 100.65 111.812 100.546 111.886 100.461C111.963 100.376 112.075 100.333 112.224 100.333C112.369 100.333 112.481 100.376 112.557 100.461C112.637 100.546 112.677 100.65 112.677 100.774C112.677 100.892 112.637 100.994 112.557 101.079C112.481 101.161 112.369 101.203 112.224 101.203C112.075 101.203 111.963 101.161 111.886 101.079C111.812 100.994 111.775 100.892 111.775 100.774ZM114.585 102.657V106.415H113.822V101.957H114.564L114.585 102.657ZM115.977 101.932L115.973 102.641C115.91 102.627 115.85 102.619 115.792 102.616C115.737 102.61 115.674 102.608 115.602 102.608C115.427 102.608 115.271 102.635 115.137 102.69C115.002 102.745 114.888 102.822 114.795 102.921C114.701 103.02 114.627 103.138 114.572 103.275C114.52 103.41 114.486 103.558 114.469 103.72L114.255 103.844C114.255 103.574 114.281 103.322 114.333 103.086C114.388 102.849 114.472 102.641 114.585 102.459C114.697 102.275 114.84 102.132 115.013 102.031C115.189 101.926 115.398 101.874 115.639 101.874C115.694 101.874 115.758 101.881 115.829 101.895C115.9 101.906 115.95 101.918 115.977 101.932ZM116.398 104.235V104.14C116.398 103.819 116.444 103.521 116.538 103.246C116.631 102.969 116.766 102.728 116.941 102.525C117.117 102.319 117.33 102.16 117.58 102.047C117.83 101.932 118.11 101.874 118.421 101.874C118.734 101.874 119.015 101.932 119.265 102.047C119.518 102.16 119.732 102.319 119.908 102.525C120.087 102.728 120.223 102.969 120.316 103.246C120.409 103.521 120.456 103.819 120.456 104.14V104.235C120.456 104.556 120.409 104.854 120.316 105.129C120.223 105.404 120.087 105.644 119.908 105.85C119.732 106.053 119.519 106.213 119.269 106.328C119.022 106.441 118.742 106.497 118.429 106.497C118.116 106.497 117.834 106.441 117.584 106.328C117.334 106.213 117.12 106.053 116.941 105.85C116.766 105.644 116.631 105.404 116.538 105.129C116.444 104.854 116.398 104.556 116.398 104.235ZM117.16 104.14V104.235C117.16 104.458 117.186 104.668 117.238 104.865C117.29 105.06 117.369 105.234 117.473 105.385C117.58 105.536 117.713 105.655 117.873 105.743C118.032 105.828 118.217 105.871 118.429 105.871C118.638 105.871 118.82 105.828 118.977 105.743C119.136 105.655 119.268 105.536 119.372 105.385C119.477 105.234 119.555 105.06 119.607 104.865C119.662 104.668 119.69 104.458 119.69 104.235V104.14C119.69 103.921 119.662 103.713 119.607 103.518C119.555 103.32 119.475 103.146 119.368 102.995C119.264 102.841 119.132 102.72 118.973 102.632C118.816 102.544 118.632 102.5 118.421 102.5C118.212 102.5 118.028 102.544 117.868 102.632C117.712 102.72 117.58 102.841 117.473 102.995C117.369 103.146 117.29 103.32 117.238 103.518C117.186 103.713 117.16 103.921 117.16 104.14ZM124.008 105.232C124.008 105.122 123.983 105.021 123.933 104.927C123.887 104.831 123.789 104.745 123.641 104.668C123.495 104.588 123.276 104.519 122.982 104.462C122.734 104.409 122.511 104.348 122.31 104.276C122.112 104.205 121.943 104.118 121.803 104.017C121.666 103.915 121.56 103.796 121.486 103.658C121.412 103.521 121.375 103.36 121.375 103.176C121.375 103 121.413 102.834 121.49 102.678C121.57 102.521 121.681 102.382 121.824 102.261C121.97 102.141 122.144 102.046 122.347 101.977C122.55 101.908 122.777 101.874 123.027 101.874C123.384 101.874 123.689 101.937 123.942 102.064C124.194 102.19 124.388 102.359 124.523 102.57C124.657 102.779 124.725 103.011 124.725 103.267H123.962C123.962 103.143 123.925 103.024 123.851 102.908C123.78 102.79 123.674 102.693 123.534 102.616C123.396 102.539 123.228 102.5 123.027 102.5C122.816 102.5 122.644 102.533 122.512 102.599C122.383 102.663 122.288 102.744 122.228 102.842C122.17 102.941 122.141 103.046 122.141 103.156C122.141 103.238 122.155 103.312 122.182 103.378C122.213 103.441 122.265 103.5 122.339 103.555C122.413 103.607 122.517 103.657 122.652 103.704C122.787 103.75 122.958 103.797 123.167 103.844C123.532 103.926 123.833 104.025 124.069 104.14C124.306 104.256 124.481 104.397 124.597 104.565C124.712 104.732 124.77 104.936 124.77 105.174C124.77 105.37 124.729 105.548 124.646 105.71C124.567 105.872 124.45 106.012 124.296 106.13C124.145 106.246 123.964 106.336 123.752 106.402C123.543 106.465 123.309 106.497 123.048 106.497C122.655 106.497 122.322 106.427 122.051 106.287C121.779 106.147 121.573 105.966 121.432 105.743C121.292 105.521 121.222 105.286 121.222 105.039H121.989C122 105.247 122.06 105.413 122.17 105.537C122.28 105.658 122.414 105.744 122.574 105.797C122.733 105.846 122.891 105.871 123.048 105.871C123.256 105.871 123.431 105.843 123.571 105.788C123.714 105.733 123.822 105.658 123.896 105.562C123.971 105.466 124.008 105.356 124.008 105.232Z" fill="#021442"/>
<path d="M43.0819 169.035V175.034H42.2867V169.035H43.0819ZM45.175 171.528V175.034H44.4128V170.576H45.1338L45.175 171.528ZM44.9937 172.636L44.6765 172.624C44.6792 172.319 44.7245 172.037 44.8124 171.779C44.9003 171.518 45.0239 171.292 45.1833 171.099C45.3426 170.907 45.5321 170.759 45.7518 170.654C45.9743 170.547 46.2202 170.494 46.4894 170.494C46.7091 170.494 46.9069 170.524 47.0827 170.584C47.2585 170.642 47.4082 170.735 47.5318 170.864C47.6581 170.994 47.7543 171.161 47.8202 171.367C47.8861 171.57 47.9191 171.819 47.9191 172.113V175.034H47.1527V172.105C47.1527 171.871 47.1184 171.684 47.0497 171.544C46.9811 171.401 46.8808 171.298 46.7489 171.235C46.6171 171.169 46.455 171.136 46.2628 171.136C46.0732 171.136 45.9002 171.176 45.7436 171.256C45.5898 171.336 45.4566 171.445 45.3439 171.586C45.2341 171.726 45.1475 171.886 45.0844 172.068C45.0239 172.246 44.9937 172.436 44.9937 172.636ZM50.2141 175.034H49.4518V170.106C49.4518 169.785 49.5095 169.514 49.6249 169.295C49.743 169.072 49.9119 168.905 50.1317 168.792C50.3514 168.677 50.6124 168.619 50.9145 168.619C51.0024 168.619 51.0903 168.624 51.1782 168.635C51.2689 168.646 51.3568 168.663 51.4419 168.685L51.4007 169.307C51.343 169.293 51.2771 169.284 51.2029 169.278C51.1315 169.273 51.0601 169.27 50.9887 169.27C50.8266 169.27 50.6865 169.303 50.5684 169.369C50.453 169.432 50.3651 169.525 50.3047 169.649C50.2443 169.773 50.2141 169.925 50.2141 170.106V175.034ZM51.1617 170.576V171.161H48.7473V170.576H51.1617ZM51.8086 172.855V172.76C51.8086 172.438 51.8553 172.14 51.9487 171.866C52.0421 171.588 52.1767 171.348 52.3525 171.145C52.5283 170.939 52.7412 170.779 52.9911 170.667C53.2411 170.551 53.5213 170.494 53.8316 170.494C54.1448 170.494 54.4263 170.551 54.6763 170.667C54.929 170.779 55.1433 170.939 55.3191 171.145C55.4976 171.348 55.6336 171.588 55.727 171.866C55.8203 172.14 55.867 172.438 55.867 172.76V172.855C55.867 173.176 55.8203 173.474 55.727 173.749C55.6336 174.023 55.4976 174.264 55.3191 174.47C55.1433 174.673 54.9304 174.832 54.6804 174.948C54.4332 175.06 54.153 175.117 53.8399 175.117C53.5267 175.117 53.2452 175.06 52.9952 174.948C52.7453 174.832 52.531 174.673 52.3525 174.47C52.1767 174.264 52.0421 174.023 51.9487 173.749C51.8553 173.474 51.8086 173.176 51.8086 172.855ZM52.5709 172.76V172.855C52.5709 173.077 52.5969 173.287 52.6491 173.485C52.7013 173.68 52.7796 173.853 52.884 174.004C52.9911 174.155 53.1243 174.275 53.2837 174.363C53.443 174.448 53.6284 174.49 53.8399 174.49C54.0486 174.49 54.2313 174.448 54.3879 174.363C54.5472 174.275 54.679 174.155 54.7834 174.004C54.8878 173.853 54.9661 173.68 55.0183 173.485C55.0732 173.287 55.1007 173.077 55.1007 172.855V172.76C55.1007 172.54 55.0732 172.333 55.0183 172.138C54.9661 171.94 54.8864 171.765 54.7793 171.614C54.6749 171.461 54.5431 171.34 54.3838 171.252C54.2272 171.164 54.0432 171.12 53.8316 171.12C53.6229 171.12 53.4388 171.164 53.2795 171.252C53.123 171.34 52.9911 171.461 52.884 171.614C52.7796 171.765 52.7013 171.94 52.6491 172.138C52.5969 172.333 52.5709 172.54 52.5709 172.76ZM57.5852 171.277V175.034H56.8229V170.576H57.5646L57.5852 171.277ZM58.9778 170.551L58.9737 171.26C58.9105 171.246 58.8501 171.238 58.7924 171.235C58.7375 171.23 58.6743 171.227 58.6029 171.227C58.4271 171.227 58.2719 171.255 58.1373 171.309C58.0027 171.364 57.8887 171.441 57.7953 171.54C57.7019 171.639 57.6278 171.757 57.5728 171.895C57.5206 172.029 57.4863 172.177 57.4698 172.34L57.2556 172.463C57.2556 172.194 57.2817 171.941 57.3339 171.705C57.3888 171.469 57.4726 171.26 57.5852 171.079C57.6978 170.895 57.8406 170.752 58.0137 170.65C58.1895 170.546 58.3982 170.494 58.64 170.494C58.6949 170.494 58.7581 170.501 58.8295 170.514C58.9009 170.525 58.9504 170.538 58.9778 170.551ZM60.4405 171.462V175.034H59.6742V170.576H60.3993L60.4405 171.462ZM60.2839 172.636L59.9296 172.624C59.9324 172.319 59.9722 172.037 60.0491 171.779C60.126 171.518 60.24 171.292 60.3911 171.099C60.5422 170.907 60.7303 170.759 60.9555 170.654C61.1808 170.547 61.4417 170.494 61.7384 170.494C61.9472 170.494 62.1394 170.524 62.3152 170.584C62.491 170.642 62.6435 170.734 62.7726 170.86C62.9017 170.987 63.0019 171.149 63.0734 171.347C63.1448 171.544 63.1805 171.783 63.1805 172.063V175.034H62.4182V172.101C62.4182 171.867 62.3784 171.68 62.2987 171.54C62.2218 171.4 62.112 171.298 61.9691 171.235C61.8263 171.169 61.6587 171.136 61.4665 171.136C61.2412 171.136 61.0531 171.176 60.902 171.256C60.7509 171.336 60.63 171.445 60.5394 171.586C60.4488 171.726 60.3828 171.886 60.3416 172.068C60.3032 172.246 60.2839 172.436 60.2839 172.636ZM63.1722 172.216L62.6613 172.373C62.6641 172.128 62.7039 171.893 62.7808 171.668C62.8605 171.443 62.9745 171.242 63.1228 171.066C63.2739 170.891 63.4593 170.752 63.679 170.65C63.8988 170.546 64.1501 170.494 64.433 170.494C64.672 170.494 64.8835 170.525 65.0676 170.588C65.2543 170.652 65.4109 170.749 65.5373 170.881C65.6664 171.01 65.7639 171.176 65.8298 171.38C65.8957 171.583 65.9287 171.825 65.9287 172.105V175.034H65.1623V172.096C65.1623 171.846 65.1225 171.653 65.0428 171.515C64.9659 171.375 64.856 171.278 64.7132 171.223C64.5731 171.165 64.4056 171.136 64.2105 171.136C64.043 171.136 63.8947 171.165 63.7656 171.223C63.6365 171.281 63.528 171.36 63.4401 171.462C63.3522 171.561 63.2849 171.675 63.2382 171.804C63.1942 171.933 63.1722 172.07 63.1722 172.216ZM69.7111 174.272V171.977C69.7111 171.801 69.6754 171.649 69.6039 171.52C69.5353 171.388 69.4309 171.286 69.2908 171.215C69.1507 171.143 68.9777 171.108 68.7717 171.108C68.5794 171.108 68.4104 171.141 68.2649 171.206C68.122 171.272 68.0094 171.359 67.927 171.466C67.8473 171.573 67.8075 171.689 67.8075 171.812H67.0453C67.0453 171.653 67.0865 171.495 67.1689 171.338C67.2513 171.182 67.3694 171.04 67.5232 170.914C67.6798 170.785 67.8666 170.683 68.0836 170.609C68.3033 170.532 68.5478 170.494 68.817 170.494C69.1411 170.494 69.4268 170.549 69.674 170.658C69.9239 170.768 70.119 170.935 70.2591 171.157C70.4019 171.377 70.4733 171.653 70.4733 171.985V174.062C70.4733 174.21 70.4857 174.368 70.5104 174.536C70.5379 174.703 70.5777 174.847 70.6299 174.968V175.034H69.8347C69.7962 174.946 69.766 174.83 69.744 174.684C69.7221 174.536 69.7111 174.398 69.7111 174.272ZM69.8429 172.331L69.8512 172.867H69.0807C68.8637 172.867 68.67 172.885 68.4997 172.92C68.3294 172.953 68.1866 173.004 68.0712 173.073C67.9558 173.142 67.8679 173.228 67.8075 173.333C67.7471 173.434 67.7169 173.554 67.7169 173.691C67.7169 173.831 67.7485 173.959 67.8116 174.074C67.8748 174.19 67.9696 174.282 68.0959 174.35C68.225 174.416 68.383 174.449 68.5698 174.449C68.8032 174.449 69.0093 174.4 69.1878 174.301C69.3663 174.202 69.5078 174.081 69.6122 173.938C69.7193 173.795 69.777 173.657 69.7852 173.522L70.1107 173.889C70.0915 174.004 70.0393 174.132 69.9542 174.272C69.869 174.412 69.755 174.547 69.6122 174.676C69.4721 174.802 69.3045 174.908 69.1095 174.993C68.9172 175.075 68.7002 175.117 68.4585 175.117C68.1564 175.117 67.8913 175.058 67.6633 174.939C67.4381 174.821 67.2623 174.663 67.1359 174.466C67.0123 174.265 66.9505 174.041 66.9505 173.794C66.9505 173.555 66.9972 173.345 67.0906 173.164C67.184 172.98 67.3186 172.827 67.4944 172.706C67.6702 172.583 67.8817 172.489 68.1289 172.426C68.3761 172.363 68.6522 172.331 68.9571 172.331H69.8429ZM73.4564 174.49C73.6377 174.49 73.8052 174.453 73.959 174.379C74.1129 174.305 74.2392 174.203 74.3381 174.074C74.437 173.942 74.4933 173.793 74.507 173.625H75.2322C75.2185 173.889 75.1292 174.135 74.9644 174.363C74.8023 174.588 74.5894 174.77 74.3257 174.911C74.062 175.048 73.7723 175.117 73.4564 175.117C73.1213 175.117 72.8287 175.058 72.5788 174.939C72.3315 174.821 72.1255 174.659 71.9607 174.453C71.7987 174.247 71.6764 174.011 71.594 173.745C71.5144 173.475 71.4745 173.191 71.4745 172.892V172.719C71.4745 172.419 71.5144 172.136 71.594 171.87C71.6764 171.601 71.7987 171.363 71.9607 171.157C72.1255 170.951 72.3315 170.789 72.5788 170.671C72.8287 170.553 73.1213 170.494 73.4564 170.494C73.8052 170.494 74.1101 170.565 74.3711 170.708C74.632 170.848 74.8367 171.04 74.985 171.285C75.1361 171.526 75.2185 171.801 75.2322 172.109H74.507C74.4933 171.925 74.4411 171.759 74.3505 171.61C74.2626 171.462 74.1417 171.344 73.9879 171.256C73.8368 171.165 73.6596 171.12 73.4564 171.12C73.2229 171.12 73.0265 171.167 72.8672 171.26C72.7106 171.351 72.5856 171.474 72.4922 171.631C72.4016 171.785 72.3357 171.956 72.2945 172.146C72.256 172.333 72.2368 172.524 72.2368 172.719V172.892C72.2368 173.087 72.256 173.279 72.2945 173.468C72.3329 173.658 72.3975 173.83 72.4881 173.984C72.5815 174.137 72.7065 174.261 72.8631 174.354C73.0224 174.445 73.2201 174.49 73.4564 174.49ZM73.0361 175.075H73.5841L73.5347 175.294C73.694 175.321 73.8382 175.387 73.9673 175.492C74.0991 175.596 74.1651 175.768 74.1651 176.007C74.1651 176.136 74.1376 176.252 74.0826 176.357C74.0305 176.464 73.9522 176.555 73.8478 176.629C73.7434 176.706 73.6129 176.765 73.4564 176.806C73.3025 176.847 73.1226 176.868 72.9166 176.868L72.8878 176.427C73.0141 176.427 73.1281 176.413 73.2298 176.386C73.3341 176.358 73.4165 176.314 73.477 176.254C73.5401 176.193 73.5717 176.115 73.5717 176.019C73.5717 175.928 73.5484 175.857 73.5017 175.805C73.455 175.752 73.3822 175.713 73.2833 175.685C73.1872 175.66 73.0622 175.643 72.9084 175.632L73.0361 175.075ZM75.8873 172.855V172.76C75.8873 172.438 75.934 172.14 76.0274 171.866C76.1208 171.588 76.2554 171.348 76.4312 171.145C76.607 170.939 76.8199 170.779 77.0698 170.667C77.3198 170.551 77.6 170.494 77.9104 170.494C78.2235 170.494 78.505 170.551 78.755 170.667C79.0077 170.779 79.222 170.939 79.3978 171.145C79.5763 171.348 79.7123 171.588 79.8057 171.866C79.8991 172.14 79.9458 172.438 79.9458 172.76V172.855C79.9458 173.176 79.8991 173.474 79.8057 173.749C79.7123 174.023 79.5763 174.264 79.3978 174.47C79.222 174.673 79.0091 174.832 78.7591 174.948C78.5119 175.06 78.2317 175.117 77.9186 175.117C77.6055 175.117 77.3239 175.06 77.0739 174.948C76.824 174.832 76.6097 174.673 76.4312 174.47C76.2554 174.264 76.1208 174.023 76.0274 173.749C75.934 173.474 75.8873 173.176 75.8873 172.855ZM76.6496 172.76V172.855C76.6496 173.077 76.6757 173.287 76.7278 173.485C76.78 173.68 76.8583 173.853 76.9627 174.004C77.0698 174.155 77.203 174.275 77.3624 174.363C77.5217 174.448 77.7071 174.49 77.9186 174.49C78.1274 174.49 78.31 174.448 78.4666 174.363C78.6259 174.275 78.7578 174.155 78.8621 174.004C78.9665 173.853 79.0448 173.68 79.097 173.485C79.1519 173.287 79.1794 173.077 79.1794 172.855V172.76C79.1794 172.54 79.1519 172.333 79.097 172.138C79.0448 171.94 78.9651 171.765 78.858 171.614C78.7536 171.461 78.6218 171.34 78.4625 171.252C78.3059 171.164 78.1219 171.12 77.9104 171.12C77.7016 171.12 77.5176 171.164 77.3582 171.252C77.2017 171.34 77.0698 171.461 76.9627 171.614C76.8583 171.765 76.78 171.94 76.7278 172.138C76.6757 172.333 76.6496 172.54 76.6496 172.76ZM78.825 168.788L79.3401 168.833C79.3401 169.034 79.3002 169.21 79.2206 169.361C79.1409 169.512 79.0338 169.628 78.8992 169.711C78.7674 169.793 78.6177 169.834 78.4501 169.834C78.31 169.834 78.1947 169.815 78.104 169.777C78.0134 169.736 77.9323 169.69 77.8609 169.641C77.7895 169.589 77.714 169.543 77.6343 169.505C77.5574 169.464 77.4612 169.443 77.3459 169.443C77.2305 169.443 77.133 169.487 77.0533 169.575C76.9764 169.663 76.938 169.771 76.938 169.9L76.4229 169.876C76.4229 169.675 76.4614 169.499 76.5383 169.348C76.618 169.194 76.7251 169.075 76.8597 168.99C76.9943 168.902 77.144 168.858 77.3088 168.858C77.4269 168.858 77.5299 168.879 77.6178 168.92C77.7085 168.958 77.7936 169.004 77.8733 169.056C77.9529 169.105 78.0353 169.15 78.1205 169.192C78.2056 169.23 78.3032 169.249 78.413 169.249C78.5284 169.249 78.6259 169.205 78.7056 169.118C78.7852 169.027 78.825 168.917 78.825 168.788ZM82.7516 175.117C82.4413 175.117 82.1597 175.064 81.907 174.96C81.657 174.853 81.4414 174.703 81.2601 174.511C81.0816 174.319 80.9442 174.091 80.8481 173.827C80.752 173.563 80.7039 173.275 80.7039 172.962V172.789C80.7039 172.426 80.7574 172.103 80.8646 171.82C80.9717 171.535 81.1173 171.293 81.3013 171.095C81.4854 170.897 81.6941 170.748 81.9276 170.646C82.1611 170.544 82.4028 170.494 82.6528 170.494C82.9714 170.494 83.2461 170.549 83.4768 170.658C83.7103 170.768 83.9012 170.922 84.0495 171.12C84.1978 171.315 84.3077 171.546 84.3791 171.812C84.4506 172.076 84.4863 172.364 84.4863 172.677V173.019H81.1571V172.397H83.724V172.34C83.713 172.142 83.6718 171.949 83.6004 171.763C83.5317 171.576 83.4219 171.422 83.2708 171.301C83.1197 171.18 82.9137 171.12 82.6528 171.12C82.4797 171.12 82.3204 171.157 82.1748 171.231C82.0292 171.303 81.9042 171.41 81.7999 171.553C81.6955 171.695 81.6145 171.87 81.5568 172.076C81.4991 172.282 81.4702 172.519 81.4702 172.789V172.962C81.4702 173.173 81.4991 173.372 81.5568 173.559C81.6172 173.743 81.7037 173.905 81.8163 174.045C81.9317 174.185 82.0704 174.295 82.2325 174.375C82.3973 174.455 82.5841 174.494 82.7928 174.494C83.062 174.494 83.29 174.439 83.4768 174.33C83.6636 174.22 83.827 174.073 83.9671 173.889L84.4286 174.255C84.3324 174.401 84.2102 174.54 84.0619 174.672C83.9136 174.803 83.7309 174.911 83.5139 174.993C83.2996 175.075 83.0456 175.117 82.7516 175.117ZM87.972 173.852C87.972 173.742 87.9473 173.64 87.8978 173.547C87.8511 173.451 87.7536 173.364 87.6053 173.287C87.4597 173.208 87.24 173.139 86.9461 173.081C86.6988 173.029 86.475 172.967 86.2745 172.896C86.0767 172.824 85.9078 172.738 85.7677 172.636C85.6303 172.535 85.5246 172.415 85.4504 172.278C85.3762 172.14 85.3392 171.98 85.3392 171.796C85.3392 171.62 85.3776 171.454 85.4545 171.297C85.5342 171.141 85.6454 171.002 85.7883 170.881C85.9338 170.76 86.1083 170.665 86.3115 170.597C86.5148 170.528 86.7414 170.494 86.9914 170.494C87.3485 170.494 87.6534 170.557 87.9061 170.683C88.1588 170.81 88.3524 170.978 88.487 171.19C88.6216 171.399 88.6889 171.631 88.6889 171.886H87.9267C87.9267 171.763 87.8896 171.643 87.8154 171.528C87.744 171.41 87.6383 171.312 87.4982 171.235C87.3608 171.158 87.1919 171.12 86.9914 171.12C86.7799 171.12 86.6082 171.153 86.4763 171.219C86.3472 171.282 86.2525 171.363 86.192 171.462C86.1344 171.561 86.1055 171.665 86.1055 171.775C86.1055 171.857 86.1193 171.932 86.1467 171.998C86.1769 172.061 86.2291 172.12 86.3033 172.175C86.3775 172.227 86.4818 172.276 86.6164 172.323C86.751 172.37 86.9227 172.416 87.1315 172.463C87.4968 172.546 87.7976 172.644 88.0338 172.76C88.27 172.875 88.4458 173.017 88.5612 173.184C88.6766 173.352 88.7342 173.555 88.7342 173.794C88.7342 173.989 88.693 174.168 88.6106 174.33C88.531 174.492 88.4142 174.632 88.2604 174.75C88.1093 174.865 87.928 174.956 87.7165 175.022C87.5078 175.085 87.2729 175.117 87.012 175.117C86.6192 175.117 86.2868 175.047 86.0149 174.906C85.7429 174.766 85.5369 174.585 85.3968 174.363C85.2568 174.14 85.1867 173.905 85.1867 173.658H85.9531C85.9641 173.867 86.0245 174.033 86.1344 174.157C86.2442 174.277 86.3788 174.364 86.5381 174.416C86.6975 174.466 86.8554 174.49 87.012 174.49C87.2207 174.49 87.3952 174.463 87.5352 174.408C87.6781 174.353 87.7866 174.277 87.8607 174.181C87.9349 174.085 87.972 173.975 87.972 173.852ZM94.4573 174.272V171.977C94.4573 171.801 94.4215 171.649 94.3501 171.52C94.2815 171.388 94.1771 171.286 94.037 171.215C93.8969 171.143 93.7239 171.108 93.5178 171.108C93.3256 171.108 93.1566 171.141 93.0111 171.206C92.8682 171.272 92.7556 171.359 92.6732 171.466C92.5935 171.573 92.5537 171.689 92.5537 171.812H91.7915C91.7915 171.653 91.8327 171.495 91.9151 171.338C91.9975 171.182 92.1156 171.04 92.2694 170.914C92.426 170.785 92.6128 170.683 92.8298 170.609C93.0495 170.532 93.294 170.494 93.5632 170.494C93.8873 170.494 94.173 170.549 94.4202 170.658C94.6701 170.768 94.8652 170.935 95.0052 171.157C95.1481 171.377 95.2195 171.653 95.2195 171.985V174.062C95.2195 174.21 95.2319 174.368 95.2566 174.536C95.2841 174.703 95.3239 174.847 95.3761 174.968V175.034H94.5809C94.5424 174.946 94.5122 174.83 94.4902 174.684C94.4682 174.536 94.4573 174.398 94.4573 174.272ZM94.5891 172.331L94.5973 172.867H93.8269C93.6099 172.867 93.4162 172.885 93.2459 172.92C93.0756 172.953 92.9328 173.004 92.8174 173.073C92.702 173.142 92.6141 173.228 92.5537 173.333C92.4933 173.434 92.4631 173.554 92.4631 173.691C92.4631 173.831 92.4946 173.959 92.5578 174.074C92.621 174.19 92.7158 174.282 92.8421 174.35C92.9712 174.416 93.1292 174.449 93.3159 174.449C93.5494 174.449 93.7554 174.4 93.934 174.301C94.1125 174.202 94.254 174.081 94.3584 173.938C94.4655 173.795 94.5232 173.657 94.5314 173.522L94.8569 173.889C94.8377 174.004 94.7855 174.132 94.7004 174.272C94.6152 174.412 94.5012 174.547 94.3584 174.676C94.2183 174.802 94.0507 174.908 93.8557 174.993C93.6634 175.075 93.4464 175.117 93.2047 175.117C92.9026 175.117 92.6375 175.058 92.4095 174.939C92.1843 174.821 92.0085 174.663 91.8821 174.466C91.7585 174.265 91.6967 174.041 91.6967 173.794C91.6967 173.555 91.7434 173.345 91.8368 173.164C91.9302 172.98 92.0648 172.827 92.2406 172.706C92.4164 172.583 92.6279 172.489 92.8751 172.426C93.1223 172.363 93.3984 172.331 93.7033 172.331H94.5891ZM99.2285 174.169V168.705H99.9949V175.034H99.2944L99.2285 174.169ZM96.229 172.855V172.768C96.229 172.427 96.2702 172.118 96.3526 171.841C96.4377 171.561 96.5572 171.32 96.711 171.12C96.8676 170.919 97.053 170.766 97.2673 170.658C97.4843 170.549 97.726 170.494 97.9924 170.494C98.2726 170.494 98.5171 170.543 98.7258 170.642C98.9373 170.738 99.1159 170.88 99.2615 171.066C99.4098 171.25 99.5265 171.473 99.6117 171.734C99.6968 171.995 99.7559 172.29 99.7889 172.62V172.999C99.7586 173.326 99.6996 173.62 99.6117 173.881C99.5265 174.141 99.4098 174.364 99.2615 174.548C99.1159 174.732 98.9373 174.873 98.7258 174.972C98.5143 175.069 98.2671 175.117 97.9842 175.117C97.7232 175.117 97.4843 175.06 97.2673 174.948C97.053 174.835 96.8676 174.677 96.711 174.474C96.5572 174.271 96.4377 174.032 96.3526 173.757C96.2702 173.479 96.229 173.179 96.229 172.855ZM96.9953 172.768V172.855C96.9953 173.077 97.0173 173.286 97.0613 173.481C97.1079 173.676 97.1794 173.848 97.2755 173.996C97.3716 174.144 97.4939 174.261 97.6422 174.346C97.7905 174.429 97.9677 174.47 98.1737 174.47C98.4264 174.47 98.6338 174.416 98.7959 174.309C98.9607 174.202 99.0925 174.06 99.1914 173.885C99.2903 173.709 99.3672 173.518 99.4222 173.312V172.319C99.3892 172.168 99.3411 172.022 99.2779 171.882C99.2175 171.739 99.1379 171.613 99.039 171.503C98.9428 171.391 98.8233 171.301 98.6805 171.235C98.5404 171.169 98.3742 171.136 98.182 171.136C97.9732 171.136 97.7933 171.18 97.6422 171.268C97.4939 171.353 97.3716 171.472 97.2755 171.623C97.1794 171.771 97.1079 171.944 97.0613 172.142C97.0173 172.337 96.9953 172.546 96.9953 172.768ZM102.01 170.576V175.034H101.243V170.576H102.01ZM101.186 169.394C101.186 169.27 101.223 169.166 101.297 169.08C101.374 168.995 101.486 168.953 101.635 168.953C101.78 168.953 101.892 168.995 101.968 169.08C102.048 169.166 102.088 169.27 102.088 169.394C102.088 169.512 102.048 169.613 101.968 169.698C101.892 169.781 101.78 169.822 101.635 169.822C101.486 169.822 101.374 169.781 101.297 169.698C101.223 169.613 101.186 169.512 101.186 169.394ZM105.017 174.49C105.199 174.49 105.366 174.453 105.52 174.379C105.674 174.305 105.8 174.203 105.899 174.074C105.998 173.942 106.054 173.793 106.068 173.625H106.793C106.78 173.889 106.69 174.135 106.525 174.363C106.363 174.588 106.151 174.77 105.887 174.911C105.623 175.048 105.333 175.117 105.017 175.117C104.682 175.117 104.39 175.058 104.14 174.939C103.893 174.821 103.687 174.659 103.522 174.453C103.36 174.247 103.237 174.011 103.155 173.745C103.075 173.475 103.036 173.191 103.036 172.892V172.719C103.036 172.419 103.075 172.136 103.155 171.87C103.237 171.601 103.36 171.363 103.522 171.157C103.687 170.951 103.893 170.789 104.14 170.671C104.39 170.553 104.682 170.494 105.017 170.494C105.366 170.494 105.671 170.565 105.932 170.708C106.193 170.848 106.398 171.04 106.546 171.285C106.697 171.526 106.78 171.801 106.793 172.109H106.068C106.054 171.925 106.002 171.759 105.912 171.61C105.824 171.462 105.703 171.344 105.549 171.256C105.398 171.165 105.221 171.12 105.017 171.12C104.784 171.12 104.588 171.167 104.428 171.26C104.272 171.351 104.147 171.474 104.053 171.631C103.963 171.785 103.897 171.956 103.856 172.146C103.817 172.333 103.798 172.524 103.798 172.719V172.892C103.798 173.087 103.817 173.279 103.856 173.468C103.894 173.658 103.959 173.83 104.049 173.984C104.143 174.137 104.268 174.261 104.424 174.354C104.583 174.445 104.781 174.49 105.017 174.49ZM108.478 170.576V175.034H107.712V170.576H108.478ZM107.654 169.394C107.654 169.27 107.691 169.166 107.766 169.08C107.843 168.995 107.955 168.953 108.104 168.953C108.249 168.953 108.36 168.995 108.437 169.08C108.517 169.166 108.557 169.27 108.557 169.394C108.557 169.512 108.517 169.613 108.437 169.698C108.36 169.781 108.249 169.822 108.104 169.822C107.955 169.822 107.843 169.781 107.766 169.698C107.691 169.613 107.654 169.512 107.654 169.394ZM109.5 172.855V172.76C109.5 172.438 109.547 172.14 109.64 171.866C109.734 171.588 109.868 171.348 110.044 171.145C110.22 170.939 110.433 170.779 110.683 170.667C110.933 170.551 111.213 170.494 111.523 170.494C111.836 170.494 112.118 170.551 112.368 170.667C112.621 170.779 112.835 170.939 113.011 171.145C113.189 171.348 113.325 171.588 113.419 171.866C113.512 172.14 113.559 172.438 113.559 172.76V172.855C113.559 173.176 113.512 173.474 113.419 173.749C113.325 174.023 113.189 174.264 113.011 174.47C112.835 174.673 112.622 174.832 112.372 174.948C112.125 175.06 111.845 175.117 111.532 175.117C111.218 175.117 110.937 175.06 110.687 174.948C110.437 174.832 110.223 174.673 110.044 174.47C109.868 174.264 109.734 174.023 109.64 173.749C109.547 173.474 109.5 173.176 109.5 172.855ZM110.263 172.76V172.855C110.263 173.077 110.289 173.287 110.341 173.485C110.393 173.68 110.471 173.853 110.576 174.004C110.683 174.155 110.816 174.275 110.975 174.363C111.135 174.448 111.32 174.49 111.532 174.49C111.74 174.49 111.923 174.448 112.08 174.363C112.239 174.275 112.371 174.155 112.475 174.004C112.579 173.853 112.658 173.68 112.71 173.485C112.765 173.287 112.792 173.077 112.792 172.855V172.76C112.792 172.54 112.765 172.333 112.71 172.138C112.658 171.94 112.578 171.765 112.471 171.614C112.367 171.461 112.235 171.34 112.075 171.252C111.919 171.164 111.735 171.12 111.523 171.12C111.315 171.12 111.131 171.164 110.971 171.252C110.815 171.34 110.683 171.461 110.576 171.614C110.471 171.765 110.393 171.94 110.341 172.138C110.289 172.333 110.263 172.54 110.263 172.76ZM115.277 171.528V175.034H114.515V170.576H115.236L115.277 171.528ZM115.096 172.636L114.778 172.624C114.781 172.319 114.826 172.037 114.914 171.779C115.002 171.518 115.126 171.292 115.285 171.099C115.444 170.907 115.634 170.759 115.854 170.654C116.076 170.547 116.322 170.494 116.591 170.494C116.811 170.494 117.009 170.524 117.185 170.584C117.36 170.642 117.51 170.735 117.634 170.864C117.76 170.994 117.856 171.161 117.922 171.367C117.988 171.57 118.021 171.819 118.021 172.113V175.034H117.255V172.105C117.255 171.871 117.22 171.684 117.152 171.544C117.083 171.401 116.983 171.298 116.851 171.235C116.719 171.169 116.557 171.136 116.365 171.136C116.175 171.136 116.002 171.176 115.845 171.256C115.692 171.336 115.558 171.445 115.446 171.586C115.336 171.726 115.249 171.886 115.186 172.068C115.126 172.246 115.096 172.436 115.096 172.636ZM121.807 174.272V171.977C121.807 171.801 121.772 171.649 121.7 171.52C121.632 171.388 121.527 171.286 121.387 171.215C121.247 171.143 121.074 171.108 120.868 171.108C120.676 171.108 120.507 171.141 120.361 171.206C120.218 171.272 120.106 171.359 120.023 171.466C119.944 171.573 119.904 171.689 119.904 171.812H119.142C119.142 171.653 119.183 171.495 119.265 171.338C119.348 171.182 119.466 171.04 119.62 170.914C119.776 170.785 119.963 170.683 120.18 170.609C120.4 170.532 120.644 170.494 120.913 170.494C121.237 170.494 121.523 170.549 121.77 170.658C122.02 170.768 122.215 170.935 122.355 171.157C122.498 171.377 122.57 171.653 122.57 171.985V174.062C122.57 174.21 122.582 174.368 122.607 174.536C122.634 174.703 122.674 174.847 122.726 174.968V175.034H121.931C121.893 174.946 121.862 174.83 121.84 174.684C121.818 174.536 121.807 174.398 121.807 174.272ZM121.939 172.331L121.948 172.867H121.177C120.96 172.867 120.766 172.885 120.596 172.92C120.426 172.953 120.283 173.004 120.168 173.073C120.052 173.142 119.964 173.228 119.904 173.333C119.843 173.434 119.813 173.554 119.813 173.691C119.813 173.831 119.845 173.959 119.908 174.074C119.971 174.19 120.066 174.282 120.192 174.35C120.321 174.416 120.479 174.449 120.666 174.449C120.9 174.449 121.106 174.4 121.284 174.301C121.463 174.202 121.604 174.081 121.709 173.938C121.816 173.795 121.873 173.657 121.882 173.522L122.207 173.889C122.188 174.004 122.136 174.132 122.051 174.272C121.965 174.412 121.851 174.547 121.709 174.676C121.568 174.802 121.401 174.908 121.206 174.993C121.014 175.075 120.797 175.117 120.555 175.117C120.253 175.117 119.988 175.058 119.76 174.939C119.534 174.821 119.359 174.663 119.232 174.466C119.109 174.265 119.047 174.041 119.047 173.794C119.047 173.555 119.094 173.345 119.187 173.164C119.28 172.98 119.415 172.827 119.591 172.706C119.767 172.583 119.978 172.489 120.225 172.426C120.472 172.363 120.749 172.331 121.053 172.331H121.939ZM124.597 170.576V175.034H123.83V170.576H124.597ZM123.773 169.394C123.773 169.27 123.81 169.166 123.884 169.08C123.961 168.995 124.074 168.953 124.222 168.953C124.367 168.953 124.479 168.995 124.556 169.08C124.635 169.166 124.675 169.27 124.675 169.394C124.675 169.512 124.635 169.613 124.556 169.698C124.479 169.781 124.367 169.822 124.222 169.822C124.074 169.822 123.961 169.781 123.884 169.698C123.81 169.613 123.773 169.512 123.773 169.394ZM128.416 173.852C128.416 173.742 128.392 173.64 128.342 173.547C128.295 173.451 128.198 173.364 128.05 173.287C127.904 173.208 127.684 173.139 127.39 173.081C127.143 173.029 126.919 172.967 126.719 172.896C126.521 172.824 126.352 172.738 126.212 172.636C126.075 172.535 125.969 172.415 125.895 172.278C125.821 172.14 125.783 171.98 125.783 171.796C125.783 171.62 125.822 171.454 125.899 171.297C125.978 171.141 126.09 171.002 126.233 170.881C126.378 170.76 126.553 170.665 126.756 170.597C126.959 170.528 127.186 170.494 127.436 170.494C127.793 170.494 128.098 170.557 128.35 170.683C128.603 170.81 128.797 170.978 128.931 171.19C129.066 171.399 129.133 171.631 129.133 171.886H128.371C128.371 171.763 128.334 171.643 128.26 171.528C128.188 171.41 128.083 171.312 127.942 171.235C127.805 171.158 127.636 171.12 127.436 171.12C127.224 171.12 127.053 171.153 126.921 171.219C126.792 171.282 126.697 171.363 126.636 171.462C126.579 171.561 126.55 171.665 126.55 171.775C126.55 171.857 126.564 171.932 126.591 171.998C126.621 172.061 126.673 172.12 126.748 172.175C126.822 172.227 126.926 172.276 127.061 172.323C127.195 172.37 127.367 172.416 127.576 172.463C127.941 172.546 128.242 172.644 128.478 172.76C128.714 172.875 128.89 173.017 129.006 173.184C129.121 173.352 129.179 173.555 129.179 173.794C129.179 173.989 129.137 174.168 129.055 174.33C128.975 174.492 128.859 174.632 128.705 174.75C128.554 174.865 128.372 174.956 128.161 175.022C127.952 175.085 127.717 175.117 127.456 175.117C127.063 175.117 126.731 175.047 126.459 174.906C126.187 174.766 125.981 174.585 125.841 174.363C125.701 174.14 125.631 173.905 125.631 173.658H126.397C126.408 173.867 126.469 174.033 126.579 174.157C126.689 174.277 126.823 174.364 126.982 174.416C127.142 174.466 127.3 174.49 127.456 174.49C127.665 174.49 127.839 174.463 127.98 174.408C128.122 174.353 128.231 174.277 128.305 174.181C128.379 174.085 128.416 173.975 128.416 173.852Z" fill="#DCDCDC"/>
<path d="M43.8524 244.556H42.5999L42.6081 243.91H43.8524C44.2809 243.91 44.638 243.82 44.9237 243.642C45.2093 243.46 45.4236 243.208 45.5664 242.884C45.712 242.557 45.7848 242.175 45.7848 241.738V241.371C45.7848 241.028 45.7436 240.723 45.6612 240.457C45.5788 240.188 45.4579 239.961 45.2986 239.777C45.1393 239.59 44.9443 239.449 44.7135 239.353C44.4856 239.256 44.2232 239.208 43.9266 239.208H42.5751V238.557H43.9266C44.3194 238.557 44.6778 238.623 45.002 238.755C45.3261 238.884 45.6049 239.072 45.8384 239.32C46.0746 239.564 46.2559 239.861 46.3822 240.21C46.5086 240.556 46.5718 240.946 46.5718 241.38V241.738C46.5718 242.172 46.5086 242.564 46.3822 242.912C46.2559 243.259 46.0732 243.554 45.8343 243.798C45.598 244.043 45.3124 244.231 44.9772 244.363C44.6449 244.492 44.2699 244.556 43.8524 244.556ZM43.0242 238.557V244.556H42.229V238.557H43.0242ZM47.4494 242.377V242.282C47.4494 241.961 47.4961 241.663 47.5895 241.388C47.6829 241.11 47.8175 240.87 47.9933 240.667C48.1691 240.461 48.3819 240.302 48.6319 240.189C48.8819 240.074 49.162 240.016 49.4724 240.016C49.7856 240.016 50.0671 240.074 50.3171 240.189C50.5698 240.302 50.784 240.461 50.9598 240.667C51.1384 240.87 51.2743 241.11 51.3677 241.388C51.4611 241.663 51.5078 241.961 51.5078 242.282V242.377C51.5078 242.698 51.4611 242.996 51.3677 243.271C51.2743 243.546 51.1384 243.786 50.9598 243.992C50.784 244.195 50.5712 244.355 50.3212 244.47C50.074 244.582 49.7938 244.639 49.4807 244.639C49.1675 244.639 48.886 244.582 48.636 244.47C48.3861 244.355 48.1718 244.195 47.9933 243.992C47.8175 243.786 47.6829 243.546 47.5895 243.271C47.4961 242.996 47.4494 242.698 47.4494 242.377ZM48.2116 242.282V242.377C48.2116 242.599 48.2377 242.809 48.2899 243.007C48.3421 243.202 48.4204 243.375 48.5248 243.526C48.6319 243.677 48.7651 243.797 48.9244 243.885C49.0837 243.97 49.2692 244.013 49.4807 244.013C49.6894 244.013 49.8721 243.97 50.0287 243.885C50.188 243.797 50.3198 243.677 50.4242 243.526C50.5286 243.375 50.6069 243.202 50.6591 243.007C50.714 242.809 50.7415 242.599 50.7415 242.377V242.282C50.7415 242.062 50.714 241.855 50.6591 241.66C50.6069 241.462 50.5272 241.288 50.4201 241.137C50.3157 240.983 50.1839 240.862 50.0245 240.774C49.868 240.686 49.6839 240.642 49.4724 240.642C49.2637 240.642 49.0796 240.686 48.9203 240.774C48.7637 240.862 48.6319 240.983 48.5248 241.137C48.4204 241.288 48.3421 241.462 48.2899 241.66C48.2377 241.855 48.2116 242.062 48.2116 242.282ZM54.2478 244.013C54.4291 244.013 54.5966 243.975 54.7505 243.901C54.9043 243.827 55.0306 243.725 55.1295 243.596C55.2284 243.465 55.2847 243.315 55.2985 243.147H56.0236C56.0099 243.411 55.9206 243.657 55.7558 243.885C55.5937 244.11 55.3809 244.293 55.1172 244.433C54.8535 244.57 54.5637 244.639 54.2478 244.639C53.9127 244.639 53.6201 244.58 53.3702 244.462C53.123 244.344 52.917 244.181 52.7521 243.975C52.5901 243.769 52.4678 243.533 52.3854 243.267C52.3058 242.998 52.266 242.713 52.266 242.414V242.241C52.266 241.941 52.3058 241.658 52.3854 241.392C52.4678 241.123 52.5901 240.885 52.7521 240.679C52.917 240.473 53.123 240.311 53.3702 240.193C53.6201 240.075 53.9127 240.016 54.2478 240.016C54.5966 240.016 54.9015 240.087 55.1625 240.23C55.4234 240.37 55.6281 240.563 55.7764 240.807C55.9275 241.049 56.0099 241.323 56.0236 241.631H55.2985C55.2847 241.447 55.2325 241.281 55.1419 241.132C55.054 240.984 54.9331 240.866 54.7793 240.778C54.6282 240.687 54.4511 240.642 54.2478 240.642C54.0143 240.642 53.8179 240.689 53.6586 240.782C53.502 240.873 53.377 240.997 53.2837 241.153C53.193 241.307 53.1271 241.479 53.0859 241.668C53.0474 241.855 53.0282 242.046 53.0282 242.241V242.414C53.0282 242.609 53.0474 242.801 53.0859 242.991C53.1243 243.18 53.1889 243.352 53.2795 243.506C53.3729 243.66 53.4979 243.783 53.6545 243.877C53.8138 243.967 54.0116 244.013 54.2478 244.013ZM59.6082 243.526V240.098H60.3746V244.556H59.6453L59.6082 243.526ZM59.7524 242.587L60.0697 242.579C60.0697 242.875 60.0381 243.15 59.9749 243.403C59.9145 243.653 59.8156 243.87 59.6783 244.054C59.5409 244.238 59.361 244.382 59.1385 244.486C58.916 244.588 58.6455 244.639 58.3268 244.639C58.1098 244.639 57.9107 244.607 57.7294 244.544C57.5509 244.481 57.397 244.383 57.2679 244.251C57.1388 244.12 57.0386 243.948 56.9672 243.736C56.8985 243.525 56.8641 243.271 56.8641 242.974V240.098H57.6264V242.982C57.6264 243.183 57.6484 243.349 57.6923 243.481C57.739 243.61 57.8008 243.713 57.8777 243.79C57.9574 243.864 58.0453 243.916 58.1414 243.947C58.2403 243.977 58.3419 243.992 58.4463 243.992C58.7704 243.992 59.0273 243.93 59.2168 243.807C59.4063 243.68 59.5423 243.511 59.6247 243.3C59.7099 243.085 59.7524 242.848 59.7524 242.587ZM62.2946 240.984V244.556H61.5283V240.098H62.2534L62.2946 240.984ZM62.1381 242.158L61.7837 242.146C61.7865 241.841 61.8263 241.56 61.9032 241.301C61.9801 241.04 62.0941 240.814 62.2452 240.622C62.3963 240.429 62.5844 240.281 62.8097 240.177C63.0349 240.069 63.2958 240.016 63.5925 240.016C63.8013 240.016 63.9935 240.046 64.1693 240.107C64.3451 240.164 64.4976 240.256 64.6267 240.383C64.7558 240.509 64.856 240.671 64.9275 240.869C64.9989 241.067 65.0346 241.306 65.0346 241.586V244.556H64.2723V241.623C64.2723 241.389 64.2325 241.203 64.1529 241.062C64.0759 240.922 63.9661 240.821 63.8232 240.758C63.6804 240.692 63.5128 240.659 63.3206 240.659C63.0953 240.659 62.9072 240.698 62.7561 240.778C62.605 240.858 62.4842 240.968 62.3935 241.108C62.3029 241.248 62.2369 241.409 62.1957 241.59C62.1573 241.768 62.1381 241.958 62.1381 242.158ZM65.0263 241.738L64.5154 241.895C64.5182 241.65 64.558 241.415 64.6349 241.19C64.7146 240.965 64.8286 240.764 64.9769 240.589C65.128 240.413 65.3134 240.274 65.5331 240.172C65.7529 240.068 66.0042 240.016 66.2871 240.016C66.5261 240.016 66.7376 240.047 66.9217 240.111C67.1084 240.174 67.265 240.271 67.3914 240.403C67.5205 240.532 67.618 240.698 67.6839 240.902C67.7498 241.105 67.7828 241.347 67.7828 241.627V244.556H67.0164V241.619C67.0164 241.369 66.9766 241.175 66.8969 241.038C66.82 240.898 66.7102 240.8 66.5673 240.745C66.4272 240.687 66.2597 240.659 66.0647 240.659C65.8971 240.659 65.7488 240.687 65.6197 240.745C65.4906 240.803 65.3821 240.883 65.2942 240.984C65.2063 241.083 65.139 241.197 65.0923 241.326C65.0483 241.455 65.0263 241.593 65.0263 241.738ZM70.7865 244.639C70.4761 244.639 70.1945 244.587 69.9418 244.482C69.6918 244.375 69.4762 244.225 69.2949 244.033C69.1164 243.841 68.979 243.613 68.8829 243.349C68.7868 243.085 68.7387 242.797 68.7387 242.484V242.311C68.7387 241.948 68.7923 241.626 68.8994 241.343C69.0065 241.057 69.1521 240.815 69.3361 240.617C69.5202 240.42 69.7289 240.27 69.9624 240.168C70.1959 240.067 70.4376 240.016 70.6876 240.016C71.0062 240.016 71.2809 240.071 71.5116 240.181C71.7451 240.291 71.936 240.444 72.0843 240.642C72.2327 240.837 72.3425 241.068 72.4139 241.334C72.4854 241.598 72.5211 241.886 72.5211 242.2V242.542H69.1919V241.919H71.7588V241.862C71.7478 241.664 71.7066 241.472 71.6352 241.285C71.5666 241.098 71.4567 240.944 71.3056 240.823C71.1545 240.703 70.9485 240.642 70.6876 240.642C70.5145 240.642 70.3552 240.679 70.2096 240.753C70.064 240.825 69.9391 240.932 69.8347 241.075C69.7303 241.218 69.6493 241.392 69.5916 241.598C69.5339 241.804 69.5051 242.042 69.5051 242.311V242.484C69.5051 242.695 69.5339 242.895 69.5916 243.081C69.652 243.265 69.7385 243.427 69.8512 243.568C69.9665 243.708 70.1052 243.817 70.2673 243.897C70.4321 243.977 70.6189 244.017 70.8277 244.017C71.0968 244.017 71.3248 243.962 71.5116 243.852C71.6984 243.742 71.8618 243.595 72.0019 243.411L72.4634 243.778C72.3673 243.923 72.245 244.062 72.0967 244.194C71.9484 244.326 71.7657 244.433 71.5487 244.515C71.3344 244.598 71.0804 244.639 70.7865 244.639ZM74.1733 241.05V244.556H73.411V240.098H74.1321L74.1733 241.05ZM73.992 242.158L73.6747 242.146C73.6775 241.841 73.7228 241.56 73.8107 241.301C73.8986 241.04 74.0222 240.814 74.1815 240.622C74.3408 240.429 74.5304 240.281 74.7501 240.177C74.9726 240.069 75.2185 240.016 75.4877 240.016C75.7074 240.016 75.9052 240.046 76.081 240.107C76.2568 240.164 76.4065 240.258 76.5301 240.387C76.6564 240.516 76.7526 240.683 76.8185 240.889C76.8844 241.093 76.9174 241.341 76.9174 241.635V244.556H76.151V241.627C76.151 241.393 76.1167 241.207 76.048 241.067C75.9793 240.924 75.8791 240.821 75.7472 240.758C75.6154 240.692 75.4533 240.659 75.261 240.659C75.0715 240.659 74.8985 240.698 74.7419 240.778C74.5881 240.858 74.4548 240.968 74.3422 241.108C74.2323 241.248 74.1458 241.409 74.0826 241.59C74.0222 241.768 73.992 241.958 73.992 242.158ZM79.9416 240.098V240.683H77.5313V240.098H79.9416ZM78.3471 239.015H79.1093V243.452C79.1093 243.603 79.1327 243.717 79.1794 243.794C79.2261 243.871 79.2865 243.922 79.3607 243.947C79.4348 243.971 79.5145 243.984 79.5997 243.984C79.6628 243.984 79.7288 243.978 79.7974 243.967C79.8688 243.953 79.9224 243.942 79.9581 243.934L79.9622 244.556C79.9018 244.576 79.8221 244.593 79.7233 244.61C79.6271 244.629 79.5104 244.639 79.373 244.639C79.1863 244.639 79.0146 244.602 78.858 244.528C78.7014 244.453 78.5765 244.33 78.4831 244.157C78.3924 243.981 78.3471 243.745 78.3471 243.448V239.015ZM80.5514 242.377V242.282C80.5514 241.961 80.5981 241.663 80.6915 241.388C80.7849 241.11 80.9195 240.87 81.0953 240.667C81.2711 240.461 81.484 240.302 81.7339 240.189C81.9839 240.074 82.2641 240.016 82.5745 240.016C82.8876 240.016 83.1692 240.074 83.4191 240.189C83.6718 240.302 83.8861 240.461 84.0619 240.667C84.2404 240.87 84.3764 241.11 84.4698 241.388C84.5632 241.663 84.6099 241.961 84.6099 242.282V242.377C84.6099 242.698 84.5632 242.996 84.4698 243.271C84.3764 243.546 84.2404 243.786 84.0619 243.992C83.8861 244.195 83.6732 244.355 83.4232 244.47C83.176 244.582 82.8958 244.639 82.5827 244.639C82.2696 244.639 81.988 244.582 81.7381 244.47C81.4881 244.355 81.2738 244.195 81.0953 243.992C80.9195 243.786 80.7849 243.546 80.6915 243.271C80.5981 242.996 80.5514 242.698 80.5514 242.377ZM81.3137 242.282V242.377C81.3137 242.599 81.3398 242.809 81.392 243.007C81.4441 243.202 81.5224 243.375 81.6268 243.526C81.7339 243.677 81.8672 243.797 82.0265 243.885C82.1858 243.97 82.3712 244.013 82.5827 244.013C82.7915 244.013 82.9741 243.97 83.1307 243.885C83.29 243.797 83.4219 243.677 83.5262 243.526C83.6306 243.375 83.7089 243.202 83.7611 243.007C83.816 242.809 83.8435 242.599 83.8435 242.377V242.282C83.8435 242.062 83.816 241.855 83.7611 241.66C83.7089 241.462 83.6293 241.288 83.5221 241.137C83.4177 240.983 83.2859 240.862 83.1266 240.774C82.97 240.686 82.786 240.642 82.5745 240.642C82.3657 240.642 82.1817 240.686 82.0224 240.774C81.8658 240.862 81.7339 240.983 81.6268 241.137C81.5224 241.288 81.4441 241.462 81.392 241.66C81.3398 241.855 81.3137 242.062 81.3137 242.282ZM88.1615 243.374C88.1615 243.264 88.1368 243.162 88.0874 243.069C88.0407 242.973 87.9431 242.886 87.7948 242.809C87.6492 242.73 87.4295 242.661 87.1356 242.603C86.8884 242.551 86.6645 242.489 86.464 242.418C86.2662 242.347 86.0973 242.26 85.9572 242.158C85.8198 242.057 85.7141 241.937 85.6399 241.8C85.5658 241.663 85.5287 241.502 85.5287 241.318C85.5287 241.142 85.5671 240.976 85.6441 240.819C85.7237 240.663 85.835 240.524 85.9778 240.403C86.1234 240.282 86.2978 240.188 86.5011 240.119C86.7043 240.05 86.9309 240.016 87.1809 240.016C87.538 240.016 87.8429 240.079 88.0956 240.205C88.3483 240.332 88.542 240.501 88.6766 240.712C88.8111 240.921 88.8784 241.153 88.8784 241.409H88.1162C88.1162 241.285 88.0791 241.165 88.005 241.05C87.9335 240.932 87.8278 240.834 87.6877 240.758C87.5504 240.681 87.3814 240.642 87.1809 240.642C86.9694 240.642 86.7977 240.675 86.6659 240.741C86.5368 240.804 86.442 240.885 86.3816 240.984C86.3239 241.083 86.2951 241.187 86.2951 241.297C86.2951 241.38 86.3088 241.454 86.3363 241.52C86.3665 241.583 86.4187 241.642 86.4928 241.697C86.567 241.749 86.6714 241.799 86.806 241.845C86.9406 241.892 87.1122 241.939 87.321 241.985C87.6863 242.068 87.9871 242.167 88.2233 242.282C88.4596 242.397 88.6354 242.539 88.7507 242.706C88.8661 242.874 88.9238 243.077 88.9238 243.316C88.9238 243.511 88.8826 243.69 88.8002 243.852C88.7205 244.014 88.6038 244.154 88.4499 244.272C88.2989 244.387 88.1176 244.478 87.9061 244.544C87.6973 244.607 87.4625 244.639 87.2015 244.639C86.8087 244.639 86.4763 244.569 86.2044 244.429C85.9325 244.289 85.7265 244.107 85.5864 243.885C85.4463 243.662 85.3762 243.427 85.3762 243.18H86.1426C86.1536 243.389 86.214 243.555 86.3239 243.679C86.4338 243.8 86.5684 243.886 86.7277 243.938C86.887 243.988 87.0449 244.013 87.2015 244.013C87.4103 244.013 87.5847 243.985 87.7248 243.93C87.8676 243.875 87.9761 243.8 88.0503 243.704C88.1244 243.607 88.1615 243.497 88.1615 243.374Z" fill="#DCDCDC"/>
<path d="M43.0242 310.788V316.787H42.229V310.788H43.0242ZM45.5376 313.487V314.138H42.8512V313.487H45.5376ZM45.9455 310.788V311.439H42.8512V310.788H45.9455ZM47.606 312.329V316.787H46.8396V312.329H47.606ZM46.7819 311.147C46.7819 311.023 46.819 310.919 46.8932 310.834C46.9701 310.749 47.0827 310.706 47.231 310.706C47.3766 310.706 47.4878 310.749 47.5648 310.834C47.6444 310.919 47.6842 311.023 47.6842 311.147C47.6842 311.265 47.6444 311.367 47.5648 311.452C47.4878 311.534 47.3766 311.575 47.231 311.575C47.0827 311.575 46.9701 311.534 46.8932 311.452C46.819 311.367 46.7819 311.265 46.7819 311.147ZM49.5919 313.281V316.787H48.8297V312.329H49.5507L49.5919 313.281ZM49.4106 314.389L49.0934 314.377C49.0961 314.072 49.1414 313.791 49.2293 313.532C49.3172 313.271 49.4408 313.045 49.6002 312.853C49.7595 312.66 49.949 312.512 50.1687 312.408C50.3912 312.3 50.6371 312.247 50.9063 312.247C51.126 312.247 51.3238 312.277 51.4996 312.338C51.6754 312.395 51.8251 312.489 51.9487 312.618C52.075 312.747 52.1712 312.914 52.2371 313.12C52.303 313.324 52.336 313.572 52.336 313.866V316.787H51.5696V313.858C51.5696 313.624 51.5353 313.438 51.4666 313.298C51.398 313.155 51.2977 313.052 51.1658 312.989C51.034 312.923 50.8719 312.89 50.6797 312.89C50.4901 312.89 50.3171 312.929 50.1605 313.009C50.0067 313.089 49.8735 313.199 49.7608 313.339C49.651 313.479 49.5644 313.64 49.5013 313.821C49.4408 313.999 49.4106 314.189 49.4106 314.389ZM56.1225 316.025V313.73C56.1225 313.554 56.0868 313.402 56.0154 313.273C55.9467 313.141 55.8423 313.039 55.7022 312.968C55.5621 312.897 55.3891 312.861 55.1831 312.861C54.9908 312.861 54.8219 312.894 54.6763 312.96C54.5335 313.026 54.4208 313.112 54.3384 313.219C54.2588 313.326 54.2189 313.442 54.2189 313.565H53.4567C53.4567 313.406 53.4979 313.248 53.5803 313.092C53.6627 312.935 53.7808 312.794 53.9347 312.667C54.0912 312.538 54.278 312.436 54.495 312.362C54.7148 312.285 54.9592 312.247 55.2284 312.247C55.5525 312.247 55.8382 312.302 56.0854 312.412C56.3354 312.522 56.5304 312.688 56.6705 312.91C56.8133 313.13 56.8847 313.406 56.8847 313.738V315.815C56.8847 315.963 56.8971 316.121 56.9218 316.289C56.9493 316.456 56.9891 316.601 57.0413 316.721V316.787H56.2461C56.2077 316.7 56.1774 316.583 56.1555 316.437C56.1335 316.289 56.1225 316.152 56.1225 316.025ZM56.2543 314.085L56.2626 314.62H55.4921C55.2751 314.62 55.0815 314.638 54.9111 314.674C54.7408 314.707 54.598 314.758 54.4826 314.826C54.3673 314.895 54.2794 314.981 54.2189 315.086C54.1585 315.187 54.1283 315.307 54.1283 315.444C54.1283 315.584 54.1599 315.712 54.2231 315.827C54.2862 315.943 54.381 316.035 54.5074 316.103C54.6365 316.169 54.7944 316.202 54.9812 316.202C55.2147 316.202 55.4207 316.153 55.5992 316.054C55.7778 315.955 55.9192 315.834 56.0236 315.691C56.1307 315.549 56.1884 315.41 56.1967 315.275L56.5222 315.642C56.5029 315.757 56.4507 315.885 56.3656 316.025C56.2804 316.165 56.1665 316.3 56.0236 316.429C55.8835 316.555 55.716 316.661 55.5209 316.746C55.3287 316.829 55.1117 316.87 54.8699 316.87C54.5678 316.87 54.3027 316.811 54.0747 316.693C53.8495 316.575 53.6737 316.417 53.5473 316.219C53.4237 316.018 53.3619 315.794 53.3619 315.547C53.3619 315.308 53.4086 315.098 53.502 314.917C53.5954 314.733 53.73 314.58 53.9058 314.459C54.0816 314.336 54.2931 314.242 54.5403 314.179C54.7875 314.116 55.0636 314.085 55.3685 314.085H56.2543ZM58.9119 310.459V316.787H58.1455V310.459H58.9119ZM60.9638 312.329V316.787H60.1974V312.329H60.9638ZM60.1397 311.147C60.1397 311.023 60.1768 310.919 60.251 310.834C60.3279 310.749 60.4405 310.706 60.5888 310.706C60.7344 310.706 60.8457 310.749 60.9226 310.834C61.0022 310.919 61.0421 311.023 61.0421 311.147C61.0421 311.265 61.0022 311.367 60.9226 311.452C60.8457 311.534 60.7344 311.575 60.5888 311.575C60.4405 311.575 60.3279 311.534 60.251 311.452C60.1768 311.367 60.1397 311.265 60.1397 311.147ZM65.5084 316.161V316.787H62.2658V316.161H65.5084ZM65.3889 312.869L62.4388 316.787H61.9732V316.227L64.9027 312.329H65.3889V312.869ZM65.0511 312.329V312.96H62.0062V312.329H65.0511ZM69.0024 316.025V313.73C69.0024 313.554 68.9667 313.402 68.8953 313.273C68.8266 313.141 68.7222 313.039 68.5821 312.968C68.442 312.897 68.269 312.861 68.063 312.861C67.8707 312.861 67.7018 312.894 67.5562 312.96C67.4133 313.026 67.3007 313.112 67.2183 313.219C67.1387 313.326 67.0988 313.442 67.0988 313.565H66.3366C66.3366 313.406 66.3778 313.248 66.4602 313.092C66.5426 312.935 66.6607 312.794 66.8145 312.667C66.9711 312.538 67.1579 312.436 67.3749 312.362C67.5946 312.285 67.8391 312.247 68.1083 312.247C68.4324 312.247 68.7181 312.302 68.9653 312.412C69.2153 312.522 69.4103 312.688 69.5504 312.91C69.6932 313.13 69.7646 313.406 69.7646 313.738V315.815C69.7646 315.963 69.777 316.121 69.8017 316.289C69.8292 316.456 69.869 316.601 69.9212 316.721V316.787H69.126C69.0875 316.7 69.0573 316.583 69.0353 316.437C69.0134 316.289 69.0024 316.152 69.0024 316.025ZM69.1342 314.085L69.1425 314.62H68.372C68.155 314.62 67.9613 314.638 67.791 314.674C67.6207 314.707 67.4779 314.758 67.3625 314.826C67.2472 314.895 67.1593 314.981 67.0988 315.086C67.0384 315.187 67.0082 315.307 67.0082 315.444C67.0082 315.584 67.0398 315.712 67.103 315.827C67.1661 315.943 67.2609 316.035 67.3872 316.103C67.5164 316.169 67.6743 316.202 67.8611 316.202C68.0946 316.202 68.3006 316.153 68.4791 316.054C68.6577 315.955 68.7991 315.834 68.9035 315.691C69.0106 315.549 69.0683 315.41 69.0766 315.275L69.402 315.642C69.3828 315.757 69.3306 315.885 69.2455 316.025C69.1603 316.165 69.0463 316.3 68.9035 316.429C68.7634 316.555 68.5959 316.661 68.4008 316.746C68.2086 316.829 67.9916 316.87 67.7498 316.87C67.4477 316.87 67.1826 316.811 66.9546 316.693C66.7294 316.575 66.5536 316.417 66.4272 316.219C66.3036 316.018 66.2418 315.794 66.2418 315.547C66.2418 315.308 66.2885 315.098 66.3819 314.917C66.4753 314.733 66.6099 314.58 66.7857 314.459C66.9615 314.336 67.173 314.242 67.4202 314.179C67.6674 314.116 67.9435 314.085 68.2484 314.085H69.1342ZM71.7259 313.03V316.787H70.9636V312.329H71.7053L71.7259 313.03ZM73.1185 312.305L73.1144 313.013C73.0512 313 72.9908 312.991 72.9331 312.989C72.8782 312.983 72.815 312.98 72.7436 312.98C72.5678 312.98 72.4126 313.008 72.278 313.063C72.1434 313.118 72.0294 313.195 71.936 313.293C71.8426 313.392 71.7684 313.51 71.7135 313.648C71.6613 313.782 71.627 313.931 71.6105 314.093L71.3962 314.216C71.3962 313.947 71.4223 313.694 71.4745 313.458C71.5295 313.222 71.6132 313.013 71.7259 312.832C71.8385 312.648 71.9813 312.505 72.1544 312.403C72.3302 312.299 72.5389 312.247 72.7806 312.247C72.8356 312.247 72.8988 312.254 72.9702 312.268C73.0416 312.278 73.091 312.291 73.1185 312.305Z" fill="#DCDCDC"/>
</svg>
