<svg width="50" height="13" viewBox="0 0 50 13" fill="none" xmlns="http://www.w3.org/2000/svg">
<path d="M6.15024 2.40459C6.37228 1.82484 7.19248 1.82484 7.41453 2.40459L8.13859 4.29509C8.23889 4.55698 8.4903 4.7299 8.77074 4.7299L10.8445 4.7299C11.5268 4.7299 11.7805 5.62507 11.1996 5.98308L9.72387 6.89268C9.44684 7.06344 9.33051 7.40715 9.44691 7.71105L10.0536 9.29503C10.2851 9.8996 9.61737 10.4531 9.06625 10.1134L7.13757 8.92463C6.9198 8.79041 6.64497 8.79041 6.4272 8.92463L4.49852 10.1134C3.9474 10.4531 3.27964 9.8996 3.51119 9.29503L4.11786 7.71105C4.23425 7.40715 4.11793 7.06344 3.8409 6.89268L2.36513 5.98308C1.7843 5.62507 2.03801 4.7299 2.72032 4.7299L4.79403 4.7299C5.07447 4.7299 5.32587 4.55698 5.42618 4.29509L6.15024 2.40459Z" fill="#E30B22"/>
<path d="M18.119 2.40459C18.341 1.82484 19.1612 1.82484 19.3833 2.40459L20.1073 4.29509C20.2076 4.55698 20.459 4.7299 20.7395 4.7299L22.8132 4.7299C23.4955 4.7299 23.7492 5.62507 23.1684 5.98308L21.6926 6.89268C21.4156 7.06344 21.2993 7.40715 21.4157 7.71105L22.0223 9.29503C22.2539 9.8996 21.5861 10.4531 21.035 10.1134L19.1063 8.92463C18.8885 8.79041 18.6137 8.79041 18.396 8.92463L16.4673 10.1134C15.9162 10.4531 15.2484 9.8996 15.4799 9.29503L16.0866 7.71105C16.203 7.40715 16.0867 7.06344 15.8096 6.89268L14.3339 5.98308C13.753 5.62507 14.0068 4.7299 14.6891 4.7299L16.7628 4.7299C17.0432 4.7299 17.2946 4.55698 17.3949 4.29509L18.119 2.40459Z" fill="#E30B22"/>
<path d="M30.0897 2.40459C30.3117 1.82484 31.1319 1.82484 31.354 2.40459L32.078 4.29509C32.1783 4.55698 32.4297 4.7299 32.7102 4.7299L34.7839 4.7299C35.4662 4.7299 35.7199 5.62507 35.1391 5.98308L33.6633 6.89268C33.3863 7.06344 33.27 7.40715 33.3864 7.71105L33.993 9.29503C34.2246 9.8996 33.5568 10.4531 33.0057 10.1134L31.077 8.92463C30.8593 8.79041 30.5844 8.79041 30.3667 8.92463L28.438 10.1134C27.8869 10.4531 27.2191 9.8996 27.4506 9.29503L28.0573 7.71105C28.1737 7.40715 28.0574 7.06344 27.7804 6.89268L26.3046 5.98308C25.7237 5.62507 25.9775 4.7299 26.6598 4.7299L28.7335 4.7299C29.0139 4.7299 29.2653 4.55698 29.3656 4.29509L30.0897 2.40459Z" fill="#E30B22"/>
<path d="M42.0584 2.40459C42.2805 1.82484 43.1007 1.82484 43.3227 2.40459L44.0468 4.29509C44.1471 4.55698 44.3985 4.7299 44.6789 4.7299L46.7527 4.7299C47.435 4.7299 47.6887 5.62507 47.1078 5.98308L45.6321 6.89268C45.355 7.06344 45.2387 7.40715 45.3551 7.71105L45.9618 9.29503C46.1933 9.8996 45.5256 10.4531 44.9745 10.1134L43.0458 8.92463C42.828 8.79041 42.5532 8.79041 42.3354 8.92463L40.4067 10.1134C39.8556 10.4531 39.1878 9.8996 39.4194 9.29503L40.0261 7.71105C40.1425 7.40715 40.0261 7.06344 39.7491 6.89268L38.2733 5.98308C37.6925 5.62507 37.9462 4.7299 38.6285 4.7299L40.7022 4.7299C40.9827 4.7299 41.2341 4.55698 41.3344 4.29509L42.0584 2.40459Z" fill="#E30B22"/>
</svg>
