<svg width="136" height="131" viewBox="0 0 136 131" fill="none" xmlns="http://www.w3.org/2000/svg">
<g clip-path="url(#clip0_2_4231)">
<path d="M61.8184 47.3479C61.8184 51.6525 58.1252 55.1418 53.5681 55.1418C52.1262 55.1418 50.7663 54.7919 49.589 54.1774L43.4805 55.1418L46.6078 51.5369C45.7864 50.3261 45.3118 48.8902 45.3118 47.3479C45.3118 43.0433 49.005 39.554 53.5651 39.554C58.1252 39.554 61.8184 43.0433 61.8184 47.3479Z" fill="#EDF1F3"/>
<path d="M59.5248 22.5152C59.5248 26.3148 55.8621 29.3934 51.3415 29.3934C50.6114 29.3934 49.9026 29.3143 49.2272 29.1592L46.3798 32.2956L47.0399 28.3652C44.7127 27.1544 43.1582 24.9884 43.1582 22.5152C43.1582 18.7156 46.8209 15.637 51.3415 15.637C55.8621 15.637 59.5248 18.7156 59.5248 22.5152Z" fill="#EDF1F3"/>
<path d="M56.5324 20.5105C57.4116 20.5105 58.1235 21.2254 58.1235 22.1015C58.1235 22.9807 57.4116 23.6956 56.5324 23.6956C55.6533 23.6956 54.9414 22.9807 54.9414 22.1015C54.9414 21.2254 55.6533 20.5105 56.5324 20.5105Z" fill="#E30B22" fill-opacity="0.5"/>
<path d="M51.8225 20.5105C52.7016 20.5105 53.4165 21.2254 53.4165 22.1015C53.4165 22.9807 52.7016 23.6956 51.8225 23.6956C50.9463 23.6956 50.2314 22.9807 50.2314 22.1015C50.2314 21.2254 50.9433 20.5105 51.8225 20.5105Z" fill="#E30B22" fill-opacity="0.5"/>
<path d="M46.675 20.5105C47.5542 20.5105 48.266 21.2254 48.266 22.1015C48.266 22.9807 47.5542 23.6956 46.675 23.6956C45.7958 23.6956 45.084 22.9807 45.084 22.1015C45.084 21.2254 45.7958 20.5105 46.675 20.5105Z" fill="#E30B22" fill-opacity="0.5"/>
<path d="M25.1397 55.4704L20.8838 56.1183C21.3553 55.0749 21.6565 53.9371 21.7477 52.7446L25.1397 55.4704Z" fill="#E30B22" fill-opacity="0.5"/>
<path d="M21.7481 52.7445C21.6568 53.934 21.3587 55.0718 20.8841 56.1182C19.211 59.8144 15.3657 62.4033 10.8908 62.4033C4.87652 62.4033 0 57.7336 0 51.9749C0 46.2131 4.87652 41.5435 10.8908 41.5435C16.902 41.5435 21.7785 46.2131 21.7785 51.9749C21.7785 52.2335 21.7664 52.489 21.7481 52.7445Z" fill="#E30B22" fill-opacity="0.5"/>
<path d="M120.824 12.5946C120.666 10.8606 121.39 9.12962 121.962 7.4595C122.592 5.62206 123.011 3.4652 121.959 1.83158C120.718 -0.0971194 117.898 -0.398289 115.762 0.438293C113.623 1.27183 111.947 2.94196 110.146 4.36567C109.763 4.66988 109.361 4.96496 108.948 5.23876C107.877 5.19617 106.815 4.99539 105.808 4.61512C103.873 3.88501 102.395 2.41567 100.688 1.29921C99.8639 0.760758 98.9634 0.301398 97.993 0.112787C96.9617 -0.0879931 95.9061 0.0215232 94.9204 0.377451C92.8396 1.12885 91.2456 2.7138 89.7093 4.24094C88.2095 5.73462 86.6002 7.30435 84.486 7.84281C80.44 8.87409 75.679 6.23049 72.2293 9.47643C69.6039 11.9436 69.4336 15.655 68.3658 18.9192C67.5961 19.8318 66.5801 20.5284 65.4149 20.568C64.4536 20.6014 63.2915 20.2516 62.6649 20.9787C62.4124 21.2768 62.3333 21.6784 62.2937 22.0647C62.1264 23.7196 62.5645 25.3837 63.179 26.926C64.2589 29.6365 65.9017 32.1159 67.9794 34.1663C68.5453 30.1628 69.8868 26.2689 71.9707 22.8039C72.1958 22.4267 72.4301 22.0556 72.6826 21.6997C73.6956 23.3911 75.4996 24.5501 77.3765 25.2194C79.5243 25.983 81.8119 26.2202 84.0388 26.6948C85.8549 27.0842 87.6528 27.644 89.2803 28.5383C90.9109 29.4358 92.3711 30.683 93.3416 32.2649C93.9591 33.2719 94.3698 34.3883 94.6345 35.5413C94.674 34.4796 95.0299 33.4331 95.6566 32.5722C96.046 32.0368 96.548 31.5652 97.1533 31.2975C97.7587 31.0268 98.4797 30.9751 99.0851 31.2428C99.5962 31.4649 99.9916 31.8908 100.32 32.344C101.224 33.6065 101.677 35.1641 101.723 36.7186C101.768 38.2731 101.418 39.8185 100.825 41.2574C99.9247 43.463 98.4037 45.4708 96.3381 46.6389C97.3359 49.5746 98.3763 52.492 99.4593 55.3942C99.9217 55.309 100.372 55.1477 100.792 54.9287C101.355 55.163 102.009 55.1629 102.599 54.9652C103.587 54.6306 104.266 53.8062 104.701 52.8875C105.178 51.8805 105.394 50.7793 105.793 49.7449C106.207 48.6711 106.882 47.8223 107.892 47.2534C109.696 46.2435 111.844 46.1431 113.702 45.2639C114.563 44.8563 115.37 44.2874 115.902 43.4873C116.44 42.6811 116.605 41.7046 116.519 40.7524C116.434 39.7638 116.142 38.8085 115.902 37.8472C115.662 36.8829 115.436 35.8546 115.656 34.8659C116.091 32.8977 118.098 32.0155 119.723 31.1911C120.608 30.7439 121.46 30.2632 122.226 29.6274C123.005 28.9794 123.684 28.2098 124.243 27.3671C125.357 25.694 126.002 23.6953 126.038 21.6814C126.117 17.9913 123.982 14.4503 120.824 12.5946ZM97.1838 4.19227C94.6071 3.64164 91.9483 4.79156 89.8523 6.38563C87.7197 8.01013 85.7819 10.2004 83.1383 10.6233C81.3343 10.9153 79.5091 10.3161 77.6868 10.3404C75.1284 10.3769 72.6247 11.7246 71.1889 13.8449C70.4314 14.9614 69.972 16.2482 69.3423 17.4407C69.9173 15.2047 70.3584 12.9079 71.6756 10.9792C72.2354 10.1579 72.9655 9.45513 73.8538 8.99577C74.8181 8.49686 75.9072 8.33563 76.9841 8.32042C79.1714 8.29608 81.3526 8.82541 83.5399 8.57292C85.6967 8.32346 87.4368 7.15833 88.9944 5.70724C90.6006 4.21052 92.0335 2.49477 93.9774 1.41481C94.9417 0.876358 96.0186 0.523473 97.1351 0.56302C98.1725 0.599526 99.1429 1.00109 100.025 1.53041C101.771 2.57994 103.225 4.08275 105.105 4.91629C106.076 5.34523 107.11 5.60989 108.16 5.72854C106.836 6.47994 105.394 6.96364 103.904 6.80545C101.501 6.54991 99.5444 4.69422 97.1838 4.19227ZM120.137 30.3636C118.591 31.1941 116.778 31.8573 115.735 33.351C114.603 34.9694 115.102 36.9255 115.558 38.6838C115.798 39.6056 116.048 40.5547 115.993 41.516C115.938 42.4804 115.488 43.3291 114.761 43.9588C113.267 45.2487 111.199 45.4738 109.386 46.0488C108.47 46.3378 107.573 46.718 106.818 47.3265C106.003 47.9836 105.513 48.8931 105.169 49.8697C104.558 51.5976 104.089 54.5576 101.71 54.5697C101.61 54.5697 101.513 54.5606 101.415 54.5484C102.188 53.9796 102.787 53.1856 103.043 52.2577C103.603 50.2286 102.778 47.6946 104.254 46.1917C104.692 45.7506 105.27 45.4768 105.86 45.27C107.208 44.7985 108.643 44.6281 109.997 44.1779C111.351 43.7276 112.689 42.9154 113.267 41.6103C114.256 39.3744 112.671 36.7612 113.149 34.361C113.733 31.4344 116.964 30.0229 119.595 28.6083C121.128 27.7808 122.61 26.783 123.675 25.4019C124.742 24.0208 125.348 22.2138 124.983 20.5102C124.399 17.8027 121.606 15.9926 120.946 13.3247C123.416 14.9462 125.18 17.6628 125.457 20.6258C125.831 24.614 123.635 28.4866 120.137 30.3636Z" fill="#E30B22"/>
<path d="M102.87 64.1312C98.8788 64.8674 94.9605 69.6435 91.4773 75.8008C90.665 76.3635 89.8041 76.8442 88.8763 77.2032C87.6746 77.6686 86.2996 77.9059 85.1162 77.3979C83.5587 76.7286 82.7829 74.9885 82.2779 73.364C81.7729 71.7547 81.3896 70.1089 81.1341 68.448C81.1706 68.4419 81.1858 68.4388 81.1858 68.4388C81.2375 65.5306 81.2162 62.6193 81.1189 59.711C79.0198 59.7323 76.936 59.1604 75.2628 57.9009C74.1828 57.0887 73.3098 56.03 72.5401 54.9197C71.1833 52.9575 70.1277 50.7915 69.3367 48.5403C67.7305 43.9528 67.2985 38.982 67.983 34.1724C68.5488 30.169 69.8904 26.2751 71.9743 22.8101C72.1994 22.4329 72.4336 22.0617 72.6861 21.7058C73.6991 23.3972 75.5031 24.5563 77.3801 25.2255C79.5278 25.9891 81.8155 26.2264 84.0423 26.701C85.8585 27.0904 87.6564 27.6501 89.2839 28.5445C90.9145 29.4419 92.3747 30.6892 93.3451 32.2711C93.9627 33.278 94.3734 34.3945 94.638 35.5474C94.6776 34.4857 95.0335 33.4393 95.6602 32.5783C96.0496 32.0429 96.5515 31.5714 97.1569 31.3037C97.7623 31.0329 98.4833 30.9812 99.0887 31.2489C99.5997 31.471 99.9952 31.8969 100.324 32.3502C101.227 33.6127 101.681 35.1702 101.726 36.7247C101.772 38.2793 101.422 39.8247 100.829 41.2636C99.9283 43.4691 98.4072 45.4769 96.3416 46.6451C97.3394 49.5807 98.3799 52.4981 99.4628 55.4003C100.558 58.3238 101.693 61.2351 102.87 64.1312Z" fill="#EDF1F3"/>
<path d="M90.1351 40.3449C92.3102 40.643 93.7887 42.9428 93.4388 45.4739C93.092 48.008 91.0477 49.8211 88.8726 49.5199C86.6975 49.2187 85.216 46.925 85.5658 44.3909C85.9157 41.8568 87.963 40.0467 90.1351 40.3449Z" fill="#E4CFD8"/>
<path d="M81.708 49.1C82.1217 49.9122 81.3491 51.1443 79.971 51.8501C78.5929 52.5589 77.1388 52.4707 76.722 51.6584C76.3052 50.8462 77.081 49.6141 78.459 48.9083C79.8341 48.2026 81.2913 48.2877 81.708 49.1Z" fill="#ED6675"/>
<path d="M93.0769 51.1505C91.3124 54.6976 88.1608 57.4994 84.4494 58.8805C83.3877 59.276 82.2804 59.5589 81.1548 59.708C80.808 59.7536 80.805 60.3042 81.1548 60.2586C85.2434 59.714 89.0582 57.5633 91.6592 54.3599C92.3954 53.4534 93.0312 52.4738 93.5514 51.4304C93.7066 51.114 93.232 50.8341 93.0769 51.1505Z" fill="#021442"/>
<path d="M77.526 46.9918C76.6103 47.0739 75.6916 47.1561 74.7759 47.2412C74.7515 44.3482 74.7303 41.4551 74.7059 38.5651C74.7029 38.2122 74.1522 38.2092 74.1553 38.5651C74.1796 41.5464 74.204 44.5246 74.2283 47.5059C74.2283 47.6519 74.3226 47.7341 74.4321 47.7584C74.4778 47.7919 74.5264 47.8132 74.5842 47.8101L77.526 47.5455C77.675 47.5333 77.7997 47.4299 77.7997 47.2717C77.7997 47.1256 77.672 46.9766 77.526 46.9918Z" fill="#021442"/>
<path d="M83.2693 47.7281C80.5618 48.7777 78.0673 50.2896 75.8891 52.2061C75.6245 52.4404 76.0138 52.8267 76.2785 52.5955C78.3806 50.7429 80.8021 49.2705 83.4153 48.2575C83.7408 48.1327 83.5978 47.6004 83.2693 47.7281Z" fill="#021442"/>
<path d="M99.1402 37.558C98.6382 37.4059 98.0632 37.698 97.9537 38.2243C97.8807 38.568 98.41 38.7171 98.4831 38.3703C98.5317 38.13 98.7629 38.0174 98.9941 38.0874C99.2801 38.1756 99.4292 38.495 99.4809 38.7688C99.5813 39.3225 99.4657 40.0465 99.1949 40.5393C98.9455 40.9926 98.3979 41.3759 97.8716 41.1356C97.3666 40.9044 97.1841 40.3112 97.0928 39.8092C96.8859 38.6623 96.9498 37.4455 97.2114 36.3138C97.3453 35.7419 97.5278 35.1761 97.7712 34.6406C97.9629 34.2117 98.2792 33.4664 98.8755 33.5972C99.2192 33.6733 99.3683 33.1439 99.0215 33.0679C97.7408 32.788 97.1932 34.4703 96.8951 35.4012C96.4813 36.685 96.3353 38.0661 96.4874 39.4076C96.603 40.4237 97.032 41.8778 98.3401 41.7531C99.6178 41.6284 100.071 40.1621 100.056 39.073C100.044 38.4585 99.7881 37.7527 99.1402 37.558Z" fill="#021442"/>
<path d="M121.977 22.0767C121.436 23.905 120.1 25.4322 118.372 26.2384C118.053 26.3874 118.33 26.862 118.649 26.7129C120.502 25.849 121.925 24.1788 122.506 22.2228C122.607 21.882 122.077 21.736 121.977 22.0767Z" fill="white"/>
<path d="M119.517 23.7471C119.374 23.6649 119.231 23.7288 119.139 23.8444C118.546 24.6171 117.691 25.1799 116.757 25.4476C116.417 25.545 116.563 26.0743 116.903 25.9769C117.986 25.6666 118.929 25.0095 119.614 24.1212C119.708 24.0056 119.635 23.814 119.517 23.7471Z" fill="white"/>
<path d="M78.25 12.1169C75.3631 12.3877 72.7103 14.073 71.2623 16.5889C71.0859 16.8961 71.5604 17.1729 71.7369 16.8657C73.0815 14.5263 75.5578 12.917 78.25 12.6676C78.5999 12.6341 78.6029 12.0835 78.25 12.1169Z" fill="white"/>
<path d="M80.4061 13.6503C78.7999 13.4191 77.1389 13.8237 75.846 14.8154C75.7274 14.9067 75.6665 15.0496 75.7487 15.1926C75.8156 15.3082 76.0072 15.3812 76.1259 15.29C77.2941 14.3925 78.7969 13.9697 80.2632 14.1796C80.4122 14.2009 80.5552 14.1431 80.6008 13.9879C80.6373 13.8602 80.5552 13.6716 80.4061 13.6503Z" fill="white"/>
<path d="M107.105 31.9274C106.925 32.6118 105.864 32.3198 106.043 31.6353C106.183 31.106 106.521 29.9317 105.772 29.661C105.435 29.5393 105.018 29.7005 104.692 29.7887C104.26 29.9043 103.828 30.023 103.396 30.1416C97.589 31.7266 91.8242 33.4636 86.1081 35.3376C86.1507 35.7422 86.1841 36.1559 86.1963 36.5757C86.3454 41.5374 84.079 45.626 81.1342 45.7142C79.6953 45.7568 78.3598 44.8351 77.3559 43.2988C76.641 42.2097 76.0934 40.8103 75.7953 39.2284C75.6706 38.5805 75.5884 37.9021 75.5519 37.1993C75.3603 37.1933 75.1747 37.1933 74.9861 37.1993C74.8948 37.2024 74.8005 37.2085 74.7093 37.2146C74.6606 37.2176 74.6089 37.2206 74.5602 37.2237C74.548 37.2267 74.5419 37.2267 74.5359 37.2267C74.5146 37.2298 74.4933 37.2328 74.4689 37.2359C74.4172 37.245 74.3655 37.2541 74.3138 37.2632C74.1921 37.2876 74.0735 37.3119 73.9548 37.3423C73.8362 37.3727 73.7206 37.4062 73.605 37.4427C73.5958 42.1793 71.3842 46.0063 68.5368 46.0915C67.2317 46.131 66.0149 45.3766 65.0505 44.0928C64.2565 43.0402 63.6359 41.6317 63.28 40.0133C63.0884 39.1524 62.9697 38.2337 62.9423 37.2754C62.9028 36.0373 63.0154 34.8539 63.2526 33.7709C63.9675 30.5249 65.7928 28.2099 67.9983 28.143C68.9475 28.1156 69.851 28.505 70.645 29.2168C71.6976 30.1568 72.5585 31.6536 73.0756 33.4758C73.2399 34.0599 73.3677 34.6744 73.4559 35.3163C73.5015 35.6418 73.535 35.9734 73.5593 36.311C73.8453 36.232 74.1404 36.1742 74.4355 36.1376H74.4446C74.5085 36.1285 74.5754 36.1224 74.6423 36.1164C74.7488 36.1072 74.8553 36.0981 74.9648 36.0951C75.1564 36.0859 75.3481 36.0859 75.5367 36.0951C75.6401 31.5075 77.8122 27.8479 80.5958 27.7627C81.7061 27.7292 82.7526 28.2707 83.6318 29.2229C84.7057 30.3759 85.5331 32.1342 85.9347 34.2089C85.9377 34.2181 85.9377 34.2272 85.9408 34.2363C87.3371 33.78 88.7334 33.3298 90.1328 32.8887C93.4913 31.833 96.865 30.8291 100.251 29.8739C101.115 29.6275 101.979 29.3872 102.843 29.1499C103.646 28.9309 104.473 28.6267 105.301 28.5415C106.055 28.4624 106.752 28.8122 107.093 29.4967C107.479 30.2755 107.315 31.1273 107.105 31.9274Z" fill="#021442"/>
<path d="M79.1354 39.3533C79.1263 39.0734 78.9711 38.8544 78.7886 38.8575C78.603 38.8635 78.46 39.0917 78.4692 39.3716C78.4783 39.6514 78.6334 39.8705 78.819 39.8674C79.0015 39.8644 79.1445 39.6332 79.1354 39.3533Z" fill="#ED6675"/>
<path d="M39.9651 53.4226L41.6474 68.4355C40.9598 68.4203 41.6474 70.6532 41.6474 70.6532C41.6474 70.6532 35.7061 65.6672 33.4732 64.9492V64.9462C33.4732 64.9462 34.4649 62.762 33.318 62.3239C32.1712 61.8828 30.0691 64.5781 30.0691 64.5781C30.0691 64.5781 31.1034 60.815 29.5093 60.9093C29.1656 60.9306 28.6788 61.5116 28.1191 62.4334L26.7471 51.4331L39.9651 53.4226Z" fill="#9A9094"/>
<path d="M39.4044 53.9945C39.374 53.6446 38.8233 53.6416 38.8538 53.9945C39.2553 58.7219 39.8607 63.4281 40.6729 68.1038C40.7338 68.4506 41.2631 68.3046 41.2023 67.9578C40.4022 63.3307 39.8029 58.6733 39.4044 53.9945Z" fill="#373541"/>
<path d="M27.7393 52.7444L28.5545 58.6826L31.7396 58.9625V53.514L27.7393 52.7444Z" fill="#CFC2C8"/>
<path d="M29.7218 56.115C30.3804 56.115 30.9143 55.5811 30.9143 54.9225C30.9143 54.2639 30.3804 53.73 29.7218 53.73C29.0632 53.73 28.5293 54.2639 28.5293 54.9225C28.5293 55.5811 29.0632 56.115 29.7218 56.115Z" fill="#9A9094"/>
<path d="M29.5553 57.9555C29.7972 57.9555 29.9933 57.7593 29.9933 57.5174C29.9933 57.2755 29.7972 57.0793 29.5553 57.0793C29.3133 57.0793 29.1172 57.2755 29.1172 57.5174C29.1172 57.7593 29.3133 57.9555 29.5553 57.9555Z" fill="#9A9094"/>
<path d="M102.87 64.1308C104.516 63.8235 106.174 64.2038 107.819 65.4572C125.804 79.1558 134.967 129.156 135.217 130.528H80.5407C73.0845 131.06 65.0594 123.391 58.753 116.23C51.525 108.029 46.3838 99.0421 46.3838 99.0421L47.7102 97.734L56.8152 88.7263L70.2005 100.773L78.5937 108.327C78.5937 108.327 84.0513 88.921 91.4771 75.7973C94.9573 69.6401 98.8786 64.867 102.87 64.1308Z" fill="#ED6675"/>
<path d="M70.2015 100.773L56.8161 88.7264L55.3438 86.9498C56.3416 85.5109 65.0937 72.9773 67.9746 71.6084C70.9011 70.2181 80.35 68.5784 81.1348 68.4446C81.3904 70.1086 81.7737 71.7544 82.2787 73.3606C82.7837 74.9821 83.5594 76.7222 85.117 77.3945C86.3003 77.9025 87.6754 77.6652 88.877 77.1998C89.8018 76.8439 90.6658 76.3602 91.478 75.7974C84.0522 88.9211 78.5947 108.327 78.5947 108.327L70.2015 100.773Z" fill="#ED6675"/>
<path d="M58.7538 116.23L28.1592 85.8609L28.1713 85.8274C30.5868 86.6396 32.768 86.5666 33.6745 86.4875C36.8231 91.0537 47.7109 97.7312 47.7109 97.7312L46.3845 99.0393C46.3845 99.0424 51.5226 108.026 58.7538 116.23Z" fill="#ED6675"/>
<path d="M33.6743 86.4874C33.6713 86.4813 33.6652 86.4752 33.6622 86.4722C30.5288 81.9059 33.6622 81.1606 33.6622 81.1606C33.6622 81.1606 30.0694 76.996 30.0694 75.5449C30.0694 74.0938 30.4527 70.6562 30.4527 70.6562C30.4527 70.6562 29.1355 66.1295 29.6131 65.9561C30.0907 65.7858 31.8704 67.5624 31.8704 67.5624C31.8704 67.5624 31.4688 65.3264 32.8621 64.8883C33.0081 64.8427 33.218 64.8701 33.4736 64.9553C35.7095 65.6732 41.6477 70.6592 41.6477 70.6592C41.6477 70.6592 40.9602 68.4233 41.6477 68.4415C42.3352 68.4598 43.8441 69.5519 46.6155 72.6457C49.3869 75.7396 52.5355 83.5761 52.5355 83.5761L55.3433 86.9559L56.8157 88.7325L47.7107 97.7402C47.7076 97.7341 36.8229 91.0536 33.6743 86.4874Z" fill="#EDF1F3"/>
<path d="M33.662 86.4723C33.665 86.4784 33.6711 86.4844 33.6742 86.4875C32.7676 86.5666 30.5864 86.6426 28.171 85.8273C27.6538 85.6539 27.1245 85.438 26.5921 85.1733C22.8108 83.2811 21.8373 77.933 22.5431 75.545C23.0998 73.671 26.0871 65.7919 28.1162 62.4365C28.676 61.5117 29.1627 60.9337 29.5065 60.9124C31.1005 60.8181 30.0662 64.5812 30.0662 64.5812C30.0662 64.5812 32.1683 61.8889 33.3152 62.327C34.4621 62.765 33.4703 64.9493 33.4703 64.9493V64.9523C33.2118 64.8671 33.0019 64.8398 32.8589 64.8854C31.4656 65.3265 31.8671 67.5594 31.8671 67.5594C31.8671 67.5594 30.0875 65.7828 29.6099 65.9532C29.1353 66.1266 30.4495 70.6533 30.4495 70.6533C30.4495 70.6533 30.0662 74.0908 30.0662 75.5419C30.0662 76.993 33.6589 81.1577 33.6589 81.1577C33.6589 81.1577 30.5286 81.906 33.662 86.4723Z" fill="#EDF1F3"/>
<path d="M90.5833 76.6006C88.7459 80.6527 86.9876 84.7413 85.3113 88.8634C83.6291 93.0037 82.0319 97.1805 80.52 101.388C79.7108 103.642 78.9259 105.908 78.1654 108.181C75.6405 105.793 73.1155 103.405 70.5936 101.017C71.4058 95.5347 72.2181 90.0528 73.0273 84.574C73.2585 83.0134 73.4897 81.4528 73.7209 79.8922C73.7726 79.5454 73.2433 79.3963 73.1916 79.7462C72.3793 85.2402 71.564 90.7373 70.7518 96.2314C70.5388 97.6733 70.3259 99.1184 70.1099 100.56C67.3811 97.9776 64.6523 95.3978 61.9205 92.8151C60.3569 91.3366 58.7963 89.8581 57.2326 88.3797C56.9771 88.1363 56.5877 88.5257 56.8432 88.7691L73.4015 104.433C74.9651 105.911 76.5257 107.39 78.0894 108.868C78.2658 109.036 78.5001 108.905 78.5487 108.728C78.5548 108.713 78.567 108.704 78.5731 108.689C79.9755 104.491 81.457 100.32 83.0267 96.1827C84.6117 92.0059 86.2787 87.8595 88.034 83.7496C89.0167 81.4497 90.0236 79.1621 91.0579 76.8835C91.2039 76.558 90.7294 76.2781 90.5833 76.6006Z" fill="#021442"/>
<path d="M108.142 94.9476C105.83 100.536 103.509 106.146 100.515 111.412C97.8381 116.121 94.6013 120.55 90.5553 124.179C88.3315 126.172 85.8734 127.897 83.2055 129.244C82.8891 129.403 83.169 129.877 83.4823 129.719C88.2676 127.304 92.3471 123.677 95.7025 119.528C99.3744 114.983 102.185 109.83 104.619 104.539C106.052 101.427 107.36 98.2604 108.668 95.0936C108.808 94.7681 108.276 94.6251 108.142 94.9476Z" fill="#021442"/>
<path d="M80.6601 113.778C80.1885 112.528 79.717 111.275 79.2455 110.024C79.1207 109.696 78.5914 109.839 78.7161 110.17L80.1307 113.924C80.2524 114.25 80.7848 114.11 80.6601 113.778Z" fill="#021442"/>
<path d="M83.4735 112.145L80.3766 108.874C80.1332 108.616 79.7438 109.005 79.9872 109.264C81.0185 110.353 82.0528 111.445 83.0841 112.534C83.3275 112.793 83.7169 112.403 83.4735 112.145Z" fill="#021442"/>
<path d="M56.7728 88.4038C53.0888 91.8171 49.4048 95.2304 45.7178 98.6436C45.66 98.6953 45.6387 98.7562 45.6356 98.814C45.6113 98.8809 45.6143 98.9569 45.6691 99.036C48.3553 102.973 51.0415 106.909 53.7246 110.849C54.4821 111.959 55.2396 113.072 56.0001 114.183C56.1979 114.475 56.6755 114.198 56.4747 113.906C53.7885 109.969 51.1023 106.033 48.4192 102.093C47.6952 101.032 46.9711 99.97 46.2441 98.9052C49.8824 95.5346 53.5208 92.1639 57.1592 88.7932C57.4208 88.5529 57.0314 88.1635 56.7728 88.4038Z" fill="#021442"/>
<path d="M41.8216 77.6105C39.616 75.1495 37.4074 72.6884 35.2019 70.2243C34.2893 69.2052 33.3827 68.1769 32.3971 67.2278C32.4305 67.1578 32.4366 67.0757 32.3879 66.9875C32.1689 66.595 32.1993 66.0718 32.4762 65.7159C32.5279 65.6489 32.6344 65.5485 32.6952 65.506C32.7865 65.4421 32.9051 65.3782 32.9781 65.3508C33.0359 65.3295 33.0937 65.3143 33.1546 65.2991C33.185 65.293 33.2154 65.2869 33.2428 65.2808C33.2458 65.2808 33.2458 65.2808 33.2489 65.2808C33.2641 65.2778 33.2762 65.2778 33.2915 65.2778C33.3523 65.2717 33.4131 65.2717 33.474 65.2748C33.4892 65.2748 33.5409 65.2808 33.5409 65.2808C33.547 65.2808 33.5531 65.2839 33.5652 65.2839C33.5865 65.2869 33.6048 65.29 33.6261 65.2961C33.7721 65.3265 33.9242 65.2535 33.9638 65.1044C34.0003 64.9675 33.9181 64.7971 33.7721 64.7667C33.1333 64.6298 32.4457 64.8641 32.0442 65.3812C31.7826 65.7189 31.67 66.1448 31.7035 66.5646C31.3171 66.1996 30.8912 65.8163 30.4288 65.6307C30.1094 65.5029 29.793 65.5485 29.5618 65.728C29.8052 65.3113 30.0486 64.8945 30.3011 64.4808C30.4836 64.1766 30.009 63.8997 29.8265 64.2039C27.9465 67.3069 26.2946 70.5407 24.88 73.8809C24.7431 74.2034 25.2177 74.4832 25.3546 74.1577C26.4954 71.4624 27.7943 68.8371 29.2424 66.2939C29.1085 66.9327 29.3337 67.7054 29.4858 68.3138C29.65 68.9648 29.8752 69.6006 30.1489 70.2121C30.1185 70.2395 30.0942 70.273 30.0759 70.3186C29.7626 71.1308 29.5709 71.9826 29.4949 72.8466C28.8926 73.9144 28.2902 74.9822 27.6909 76.0499C27.5175 76.3572 27.9921 76.6371 28.1655 76.3268C28.5975 75.5602 29.0325 74.7905 29.4645 74.0239C29.4949 74.9304 29.65 75.8309 29.9269 76.6949C30.2554 77.717 30.7513 78.6844 31.4053 79.5362C31.7369 79.9682 32.1385 80.3484 32.4488 80.7956C32.8351 81.3523 32.8656 81.8513 32.6982 82.4962C32.3697 83.7739 32.5127 85.0668 33.3097 86.1498C33.5166 86.4327 33.9942 86.1589 33.7843 85.8729C33.0481 84.8721 32.9507 83.7587 33.2428 82.5844C33.3766 82.052 33.4253 81.544 33.2063 81.0268C33.0116 80.5614 32.6709 80.1781 32.3423 79.8039C30.9156 78.1825 30.079 76.1564 30.009 73.9874C29.9999 73.6619 30.009 73.3364 30.0333 73.0109C30.0394 72.9987 30.0486 72.9835 30.0546 72.9713C30.1064 72.8801 30.0972 72.7918 30.0577 72.7219C30.1277 72.0739 30.2676 71.435 30.4775 70.8175C32.6374 74.0087 34.9859 77.0691 37.517 79.9743C37.7482 80.242 38.1375 79.8526 37.9063 79.5849C35.3479 76.6431 32.9751 73.5463 30.8 70.3095C30.5201 69.7315 30.2889 69.1382 30.1124 68.5207C29.9421 67.9244 29.7626 67.2613 29.7596 66.6376C29.7596 66.3638 29.8295 66.0201 30.1855 66.1174C30.4957 66.2026 30.7787 66.5068 31.019 66.7046C31.524 67.1274 32.0046 67.5807 32.467 68.0492C34.4475 70.0539 36.2697 72.226 38.1497 74.3251C39.2449 75.548 40.34 76.7709 41.4352 77.9908C41.6694 78.2646 42.0588 77.8752 41.8216 77.6105Z" fill="#021442"/>
<path d="M47.1442 75.4719C45.3889 73.744 43.6367 72.0191 41.8814 70.2912C41.6289 70.0417 41.2395 70.4311 41.492 70.6806C43.2473 72.4085 44.9996 74.1334 46.7549 75.8613C47.0074 76.1077 47.3967 75.7183 47.1442 75.4719Z" fill="#021442"/>
<path d="M67.5452 75.1707C67.5178 75.0764 67.4722 74.9973 67.4052 74.9274C67.3657 74.8878 67.3292 74.8513 67.2896 74.8118C67.2409 74.757 67.1801 74.7205 67.1132 74.6992C67.0463 74.6657 66.9763 74.6475 66.9002 74.6505C66.8242 74.6475 66.7542 74.6627 66.6873 74.6992C66.6204 74.7205 66.5595 74.76 66.5108 74.8118C66.4835 74.8483 66.453 74.8848 66.4257 74.9243C66.377 75.0095 66.3496 75.1038 66.3496 75.2011C66.3557 75.2498 66.3618 75.2985 66.3679 75.3472C66.3952 75.4415 66.4409 75.5206 66.5078 75.5905C66.5473 75.6301 66.5839 75.6666 66.6234 75.7061C66.6721 75.7609 66.7329 75.7974 66.7998 75.8187C66.8668 75.8522 66.9367 75.8704 67.0128 75.8674C67.0888 75.8704 67.1588 75.8552 67.2257 75.8187C67.2927 75.7974 67.3535 75.7579 67.4022 75.7061C67.4296 75.6696 67.46 75.6331 67.4874 75.5936C67.536 75.5084 67.5634 75.4141 67.5634 75.3167C67.5573 75.2681 67.5512 75.2194 67.5452 75.1707Z" fill="#ED6675"/>
<path d="M63.2318 81.3005C62.523 81.3005 62.523 82.3987 63.2318 82.3987C63.9406 82.3987 63.9406 81.3005 63.2318 81.3005Z" fill="#ED6675"/>
<path d="M67.0303 78.2464C66.9908 78.1703 66.9543 78.0943 66.9147 78.0182C66.8813 77.9543 66.8326 77.9026 66.7718 77.8631C66.72 77.8144 66.6561 77.7809 66.5862 77.7657C66.5132 77.7414 66.4402 77.7384 66.3671 77.7566C66.2941 77.7596 66.2272 77.7809 66.1633 77.8205C66.1268 77.8479 66.0903 77.8783 66.0508 77.9057C65.9838 77.9756 65.9352 78.0547 65.9108 78.149C65.9047 78.1977 65.8987 78.2464 65.8926 78.2951C65.8926 78.3954 65.9169 78.4867 65.9686 78.5719C66.0082 78.6479 66.0447 78.724 66.0842 78.8001C66.1177 78.8639 66.1664 78.9157 66.2272 78.9552C66.2789 79.0039 66.3428 79.0373 66.4128 79.0525C66.4858 79.0769 66.5588 79.0799 66.6318 79.0617C66.7048 79.0586 66.7717 79.0373 66.8356 78.9978C66.8721 78.9704 66.9086 78.94 66.9482 78.9126C67.0151 78.8426 67.0638 78.7635 67.0881 78.6692C67.0942 78.6206 67.1003 78.5719 67.1064 78.5232C67.1064 78.4259 67.082 78.3346 67.0303 78.2464Z" fill="#ED6675"/>
<path d="M69.4222 83.0195C68.7134 83.0195 68.7134 84.1177 69.4222 84.1177C70.131 84.1177 70.131 83.0195 69.4222 83.0195Z" fill="#ED6675"/>
<path d="M70.9553 78.1976C70.934 78.1307 70.8945 78.0699 70.8427 78.0212C70.7941 77.9664 70.7332 77.9299 70.6663 77.9086C70.5994 77.8752 70.5294 77.8569 70.4533 77.8599C70.4047 77.866 70.356 77.8721 70.3073 77.8782C70.213 77.9056 70.1339 77.9512 70.064 78.0181C70.0366 78.0546 70.0062 78.0911 69.9788 78.1307C69.9301 78.2159 69.9027 78.3102 69.9027 78.4075V78.5231C69.8997 78.5992 69.9149 78.6692 69.9514 78.7361C69.9727 78.803 70.0122 78.8638 70.064 78.9125C70.1126 78.9673 70.1735 79.0038 70.2404 79.0251C70.3073 79.0585 70.3773 79.0768 70.4533 79.0737C70.502 79.0677 70.5507 79.0616 70.5994 79.0555C70.6937 79.0281 70.7728 78.9825 70.8427 78.9156C70.8701 78.8791 70.9005 78.8426 70.9279 78.803C70.9766 78.7178 71.004 78.6235 71.004 78.5262V78.4106C71.007 78.3345 70.9918 78.2645 70.9553 78.1976Z" fill="#ED6675"/>
<path d="M72.0172 72.9926C71.9898 72.8983 71.9442 72.8192 71.8772 72.7493C71.8407 72.7219 71.8042 72.6915 71.7647 72.6641C71.6795 72.6154 71.5852 72.588 71.4878 72.588H71.3722C71.2962 72.585 71.2262 72.6002 71.1593 72.6367C71.0924 72.658 71.0315 72.6975 70.9828 72.7493C70.9281 72.7979 70.8916 72.8588 70.8703 72.9257C70.8368 72.9926 70.8186 73.0626 70.8216 73.1386C70.8277 73.1873 70.8338 73.236 70.8399 73.2847C70.8672 73.379 70.9129 73.4581 70.9798 73.528C71.0163 73.5554 71.0528 73.5858 71.0924 73.6132C71.1775 73.6619 71.2719 73.6893 71.3692 73.6893H71.4848C71.5608 73.6923 71.6308 73.6771 71.6977 73.6406C71.7647 73.6193 71.8255 73.5798 71.8742 73.528C71.9289 73.4794 71.9655 73.4185 71.9867 73.3516C72.0202 73.2847 72.0385 73.2147 72.0354 73.1386C72.0293 73.09 72.0233 73.0413 72.0172 72.9926Z" fill="#ED6675"/>
<path d="M66.4865 81.7508C66.4653 81.6838 66.4257 81.623 66.374 81.5743C66.3253 81.5196 66.2645 81.4831 66.1975 81.4618C66.1306 81.4283 66.0606 81.4131 65.9846 81.4131C65.9359 81.4192 65.8872 81.4253 65.8386 81.4313C65.7443 81.4587 65.6652 81.5044 65.5952 81.5713C65.5678 81.6078 65.5374 81.6443 65.51 81.6838C65.4614 81.769 65.434 81.8633 65.434 81.9607V82.0763C65.4309 82.1523 65.4461 82.2223 65.4826 82.2892C65.5039 82.3561 65.5435 82.417 65.5952 82.4657C65.6439 82.5204 65.7047 82.5569 65.7716 82.5782C65.8386 82.6117 65.9085 82.6299 65.9846 82.6269C66.0333 82.6208 66.0819 82.6147 66.1306 82.6086C66.2249 82.5813 66.304 82.5356 66.374 82.4687C66.4014 82.4322 66.4318 82.3957 66.4592 82.3561C66.5078 82.271 66.5352 82.1767 66.5352 82.0793V81.9637C66.5352 81.8877 66.52 81.8177 66.4865 81.7508Z" fill="#ED6675"/>
<path d="M64.3088 78.085C64.2875 78.0181 64.248 77.9572 64.1963 77.9085C64.1476 77.8538 64.0867 77.8173 64.0198 77.796C63.9529 77.7625 63.8829 77.7473 63.8069 77.7473C63.7582 77.7534 63.7095 77.7595 63.6608 77.7656C63.5665 77.7929 63.4874 77.8386 63.4175 77.9055C63.3901 77.942 63.3597 77.9785 63.3323 78.0181C63.2836 78.1032 63.2562 78.1975 63.2562 78.2949V78.5231C63.2532 78.5991 63.2684 78.6691 63.3049 78.736C63.3262 78.8029 63.3658 78.8638 63.4175 78.9124C63.4661 78.9672 63.527 79.0037 63.5939 79.025C63.6608 79.0585 63.7308 79.0767 63.8069 79.0737C63.8555 79.0676 63.9042 79.0615 63.9529 79.0554C64.0472 79.028 64.1263 78.9824 64.1963 78.9155C64.2236 78.879 64.2541 78.8425 64.2814 78.8029C64.3301 78.7178 64.3575 78.6234 64.3575 78.5261V78.2979C64.3605 78.2188 64.3423 78.1489 64.3088 78.085Z" fill="#ED6675"/>
<path d="M60.597 82.7883C59.8882 82.7883 59.8882 83.8865 60.597 83.8865C61.3028 83.8896 61.3059 82.7883 60.597 82.7883Z" fill="#ED6675"/>
<path d="M62.5015 86.7461C62.4832 86.6731 62.4528 86.6123 62.4041 86.5606C62.3646 86.4997 62.3129 86.4541 62.249 86.4176L62.1182 86.3628C62.0208 86.3354 61.9235 86.3354 61.8261 86.3628C61.7835 86.3811 61.7379 86.3993 61.6953 86.4176C61.6132 86.4662 61.5463 86.5332 61.4976 86.6153C61.458 86.6914 61.4215 86.7674 61.382 86.8435C61.3424 86.9074 61.3211 86.9743 61.3181 87.0473C61.3029 87.1203 61.3059 87.1933 61.3272 87.2663C61.3455 87.3393 61.3759 87.4002 61.4246 87.4519C61.4641 87.5127 61.5158 87.5584 61.5797 87.5949C61.6223 87.6131 61.6679 87.6314 61.7105 87.6496C61.8079 87.677 61.9052 87.677 62.0026 87.6496C62.0452 87.6314 62.0908 87.6131 62.1334 87.5949C62.2155 87.5462 62.2825 87.4793 62.3311 87.3971C62.3707 87.3211 62.4072 87.245 62.4467 87.169C62.4863 87.1051 62.5076 87.0382 62.5106 86.9652C62.5289 86.8921 62.5258 86.8191 62.5015 86.7461Z" fill="#ED6675"/>
<path d="M64.722 84.2788C64.0132 84.2788 64.0132 85.377 64.722 85.377C65.4309 85.3801 65.4309 84.2788 64.722 84.2788Z" fill="#ED6675"/>
<path d="M111.029 77.4006C110.32 77.4006 110.32 78.4988 111.029 78.4988C111.734 78.5019 111.737 77.4006 111.029 77.4006Z" fill="#ED6675"/>
<path d="M108.735 81.7571C108.026 81.7571 108.026 82.8553 108.735 82.8553C109.444 82.8583 109.444 81.7571 108.735 81.7571Z" fill="#ED6675"/>
<path d="M112.747 83.8196C112.039 83.8196 112.039 84.9178 112.747 84.9178C113.456 84.9208 113.456 83.8196 112.747 83.8196Z" fill="#ED6675"/>
<path d="M115.561 81.6111L115.507 81.4803C115.458 81.3981 115.391 81.3312 115.309 81.2825L115.075 81.1791C115.011 81.1396 114.944 81.1183 114.871 81.1152C114.798 81.1 114.725 81.1031 114.652 81.1243C114.579 81.1426 114.518 81.173 114.466 81.2217C114.405 81.2612 114.36 81.313 114.323 81.3768L114.269 81.5076C114.241 81.605 114.241 81.7023 114.269 81.7997C114.287 81.8423 114.305 81.8879 114.323 81.9305C114.372 82.0126 114.439 82.0796 114.521 82.1282C114.6 82.1617 114.676 82.1982 114.755 82.2317C114.819 82.2712 114.886 82.2925 114.959 82.2956C115.032 82.3108 115.105 82.3077 115.178 82.2864C115.251 82.2682 115.312 82.2378 115.364 82.1891C115.425 82.1495 115.47 82.0978 115.507 82.0339C115.525 81.9913 115.543 81.9457 115.561 81.9031C115.586 81.8058 115.586 81.7084 115.561 81.6111Z" fill="#ED6675"/>
<path d="M118.638 81.9823C118.617 81.9154 118.577 81.8545 118.525 81.8058C118.477 81.7511 118.416 81.7146 118.349 81.6933C118.282 81.6598 118.212 81.6416 118.136 81.6446C118.087 81.6507 118.039 81.6568 117.99 81.6629C117.896 81.6902 117.817 81.7359 117.747 81.8028C117.719 81.8393 117.689 81.8758 117.661 81.9154C117.613 82.0005 117.585 82.0948 117.585 82.1922V82.4204C117.582 82.4964 117.598 82.5664 117.634 82.6333C117.655 82.7002 117.695 82.7611 117.747 82.8097C117.795 82.8645 117.856 82.901 117.923 82.9223C117.99 82.9558 118.06 82.974 118.136 82.971C118.185 82.9649 118.233 82.9588 118.282 82.9527C118.376 82.9253 118.455 82.8797 118.525 82.8128C118.553 82.7763 118.583 82.7398 118.611 82.7002C118.659 82.6151 118.687 82.5207 118.687 82.4234V82.1952C118.69 82.1161 118.671 82.0462 118.638 81.9823Z" fill="#ED6675"/>
<path d="M119.897 86.5667C119.876 86.4997 119.836 86.4389 119.785 86.3902C119.748 86.3629 119.712 86.3324 119.672 86.3051C119.587 86.2564 119.492 86.229 119.395 86.229C119.346 86.2351 119.298 86.2412 119.249 86.2473C119.155 86.2746 119.076 86.3203 119.006 86.3872L118.89 86.5028C118.835 86.5515 118.799 86.6123 118.778 86.6792C118.744 86.7462 118.726 86.8161 118.729 86.8922C118.726 86.9682 118.741 87.0382 118.778 87.1051C118.799 87.1721 118.838 87.2329 118.89 87.2816C118.927 87.309 118.963 87.3394 119.003 87.3668C119.088 87.4154 119.182 87.4428 119.28 87.4428C119.328 87.4367 119.377 87.4306 119.426 87.4246C119.52 87.3972 119.599 87.3515 119.669 87.2846L119.785 87.169C119.839 87.1203 119.876 87.0595 119.897 86.9926C119.931 86.9256 119.949 86.8557 119.946 86.7796C119.949 86.7005 119.934 86.6306 119.897 86.5667Z" fill="#ED6675"/>
<path d="M116.231 89.3167C116.21 89.2498 116.17 89.1889 116.119 89.1402C116.082 89.1129 116.046 89.0824 116.006 89.0551C115.921 89.0064 115.827 88.979 115.729 88.979C115.681 88.9851 115.632 88.9912 115.583 88.9973C115.489 89.0246 115.41 89.0703 115.34 89.1372C115.264 89.2133 115.188 89.2893 115.112 89.3654C115.057 89.414 115.021 89.4749 114.999 89.5418C114.966 89.6087 114.948 89.6787 114.951 89.7547C114.948 89.8308 114.963 89.9008 114.999 89.9677C115.021 90.0346 115.06 90.0955 115.112 90.1441C115.148 90.1715 115.185 90.2019 115.224 90.2293C115.31 90.278 115.404 90.3054 115.501 90.3054C115.55 90.2993 115.599 90.2932 115.647 90.2871C115.742 90.2597 115.821 90.2141 115.891 90.1472C115.967 90.0711 116.043 89.9951 116.119 89.919C116.174 89.8703 116.21 89.8095 116.231 89.7426C116.265 89.6757 116.283 89.6057 116.28 89.5296C116.28 89.4536 116.265 89.3836 116.231 89.3167Z" fill="#ED6675"/>
<path d="M116.417 78.6631C115.709 78.6631 115.709 79.7613 116.417 79.7613C117.123 79.7613 117.126 78.6631 116.417 78.6631Z" fill="#ED6675"/>
<path d="M112.905 72.9256C112.884 72.8587 112.845 72.7979 112.793 72.7492C112.744 72.6944 112.683 72.6579 112.616 72.6366C112.55 72.6032 112.48 72.5849 112.404 72.588C112.355 72.5941 112.306 72.6001 112.258 72.6062C112.163 72.6336 112.084 72.6792 112.014 72.7462C111.987 72.7827 111.956 72.8192 111.929 72.8587C111.88 72.9439 111.853 73.0382 111.853 73.1356V73.2512C111.85 73.3272 111.865 73.3972 111.902 73.4641C111.923 73.531 111.962 73.5919 112.014 73.6405C112.063 73.6953 112.124 73.7318 112.191 73.7531C112.258 73.7866 112.327 73.8048 112.404 73.8018C112.452 73.7957 112.501 73.7896 112.55 73.7835C112.644 73.7561 112.723 73.7105 112.793 73.6436C112.82 73.6071 112.851 73.5706 112.878 73.531C112.927 73.4459 112.954 73.3515 112.954 73.2542V73.1386C112.957 73.0625 112.939 72.9926 112.905 72.9256Z" fill="#ED6675"/>
<path d="M108.507 72.7036C107.798 72.7036 107.798 73.8018 108.507 73.8018C109.216 73.8018 109.216 72.7036 108.507 72.7036Z" fill="#ED6675"/>
<path d="M106.445 76.9443C105.736 76.9443 105.736 78.0425 106.445 78.0425C107.15 78.0425 107.154 76.9443 106.445 76.9443Z" fill="#ED6675"/>
<path d="M108.28 69.2629C107.571 69.2629 107.571 70.3611 108.28 70.3611C108.985 70.3642 108.988 69.2629 108.28 69.2629Z" fill="#ED6675"/>
<path d="M111.716 88.5195C111.007 88.5195 111.007 89.6177 111.716 89.6177C112.425 89.6208 112.425 88.5195 111.716 88.5195Z" fill="#ED6675"/>
<path d="M120.77 90.5823C120.061 90.5823 120.061 91.6805 120.77 91.6805C121.479 91.6835 121.479 90.5823 120.77 90.5823Z" fill="#ED6675"/>
<path d="M124.254 94.2447C124.233 94.1778 124.193 94.117 124.142 94.0683C124.093 94.0135 124.032 93.977 123.965 93.9557C123.898 93.9223 123.828 93.904 123.752 93.9071C123.703 93.9132 123.655 93.9192 123.606 93.9253C123.512 93.9527 123.433 93.9983 123.363 94.0653C123.335 94.1018 123.305 94.1383 123.278 94.1778C123.229 94.263 123.202 94.3573 123.202 94.4546V94.5702C123.199 94.6463 123.214 94.7163 123.25 94.7832C123.272 94.8501 123.311 94.911 123.363 94.9596C123.411 95.0144 123.472 95.0509 123.539 95.0722C123.606 95.1057 123.676 95.1239 123.752 95.1209C123.801 95.1148 123.85 95.1087 123.898 95.1026C123.992 95.0752 124.072 95.0296 124.142 94.9627C124.169 94.9262 124.199 94.8897 124.227 94.8501C124.275 94.7649 124.303 94.6706 124.303 94.5733V94.4577C124.306 94.3816 124.291 94.3117 124.254 94.2447Z" fill="#ED6675"/>
<path d="M84.5502 124.396C83.8414 124.396 83.8414 125.494 84.5502 125.494C85.259 125.497 85.259 124.396 84.5502 124.396Z" fill="#ED6675"/>
<path d="M88.6791 121.989C87.9703 121.989 87.9703 123.087 88.6791 123.087C89.3848 123.087 89.3879 121.989 88.6791 121.989Z" fill="#ED6675"/>
<path d="M85.1949 120.672C85.1675 120.578 85.1219 120.498 85.055 120.428C85.0185 120.401 84.982 120.371 84.9424 120.343C84.8572 120.295 84.7629 120.267 84.6656 120.267H84.55C84.4739 120.264 84.404 120.279 84.337 120.316C84.2701 120.337 84.2093 120.377 84.1606 120.428C84.1058 120.477 84.0693 120.538 84.048 120.605C84.0146 120.672 83.9963 120.742 83.9994 120.818C84.0054 120.867 84.0115 120.915 84.0176 120.964C84.045 121.058 84.0906 121.137 84.1575 121.207C84.1941 121.235 84.2306 121.265 84.2701 121.292C84.3553 121.341 84.4496 121.368 84.5469 121.368H84.6625C84.7386 121.372 84.8086 121.356 84.8755 121.32C84.9424 121.298 85.0032 121.259 85.0519 121.207C85.1067 121.159 85.1432 121.098 85.1645 121.031C85.198 120.964 85.2162 120.894 85.2132 120.818C85.2101 120.769 85.204 120.721 85.1949 120.672Z" fill="#ED6675"/>
<path d="M89.7795 117.578C89.7522 117.484 89.7065 117.405 89.6396 117.335C89.6031 117.307 89.5666 117.277 89.527 117.25C89.4419 117.201 89.3476 117.173 89.2502 117.173H89.1346C89.0586 117.17 88.9886 117.186 88.9217 117.222C88.8547 117.243 88.7939 117.283 88.7452 117.335C88.6905 117.383 88.654 117.444 88.6327 117.511C88.5992 117.578 88.584 117.648 88.584 117.724C88.5901 117.773 88.5962 117.821 88.6022 117.87C88.6296 117.964 88.6752 118.044 88.7422 118.113C88.7787 118.141 88.8152 118.171 88.8547 118.199C88.9399 118.247 89.0342 118.275 89.1316 118.275H89.2472C89.3232 118.278 89.3932 118.263 89.4601 118.226C89.527 118.205 89.5879 118.165 89.6366 118.113C89.6913 118.065 89.7278 118.004 89.7491 117.937C89.7826 117.87 89.8008 117.8 89.7978 117.724C89.7947 117.675 89.7887 117.627 89.7795 117.578Z" fill="#ED6675"/>
<path d="M88.7516 113.736C88.7486 113.663 88.7273 113.596 88.6877 113.532C88.6603 113.495 88.6299 113.459 88.6025 113.419C88.5326 113.352 88.4535 113.304 88.3592 113.279C88.3105 113.273 88.2618 113.267 88.2131 113.261C88.1128 113.261 88.0215 113.286 87.9363 113.337C87.8572 113.371 87.7812 113.404 87.7021 113.441C87.6382 113.474 87.5865 113.523 87.5469 113.584C87.4982 113.635 87.4648 113.699 87.4496 113.769C87.4252 113.842 87.4222 113.915 87.4404 113.988C87.4435 114.061 87.4648 114.128 87.5043 114.192C87.5317 114.229 87.5621 114.265 87.5895 114.305C87.6595 114.372 87.7386 114.42 87.8329 114.445C87.8816 114.451 87.9302 114.457 87.9789 114.463C88.0793 114.463 88.1706 114.439 88.2557 114.387C88.3348 114.353 88.4109 114.32 88.49 114.283C88.5539 114.25 88.6056 114.201 88.6451 114.14C88.6938 114.089 88.7273 114.025 88.7425 113.955C88.7638 113.882 88.7668 113.809 88.7516 113.736Z" fill="#ED6675"/>
<path d="M84.8063 115.704C84.779 115.668 84.7485 115.631 84.7212 115.592C84.6512 115.525 84.5721 115.476 84.4778 115.452C84.3622 115.412 84.2496 115.376 84.134 115.336C84.061 115.312 83.988 115.309 83.915 115.327C83.842 115.33 83.7751 115.351 83.7112 115.391C83.6473 115.424 83.5956 115.473 83.556 115.534C83.5074 115.585 83.4739 115.649 83.4587 115.719C83.4526 115.768 83.4465 115.817 83.4404 115.865C83.4404 115.966 83.4648 116.057 83.5165 116.142C83.5439 116.179 83.5743 116.215 83.6017 116.255C83.6716 116.322 83.7507 116.37 83.845 116.395C83.9606 116.434 84.0732 116.471 84.1888 116.51C84.2618 116.535 84.3348 116.538 84.4078 116.519C84.4808 116.516 84.5478 116.495 84.6116 116.456C84.6755 116.422 84.7273 116.373 84.7668 116.313C84.8155 116.261 84.8489 116.197 84.8641 116.127C84.8702 116.078 84.8763 116.03 84.8824 115.981C84.8793 115.884 84.855 115.789 84.8063 115.704Z" fill="#ED6675"/>
<path d="M81.6148 118.773C81.5935 118.707 81.554 118.646 81.5023 118.597C81.4658 118.57 81.4293 118.539 81.3897 118.512C81.3045 118.463 81.2102 118.436 81.1129 118.436L80.9669 118.454C80.8726 118.481 80.7935 118.527 80.7235 118.594C80.684 118.634 80.6474 118.67 80.6079 118.71C80.5531 118.758 80.5166 118.819 80.4953 118.886C80.4619 118.953 80.4436 119.023 80.4467 119.099C80.4436 119.175 80.4588 119.245 80.4953 119.312C80.5166 119.379 80.5562 119.44 80.6079 119.488C80.6444 119.516 80.6809 119.546 80.7205 119.574C80.8056 119.622 80.8999 119.65 80.9973 119.65C81.046 119.644 81.0946 119.637 81.1433 119.631C81.2376 119.604 81.3167 119.558 81.3867 119.491C81.4262 119.452 81.4627 119.415 81.5023 119.376C81.557 119.327 81.5935 119.266 81.6148 119.199C81.6483 119.132 81.6666 119.062 81.6635 118.986C81.6666 118.91 81.6513 118.84 81.6148 118.773Z" fill="#ED6675"/>
<path d="M80.5414 122.905C79.8326 122.905 79.8326 124.003 80.5414 124.003C81.2471 124.006 81.2502 122.905 80.5414 122.905Z" fill="#ED6675"/>
<path d="M54.2933 93.9072C53.5845 93.9072 53.5845 95.0054 54.2933 95.0054C54.9991 95.0054 55.0021 93.9072 54.2933 93.9072Z" fill="#ED6675"/>
<path d="M57.1595 91.1572C56.4507 91.1572 56.4507 92.2554 57.1595 92.2554C57.8653 92.2554 57.8684 91.1572 57.1595 91.1572Z" fill="#ED6675"/>
<path d="M57.9077 95.5681C57.8895 95.4951 57.8591 95.4343 57.8104 95.3826C57.7708 95.3217 57.7191 95.2761 57.6552 95.2396L57.5244 95.1848C57.4271 95.1575 57.3297 95.1575 57.2324 95.1848L57.1016 95.2396C57.0194 95.2883 56.9525 95.3552 56.9038 95.4373L56.7882 95.6655C56.7487 95.7294 56.7274 95.7963 56.7244 95.8693C56.7091 95.9423 56.7122 96.0153 56.7335 96.0883C56.7517 96.1614 56.7821 96.2222 56.8308 96.2739C56.8704 96.3348 56.9221 96.3804 56.986 96.4169L57.1168 96.4717C57.2141 96.499 57.3115 96.499 57.4088 96.4717C57.4514 96.4534 57.497 96.4351 57.5396 96.4169C57.6218 96.3682 57.6887 96.3013 57.7374 96.2192C57.7769 96.1431 57.8134 96.0671 57.853 95.991C57.8925 95.9271 57.9138 95.8602 57.9169 95.7872C57.9351 95.7142 57.9321 95.6412 57.9077 95.5681Z" fill="#ED6675"/>
<path d="M62.3283 97.9137C62.307 97.8468 62.2675 97.7859 62.2158 97.7372C62.1671 97.6825 62.1063 97.646 62.0393 97.6247C61.9724 97.5912 61.9024 97.573 61.8264 97.576C61.7777 97.5821 61.729 97.5882 61.6804 97.5943C61.5861 97.6216 61.507 97.6673 61.437 97.7342C61.4096 97.7707 61.3792 97.8072 61.3518 97.8468C61.3031 97.9319 61.2758 98.0262 61.2758 98.1236V98.3517C61.2727 98.4278 61.2879 98.4978 61.3244 98.5647C61.3457 98.6316 61.3853 98.6925 61.437 98.7411C61.4857 98.7959 61.5465 98.8324 61.6134 98.8537C61.6804 98.8872 61.7503 98.9054 61.8264 98.9024C61.8751 98.8963 61.9237 98.8902 61.9724 98.8841C62.0667 98.8567 62.1458 98.8111 62.2158 98.7442C62.2432 98.7077 62.2736 98.6712 62.301 98.6316C62.3496 98.5464 62.377 98.4521 62.377 98.3548V98.1266C62.3801 98.0475 62.3648 97.9776 62.3283 97.9137Z" fill="#ED6675"/>
<path d="M60.8977 94.4243C60.8703 94.33 60.8247 94.2509 60.7578 94.1809C60.7213 94.1535 60.6848 94.1231 60.6452 94.0957C60.56 94.047 60.4657 94.0197 60.3684 94.0197H60.2528C60.1767 94.0166 60.1068 94.0318 60.0398 94.0683C59.9729 94.0896 59.9121 94.1292 59.8634 94.1809C59.8086 94.2296 59.7721 94.2904 59.7508 94.3573C59.7174 94.4243 59.7021 94.4942 59.7021 94.5703C59.7082 94.619 59.7143 94.6676 59.7204 94.7163C59.7478 94.8106 59.7934 94.8897 59.8603 94.9597C59.8968 94.9871 59.9333 95.0175 59.9729 95.0449C60.0581 95.0935 60.1524 95.1209 60.2497 95.1209H60.3653C60.4414 95.124 60.5114 95.1087 60.5783 95.0722C60.6452 95.0509 60.706 95.0114 60.7547 94.9597C60.8095 94.911 60.846 94.8502 60.8673 94.7832C60.9007 94.7163 60.919 94.6463 60.916 94.5703C60.9099 94.5216 60.9038 94.4729 60.8977 94.4243Z" fill="#ED6675"/>
<path d="M58.9906 99.0635C58.2818 99.0635 58.2818 100.162 58.9906 100.162C59.6994 100.165 59.6994 99.0635 58.9906 99.0635Z" fill="#ED6675"/>
<path d="M61.6283 102.504C60.9195 102.504 60.9195 103.602 61.6283 103.602C62.3371 103.602 62.3371 102.504 61.6283 102.504Z" fill="#ED6675"/>
<path d="M66.0276 100.204C66.0063 100.138 65.9667 100.077 65.915 100.028C65.8663 99.9733 65.8055 99.9368 65.7386 99.9155C65.6716 99.882 65.6017 99.8637 65.5256 99.8668C65.4769 99.8729 65.4283 99.879 65.3796 99.885C65.2853 99.9124 65.2062 99.958 65.1362 100.025C65.1088 100.061 65.0784 100.098 65.051 100.138C65.0024 100.223 64.975 100.317 64.975 100.414V100.643C64.9719 100.719 64.9872 100.789 65.0237 100.855C65.045 100.922 65.0845 100.983 65.1362 101.032C65.1849 101.087 65.2457 101.123 65.3127 101.144C65.3796 101.178 65.4496 101.196 65.5256 101.193C65.5743 101.187 65.623 101.181 65.6716 101.175C65.7659 101.148 65.845 101.102 65.915 101.035C65.9424 100.998 65.9728 100.962 66.0002 100.922C66.0489 100.837 66.0762 100.743 66.0762 100.646V100.417C66.0793 100.341 66.061 100.271 66.0276 100.204Z" fill="#ED6675"/>
<path d="M68.6185 102.045C67.9097 102.045 67.9097 103.143 68.6185 103.143C69.3273 103.143 69.3273 102.045 68.6185 102.045Z" fill="#ED6675"/>
<path d="M56.426 99.1245C56.3986 99.0302 56.353 98.9511 56.2861 98.8811C56.2496 98.8537 56.2131 98.8233 56.1735 98.7959C56.0883 98.7472 55.994 98.7199 55.8967 98.7199H55.7811C55.705 98.7168 55.6351 98.732 55.5681 98.7685C55.5012 98.7898 55.4404 98.8294 55.3917 98.8811C55.3369 98.9298 55.3004 98.9906 55.2791 99.0575C55.2457 99.1245 55.2305 99.1944 55.2305 99.2705C55.2366 99.3192 55.2426 99.3678 55.2487 99.4165C55.2761 99.5108 55.3217 99.5899 55.3887 99.6599C55.4252 99.6873 55.4617 99.7177 55.5012 99.7451C55.5864 99.7937 55.6807 99.8211 55.7781 99.8211H55.8936C55.9697 99.8241 56.0397 99.8089 56.1066 99.7724C56.1735 99.7511 56.2344 99.7116 56.283 99.6599C56.3378 99.6112 56.3743 99.5504 56.3956 99.4834C56.4291 99.4165 56.4443 99.3465 56.4443 99.2705C56.4412 99.2218 56.4351 99.1731 56.426 99.1245Z" fill="#ED6675"/>
<path d="M51.8147 100.092C51.7934 100.025 51.7538 99.9641 51.7021 99.9155C51.6534 99.8607 51.5926 99.8242 51.5257 99.8029C51.4587 99.7694 51.3888 99.7512 51.3127 99.7542C51.264 99.7603 51.2154 99.7664 51.1667 99.7725C51.0724 99.7999 50.9933 99.8455 50.9233 99.9124C50.896 99.9489 50.8655 99.9854 50.8382 100.025C50.7895 100.11 50.7621 100.204 50.7621 100.302V100.417C50.7591 100.493 50.7743 100.563 50.8108 100.63C50.8321 100.697 50.8716 100.758 50.9233 100.807C50.972 100.862 51.0328 100.898 51.0998 100.919C51.1667 100.953 51.2367 100.971 51.3127 100.968C51.3614 100.962 51.4101 100.956 51.4587 100.95C51.553 100.922 51.6321 100.877 51.7021 100.81C51.7295 100.773 51.7599 100.737 51.7873 100.697C51.836 100.612 51.8633 100.518 51.8633 100.42V100.305C51.8664 100.226 51.8512 100.156 51.8147 100.092Z" fill="#ED6675"/>
<path d="M52.4593 95.5105C51.7505 95.5105 51.7505 96.6087 52.4593 96.6087C53.1651 96.6117 53.1682 95.5105 52.4593 95.5105Z" fill="#ED6675"/>
<path d="M48.6752 98.8354C47.9664 98.8354 47.9664 99.9336 48.6752 99.9336C49.384 99.9367 49.384 98.8354 48.6752 98.8354Z" fill="#ED6675"/>
<path d="M41.1117 96.0852C40.4029 96.0852 40.4029 97.1834 41.1117 97.1834C41.8175 97.1834 41.8205 96.0852 41.1117 96.0852Z" fill="#ED6675"/>
<path d="M44.2054 96.6572C43.4966 96.6572 43.4966 97.7554 44.2054 97.7554C44.9143 97.7585 44.9143 96.6572 44.2054 96.6572Z" fill="#ED6675"/>
<path d="M43.5179 99.1792C42.8091 99.1792 42.8091 100.277 43.5179 100.277C44.2268 100.28 44.2268 99.1792 43.5179 99.1792Z" fill="#ED6675"/>
<path d="M76.9182 81.5228C76.8969 81.4559 76.8573 81.395 76.8056 81.3464C76.757 81.2916 76.6961 81.2551 76.6292 81.2338C76.5623 81.2004 76.4923 81.1821 76.4162 81.1851C76.3676 81.1912 76.3189 81.1973 76.2702 81.2034C76.1759 81.2308 76.0968 81.2764 76.0268 81.3433C75.9995 81.3798 75.969 81.4163 75.9417 81.4559C75.893 81.5411 75.8656 81.6354 75.8656 81.7327V81.8483C75.8626 81.9244 75.8778 81.9943 75.9143 82.0613C75.9356 82.1282 75.9751 82.189 76.0268 82.2377C76.0755 82.2925 76.1364 82.329 76.2033 82.3503C76.2702 82.3837 76.3402 82.402 76.4162 82.3989C76.4649 82.3929 76.5136 82.3868 76.5623 82.3807C76.6566 82.3533 76.7357 82.3077 76.8056 82.2408C76.833 82.2043 76.8634 82.1677 76.8908 82.1282C76.9395 82.043 76.9669 81.9487 76.9669 81.8514V81.7358C76.9669 81.6597 76.9516 81.5867 76.9182 81.5228Z" fill="#ED6675"/>
<path d="M75.4974 85.9978C74.7886 85.9978 74.7886 87.096 75.4974 87.096C76.2062 87.099 76.2062 85.9978 75.4974 85.9978Z" fill="#ED6675"/>
<path d="M78.8216 86.457C78.1128 86.457 78.1128 87.5552 78.8216 87.5552C79.5274 87.5552 79.5305 86.457 78.8216 86.457Z" fill="#ED6675"/>
<path d="M79.5793 83.8805C79.552 83.7861 79.5063 83.707 79.4394 83.6371C79.3999 83.5975 79.3633 83.561 79.3238 83.5215C79.2751 83.4667 79.2143 83.4302 79.1474 83.4089C79.0804 83.3755 79.0105 83.3572 78.9344 83.3602C78.8584 83.3572 78.7884 83.3724 78.7215 83.4089C78.6545 83.4302 78.5937 83.4698 78.545 83.5215C78.5176 83.558 78.4872 83.5945 78.4598 83.634C78.4112 83.7192 78.3838 83.8135 78.3838 83.9109C78.3899 83.9595 78.396 84.0082 78.402 84.0569C78.4294 84.1512 78.475 84.2303 78.542 84.3003L78.6576 84.4159C78.7063 84.4706 78.7671 84.5071 78.834 84.5284C78.901 84.5619 78.9709 84.5801 79.047 84.5771C79.123 84.5801 79.193 84.5649 79.2599 84.5284C79.3268 84.5071 79.3877 84.4676 79.4364 84.4159C79.4637 84.3794 79.4942 84.3428 79.5215 84.3033C79.5702 84.2181 79.5976 84.1238 79.5976 84.0265C79.5945 83.9778 79.5854 83.9291 79.5793 83.8805Z" fill="#ED6675"/>
<path d="M78.4329 104.628C78.4055 104.533 78.3598 104.454 78.2929 104.384C78.2534 104.345 78.2169 104.308 78.1773 104.269C78.1286 104.214 78.0678 104.177 78.0009 104.156C77.9339 104.123 77.864 104.104 77.7879 104.107C77.7119 104.104 77.6419 104.119 77.575 104.156C77.5081 104.177 77.4472 104.217 77.3985 104.269C77.3712 104.305 77.3407 104.342 77.3134 104.381C77.2647 104.466 77.2373 104.561 77.2373 104.658C77.2434 104.707 77.2495 104.755 77.2556 104.804C77.2829 104.898 77.3286 104.977 77.3955 105.047C77.435 105.087 77.4715 105.123 77.5111 105.163C77.5598 105.218 77.6206 105.254 77.6875 105.275C77.7545 105.309 77.8244 105.327 77.9005 105.324C77.9765 105.327 78.0465 105.312 78.1134 105.275C78.1804 105.254 78.2412 105.215 78.2899 105.163C78.3173 105.126 78.3477 105.09 78.3751 105.05C78.4237 104.965 78.4511 104.871 78.4511 104.774C78.4481 104.725 78.442 104.676 78.4329 104.628Z" fill="#ED6675"/>
<path d="M79.2787 100.67C78.5699 100.67 78.5699 101.768 79.2787 101.768C79.9875 101.768 79.9875 100.67 79.2787 100.67Z" fill="#ED6675"/>
<path d="M75.9986 100.204C75.9773 100.137 75.9378 100.077 75.8861 100.028C75.8496 100.001 75.8131 99.9701 75.7735 99.9428C75.6883 99.8941 75.594 99.8667 75.4967 99.8667C75.448 99.8728 75.3993 99.8789 75.3507 99.885C75.2564 99.9123 75.1773 99.958 75.1073 100.025C75.0677 100.064 75.0312 100.101 74.9917 100.14C74.9369 100.189 74.9004 100.25 74.8791 100.317C74.8457 100.384 74.8274 100.454 74.8305 100.53C74.8274 100.606 74.8426 100.676 74.8791 100.743C74.9004 100.81 74.94 100.871 74.9917 100.919C75.0282 100.947 75.0647 100.977 75.1043 101.004C75.1894 101.053 75.2837 101.081 75.3811 101.081C75.4298 101.074 75.4784 101.068 75.5271 101.062C75.6214 101.035 75.7005 100.989 75.7705 100.922C75.81 100.883 75.8465 100.846 75.8861 100.807C75.9408 100.758 75.9773 100.697 75.9986 100.63C76.0321 100.563 76.0503 100.493 76.0473 100.417C76.0503 100.341 76.0321 100.271 75.9986 100.204Z" fill="#ED6675"/>
<path d="M74.6937 103.076C73.9849 103.076 73.9849 104.174 74.6937 104.174C75.4025 104.177 75.4025 103.076 74.6937 103.076Z" fill="#ED6675"/>
<path d="M77.5684 101.808C77.5471 101.741 77.5075 101.68 77.4558 101.631C77.4072 101.577 77.3463 101.54 77.2794 101.519C77.2125 101.485 77.1425 101.467 77.0664 101.47C77.0178 101.476 76.9691 101.482 76.9204 101.488C76.8261 101.516 76.747 101.561 76.677 101.628C76.6497 101.665 76.6192 101.701 76.5919 101.741C76.5432 101.826 76.5158 101.92 76.5158 102.018C76.5097 102.133 76.5006 102.246 76.4945 102.361C76.4915 102.437 76.5067 102.507 76.5432 102.574C76.5645 102.641 76.604 102.702 76.6558 102.751C76.7044 102.806 76.7653 102.842 76.8322 102.863C76.8991 102.897 76.9691 102.915 77.0451 102.912C77.0938 102.906 77.1425 102.9 77.1912 102.894C77.2855 102.866 77.3646 102.821 77.4345 102.754C77.4619 102.717 77.4923 102.681 77.5197 102.641C77.5684 102.556 77.5958 102.462 77.5958 102.364C77.6019 102.249 77.611 102.136 77.6171 102.021C77.6201 101.945 77.6049 101.875 77.5684 101.808Z" fill="#ED6675"/>
<path d="M78.5912 97.3447C77.8824 97.3447 77.8824 98.4429 78.5912 98.4429C79.3 98.446 79.3 97.3447 78.5912 97.3447Z" fill="#ED6675"/>
<path d="M75.6127 95.626C74.9039 95.626 74.9039 96.7242 75.6127 96.7242C76.3184 96.7272 76.3215 95.626 75.6127 95.626Z" fill="#ED6675"/>
<path d="M72.9759 98.6074C72.2671 98.6074 72.2671 99.7056 72.9759 99.7056C73.6848 99.7056 73.6848 98.6074 72.9759 98.6074Z" fill="#ED6675"/>
<path d="M81.1127 94.8228C80.4039 94.8228 80.4039 95.921 81.1127 95.921C81.8215 95.924 81.8215 94.8228 81.1127 94.8228Z" fill="#ED6675"/>
<path d="M55.3664 45.0234L51.7158 48.674" stroke="#ED6675" stroke-width="0.608424" stroke-linecap="round" stroke-linejoin="round"/>
<path d="M51.7158 45.0234L55.3664 48.674" stroke="#ED6675" stroke-width="0.608424" stroke-linecap="round" stroke-linejoin="round"/>
</g>
<defs>
<clipPath id="clip0_2_4231">
<rect width="135.216" height="130.552" fill="white"/>
</clipPath>
</defs>
</svg>
