<svg width="25" height="19" viewBox="0 0 25 19" fill="none" xmlns="http://www.w3.org/2000/svg">
<path d="M24.7358 0.180231L24.1115 3.98655C22.863 3.89751 21.8486 4.07558 21.0683 4.52077C20.288 4.94369 19.7418 5.56695 19.4297 6.39053C19.1435 7.19186 19.0915 8.12675 19.2736 9.19519H24.7358V18.2769H14.1236V9.19519C14.1236 5.98987 14.9949 3.56362 16.7376 1.91645C18.4803 0.247009 21.1463 -0.33173 24.7358 0.180231ZM10.6122 0.180231L9.98794 3.98655C8.73945 3.89751 7.72505 4.07558 6.94474 4.52077C6.16443 4.94369 5.61822 5.56695 5.30609 6.39053C5.01998 7.19186 4.96796 8.12675 5.15003 9.19519H10.6122V18.2769H0V9.19519C0 5.98987 0.871344 3.56362 2.61403 1.91645C4.35672 0.247009 7.02277 -0.33173 10.6122 0.180231Z" fill="#E30B22"/>
</svg>
