<svg width="172" height="31" viewBox="0 0 172 31" fill="none" xmlns="http://www.w3.org/2000/svg">
<path d="M18.1292 24.1802L16.9931 29.9682H0L5.62052 0.992554H11.6237L7.13926 24.1802H18.1292Z" fill="#193A52"/>
<path d="M33.2807 29.8247C33.2926 29.6214 33.2687 29.3583 33.1491 29.0832C32.7425 28.1385 31.5227 27.8395 30.8172 27.8276C29.5974 27.8037 28.4255 28.6527 27.7797 29.9682C26.8828 29.9682 25.9859 29.9682 25.089 29.9682H18.1292C25.3043 19.9708 32.4675 9.9854 39.6306 0C41.4005 9.9854 43.1823 19.9708 44.9522 29.9562H38.8773C37.0117 29.9203 35.1462 29.8725 33.2807 29.8247ZM28.8799 29.9562C32.4196 20.0306 35.9594 10.105 39.5111 0.16742C33.771 10.093 28.0308 20.0186 22.2907 29.9562C24.4791 29.9562 26.6795 29.9562 28.8799 29.9562Z" fill="#193A52"/>
<path d="M50.5609 17.5193L45.3589 0.992554H51.5773L54.4115 11.0617L61.0605 0.992554H68.128L56.5043 17.5312L54.1006 29.9682H48.1572L50.5609 17.5193Z" fill="#193A52"/>
<path d="M63.8945 15.5341C65.1741 6.50539 72.3372 0.143431 80.5049 0.56198C88.29 0.956613 92.9299 7.28269 91.6862 15.7613C90.3708 24.7422 83.1837 31.0204 75.0638 30.6019C67.3625 30.2192 62.6867 24.0008 63.8945 15.5341ZM85.695 15.6537C86.6158 10.368 83.7338 6.43363 79.4167 6.36188C75.0279 6.26621 70.7707 10.2245 69.8738 15.5461C68.9888 20.7002 71.7034 24.6704 76.1161 24.7661C80.6484 24.8737 84.7981 20.8198 85.695 15.6537Z" fill="#193A52"/>
<path d="M119.968 0.992554L101.349 30.6857H100.739L93.7073 0.992554H99.7942L103.298 17.4356L113.008 0.992554H119.968Z" fill="#193A52"/>
<path d="M127.729 6.7207L126.629 12.3771H135.789L134.653 18.177H125.493L124.345 24.1563H135.132L133.996 29.9442H117.242L122.862 0.968628H139.628L138.516 6.69678H127.729V6.7207Z" fill="#193A52"/>
<path d="M154.014 18.4281L159.695 29.9682H153.058L146.935 16.4191L144.316 29.9682H138.337L143.945 0.992554H152.496C157.04 0.992554 161.644 4.19745 160.675 10.38C160.041 14.2307 157.554 17.3399 154.014 18.4281ZM151.479 6.75658H148.8L147.377 14.0393L150.056 14.0633C152.555 14.0872 154.457 12.5565 154.768 10.4279C155.067 8.26336 153.524 6.75658 151.479 6.75658Z" fill="#193A52"/>
<path d="M169.046 29.9562C170.671 29.9562 171.988 28.6392 171.988 27.0144C171.988 25.3897 170.671 24.0726 169.046 24.0726C167.422 24.0726 166.104 25.3897 166.104 27.0144C166.104 28.6392 167.422 29.9562 169.046 29.9562Z" fill="#C84B4F"/>
<path d="M39.4992 0.992554L31.5348 27.9232C31.5348 27.9232 30.6499 27.7199 30.0878 27.9232C29.5258 28.1265 29.5258 28.1265 29.5258 28.1265L39.4992 0.992554Z" fill="#C84B4F"/>
</svg>
