<svg width="163" height="115" viewBox="0 0 163 115" fill="none" xmlns="http://www.w3.org/2000/svg">
<g clip-path="url(#clip0_2_94)">
<path d="M152.144 111.31C151.775 111.31 151.416 111.183 151.139 110.94L49.9646 24.5479C49.6757 24.2705 49.5139 23.9007 49.4908 23.5077C49.4677 23.1148 49.6063 22.7218 49.8606 22.4213C50.1149 22.1208 50.4847 21.9244 50.8777 21.8897C51.2706 21.8435 51.6636 21.959 51.9872 22.1902L153.161 108.582C153.404 108.79 153.578 109.068 153.658 109.368C153.739 109.68 153.716 110.004 153.612 110.293C153.508 110.593 153.3 110.848 153.046 111.033C152.769 111.206 152.468 111.31 152.144 111.31Z" fill="#193A52"/>
<path d="M85.8531 111.31C85.5064 111.31 85.1597 111.194 84.8823 110.975C84.6511 110.801 84.4778 110.559 84.3737 110.293C84.2697 110.027 84.2466 109.738 84.3044 109.449L93.9896 61.0696C94.0242 60.8731 94.1051 60.6767 94.2207 60.5149C94.3363 60.3415 94.475 60.2028 94.6483 60.0872C94.8217 59.9717 95.0066 59.8908 95.2031 59.8561C95.3996 59.8214 95.6076 59.8214 95.8041 59.8561C96.0006 59.8908 96.1971 59.9717 96.3589 60.0872C96.5322 60.2028 96.6709 60.3415 96.7865 60.5149C96.9021 60.6882 96.983 60.8731 97.0176 61.0696C97.0523 61.2661 97.0523 61.4741 97.0176 61.6706L87.9334 107.057L140.728 82.9017C140.913 82.8093 141.109 82.763 141.317 82.7515C141.526 82.7399 141.734 82.7746 141.93 82.8439C142.127 82.9133 142.3 83.0173 142.45 83.156C142.6 83.2947 142.728 83.468 142.808 83.6529C142.889 83.8379 142.936 84.0459 142.947 84.2539C142.947 84.462 142.912 84.67 142.843 84.8549C142.774 85.0514 142.658 85.2248 142.519 85.375C142.381 85.5253 142.207 85.6408 142.011 85.7217L86.4656 111.148C86.2807 111.241 86.0727 111.298 85.8531 111.31Z" fill="#193A52"/>
<path d="M50.9659 23.335H1.48828C14.3055 45.248 49.8679 90.7151 85.1183 90.7151H128.251C100.386 90.692 63.7831 45.248 50.9659 23.335Z" fill="#3A5B70"/>
<path d="M58.359 29.4256L58.7057 29.0558L59.1102 28.6166C59.376 28.3277 59.6534 28.0387 59.9192 27.7036C60.4509 27.0795 60.9825 26.4438 61.5026 25.8081C62.5196 24.5253 63.4674 23.1961 64.3573 21.8092C64.7965 21.1274 65.201 20.4223 65.5824 19.7289C65.9638 19.0354 66.3221 18.3189 66.6457 17.6139C67.2813 16.227 67.7783 14.7707 68.1481 13.2914L69.0843 16.5159C68.5411 15.8571 67.8823 15.2793 67.1542 14.8285C66.1949 14.2044 65.2125 13.6265 64.1955 13.1065C63.1438 12.5633 62.0458 12.0316 60.9132 11.5231L57.5268 9.99749L57.4459 9.93971C56.9952 9.73167 56.6253 9.38495 56.4173 8.94576C56.1977 8.50658 56.1399 7.99805 56.2555 7.51263C56.3711 7.02722 56.6484 6.59959 57.0298 6.31065C57.4228 6.01016 57.9082 5.85991 58.3936 5.87147C59.7459 5.92926 61.0865 6.06795 62.4272 6.27598C63.7679 6.48402 65.1085 6.77295 66.4261 7.11968C67.8014 7.48952 69.1536 7.95182 70.4596 8.52969C72.043 9.20003 73.4761 10.1477 74.7128 11.3266C75.0826 11.6964 75.3716 12.1587 75.5449 12.6557C75.7183 13.1527 75.7645 13.6843 75.7067 14.2044L75.6605 14.528C75.3831 16.6084 74.8746 18.6541 74.1349 20.6304C73.4299 22.5258 72.5631 24.3635 71.546 26.1202C70.5521 27.8423 69.4541 29.4834 68.229 31.0552C67.6165 31.8296 67.004 32.6039 66.3452 33.3552C66.0216 33.725 65.6864 34.0949 65.3397 34.4531L64.808 34.9963L64.2302 35.5742C63.4442 36.3717 62.3694 36.8224 61.2483 36.834C60.1273 36.8455 59.0408 36.4064 58.2434 35.6204C57.4459 34.8345 56.9952 33.7597 56.9836 32.6386C56.9721 31.5175 57.4112 30.4311 58.1971 29.6337L58.359 29.4256Z" fill="#B4836B"/>
<path d="M59.8104 5.97534L54.8523 5.36279L53.2227 11.3265C53.2227 11.3265 58.2271 12.6093 60.3883 9.3848L59.8104 5.97534Z" fill="#B4836B"/>
<path d="M50.9911 5.32812L50.3555 10.3325L53.2217 11.338L54.8629 5.3628L50.9911 5.32812Z" fill="#B4836B"/>
<path d="M65.552 76.4875C65.552 76.4875 52.1453 66.0395 40.7843 45.8948C40.1487 44.7737 39.7673 43.5255 39.6633 42.2426C39.5592 40.9597 39.721 39.6653 40.1602 38.4518C40.5994 37.2382 41.2929 36.1287 42.1943 35.2157C43.0958 34.2911 44.1938 33.5745 45.3958 33.1122C49.672 31.471 54.2835 29.9223 58.0397 28.7319C59.8889 28.1425 61.8767 28.154 63.7144 28.7897C65.552 29.4254 67.1238 30.6273 68.2103 32.2454C72.8564 39.1568 77.4216 48.8997 91.672 60.5728C91.8684 60.723 92.0071 60.9311 92.1111 61.1507C92.2036 61.3818 92.2383 61.6245 92.2152 61.8672C92.192 62.1099 92.1111 62.3526 91.9725 62.5491C91.8338 62.7572 91.6488 62.919 91.4293 63.0345L65.552 76.4875Z" fill="white"/>
<path opacity="0.2" d="M39.7578 43.2944C41.4452 38.0242 42.8899 39.6191 43.5487 40.1392C48.6917 44.2306 51.3615 53.0489 50.853 61.0351C47.0968 56.2157 43.7105 51.1304 40.7055 45.8139C40.2663 45.028 39.9427 44.1728 39.7578 43.2944Z" fill="black"/>
<path d="M40.8574 19.3589C43.5388 22.7799 47.6301 29.2174 46.3241 32.7425C49.8145 34.2218 53.7325 34.2912 57.2691 32.9158C61.7765 31.2978 60.2625 29.7722 58.2514 28.6396C53.5707 29.3099 51.9179 25.7271 51.132 22.5603L40.8574 19.3589Z" fill="#B4836B"/>
<path opacity="0.2" d="M51.1404 22.5956L45.3848 20.8042C45.6853 22.3529 46.2053 23.8438 46.945 25.2307C48.1701 27.0915 51.4293 28.1085 53.8564 27.6347C52.3655 26.4211 51.6027 24.4448 51.1404 22.5956Z" fill="black"/>
<path d="M53.1643 6.12524C55.2446 7.80108 56.2154 11.6266 55.4642 14.2848C51.6965 8.33272 51.6387 6.57599 51.6387 6.57599L53.1643 6.12524Z" fill="#263238"/>
<path d="M40.232 14.3779C41.5727 19.7869 42.0696 23.0114 45.3635 25.4385C46.4037 26.2475 47.6403 26.756 48.9579 26.9063C50.2639 27.0565 51.593 26.8485 52.795 26.2937C53.997 25.739 55.014 24.8722 55.7537 23.7742C56.4934 22.6762 56.9095 21.4049 56.9672 20.0873C57.2446 15.0367 55.014 7.0505 49.2353 5.5827C43.4681 4.12645 38.9029 8.96904 40.232 14.3779Z" fill="#B4836B"/>
<path d="M41.177 19.3589C42.587 17.4172 43.2805 13.6033 42.4483 10.7601C45.904 9.88177 56.5947 9.25766 53.6707 3.51359C50.7466 -2.23049 46.7593 0.346834 46.6899 2.40407C40.1368 0.508639 35.745 2.68145 37.5364 4.70401C30.7868 7.14264 33.1561 12.6209 34.6586 13.2797C32.324 16.065 33.3526 22.2945 37.0048 22.4332C40.6569 22.5719 42.2287 25.3572 44.2975 24.5598C43.893 22.4448 41.177 19.3589 41.177 19.3589Z" fill="#263238"/>
<path d="M48.207 14.9784C48.2648 15.3945 48.5306 15.7066 48.808 15.6603C49.0853 15.6257 49.2471 15.2558 49.1894 14.8398C49.1316 14.4237 48.8657 14.1116 48.5884 14.1579C48.311 14.1925 48.1492 14.5624 48.207 14.9784Z" fill="#263238"/>
<path d="M53.3359 13.9843C53.3937 14.4004 53.6595 14.7124 53.9138 14.6662C54.1565 14.6315 54.3645 14.2617 54.3067 13.8456C54.2489 13.4296 53.9947 13.1406 53.7404 13.1406C53.4861 13.1406 53.2781 13.5683 53.3359 13.9843Z" fill="#263238"/>
<path d="M38.5809 20.1561C39.3784 21.15 40.5226 21.7972 41.7823 21.9822C43.4466 22.2018 43.9667 20.6993 43.2501 19.2777C42.6145 17.9948 40.9502 16.3305 39.4362 16.7582C37.9106 17.1858 37.6216 18.8963 38.5809 20.1561Z" fill="#B4836B"/>
<path d="M51.6816 14.4583C51.6816 14.4583 53.1726 16.8853 54.5132 17.9717C53.8544 18.8154 52.4444 18.6536 52.4444 18.6536L51.6816 14.4583Z" fill="#87573F"/>
<path d="M50.2865 20.8958C49.2348 20.8958 48.2408 20.4798 47.4896 19.7401C47.478 19.7285 47.4665 19.717 47.4549 19.6939C47.4434 19.6823 47.4434 19.6592 47.4434 19.6476C47.4434 19.6361 47.4434 19.613 47.4549 19.6014C47.4665 19.5899 47.4665 19.5667 47.4896 19.5552C47.5127 19.5321 47.5474 19.5205 47.582 19.5205C47.6167 19.5205 47.6514 19.5321 47.6745 19.5552C48.0906 19.9481 48.5875 20.2371 49.1308 20.4104C49.674 20.5838 50.2518 20.63 50.8181 20.5491C50.8528 20.5491 50.8875 20.5491 50.9222 20.5722C50.9568 20.5954 50.9684 20.6185 50.98 20.6531C50.98 20.6647 50.98 20.6878 50.98 20.6994C50.98 20.7109 50.9684 20.734 50.9568 20.7456C50.9453 20.7572 50.9337 20.7687 50.9222 20.7803C50.9106 20.7918 50.8875 20.7918 50.8759 20.7918C50.6795 20.8496 50.483 20.8843 50.2865 20.8958Z" fill="#263238"/>
<path d="M45.1321 13.4069C45.0859 13.4069 45.0396 13.3953 45.005 13.3722C44.9472 13.3375 44.8894 13.2798 44.8778 13.2104C44.8547 13.1411 44.8663 13.0717 44.8894 13.0024C45.0743 12.6325 45.3517 12.3205 45.6869 12.0778C46.022 11.8466 46.415 11.6964 46.831 11.6501C46.9004 11.6501 46.9697 11.6733 47.0275 11.7195C47.0853 11.7657 47.12 11.8351 47.12 11.9044C47.12 11.9391 47.12 11.9738 47.1084 12.0084C47.0969 12.0431 47.0853 12.0662 47.0622 12.1009C47.0391 12.124 47.016 12.1471 46.9813 12.1587C46.9466 12.1702 46.912 12.1818 46.8773 12.1818C46.5537 12.228 46.2416 12.3436 45.9758 12.5401C45.71 12.7366 45.4904 12.9908 45.3517 13.2798C45.3286 13.326 45.2939 13.3491 45.2592 13.3722C45.2246 13.3953 45.1783 13.4069 45.1321 13.4069Z" fill="#263238"/>
<path d="M55.0786 12.043C55.0324 12.0545 54.9862 12.043 54.9515 12.0314C54.9053 12.0199 54.8706 11.9967 54.8359 11.9621C54.6048 11.7194 54.3158 11.5229 53.9922 11.4189C53.6686 11.3033 53.3335 11.2686 52.9983 11.3033C52.9289 11.3148 52.8596 11.3033 52.7903 11.2571C52.7325 11.2224 52.6862 11.153 52.6747 11.0837C52.6631 11.049 52.6631 11.0144 52.6747 10.9797C52.6747 10.945 52.6978 10.9103 52.7094 10.8872C52.7325 10.8641 52.7556 10.8294 52.7787 10.8179C52.8018 10.7948 52.8365 10.7832 52.8712 10.7832C53.2872 10.737 53.7149 10.7832 54.1194 10.9219C54.5239 11.0606 54.8822 11.2917 55.1827 11.5922C55.2289 11.6385 55.252 11.7078 55.252 11.7771C55.252 11.8465 55.2289 11.9158 55.1827 11.9621C55.148 11.9967 55.1133 12.0199 55.0786 12.043Z" fill="#263238"/>
<path d="M147.58 107.982L154.133 106.78L137.884 91.8245L133.318 98.3776L147.58 107.982Z" fill="#B4836B"/>
<path d="M147.298 111.53C146.778 110.027 147.182 108.016 145.703 105.705C145.703 105.705 149.159 102.215 150.603 103.752C152.048 105.289 156.509 106.872 161.953 105.624C162.716 105.451 162.947 107.727 161.236 108.317C158.405 109.288 156.313 109.958 153.909 110.79C151.852 111.495 151.482 112.131 149.875 112.801C148.535 113.356 147.818 113.032 147.298 111.53Z" fill="#B4836B"/>
<path d="M85.528 66.0742C85.528 66.0742 106.956 68.952 119.553 73.3901C127.909 76.3257 143.743 95.9734 143.743 95.9734L137.34 102.411C137.34 102.411 121.449 91.9168 109.799 86.2305C89.3882 90.264 68.7118 91.5932 65.5566 76.5106C70.2605 73.3786 85.528 66.0742 85.528 66.0742Z" fill="#A5323A"/>
<path opacity="0.2" d="M116.36 73.1355L114.164 88.4492C117.712 90.333 121.411 92.4827 124.785 94.5053L116.36 73.1355Z" fill="black"/>
<path d="M146.988 96.3549L137.765 105.428L134.645 102.457L144.133 92.7605L146.988 96.3549Z" fill="#484C76"/>
<path d="M91.869 61.3935C91.869 61.3935 116.163 53.5806 128.726 57.9956C137.082 60.9312 129.361 88.7847 129.361 88.7847L117.977 90.1832C117.977 90.1832 116.718 79.0765 115.677 73.4133C99.6703 88.5305 81.5713 92.9917 72.071 86.2305C70.1409 84.8552 67.3209 82.1276 65.541 76.4991C70.8343 72.7776 76.8558 69.0099 83.6285 65.4386C86.4485 63.9593 89.1876 62.6186 91.869 61.3935Z" fill="#C84B4F"/>
<path d="M122.525 105.428L127.945 105.67L127.494 87.502L119.531 88.0798L122.525 105.428Z" fill="#B4836B"/>
<path d="M120.544 108.895C120.995 107.37 122.509 105.971 122.67 103.243C122.67 103.243 127.536 102.446 127.79 104.538C128.045 106.618 130.749 110.525 135.892 112.709C136.609 113.01 135.465 115.009 133.731 114.466C130.853 113.599 128.784 112.906 126.346 112.166C124.265 111.53 123.583 111.831 121.896 111.438C120.498 111.103 120.105 110.432 120.544 108.895Z" fill="#B4836B"/>
<path d="M130.518 90.4374L117.735 92.4368L116.938 88.2068L130.298 85.8606L130.518 90.4374Z" fill="#484C76"/>
<path d="M48.2444 40.8906C49.2383 45.005 50.2438 49.2235 51.3418 53.3264C51.8734 55.3837 52.4744 57.4062 53.0754 59.3941C53.6302 61.2549 54.3121 63.0809 55.098 64.8492C55.2367 65.1613 55.3985 65.4502 55.5718 65.7507C55.6296 65.8432 55.6759 65.9125 55.6412 65.8779C55.6065 65.8432 55.6412 65.9125 55.514 65.7854L55.3522 65.6698L55.2367 65.5889L55.1211 65.5311L55.0518 65.508C55.0171 65.4965 54.9824 65.4733 54.9477 65.4618C54.8437 65.4387 54.9015 65.4733 55.0055 65.508C55.1442 65.5542 55.2829 65.5889 55.4331 65.612C55.8377 65.6929 56.2537 65.7507 56.6698 65.797C57.5828 65.8779 58.5883 65.9125 59.617 65.9125C60.6456 65.9125 61.6858 65.9125 62.749 65.8894C66.9791 65.7854 71.3478 65.4733 75.6703 65.2422L75.7165 65.2306C76.2944 65.2075 76.8492 65.3924 77.2999 65.7507C77.7507 66.109 78.0512 66.6175 78.1552 67.1723C78.2592 67.7386 78.1552 68.3165 77.8662 68.8135C77.5773 69.3104 77.115 69.6803 76.5718 69.8652C72.2955 71.2636 67.9268 72.3616 63.4887 73.1475C61.1657 73.5867 58.8079 73.8525 56.4387 73.9334C55.7568 73.945 55.0749 73.9334 54.393 73.8872C54.0231 73.8525 53.6302 73.8063 53.191 73.7254C52.6709 73.6329 52.1624 73.4942 51.6654 73.2978C51.5383 73.24 51.3534 73.1706 51.1916 73.0897L50.9373 72.9626L50.6599 72.8123L50.371 72.6159C50.2554 72.535 50.1514 72.4541 50.0474 72.3732C49.8971 72.2576 49.7584 72.1305 49.6197 72.0033C49.2499 71.6566 48.9147 71.2868 48.6142 70.8938C48.1519 70.2928 47.7359 69.6687 47.366 69.0099C46.7304 67.912 46.1756 66.7793 45.6786 65.6236C45.2048 64.5256 44.7771 63.4392 44.3726 62.3644C43.552 60.2031 42.8817 58.0534 42.2114 55.8922C40.9054 51.5697 39.8305 47.305 38.9291 42.8785C38.6979 41.6649 38.9522 40.4052 39.6341 39.365C40.316 38.3248 41.3792 37.5967 42.5928 37.3309C43.8063 37.065 45.0776 37.2731 46.1294 37.9319C47.1811 38.5791 47.9439 39.6192 48.2444 40.8212V40.8906Z" fill="#B4836B"/>
<path d="M74.5842 65.0452L79.6579 63.2422L80.5247 70.7314C80.5247 70.7314 74.6073 72.0143 73.1973 69.229L73.3591 66.6863C73.3822 66.3165 73.5093 65.9698 73.7289 65.6693C73.9485 65.3919 74.249 65.1723 74.5842 65.0452Z" fill="#B4836B"/>
<path d="M83.9999 62.8613L86.8199 68.0506L80.5211 70.732L79.6543 63.2427L83.9999 62.8613Z" fill="#B4836B"/>
<path d="M102.656 111.31C102.286 111.31 101.928 111.183 101.651 110.94L0.476351 24.5482C0.198971 24.2709 0.0256087 23.8895 0.00249372 23.4965C-0.0206213 23.1035 0.118069 22.7106 0.372333 22.4101C0.626598 22.1096 0.996438 21.9131 1.38939 21.8785C1.78235 21.8322 2.1753 21.9478 2.49891 22.1789L103.662 108.571C103.904 108.779 104.078 109.057 104.159 109.357C104.239 109.669 104.228 109.993 104.112 110.282C103.997 110.582 103.8 110.836 103.546 111.021C103.28 111.206 102.968 111.31 102.656 111.31Z" fill="#193A52"/>
<path d="M36.3612 111.31C36.0145 111.31 35.6793 111.194 35.402 110.975C35.1708 110.801 34.9975 110.559 34.905 110.293C34.801 110.027 34.7779 109.738 34.8356 109.449L44.5208 61.0696C44.5555 60.8731 44.6364 60.6767 44.752 60.5149C44.8675 60.3415 45.0062 60.2028 45.1796 60.0872C45.353 59.9717 45.5379 59.8908 45.7344 59.8561C45.9308 59.8214 46.1389 59.8214 46.3353 59.8561C46.5318 59.8908 46.7283 59.9717 46.8901 60.0872C47.0635 60.2028 47.2022 60.3415 47.3177 60.5149C47.4333 60.6882 47.5142 60.8731 47.5489 61.0696C47.5836 61.2661 47.5836 61.4741 47.5489 61.6706L38.4647 107.057L91.2593 82.9017C91.4442 82.8093 91.6523 82.763 91.8487 82.7515C92.0568 82.7399 92.2648 82.7746 92.4497 82.8439C92.6462 82.9133 92.8196 83.0173 92.9698 83.156C93.1201 83.2947 93.2472 83.468 93.3281 83.6529C93.409 83.8379 93.4668 84.0459 93.4668 84.2539C93.4783 84.462 93.4437 84.67 93.3628 84.8549C93.2934 85.0514 93.1778 85.2248 93.0392 85.375C92.9005 85.5253 92.7271 85.6408 92.5306 85.7217L36.9853 111.148C36.7889 111.241 36.5808 111.298 36.3612 111.31Z" fill="#193A52"/>
</g>
<defs>
<clipPath id="clip0_2_94">
<rect width="162.533" height="114.546" fill="white"/>
</clipPath>
</defs>
</svg>
