<svg width="314" height="227" viewBox="0 0 314 227" fill="none" xmlns="http://www.w3.org/2000/svg">
<g clip-path="url(#clip0_7_706)">
<path d="M168.407 141.739L146.23 116.315L146.008 147.209L152.69 167.027L86.2718 178.808L83.4526 125.213L78.6799 84.1035C78.3914 81.6519 78.9241 79.1776 80.145 77.0438C81.3882 74.9327 83.275 73.2756 85.5171 72.3903L103.787 65.0128L129.559 69.8479L139.948 73.8658C144.299 75.5683 148.161 78.315 151.225 81.8789L182.414 118.335" fill="#193A52"/>
<path d="M144.698 110.208C145.941 110.186 147.207 110.095 148.45 109.936C151.447 109.459 154.222 108.097 156.441 106.009C158.661 103.921 160.237 101.174 160.926 98.1775C161.192 96.929 161.369 95.6578 161.503 94.3639C161.591 94.7044 161.614 95.0676 161.591 95.4081C161.591 96.3615 161.503 97.3149 161.303 98.2456C160.681 101.378 159.105 104.216 156.819 106.395C154.532 108.551 151.624 109.936 148.517 110.322C147.584 110.435 146.652 110.458 145.719 110.39C145.364 110.39 145.009 110.322 144.698 110.208Z" fill="white"/>
<path d="M146.63 145.916C146.785 145.916 146.829 135.201 146.718 122.012C146.607 108.824 146.408 98.1094 146.252 98.1094C146.097 98.1094 146.052 108.801 146.163 122.012C146.252 135.224 146.474 145.916 146.63 145.916Z" fill="#263238"/>
<path d="M144.188 153.77L104.053 137.244C102.477 136.586 101.1 135.496 100.079 134.089C99.0581 132.681 98.4587 131.002 98.3255 129.254L95.3953 89.9147C95.3953 89.9147 95.7505 73.1621 85.517 72.3676L79.7231 74.7057C72.1978 78.7917 70.3553 89.9828 71.3765 98.6088C72.8194 110.889 73.4409 128.255 75.0614 138.901C76.3933 147.618 81.2548 155.291 89.6237 157.538L139.06 168.479L144.188 153.77Z" fill="#193A52"/>
<path d="M95.9725 95.9075C96.0391 96.2026 96.0835 96.4977 96.1057 96.7928C96.1723 97.4284 96.2611 98.291 96.3721 99.3806C96.5719 101.696 96.8605 104.942 97.2157 108.915C97.5708 112.91 97.9482 117.768 98.4144 123.079C98.5254 124.419 98.6364 125.781 98.7474 127.165C98.8362 128.573 98.9915 129.98 99.2579 131.388C99.5465 132.795 100.235 134.089 101.256 135.065C102.366 136.064 103.609 136.858 104.963 137.426C116.018 142.329 126.229 146.37 133.621 149.207L142.412 152.521L144.809 153.407C145.098 153.497 145.364 153.611 145.631 153.747C145.342 153.702 145.054 153.611 144.765 153.497L142.345 152.703C140.281 151.976 137.195 150.932 133.488 149.548C126.029 146.801 115.818 142.828 104.719 137.948C103.32 137.335 102.011 136.518 100.878 135.474C99.7907 134.407 99.0359 133.022 98.7252 131.501C98.4588 130.094 98.2812 128.664 98.2146 127.211C98.1036 125.803 97.9926 124.441 97.9038 123.102C97.5042 117.836 97.1269 112.978 96.8827 108.937C96.6163 104.897 96.3721 101.696 96.1945 99.3806C96.1279 98.3364 96.0613 97.4284 96.0391 96.7701C95.9947 96.5431 95.9725 96.2253 95.9725 95.9075Z" fill="#263238"/>
<path d="M72.9971 117.314C73.0415 117.495 73.0637 117.654 73.0637 117.836L73.1969 119.357C73.3301 120.764 73.4854 122.648 73.663 124.941C73.8628 127.233 74.1736 130.094 74.5732 133.204C74.9727 136.563 75.5721 139.877 76.3713 143.169C76.7486 144.849 77.4146 146.46 78.3247 147.913C79.2127 149.252 80.2338 150.501 81.3215 151.681C83.2084 153.656 85.3617 155.313 87.7369 156.607C89.9568 157.765 92.332 158.559 94.7961 158.968C94.6185 158.991 94.4409 158.991 94.2633 158.968C93.7749 158.945 93.2644 158.877 92.776 158.764C90.9557 158.423 89.202 157.81 87.5594 156.97C85.1175 155.722 82.8754 154.042 80.9664 152.067C79.8342 150.887 78.7909 149.616 77.8808 148.231C76.9262 146.733 76.2159 145.076 75.8163 143.328C74.9949 140.014 74.3956 136.677 74.0404 133.272C73.663 130.116 73.4188 127.347 73.2635 124.986C73.1081 122.625 72.9971 120.696 72.9527 119.379C72.9527 118.766 72.9527 118.267 72.9527 117.858C72.9305 117.654 72.9527 117.472 72.9971 117.314Z" fill="#263238"/>
<path d="M90.1343 144.826C90.2453 144.054 90.4895 143.305 90.8668 142.647C91.6882 140.967 92.8425 139.469 94.241 138.243C95.6395 137.017 97.26 136.086 99.0137 135.519C99.7241 135.247 100.479 135.11 101.234 135.133C100.568 135.428 99.8795 135.678 99.1691 135.882C97.5042 136.54 95.9725 137.471 94.6184 138.652C93.2643 139.832 92.1321 141.239 91.222 142.806C90.5338 144.031 90.2231 144.871 90.1343 144.826Z" fill="#263238"/>
<path d="M98.0369 114.907C98.1257 114.93 98.2145 114.975 98.2811 115.021L99.0136 115.407C99.9459 115.883 100.9 116.292 101.877 116.633C105.496 117.926 109.358 118.267 113.132 117.631C118.726 116.61 123.743 113.432 127.117 108.733C129.137 106.032 130.402 102.808 130.78 99.426C130.957 97.6554 130.78 95.8621 130.247 94.1596C129.67 92.4344 128.693 90.8681 127.361 89.6423C126.051 88.3938 124.409 87.5766 122.655 87.3042C121.812 87.1453 120.968 87.1907 120.147 87.4404C119.325 87.6674 118.571 88.0987 117.949 88.6662C117.372 89.2337 117.039 90.0282 117.017 90.8454C117.039 91.6626 117.305 92.4571 117.794 93.0927C118.304 93.7283 118.926 94.2277 119.636 94.6136C120.346 94.9768 121.123 95.2265 121.923 95.2719C124.72 95.6351 127.539 95.2719 130.158 94.205C132.778 93.1381 135.086 91.4356 136.884 89.2337C138.261 87.5085 139.282 85.5336 139.926 83.4225C140.392 81.8108 140.658 80.1537 140.68 78.4739C140.703 77.407 140.614 76.3628 140.458 75.3186C140.392 75.0008 140.347 74.7284 140.303 74.5014C140.303 74.4106 140.303 74.3198 140.303 74.2063C140.725 75.5683 140.947 76.9984 140.925 78.4285C140.925 80.131 140.703 81.8335 140.236 83.4679C139.082 87.4177 136.618 90.8 133.244 93.0473C129.87 95.2946 125.852 96.248 121.856 95.7259C121.012 95.6578 120.169 95.4081 119.414 94.9995C118.659 94.5909 117.993 94.0461 117.438 93.3651C116.883 92.6387 116.573 91.7307 116.55 90.8C116.55 89.8466 116.928 88.9159 117.572 88.2349C118.26 87.5993 119.081 87.1453 119.969 86.8729C120.857 86.6005 121.812 86.5551 122.722 86.714C124.586 87.0091 126.34 87.8717 127.716 89.1883C129.115 90.4822 130.158 92.1166 130.758 93.9326C131.313 95.7032 131.512 97.5646 131.313 99.426C130.913 102.876 129.603 106.168 127.539 108.915C124.675 112.91 120.613 115.838 115.973 117.245C111.334 118.653 106.361 118.471 101.833 116.723C100.501 116.315 99.2134 115.702 98.0369 114.907Z" fill="white"/>
<path d="M71.7538 104.42C71.9314 104.102 72.1534 103.83 72.4197 103.58C73.0857 102.876 73.7961 102.218 74.5952 101.651C77.2368 99.8119 80.278 98.6996 83.4746 98.4272C85.2283 98.2229 86.982 98.291 88.7135 98.6542C90.112 98.9493 91.4661 99.4487 92.7536 100.107C93.6194 100.538 94.4185 101.06 95.2177 101.628C95.5285 101.809 95.7948 102.059 96.0168 102.332C95.9502 102.422 94.7515 101.492 92.5983 100.47C89.779 99.1309 86.649 98.6315 83.5634 98.9947C80.4556 99.2444 77.4588 100.266 74.8394 101.968C72.7971 103.33 71.8204 104.488 71.7538 104.42Z" fill="white"/>
<path d="M78.1693 76.272C79.146 77.2254 80.2338 78.0199 81.4103 78.6782C82.6978 79.3592 84.0963 79.7678 85.5392 79.9267C87.2929 80.1083 89.0688 79.8586 90.6893 79.1776C92.2876 78.4739 93.7083 77.3843 94.8182 76.0223C95.7284 74.8646 96.4387 73.5707 96.8827 72.1633C97.2601 70.8467 97.4599 69.4847 97.5043 68.1C97.6153 68.4632 97.6597 68.8491 97.6375 69.2123C97.6597 70.2565 97.5265 71.278 97.2379 72.2768C96.8161 73.7523 96.128 75.137 95.1734 76.3401C94.0413 77.861 92.5318 79.0414 90.8225 79.7678C89.1132 80.4942 87.2263 80.7439 85.3839 80.4942C83.8965 80.3126 82.4314 79.8586 81.1217 79.1095C80.2338 78.6101 79.4346 77.9745 78.7243 77.2254C78.5023 76.953 78.3025 76.6352 78.1693 76.272Z" fill="white"/>
<path d="M113.154 140.99C113.154 140.717 113.176 140.468 113.243 140.218C113.376 139.491 113.62 138.788 113.953 138.107C115.263 135.655 117.394 133.748 119.947 132.772C123.721 131.229 127.894 131.092 131.757 132.341C133.888 132.977 136.307 133.794 137.95 135.905C138.35 136.45 138.616 137.085 138.705 137.766C138.794 138.447 138.683 139.128 138.416 139.764C137.795 140.99 136.796 141.943 135.553 142.511C134.376 143.101 133.066 143.441 131.757 143.487C130.447 143.555 129.159 143.146 128.116 142.329C127.628 141.898 127.25 141.398 126.962 140.808C126.673 140.218 126.518 139.582 126.496 138.947C126.429 137.744 126.607 136.518 127.051 135.383C128.605 131.546 131.557 128.459 135.308 126.825C137.795 125.69 140.503 125.213 143.211 125.44C144.188 125.508 145.165 125.735 146.097 126.053C146.097 126.121 145.076 125.781 143.189 125.644C140.947 125.531 138.705 125.871 136.596 126.666C134.487 127.46 132.556 128.686 130.935 130.253C129.426 131.728 128.249 133.521 127.472 135.519C127.073 136.586 126.895 137.721 126.962 138.856C126.984 139.423 127.139 139.991 127.384 140.513C127.628 141.035 127.983 141.489 128.427 141.852C129.359 142.601 130.536 142.965 131.735 142.896C132.978 142.874 134.199 142.556 135.308 141.988C136.418 141.466 137.351 140.604 137.928 139.491C138.15 138.947 138.239 138.356 138.172 137.766C138.106 137.176 137.884 136.631 137.528 136.155C136.818 135.224 135.886 134.475 134.842 133.975C133.821 133.476 132.756 133.067 131.668 132.772C127.894 131.524 123.832 131.637 120.147 133.067C117.638 133.998 115.53 135.791 114.198 138.129C113.687 139.06 113.354 140.014 113.154 140.99Z" fill="white"/>
<path d="M86.4271 155.79C86.4271 155.677 87.9588 155.563 90.2675 154.746C93.2865 153.656 96.0169 151.818 98.1702 149.366C100.323 146.937 101.833 143.986 102.588 140.785C103.165 138.334 103.165 136.745 103.254 136.767C103.32 137.131 103.342 137.494 103.298 137.88C103.276 138.901 103.165 139.9 102.943 140.876C102.277 144.168 100.767 147.232 98.5475 149.729C96.3499 152.226 93.5307 154.065 90.3785 155.086C89.4461 155.404 88.4694 155.631 87.4927 155.745C87.1597 155.813 86.7823 155.835 86.4271 155.79Z" fill="white"/>
<path d="M73.4187 125.213C73.5741 125.122 73.7295 125.054 73.9071 125.009C74.2401 124.895 74.7062 124.759 75.35 124.578C77.1259 124.101 78.9905 123.897 80.833 124.01C82.1205 124.101 83.3637 124.419 84.5402 124.941C85.9165 125.554 87.1152 126.507 88.0032 127.733C88.9799 129.118 89.4683 130.82 89.3573 132.523C89.2907 133.431 89.0243 134.316 88.5581 135.088C88.092 135.905 87.3594 136.54 86.4937 136.881C86.0275 137.04 85.5391 137.085 85.073 136.972C84.6068 136.858 84.1628 136.654 83.7854 136.336C83.1639 135.632 82.8309 134.724 82.8531 133.794C82.8087 132.114 83.1195 130.434 83.8076 128.913C84.74 126.734 86.3827 124.941 88.4249 123.806C90.4894 122.671 92.8425 122.285 95.1511 122.693C95.6395 122.762 96.1279 122.898 96.594 123.057C96.9048 123.193 97.0824 123.261 97.0602 123.284C97.0602 123.306 96.372 123.057 95.1067 122.898C93.3086 122.671 91.4883 122.92 89.8235 123.601C87.3372 124.623 85.3393 126.598 84.296 129.118C83.6744 130.57 83.3637 132.159 83.4303 133.771C83.4081 134.588 83.6966 135.36 84.2072 135.973C84.4958 136.223 84.851 136.404 85.2505 136.472C85.6279 136.54 86.0275 136.518 86.3827 136.382C87.1374 136.086 87.7812 135.542 88.203 134.815C88.6025 134.112 88.8689 133.317 88.9355 132.477C89.0465 130.888 88.6025 129.322 87.7146 128.028C86.871 126.87 85.7611 125.962 84.4736 125.372C83.3415 124.85 82.1427 124.509 80.8996 124.396C79.1015 124.26 77.2813 124.396 75.5276 124.782C74.1291 125.054 73.4187 125.259 73.4187 125.213Z" fill="white"/>
<g opacity="0.3">
<path opacity="0.3" d="M132.645 149.071C128.36 146.597 124.165 144.69 119.681 142.601C115.196 140.513 110.801 137.834 107.849 133.794C102.321 126.167 102.943 115.134 97.2822 107.621C97.6596 112.683 98.0148 117.745 98.3922 122.807C98.7251 127.438 98.037 132.046 100.967 135.201C103.431 137.857 108.226 139.9 111.645 141.035C118.46 143.35 125.83 146.778 132.645 149.071Z" fill="black"/>
</g>
<path d="M202.437 206.91C202.437 206.91 236.023 216.399 237.377 216.898C239.442 217.625 239.065 225.207 235.912 225.07C234.425 225.025 210.14 226.001 207.054 225.82C203.969 225.638 194.69 221.892 194.69 221.892L202.437 206.91Z" fill="#C84B4F"/>
<path d="M216.378 220.008C216.799 218.737 217.288 217.511 217.865 216.308C218.597 215.196 219.374 214.152 220.24 213.153C219.041 213.834 218.043 214.81 217.377 216.013C216.688 217.216 216.355 218.601 216.378 220.008Z" fill="#263238"/>
<path d="M212.87 218.374C213.026 218.374 213.381 216.785 214.269 214.992C215.157 213.198 216.222 211.95 216.111 211.836C215.135 212.608 214.335 213.607 213.781 214.742C213.226 215.877 212.915 217.125 212.87 218.374Z" fill="#263238"/>
<path d="M209.651 217.489C209.807 216.263 210.073 215.037 210.428 213.857C210.961 212.744 211.561 211.655 212.249 210.633C211.183 211.36 210.362 212.404 209.896 213.63C209.452 214.878 209.341 216.217 209.651 217.489Z" fill="#263238"/>
<path d="M210.206 213.039C210.495 212.222 210.628 211.36 210.562 210.497C210.562 209.544 210.428 208.613 210.229 207.682C210.095 207.137 209.94 206.615 209.718 206.093C209.629 205.775 209.429 205.48 209.185 205.253C209.008 205.117 208.808 205.072 208.586 205.072C208.364 205.094 208.164 205.163 208.031 205.321C207.765 205.571 207.609 205.912 207.587 206.298C207.565 206.593 207.565 206.91 207.587 207.206C207.587 207.773 207.654 208.341 207.787 208.885C208.009 209.793 208.364 210.679 208.808 211.519C209.185 212.313 209.696 213.017 210.317 213.63C210.406 213.63 209.829 212.767 209.163 211.382C208.763 210.565 208.475 209.725 208.297 208.84C208.186 208.318 208.142 207.796 208.142 207.274C208.142 206.752 208.142 206.093 208.453 205.844C208.519 205.798 208.586 205.753 208.675 205.753C208.763 205.753 208.83 205.775 208.897 205.844C209.074 206.002 209.185 206.207 209.274 206.434C209.474 206.933 209.651 207.433 209.785 207.955C210.029 208.84 210.162 209.725 210.229 210.633C210.251 212.063 210.095 213.039 210.206 213.039Z" fill="#263238"/>
<path d="M210.162 212.699C209.474 212.404 208.741 212.29 207.986 212.336C207.187 212.336 206.388 212.427 205.611 212.631C205.123 212.744 204.657 212.926 204.235 213.153C203.968 213.289 203.746 213.516 203.591 213.811C203.458 214.084 203.413 214.424 203.48 214.719C203.547 215.014 203.702 215.287 203.924 215.491C204.146 215.718 204.39 215.854 204.679 215.945C205.167 216.081 205.7 216.081 206.188 215.945C206.987 215.763 207.72 215.4 208.364 214.901C208.985 214.47 209.496 213.947 209.918 213.335C209.296 213.698 208.697 214.106 208.142 214.56C207.52 214.992 206.81 215.309 206.077 215.468C205.678 215.582 205.234 215.582 204.834 215.468C204.634 215.423 204.457 215.309 204.324 215.173C204.19 215.037 204.079 214.855 204.013 214.651C203.991 214.47 204.013 214.265 204.102 214.084C204.19 213.902 204.324 213.766 204.501 213.698C204.879 213.471 205.3 213.312 205.722 213.221C206.455 212.994 207.232 212.881 207.986 212.812C209.318 212.654 210.14 212.79 210.162 212.699Z" fill="#263238"/>
<path d="M221.528 220.372C221.661 219.327 221.905 218.283 222.194 217.262C222.66 216.331 223.215 215.423 223.836 214.583C222.859 215.128 222.105 216.013 221.683 217.057C221.261 218.124 221.217 219.282 221.528 220.372Z" fill="#263238"/>
<path d="M198.108 221.961C198.508 222.233 198.952 222.437 199.418 222.596C200.639 223.073 201.882 223.459 203.147 223.777C207.365 224.707 211.672 225.139 215.978 225.025C221.017 224.957 225.546 224.73 228.831 224.594L232.716 224.389C233.182 224.389 233.67 224.321 234.137 224.231C233.67 224.162 233.182 224.14 232.694 224.162H228.809L215.956 224.412C211.694 224.526 207.409 224.162 203.214 223.368C200.017 222.687 198.153 221.847 198.108 221.961Z" fill="#263238"/>
<path d="M197.131 222.755C197.131 222.823 198.086 222.278 199.64 221.575C201.615 220.621 203.813 220.258 205.989 220.53C208.12 221.007 210.051 222.165 211.494 223.867C212.093 224.594 212.737 225.275 213.425 225.888C212.981 225.048 212.426 224.276 211.782 223.595C211.116 222.8 210.384 222.097 209.563 221.484C208.541 220.712 207.343 220.19 206.077 219.986C203.791 219.713 201.482 220.145 199.462 221.257C198.619 221.62 197.82 222.119 197.131 222.755Z" fill="#263238"/>
<path d="M166.742 197.422C166.742 197.422 134.975 218.692 133.821 219.554C132.112 220.871 134.065 227.159 137.04 226.069C138.438 225.547 165.099 217.965 167.963 216.83C170.826 215.695 178.551 209.294 178.551 209.294L166.742 197.422Z" fill="#C84B4F"/>
<path d="M157.307 214.243C156.93 212.903 156.197 211.7 155.176 210.769C154.177 209.839 152.934 209.18 151.58 208.931C152.69 209.612 153.777 210.384 154.776 211.201C155.709 212.154 156.552 213.176 157.307 214.243Z" fill="#263238"/>
<path d="M160.171 211.609C159.771 210.406 159.105 209.317 158.24 208.409C157.374 207.501 156.308 206.797 155.154 206.343C155.065 206.502 156.464 207.387 157.84 208.795C159.194 210.179 160.016 211.7 160.171 211.609Z" fill="#263238"/>
<path d="M163.034 209.725C163.034 208.409 162.546 207.115 161.658 206.161C160.926 205.094 159.816 204.345 158.573 204.05C159.527 204.822 160.437 205.639 161.259 206.547C161.924 207.569 162.524 208.636 163.034 209.725Z" fill="#263238"/>
<path d="M161.192 205.707C161.281 205.707 160.837 204.799 160.481 203.278C160.259 202.393 160.126 201.508 160.104 200.6C160.06 200.055 160.06 199.533 160.104 198.988C160.104 198.738 160.171 198.511 160.282 198.307C160.326 198.239 160.393 198.194 160.481 198.171C160.57 198.148 160.637 198.171 160.726 198.216C161.081 198.353 161.281 198.988 161.458 199.51C161.614 200.01 161.702 200.532 161.769 201.054C161.858 201.962 161.813 202.87 161.68 203.755C161.458 205.299 161.17 206.229 161.258 206.275C161.68 205.526 161.969 204.686 162.08 203.823C162.28 202.893 162.346 201.962 162.28 201.008C162.235 200.441 162.146 199.873 161.991 199.351C161.902 199.056 161.813 198.784 161.68 198.489C161.547 198.148 161.281 197.853 160.948 197.694C160.748 197.603 160.548 197.581 160.326 197.649C160.126 197.717 159.949 197.83 159.816 198.012C159.638 198.307 159.549 198.648 159.549 198.988C159.438 200.486 159.594 202.007 160.038 203.437C160.259 204.232 160.659 205.026 161.192 205.707Z" fill="#263238"/>
<path d="M161.081 205.344C161.081 205.435 161.858 205.049 163.145 204.731C163.9 204.55 164.655 204.436 165.432 204.413C165.876 204.391 166.32 204.413 166.742 204.504C166.941 204.527 167.119 204.618 167.252 204.754C167.385 204.89 167.474 205.072 167.519 205.253C167.519 205.458 167.474 205.662 167.385 205.866C167.297 206.048 167.141 206.207 166.964 206.32C166.608 206.547 166.209 206.683 165.787 206.729C165.032 206.797 164.278 206.729 163.545 206.502C162.879 206.252 162.191 206.025 161.481 205.889C162.058 206.366 162.724 206.729 163.434 206.933C164.189 207.228 165.01 207.364 165.831 207.296C166.342 207.274 166.83 207.115 167.274 206.842C167.519 206.683 167.741 206.456 167.874 206.184C168.007 205.912 168.073 205.617 168.073 205.299C168.029 204.981 167.896 204.686 167.696 204.459C167.474 204.232 167.208 204.073 166.897 204.028C166.409 203.937 165.92 203.914 165.432 203.959C164.633 204.005 163.834 204.164 163.079 204.413C162.324 204.55 161.658 204.89 161.081 205.344Z" fill="#263238"/>
<path d="M141.102 224.912C141.102 224.957 141.635 224.594 141.879 223.663C142.123 222.46 141.901 221.189 141.28 220.122C140.969 219.554 140.636 219.01 140.259 218.51C139.948 218.079 139.593 217.67 139.171 217.33C138.882 217.08 138.527 216.921 138.15 216.898C137.883 216.898 137.75 216.944 137.75 216.989C137.75 217.012 138.327 217.035 138.904 217.648C139.26 218.011 139.548 218.397 139.815 218.828C140.192 219.327 140.525 219.872 140.836 220.417C141.413 221.37 141.657 222.483 141.546 223.572C141.413 224.026 141.28 224.48 141.102 224.912Z" fill="#263238"/>
<path d="M152.512 216.195C152.557 215.627 152.468 215.06 152.29 214.515C152.091 213.97 151.802 213.494 151.402 213.085C151.092 212.608 150.67 212.222 150.181 211.927C149.693 211.632 149.16 211.45 148.605 211.405C149.449 212.018 150.248 212.699 150.958 213.448C151.558 214.333 152.068 215.241 152.512 216.195Z" fill="#263238"/>
<path d="M175.31 210.452C174.822 210.724 174.356 211.065 173.912 211.428C172.647 212.313 171.337 213.153 170.005 213.879C168.007 214.969 165.943 215.9 163.811 216.717C161.392 217.625 158.661 218.51 155.842 219.35C150.115 221.03 144.943 222.573 141.213 223.731L136.774 225.161C136.219 225.32 135.686 225.502 135.175 225.751C135.73 225.683 136.285 225.547 136.84 225.388L141.302 224.117C145.076 223.073 150.248 221.597 155.975 219.895C158.839 219.032 161.547 218.147 163.945 217.216C166.098 216.376 168.185 215.378 170.182 214.243C171.537 213.471 172.824 212.585 174.045 211.609C174.489 211.223 174.911 210.86 175.31 210.452Z" fill="#263238"/>
<path d="M176.487 210.883C175.621 210.497 174.733 210.247 173.801 210.134C171.536 209.703 169.206 209.998 167.119 210.974C165.987 211.587 165.01 212.449 164.3 213.516C163.7 214.356 163.19 215.264 162.812 216.24C162.391 217.103 162.102 218.011 161.947 218.941C162.413 218.124 162.835 217.284 163.19 216.422C164.056 214.356 165.543 212.654 167.43 211.519C169.428 210.611 171.625 210.27 173.801 210.588C175.421 210.724 176.465 210.951 176.487 210.883Z" fill="#263238"/>
<path d="M232.783 145.53C232.783 145.53 242.328 149.003 242.35 159.944C242.439 180.874 200.994 203.959 200.994 203.959L145.831 166.595L142.368 165.165C142.368 165.165 216.866 136.563 232.783 145.53Z" fill="#24263B"/>
<path d="M173.778 185.459C174.289 185.164 174.777 184.846 175.221 184.46C176.109 183.779 177.397 182.803 178.995 181.532C182.17 179.035 186.454 175.494 191.071 171.453C195.711 167.39 199.773 163.599 202.659 160.761C204.102 159.354 205.256 158.196 206.055 157.379C206.477 156.993 206.877 156.539 207.232 156.085C206.766 156.426 206.322 156.812 205.9 157.22L202.392 160.466C199.44 163.19 195.333 166.958 190.716 170.999C186.099 175.04 181.859 178.626 178.773 181.214L175.11 184.279C174.622 184.642 174.178 185.05 173.778 185.459Z" fill="white"/>
<path d="M217.221 153.361C213.625 152.975 210.007 154.065 207.187 156.38C207.276 156.539 209.252 155.223 212.071 154.405C214.89 153.588 217.221 153.543 217.221 153.361Z" fill="white"/>
<path d="M212.471 150.07C211.205 150.614 210.073 151.5 209.207 152.589C208.342 153.702 207.742 154.996 207.476 156.38C207.631 156.38 208.231 154.678 209.629 152.953C211.028 151.205 212.559 150.206 212.471 150.07Z" fill="white"/>
<path d="M235.824 216.354C235.824 216.286 235.158 216.149 234.403 216.785C233.515 217.648 232.938 218.805 232.827 220.054C232.649 221.28 232.827 222.528 233.315 223.663C233.715 224.526 234.136 224.912 234.181 224.866C234.048 224.389 233.87 223.935 233.67 223.504C233.315 222.415 233.204 221.257 233.359 220.122C233.493 218.987 233.937 217.92 234.647 217.057C235.246 216.467 235.824 216.444 235.824 216.354Z" fill="#263238"/>
<path d="M220.085 111.321L200.439 162.237L115.862 163.644L114.286 158.968L143.921 157.878L158.173 112.705L220.085 111.321Z" fill="#A3A5AE"/>
<path d="M180.594 133.408C181.237 133.067 181.97 132.931 182.702 133.022C183.435 133.113 184.101 133.385 184.678 133.862C185.167 134.316 185.499 134.929 185.633 135.587C185.766 136.245 185.721 136.926 185.477 137.562C185.211 138.175 184.789 138.72 184.234 139.106C183.679 139.491 183.035 139.718 182.392 139.741C181.704 139.787 180.993 139.605 180.416 139.196C179.839 138.81 179.395 138.22 179.151 137.539C178.929 136.79 178.951 135.973 179.195 135.247C179.461 134.497 179.928 133.862 180.571 133.408" fill="#EBEBEB"/>
<path d="M206.211 206.502C206.211 206.502 128.294 154.224 125.119 153.134C121.945 152.045 114.22 146.892 106.517 149.048C98.8141 151.227 91.8882 158.287 88.4252 168.616C86.4495 174.518 85.5172 184.596 85.0732 192.155C84.4738 201.19 87.3375 210.111 93.0647 217.035C95.5953 220.258 98.9695 222.71 102.788 224.094C103.609 224.367 104.453 224.571 105.318 224.775C120.058 228.044 135.22 221.28 143.455 208.386L145.276 205.571C145.276 205.571 196.266 224.707 197.043 224.458L206.211 206.502Z" fill="#24263B"/>
<path d="M109.802 192.11C109.935 192.178 110.091 192.246 110.224 192.292L111.512 192.814L116.44 194.766L134.798 201.848C142.59 204.822 151.935 208.363 162.413 212.268C172.891 216.172 184.5 220.44 196.932 224.73L197.154 224.821L197.265 224.594L203.347 212.699L206.433 206.638L206.544 206.411L206.322 206.275L146.874 167.685L129.026 156.176L124.187 153.066L122.922 152.272C122.633 152.09 122.478 152.022 122.478 152.022L122.899 152.317L124.143 153.157L128.937 156.312L146.763 168.003L206.1 206.752L205.989 206.366C205.012 208.295 203.924 210.361 202.903 212.427L196.821 224.321L197.154 224.185C184.789 219.918 173.135 215.65 162.635 211.791L134.975 201.508L116.506 194.562L111.534 192.7L110.224 192.246L109.802 192.11Z" fill="white"/>
<path d="M117.883 6.51487C119.214 2.83747 122.145 1.24847 125.874 0.31777C127.739 -0.13623 129.692 -0.11353 131.557 0.38587C133.422 0.88527 135.131 1.81597 136.574 3.13257C138.461 4.90317 139.837 7.35477 142.168 8.39897C146.008 10.1696 150.936 7.58177 154.532 9.76097C155.62 10.4193 156.441 11.4408 156.885 12.6439C157.329 13.847 157.329 15.1863 156.908 16.3894C156.486 17.6152 155.687 18.6367 154.599 19.3177C153.533 19.9987 152.268 20.2711 151.003 20.0895C153.511 21.2926 153.977 25.1516 152.246 27.3535C150.514 29.5781 147.34 30.1683 144.676 29.3965C142.035 28.4658 139.704 26.8314 137.928 24.6522C136.041 22.5411 134.398 20.2711 132.356 18.3189C130.403 16.2759 127.805 15.0274 125.008 14.755C121.257 14.5961 117.794 17.1839 115.84 20.4527C113.887 23.7215 113.132 27.5805 112.599 31.3714C112.044 35.1623 111.645 39.0213 110.202 42.5625C110.046 42.9938 109.78 43.4478 109.358 43.5386C108.737 43.6748 108.271 42.9711 108.026 42.3582C105.207 35.5936 103.72 28.3069 103.631 20.9521C103.587 16.7299 104.053 12.6893 106.65 9.35237C109.247 6.01547 115.197 3.92707 117.816 6.44677" fill="#24263B"/>
<path d="M109.114 23.5172L103.387 66.0797C103.165 67.8049 103.276 69.5528 103.72 71.2099C104.164 72.8897 104.963 74.4333 106.006 75.7953C107.072 77.1573 108.381 78.2696 109.891 79.0868C111.378 79.904 113.043 80.4034 114.73 80.5396C117.927 80.8347 121.123 79.8359 123.632 77.7929C126.14 75.7499 127.783 72.7762 128.227 69.5301C128.649 66.3748 129.004 63.6508 129.093 63.333C129.093 63.333 139.815 63.8097 142.034 53.1861C143.056 48.0559 144.454 37.2961 145.586 27.5578C146.163 22.5184 144.854 17.4336 141.923 13.3476C138.993 9.23887 134.687 6.42407 129.803 5.42527L128.738 5.22097C117.749 3.63197 110.335 12.2807 109.114 23.5172Z" fill="#B4836B"/>
<path d="M129.048 63.1968C124.231 62.2888 119.769 59.928 116.262 56.4322C116.262 56.4322 117.971 64.7404 128.538 65.9208L129.048 63.1968Z" fill="#805945"/>
<path d="M141.058 34.0954C140.991 34.4813 140.769 34.8445 140.436 35.0715C140.103 35.2985 139.704 35.3893 139.326 35.3212C139.127 35.2985 138.949 35.2304 138.771 35.1396C138.594 35.0488 138.461 34.9126 138.35 34.7537C138.239 34.5948 138.15 34.4132 138.105 34.2316C138.061 34.05 138.039 33.8457 138.083 33.6414C138.15 33.2328 138.372 32.8923 138.705 32.6653C139.038 32.4383 139.437 32.3475 139.815 32.4156C140.015 32.4383 140.192 32.5064 140.37 32.5972C140.547 32.688 140.681 32.8242 140.792 32.9831C140.903 33.142 140.991 33.3236 141.036 33.5052C141.08 33.6868 141.08 33.8911 141.058 34.0954Z" fill="#263238"/>
<path d="M142.234 32.3475C142.012 32.5064 141.058 31.4395 139.459 31.099C137.861 30.7812 136.529 31.3714 136.374 31.099C136.218 30.8266 136.574 30.6677 137.151 30.3953C137.928 30.0321 138.816 29.9413 139.637 30.1229C140.481 30.2818 141.235 30.7131 141.812 31.3487C142.234 31.8708 142.323 32.2794 142.234 32.3475Z" fill="#263238"/>
<path d="M125.252 31.4395C125.186 31.8481 124.964 32.1886 124.631 32.4156C124.298 32.6426 123.898 32.7334 123.521 32.6653C123.321 32.6426 123.144 32.5745 122.966 32.4837C122.788 32.3929 122.655 32.2567 122.522 32.0978C122.411 31.9389 122.322 31.7573 122.278 31.5757C122.233 31.3941 122.211 31.1898 122.233 30.9855C122.3 30.5996 122.544 30.2364 122.855 30.0094C123.188 29.7824 123.565 29.6916 123.965 29.737C124.165 29.7597 124.342 29.8278 124.52 29.9186C124.697 30.0094 124.831 30.1456 124.964 30.3045C125.075 30.4634 125.164 30.645 125.208 30.8266C125.275 31.0309 125.297 31.2352 125.252 31.4395Z" fill="#263238"/>
<path d="M126.451 29.4419C126.229 29.6008 125.275 28.5112 123.676 28.1934C122.078 27.8756 120.746 28.4658 120.591 28.1934C120.435 27.921 120.79 27.7621 121.368 27.4897C122.145 27.1492 123.032 27.0357 123.854 27.2173C124.675 27.3989 125.452 27.8302 126.029 28.4431C126.451 29.0333 126.562 29.3738 126.451 29.4419Z" fill="#263238"/>
<path d="M129.892 42.7441C130.78 42.6533 131.69 42.6533 132.578 42.7895C133 42.7895 133.399 42.7895 133.533 42.5398C133.666 42.1312 133.666 41.6772 133.533 41.2459C133.355 40.2017 133.155 39.0213 132.955 37.8182C132.156 32.9377 131.668 28.9879 131.868 28.9425C132.045 28.9198 132.889 32.8242 133.644 37.7047C133.821 38.9078 134.021 40.0428 134.176 41.1324C134.332 41.6999 134.287 42.2901 134.065 42.8122C133.977 42.9484 133.866 43.0619 133.732 43.13C133.599 43.2208 133.444 43.2662 133.288 43.2662C133.044 43.3116 132.822 43.3116 132.578 43.2662C131.646 43.2208 130.736 43.0392 129.892 42.7441Z" fill="#263238"/>
<path d="M124.942 42.9257C125.208 42.9257 124.853 44.7417 126.096 46.308C127.339 47.8743 129.182 48.0559 129.182 48.3056C129.182 48.5553 128.716 48.5553 127.916 48.4191C126.895 48.2375 125.963 47.67 125.297 46.8528C124.675 46.0583 124.365 45.0595 124.431 44.038C124.564 43.2889 124.831 42.8803 124.942 42.9257Z" fill="#263238"/>
<path d="M128.116 23.1086C127.872 23.5399 126.318 22.9951 124.387 22.8362C122.455 22.6773 120.857 22.9043 120.679 22.4503C120.613 22.246 120.968 21.8828 121.656 21.565C122.566 21.2018 123.565 21.0429 124.542 21.1337C125.519 21.2018 126.473 21.5196 127.317 22.0644C127.938 22.4957 128.205 22.9043 128.116 23.1086Z" fill="#263238"/>
<path d="M142.567 27.4897C142.212 27.8075 141.191 27.1946 139.859 26.8995C138.527 26.6044 137.373 26.6498 137.195 26.2185C137.107 26.0142 137.351 25.6737 137.928 25.424C138.66 25.1289 139.482 25.0608 140.259 25.2651C141.036 25.424 141.746 25.8553 142.279 26.4455C142.634 26.9222 142.723 27.3308 142.567 27.4897Z" fill="#263238"/>
<path d="M108.404 31.5757C108.248 31.4622 101.678 27.9437 100.479 35.2758C99.2801 42.6079 106.717 42.3128 106.761 42.1085C106.805 41.8815 108.404 31.5757 108.404 31.5757Z" fill="#B4836B"/>
<path d="M105.052 38.9532C105.052 38.9532 104.918 39.0213 104.696 39.0894C104.386 39.1575 104.053 39.1121 103.764 38.9532C103.342 38.5673 103.031 38.0906 102.876 37.5458C102.699 37.001 102.676 36.4335 102.81 35.866C102.898 35.2304 103.12 34.6175 103.453 34.0954C103.542 33.8684 103.697 33.6868 103.875 33.5279C104.053 33.369 104.275 33.2782 104.497 33.2328C104.652 33.2101 104.807 33.2555 104.918 33.3463C105.052 33.4371 105.14 33.5733 105.163 33.7095C105.229 33.9138 105.163 34.0727 105.163 34.0727C105.163 34.0727 105.34 33.9819 105.318 33.6641C105.318 33.4825 105.229 33.3009 105.118 33.1647C105.029 33.0739 104.941 32.9831 104.83 32.9377C104.719 32.8923 104.585 32.8469 104.474 32.8469C104.164 32.8469 103.875 32.9377 103.609 33.0966C103.342 33.2555 103.142 33.4825 102.987 33.7549C102.588 34.3451 102.321 35.0261 102.21 35.7298C102.01 37.2053 102.521 38.7262 103.52 39.2029C103.697 39.2937 103.897 39.3391 104.097 39.3391C104.297 39.3391 104.497 39.2937 104.674 39.2029C105.007 39.1348 105.074 38.9759 105.052 38.9532Z" fill="#805945"/>
<path d="M148.117 25.8553C145.697 25.9915 143.278 25.5375 141.058 24.516C138.838 23.5172 136.885 21.9736 135.353 20.0441C133.288 17.3201 131.912 13.7789 128.938 12.1218C127.916 11.5997 126.784 11.3046 125.652 11.2365C124.52 11.1911 123.388 11.35 122.3 11.7359C120.147 12.5304 118.171 13.7562 116.506 15.3452C117.461 21.1564 114.93 26.9449 112.466 32.2113C112.244 32.8242 111.845 33.369 111.312 33.7095C110.335 34.2089 109.181 33.4144 108.604 32.4837C107.782 30.9174 107.427 29.1241 107.583 27.3535C107.605 23.3129 108.404 19.295 109.958 15.5722C111.534 11.8267 114.131 8.64867 117.461 6.40137C121.723 3.74547 126.829 2.88287 131.69 3.99517C136.529 5.15287 140.903 7.83147 144.166 11.6678C145.764 13.3703 146.918 15.436 147.54 17.706" fill="#24263B"/>
</g>
<defs>
<clipPath id="clip0_7_706">
<rect width="313" height="227" fill="white" transform="translate(0.0966797)"/>
</clipPath>
</defs>
</svg>
