<svg width="130" height="129" viewBox="0 0 130 129" fill="none" xmlns="http://www.w3.org/2000/svg">
<g clip-path="url(#clip0_2_189)">
<path d="M24.4839 98.1802C40.4754 97.757 50.8243 109.888 50.8243 109.888C49.2342 114.89 48.2467 118.609 48.2467 118.609C39.4879 116.967 29.5622 116.288 21.3549 114.159C13.9426 112.274 13.2116 102.258 14.0067 98.1161C14.8018 93.9611 19.0337 92.9352 23.1374 91.5886C27.8566 90.0626 36.859 89.8831 43.2967 89.8831C50.0934 89.8831 58.9804 90.4986 63.6355 91.5245C63.6355 91.5245 73.433 91.1013 80.7298 91.2168C84.9617 90.4858 82.4482 97.3723 75.6515 103.297C68.6625 109.401 59.66 111.838 50.9654 110.44H50.9013" fill="#193A52"/>
<path d="M101.359 98.1802C85.3678 97.757 71.1588 109.888 71.1588 109.888C72.749 114.89 73.7365 118.609 73.7365 118.609C82.4952 116.967 96.2169 116.288 104.424 114.159C111.836 112.274 112.567 102.258 111.772 98.1161C110.977 93.9611 106.745 92.9352 102.642 91.5886C97.9225 90.0626 88.92 89.8831 82.4824 89.8831C75.6857 89.8831 66.7987 90.4986 62.1436 91.5245C62.1436 91.5245 52.3461 91.1013 45.0493 91.2168C40.8173 90.4858 43.3308 97.3723 50.1275 103.297C57.1166 109.401 66.119 111.838 74.8137 110.44H74.8778" fill="#193A52"/>
<path d="M50.9514 54.9252C49.5407 59.6188 48.1301 64.3252 46.604 68.9547C45.8731 71.2758 45.078 73.5969 44.2701 75.9052C43.475 78.2264 42.6799 80.5475 41.7566 82.8558L41.6283 83.1636L41.4488 83.5355C41.3206 83.7792 41.2693 83.9587 41.141 84.2024C40.8974 84.6255 40.6537 84.9974 40.4101 85.3565C39.9228 86.0875 39.3072 86.703 38.7558 87.2416C37.5888 88.3445 36.4218 89.1268 35.2035 89.8705C32.8183 91.3325 30.4202 92.3071 27.9708 93.2304C23.1362 95.0001 18.2887 96.1543 13.2104 96.9494L12.2871 92.9868C14.4928 92.1917 16.814 91.3453 19.0197 90.422C21.2254 89.5115 23.4311 88.5881 25.5086 87.5494C27.5861 86.5107 29.6123 85.3565 31.3307 84.1382C33.0491 82.92 34.4597 81.3939 34.5752 80.4834L38.6788 66.454C40.0895 61.7604 41.5001 57.1181 42.962 52.4246L50.9514 54.9252Z" fill="#CE7A63"/>
<path d="M13.951 93.2434L6.47461 91.3583L10.0268 98.4884C10.0268 98.4884 15.1051 98.7321 16.7594 95.8595L13.951 93.2434Z" fill="#CE7A63"/>
<path d="M66.874 4.0526C64.181 2.10336 59.7695 0.513188 57.987 3.43705C56.2045 6.36092 54.6784 12.5934 51.7417 14.1194C48.805 15.5814 45.2528 21.6214 47.2149 26.9306C49.1769 32.2397 41.521 30.7778 41.085 38.8312C40.7131 46.8077 52.1649 50.8986 59.3976 46.936C66.6304 42.9733 71.7728 22.2883 71.2855 14.1194C70.8494 5.87361 66.874 4.0526 66.874 4.0526Z" fill="#263238"/>
<path d="M63.5039 3.74456C63.5039 3.74456 67.428 -2.16729 74.6479 0.871991C83.0989 4.47553 80.47 8.30989 81.9961 16.4916C83.5221 24.6604 92.9606 26.1352 92.5374 37.4844C91.8064 56.823 74.5838 53.2194 69.8774 48.1027C65.1582 42.9731 70.3647 24.1218 70.3647 24.1218L63.5039 3.74456Z" fill="#263238"/>
<path d="M0.40625 94.1536L3.71483 100.014L10.0242 98.6164L6.47199 91.4221L0.40625 94.1536Z" fill="#CE7A63"/>
<path d="M45.7409 43.8841C42.4964 44.7433 40.2266 58.0418 40.2266 58.0418L49.1649 64.146C49.1649 64.146 57.7441 50.668 55.2947 47.1286C52.653 43.3968 50.5114 42.6659 45.7409 43.8841Z" fill="#C84B4F"/>
<path opacity="0.2" d="M45.438 48.7057L52.4271 50.2959L53.1067 57.131C51.2729 60.85 49.1826 64.1457 49.1826 64.1457L43.7324 60.4909C43.9633 57.3106 44.5788 50.8345 45.438 48.7057Z" fill="black"/>
<path d="M45.7453 43.8839C45.7453 43.8839 42.0135 45.2304 49.5412 91.3454C62.2882 91.3454 75.4584 91.3454 81.6396 91.3454C81.0881 78.3547 81.0881 70.3013 87.3334 43.6402C87.3334 43.6402 80.6008 42.1783 73.74 41.8705C68.3539 41.6269 63.9425 41.4473 59.1592 41.8705C52.8498 42.422 45.7453 43.8839 45.7453 43.8839Z" fill="#C84B4F"/>
<path opacity="0.2" d="M79.7391 56.0282L83.9069 59.5676C83.0477 64.2099 82.4322 68.1084 82.0731 71.5837C81.2652 68.1084 79.2518 58.7084 79.7391 56.0282Z" fill="black"/>
<path d="M72.1998 25.52C71.2765 30.2136 70.366 38.7544 73.6745 41.8706C73.6745 41.8706 70.6096 48.8853 62.4664 48.8853C54.3232 48.8853 59.0937 41.8706 59.0937 41.8706C64.3002 40.6523 64.172 36.741 63.2615 33.1503L72.1998 25.52Z" fill="#CE7A63"/>
<path d="M73.6711 41.8705C68.285 41.6269 63.8735 41.4473 59.0902 41.8705C56.8204 42.0501 54.4992 42.422 52.3576 42.7297C50.947 45.2304 45.4968 56.4514 58.9748 56.4514C73.1196 56.4514 79.0058 44.1276 79.7368 42.422C77.8389 42.1783 75.7485 41.9347 73.6711 41.8705Z" fill="#CE7A63"/>
<path opacity="0.2" d="M68.5812 28.6361L63.3105 33.1501C63.5542 34.0094 63.6824 34.8557 63.7337 35.7149C65.7599 35.4072 68.453 33.2784 68.6966 31.1368C68.7736 30.098 68.7094 29.1234 68.5812 28.6361Z" fill="black"/>
<path d="M78.3945 16.6714C76.9197 24.3529 76.4324 27.5974 72.021 31.0727C65.3397 36.2535 56.2219 32.7783 55.3627 24.853C54.6317 17.7101 57.1452 6.37371 65.1602 4.23211C73.0084 2.21874 79.8692 9.05392 78.3945 16.6714Z" fill="#CE7A63"/>
<path d="M64.6694 3.4368C61.9122 4.96285 63.746 7.70718 68.7089 9.65642C73.6718 11.6057 73.9796 11.9776 73.1845 15.9402C72.3894 19.9669 79.6221 23.6858 79.7375 19.5437C79.8658 15.3887 81.3277 7.52765 77.4036 5.33475C73.5436 3.12902 67.6061 1.84663 64.6694 3.4368Z" fill="#263238"/>
<path d="M64.237 5.38613C61.7877 6.18122 56.2092 12.2213 56.6453 10.2079C57.0684 8.2587 58.12 5.45025 61.0567 4.47563C63.9934 3.43689 65.404 3.43689 65.404 3.43689L64.237 5.38613Z" fill="#263238"/>
<path d="M79.8567 23.1478C79.1258 24.5456 77.7793 25.533 76.484 25.9562C74.5861 26.5718 73.5986 24.9175 74.1501 23.1478C74.6374 21.5576 76.1763 19.2493 78.0742 19.4288C79.985 19.6084 80.7159 21.4935 79.8567 23.1478Z" fill="#CE7A63"/>
<path d="M49.1636 117.647L52.1003 109.286C52.2285 108.978 53.5109 109.773 53.8187 109.837C53.8187 109.837 58.4097 109.222 60.2563 109.709C62.0901 110.196 62.0389 111.414 61.667 112.633C60.8719 115.505 59.6408 116.044 58.8457 119.891C58.3584 122.212 57.9224 124.405 55.3576 126.598C52.9082 128.74 50.5742 128.611 51.4976 125.982C53.8315 119.763 52.7287 120.673 51.2539 118.416C51.0102 118.134 48.9841 118.134 49.1636 117.647Z" fill="#CE7A63"/>
<path d="M72.199 117.647L69.2623 109.286C69.134 108.978 67.8516 109.773 67.5438 109.837C67.5438 109.837 62.9529 109.222 61.1062 109.709C59.2724 110.196 59.3237 111.414 59.6956 112.633C60.4907 115.505 61.7218 116.044 62.5169 119.891C63.0042 122.212 63.4402 124.405 66.005 126.598C68.4544 128.74 70.7883 128.611 69.865 125.982C67.531 119.763 68.6339 120.673 70.1086 118.416C70.4292 118.134 72.3913 118.134 72.199 117.647Z" fill="#CE7A63"/>
<path d="M50.1525 119.66L53.1533 108.619L49.2291 106.978L43.7148 118.878L50.1525 119.66Z" fill="#FFB0A1"/>
<path d="M71.4656 119.904L66.8105 108.735L70.3628 107.209L77.6468 118.135L71.4656 119.904Z" fill="#FFB0A1"/>
<path d="M60.8099 17.351C60.8099 17.351 59.3993 19.9157 58.0527 21.0699C58.7837 21.9291 60.2585 21.8009 60.2585 21.8009L60.8099 17.351Z" fill="#BA4D3C"/>
<path d="M62.1598 25.0332C62.1598 25.0332 62.2239 25.0332 62.1598 25.0332C64.3655 25.3409 66.0198 23.9303 66.084 23.879C66.1481 23.8149 66.1481 23.7508 66.084 23.6995C66.0198 23.6353 65.9557 23.6353 65.9044 23.6995C65.9044 23.6995 64.2501 25.046 62.2239 24.8023C62.1598 24.8023 62.0957 24.8664 62.0957 24.9306C62.0957 24.969 62.1598 25.0332 62.1598 25.0332Z" fill="#263238"/>
<path d="M69.1322 14.2993C69.1963 14.3634 69.3117 14.2993 69.3758 14.2993C69.504 14.2351 69.5041 14.0556 69.4399 13.9915C68.4012 12.2859 66.7469 12.2859 66.6187 12.2859C66.4904 12.2859 66.375 12.4141 66.375 12.5295C66.375 12.6578 66.5032 12.7732 66.6187 12.7732C66.6828 12.7732 68.0934 12.8373 69.0039 14.2993C69.0809 14.2351 69.1322 14.2993 69.1322 14.2993Z" fill="#263238"/>
<path d="M63.8138 16.4279C63.7497 16.4279 63.6343 16.4279 63.5701 16.492C63.4419 16.6202 63.506 16.7356 63.5701 16.8639C64.9808 18.2617 66.6351 17.9026 66.6992 17.9026C66.8274 17.9026 66.8787 17.7231 66.8787 17.5948C66.8787 17.4666 66.6992 17.4153 66.5709 17.4153C66.5068 17.4153 65.0962 17.7231 63.8779 16.5048C63.9292 16.492 63.8779 16.492 63.8138 16.4279Z" fill="#263238"/>
<path d="M55.4075 15.5813C55.3434 15.5813 55.228 15.5813 55.1639 15.6454C55.0356 15.7737 55.0998 15.8891 55.1639 16.0173C56.5745 17.4151 58.2288 17.0561 58.2929 17.0561C58.4212 17.0561 58.4725 16.8765 58.4725 16.7483C58.4725 16.62 58.2929 16.5687 58.1647 16.5687C58.1006 16.5687 56.6899 16.8765 55.4717 15.6582L55.4075 15.5813Z" fill="#263238"/>
<path d="M56.0922 11.9779C56.1564 12.0421 56.2718 11.9779 56.3359 11.9779C57.6824 10.9392 59.0289 11.3624 59.093 11.3624C59.2213 11.4265 59.3367 11.3624 59.4008 11.2341C59.4649 11.1059 59.4008 10.9905 59.2726 10.9264C59.2085 10.9264 57.6183 10.3749 56.0281 11.5932C55.8999 11.6573 55.8999 11.8369 55.964 11.901C56.0281 11.9138 56.0281 11.9779 56.0922 11.9779Z" fill="#263238"/>
<path d="M82.0639 89.4603L82.3075 92.3329C82.4358 92.5766 82.1793 92.7561 81.7561 92.7561H49.2987C48.9909 92.7561 48.7472 92.6279 48.7472 92.4483L48.4395 89.5758C48.4395 89.3962 48.6831 89.2039 48.9909 89.2039H81.4612C81.8202 89.2167 82.0126 89.3321 82.0639 89.4603Z" fill="#D28273"/>
<path opacity="0.3" d="M82.0639 89.4603L82.3075 92.3329C82.4358 92.5766 82.1793 92.7561 81.7561 92.7561H49.2987C48.9909 92.7561 48.7472 92.6279 48.7472 92.4483L48.4395 89.5758C48.4395 89.3962 48.6831 89.2039 48.9909 89.2039H81.4612C81.8202 89.2167 82.0126 89.3321 82.0639 89.4603Z" fill="#D28273"/>
<path d="M77.7095 93.0639H78.5687C78.7482 93.0639 78.8765 92.9997 78.8765 92.8843L78.4533 89.1654C78.4533 89.0371 78.2737 88.9858 78.1455 88.9858H77.2863C77.1068 88.9858 76.9785 89.05 76.9785 89.1654L77.4017 92.8843C77.4017 92.9997 77.5299 93.0639 77.7095 93.0639Z" fill="#263238"/>
<path d="M51.8091 93.0639H52.6683C52.8478 93.0639 52.9761 92.9997 52.9761 92.8843L52.5529 89.1654C52.5529 89.0371 52.3733 88.9858 52.2451 88.9858H51.3859C51.2064 88.9858 51.0781 89.05 51.0781 89.1654L51.5013 92.8843C51.5013 92.9997 51.6167 93.0639 51.8091 93.0639Z" fill="#263238"/>
<path d="M64.7368 93.0639H65.596C65.7756 93.0639 65.9038 92.9997 65.9038 92.8843L65.4806 89.1654C65.4806 89.0371 65.3011 88.9858 65.1728 88.9858H64.3136C64.1341 88.9858 64.0059 89.05 64.0059 89.1654L64.429 92.8843C64.429 92.9997 64.6086 93.0639 64.7368 93.0639Z" fill="#263238"/>
<path d="M90.1486 53.0917L92.7775 67.1852C93.2007 69.5063 93.7008 71.8788 94.124 74.1999C94.3677 75.3541 94.6113 76.5211 94.855 77.6111L95.2782 79.2526L95.65 80.6504C95.7783 81.0223 96.2015 81.6891 96.7529 82.356C97.3685 83.0228 98.1635 83.6384 99.0228 84.2411C100.741 85.4594 102.755 86.5622 104.845 87.601C106.922 88.6397 109.077 89.5502 111.282 90.4735C113.488 91.384 115.758 92.1791 117.9 92.9742L116.976 96.9368C112.013 96.1417 107.23 94.9876 102.46 93.282C100.074 92.4228 97.6762 91.3969 95.3551 90.0503C94.1881 89.3194 93.0211 88.5884 91.867 87.5497C90.7641 86.5109 89.5971 85.2927 88.802 83.3947L88.6738 83.0228L88.5456 82.7792L88.366 82.2918L88.0583 81.3813L87.5068 79.5475C87.1349 78.3292 86.8272 77.1623 86.5322 75.944C85.9167 73.5587 85.3011 71.1863 84.8138 68.801C83.7751 64.0433 82.8517 59.2857 82.0566 54.4638L90.1486 53.0917Z" fill="#CE7A63"/>
<path d="M87.2676 43.6406C90.4479 44.6152 94.4362 54.9257 94.4362 54.9257L81.9456 63.8383C81.9456 63.8383 77.2905 55.3617 78.637 51.2067C80.1118 46.8722 83.5999 42.5377 87.2676 43.6406Z" fill="#C84B4F"/>
<path d="M116.31 93.2434L123.787 91.3583L120.235 98.5012C120.235 98.5012 115.156 98.7449 113.502 95.8723L116.31 93.2434Z" fill="#CE7A63"/>
<path d="M129.909 94.1536L126.536 100.014L120.291 98.6164L123.843 91.4221L129.909 94.1536Z" fill="#CE7A63"/>
</g>
<defs>
<clipPath id="clip0_2_189">
<rect width="129.496" height="128.099" fill="white" transform="translate(0.40625)"/>
</clipPath>
</defs>
</svg>
