<svg width="10" height="10" viewBox="0 0 10 10" fill="none" xmlns="http://www.w3.org/2000/svg">
<path d="M4.15024 1.40459C4.37228 0.824844 5.19248 0.824843 5.41453 1.40459L6.13859 3.29509C6.23889 3.55698 6.4903 3.7299 6.77074 3.7299L8.84445 3.7299C9.52676 3.7299 9.78047 4.62507 9.19963 4.98308L7.72387 5.89268C7.44684 6.06344 7.33051 6.40715 7.44691 6.71105L8.05358 8.29503C8.28513 8.8996 7.61737 9.45309 7.06625 9.1134L5.13757 7.92463C4.9198 7.79041 4.64497 7.79041 4.4272 7.92463L2.49852 9.1134C1.9474 9.45309 1.27964 8.8996 1.51119 8.29503L2.11786 6.71105C2.23425 6.40715 2.11793 6.06344 1.8409 5.89268L0.365134 4.98308C-0.215704 4.62507 0.0380108 3.7299 0.720316 3.7299L2.79403 3.7299C3.07447 3.7299 3.32587 3.55698 3.42618 3.29509L4.15024 1.40459Z" fill="#E30B22"/>
</svg>
