<?xml version="1.0" encoding="UTF-8" standalone="no"?>
<svg
   width="262"
   height="501"
   viewBox="0 0 262 501"
   fill="none"
   version="1.1"
   id="svg1925"
   sodipodi:docname="registerHotel.svg"
   inkscape:version="1.1.2 (b8e25be8, 2022-02-05)"
   xmlns:inkscape="http://www.inkscape.org/namespaces/inkscape"
   xmlns:sodipodi="http://sodipodi.sourceforge.net/DTD/sodipodi-0.dtd"
   xmlns="http://www.w3.org/2000/svg"
   xmlns:svg="http://www.w3.org/2000/svg">
  <sodipodi:namedview
     id="namedview4422"
     pagecolor="#ffffff"
     bordercolor="#666666"
     borderopacity="1.0"
     inkscape:pageshadow="2"
     inkscape:pageopacity="0.0"
     inkscape:pagecheckerboard="0"
     showgrid="false"
     inkscape:zoom="1.2974052"
     inkscape:cx="130.64538"
     inkscape:cy="250.5"
     inkscape:window-width="1296"
     inkscape:window-height="872"
     inkscape:window-x="0"
     inkscape:window-y="0"
     inkscape:window-maximized="0"
     inkscape:current-layer="layer1" />
  <defs
     id="defs1923">
    <clipPath
       id="clip0_16_172">
      <rect
         width="643"
         height="533.83099"
         fill="#ffffff"
         id="rect1917"
         x="0"
         y="0" />
    </clipPath>
    <clipPath
       id="clip1_16_172">
      <rect
         width="100.623"
         height="17.951599"
         fill="#ffffff"
         transform="rotate(24.6157,-385.68651,1115.2318)"
         id="rect1920"
         x="0"
         y="0" />
    </clipPath>
    <clipPath
       id="clip0_16_172-8">
      <rect
         width="643"
         height="533.83099"
         fill="#ffffff"
         id="rect1917-0"
         x="0"
         y="0" />
    </clipPath>
    <clipPath
       id="clip1_16_172-2">
      <rect
         width="100.623"
         height="17.951599"
         fill="#ffffff"
         transform="rotate(24.6157,-385.68651,1115.2318)"
         id="rect1920-4"
         x="0"
         y="0" />
    </clipPath>
  </defs>
  <g
     id="layer1">
    <path
       id="path1713"
       d="m 59.04245,146.7469 v 350.23243 l 9.11132,4.29492 55.51953,-106.92774 49.27344,-94.70117 53.59571,-52.42187 c -13.61201,-43.08 -63.89846,-67.85017 -77.56446,-74.57617 L 96.02096,154.97737 C 82.10312,150.01541 70.25199,147.2555 59.04245,146.7469 Z"
       style="fill:#be1527;fill-opacity:1" />
    <g
       clip-path="url(#clip1_16_172-2)"
       id="g1733"
       transform="matrix(0.81452124,0,0,1,-293.19443,-11.524806)">
      <path
         d="m 439.91,285.972 c 0.056,-0.105 0.107,-0.251 0.111,-0.426 0.014,-0.602 -0.562,-1.058 -0.934,-1.236 -0.643,-0.31 -1.473,-0.144 -2.137,0.398 -0.477,-0.219 -0.955,-0.437 -1.432,-0.656 l -3.701,-1.696 c 6.252,-3.568 12.495,-7.134 18.738,-10.699 -1.492,5.742 -2.977,11.487 -4.469,17.229 l -3.231,-1.48 c -0.984,-0.474 -1.964,-0.954 -2.945,-1.434 z m -2.372,-1.002 c 4.301,-4.417 8.602,-8.833 12.913,-13.253 -5.472,3.88 -10.943,7.76 -16.418,11.647 1.164,0.533 2.334,1.069 3.505,1.606 z"
         fill="#ffffff"
         id="path1717" />
      <path
         d="m 452.099,283.638 1.261,-10.057 3.307,1.515 -0.946,6.046 5.99,-3.735 3.759,1.722 -10.213,5.964 -4.309,6.029 -3.161,-1.449 z"
         fill="#ffffff"
         id="path1719" />
      <path
         d="m 459.674,285.832 c 2.881,-4.491 8.241,-6.129 12.483,-3.916 4.044,2.107 4.971,6.602 2.243,10.809 -2.888,4.456 -8.24,6.043 -12.457,3.842 -4.002,-2.08 -4.974,-6.527 -2.269,-10.735 z m 11.566,5.375 c 1.778,-2.586 1.204,-5.381 -1.075,-6.471 -2.311,-1.121 -5.54,-0.053 -7.313,2.559 -1.727,2.525 -1.251,5.299 1.073,6.425 2.384,1.161 5.579,0.016 7.315,-2.513 z"
         fill="#ffffff"
         id="path1721" />
      <path
         d="m 493.041,291.761 -17.138,11.256 -0.325,-0.149 3.496,-17.506 3.237,1.484 -2.143,9.599 9.171,-6.379 z"
         fill="#ffffff"
         id="path1723" />
      <path
         d="m 495.773,296.699 -1.964,2.74 4.872,2.233 -2.017,2.807 -4.872,-2.232 -2.068,2.901 5.737,2.628 -2.014,2.802 -8.911,-4.083 10.05,-14.041 8.917,4.085 -1.987,2.776 -5.737,-2.629 z"
         fill="#ffffff"
         id="path1725" />
      <path
         d="m 506.9,309.331 0.209,7.522 -3.53,-1.618 0.045,-8.698 -4.694,6.568 -3.181,-1.457 10.044,-14.044 4.548,2.084 c 2.417,1.107 4.084,3.933 2.063,6.986 -1.276,1.893 -3.356,2.941 -5.504,2.657 z m 1.495,-6.825 -1.424,-0.653 -2.532,3.526 1.419,0.666 c 1.324,0.622 2.708,0.271 3.392,-0.785 0.686,-1.079 0.233,-2.256 -0.855,-2.754 z"
         fill="#ffffff"
         id="path1727" />
      <path
         d="m 512.085,319.125 c 0.864,0.396 1.886,0.016 2.282,-0.848 0.396,-0.864 0.016,-1.885 -0.848,-2.281 -0.864,-0.396 -1.885,-0.017 -2.281,0.848 -0.396,0.864 -0.017,1.885 0.847,2.281 z"
         fill="#c84b4f"
         id="path1729" />
      <path
         d="m 450.243,272.153 -10.798,12.382 c 0,0 -0.421,-0.323 -0.77,-0.352 -0.348,-0.029 -0.348,-0.029 -0.348,-0.029 z"
         fill="#c84b4f"
         id="path1731" />
    </g>
    <path
       d="m 128.26451,256.56519 c -0.16,0.16 -2.242,-4.804 -4.965,-10.783 -2.722,-5.926 -5.125,-10.623 -4.965,-10.784 0.161,0 0.801,1.121 1.922,2.883 1.121,1.922 2.403,4.484 3.844,7.58 1.441,3.043 2.402,5.766 3.203,7.741 0.801,2.082 1.121,3.363 0.961,3.363 z"
       fill="#fafafa"
       id="path1749" />
    <path
       d="m 171.93151,234.51819 c 0.16,0.16 -4.484,3.363 -10.409,7.047 -5.926,3.683 -10.73,6.406 -10.891,6.245 -0.16,-0.16 4.485,-3.363 10.41,-7.046 5.766,-3.523 10.73,-6.406 10.89,-6.246 z"
       fill="#fafafa"
       id="path1751" />
    <path
       d="m 152.87451,218.77019 c -0.161,0 -0.641,-3.844 -0.801,-8.541 -0.321,-4.645 -0.321,-8.542 0,-8.542 0.16,0 0.64,3.844 0.801,8.542 0.32,4.697 0.32,8.541 0,8.541 z"
       fill="#fafafa"
       id="path1753" />
    <path
       d="m 196.43451,215.72719 c -0.16,0.16 -3.683,-1.761 -7.847,-4.324 -4.164,-2.562 -7.527,-4.804 -7.367,-5.125 0.16,-0.16 3.683,1.762 7.847,4.324 4.164,2.563 7.527,4.965 7.367,5.125 z"
       fill="#fafafa"
       id="path1755" />
    <path
       d="m 130.02551,302.36819 c -0.16,-0.16 1.762,-5.125 4.324,-11.104 2.563,-6.085 4.805,-10.943 5.125,-10.783 0.16,0.16 -1.761,5.125 -4.324,11.104 -2.722,6.139 -4.964,10.943 -5.125,10.783 z"
       fill="#fafafa"
       id="path1757" />
    <path
       d="m 110.48751,322.12019 c -0.16,0.16 -1.921,-3.043 -3.843,-6.887 -1.922,-3.843 -3.363,-7.26 -3.203,-7.26 0.16,-0.16 1.922,3.043 3.843,6.887 2.082,3.897 3.524,7.1 3.203,7.26 z"
       fill="#fafafa"
       id="path1759" />
    <path
       d="m 126.82351,348.65119 c 0,0.16 -3.524,1.441 -8.168,2.082 -4.644,0.694 -8.488,0.534 -8.488,0.32 0,-0.32 3.844,-0.48 8.328,-1.121 4.484,-0.64 8.167,-1.601 8.328,-1.281 z"
       fill="#fafafa"
       id="path1761" />
    <path
       d="m 147.64251,319.55719 c -0.16,-0.16 1.121,-3.523 2.883,-7.9 1.761,-4.164 3.363,-7.581 3.683,-7.581 0.16,0.16 -1.121,3.523 -2.883,7.901 -1.921,4.377 -3.523,7.74 -3.683,7.58 z"
       fill="#fafafa"
       id="path1763" />
    <path
       d="m 97.03551,381.00119 c -0.16,0.161 -2.563,-3.042 -5.766,-6.886 -3.203,-3.683 -6.085,-6.566 -5.925,-6.726 0.16,-0.16 3.363,2.402 6.566,6.246 3.203,3.63 5.285,7.206 5.125,7.366 z"
       fill="#fafafa"
       id="path1765" />
    <path
       d="m 87.74651,315.07319 c 0.16,0.16 -1.601,3.683 -4.164,8.061 -2.562,4.324 -4.644,7.74 -4.964,7.74 -0.161,-0.16 1.601,-3.683 4.163,-8.06 2.563,-4.538 4.805,-7.901 4.965,-7.741 z"
       fill="#fafafa"
       id="path1767" />
    <path
       d="m 94.31251,292.22519 c 0,0.16 -4.003,-0.64 -8.968,-1.922 -4.965,-1.281 -8.808,-2.402 -8.808,-2.722 0,-0.16 4.003,0.64 8.968,1.922 4.965,1.281 8.968,2.562 8.808,2.722 z"
       fill="#fafafa"
       id="path1769" />
    <path
       d="m 93.99251,245.78219 c 0.16,-0.16 2.242,2.882 4.804,6.566 2.563,3.683 4.645,6.566 4.485,6.726 -0.161,0.16 -2.563,-2.562 -5.125,-6.246 -2.723,-3.843 -4.324,-7.046 -4.164,-7.046 z"
       fill="#fafafa"
       id="path1771" />
    <path
       d="m 79.31151,243.38019 c 0.161,0.16 -2.402,2.562 -5.605,5.445 -3.203,2.722 -5.925,4.964 -6.085,4.804 -0.161,-0.16 2.402,-2.562 5.605,-5.445 3.203,-2.723 5.925,-4.965 6.085,-4.804 z"
       fill="#fafafa"
       id="path1773" />
    <path
       d="m 90.78951,219.09019 c -0.16,0.16 -3.683,-2.722 -7.367,-7.26 -3.683,-4.324 -6.086,-8.381 -5.925,-8.541 0.16,-0.16 2.882,3.683 6.566,7.9 3.683,4.538 6.886,7.741 6.726,7.901 z"
       fill="#fafafa"
       id="path1775" />
    <path
       d="m 131.78751,211.56319 c 0,0.16 -4.004,1.602 -8.968,3.203 -4.965,1.602 -9.129,2.563 -9.289,2.402 0,-0.16 4.004,-1.601 8.969,-3.203 5.124,-1.601 9.288,-2.562 9.288,-2.402 z"
       fill="#fafafa"
       id="path1777" />
    <path
       d="m 74.13351,172.32719 c -0.32,0 -0.16,-3.684 -0.64,-8.221 -0.481,-4.485 -1.602,-8.061 -1.281,-8.061 0.16,0 1.601,3.363 2.082,8.061 0.48,4.537 0,8.381 -0.161,8.221 z"
       fill="#fafafa"
       id="path1779" />
    <path
       d="m 109.04651,51.734294 c -0.48,-6.7263 -0.961,-13.3458 -0.32,-20.072 0.801,-6.5662 3.043,-13.3458 7.367,-18.3105 4.324,-5.1248 11.05,-8.3811 17.776,-7.5804 4.164,0.4805 8.008,2.5624 12.011,2.4023 4.805,-0.1602 8.969,-3.0429 13.293,-5.1248 6.726,-3.0429 14.573,-3.8436 21.78,-2.2421 3.844,0.8007 7.527,2.4022 10.41,5.2849 2.722,2.7226 4.324,6.8864 3.363,10.7834 4.804,0 9.769,0 14.413,1.2812 4.645,1.2812 9.129,3.8436 11.531,8.0609 2.402,4.1639 2.242,9.9826 -1.121,13.3458 4.484,-0.9609 9.129,2.5623 10.25,6.8864 1.121,4.4842 -1.121,9.342 -4.805,11.9044 -3.683,2.7226 -10.57,3.8436 -14.894,3.0429 -4.484,-0.8008 -9.609,-2.082 -13.132,-4.8045"
       fill="#263238"
       id="path1839" />
    <path
       d="m 105.52351,203.18219 c 18.417,4.805 37.154,-6.246 41.959,-24.77 2.722,-10.303 4.965,-18.951 4.965,-18.951 0,0 26.744,4.645 35.553,-20.872 8.808,-25.411 24.022,-85.520196 24.022,-85.520196 -25.197,-22.6879 -60.75,-29.7878 -92.566,-18.6841 l -4.805,1.6015 -33.951,124.275796 c -4.965,18.791 6.245,38.116 24.823,42.92 z"
       fill="#b65b52"
       id="path1841" />
    <path
       d="m 152.71351,159.14119 c 0,0 -16.495,-4.164 -29.948,-20.553 0,0 1.762,21.033 27.866,27.333 z"
       fill="#994840"
       id="path1843" />
    <path
       d="m 109.20651,63.638894 c -0.32,-0.3203 -15.695,-11.1037 -20.98,6.5661 -5.284,17.669798 13.453,19.271198 13.613,18.791198 0.16,-0.5875 7.367,-25.357298 7.367,-25.357298 z"
       fill="#b65b52"
       id="path1845" />
    <path
       d="m 98.47651,80.668094 c 0,0 -0.32,0.1601 -0.961,0.1601 -0.64,0 -1.441,0 -2.242,-0.6406 -1.601,-1.2812 -2.402,-4.6443 -1.441,-7.9007 0.48,-1.6015 1.281,-3.0428 2.242,-4.1639 0.961,-1.121 2.082,-1.7616 3.043,-1.6015 0.961,0 1.441,0.8008 1.601,1.4414 0.16,0.6406 -0.16,0.8007 0,0.9609 0,0 0.481,-0.1602 0.481,-0.9609 0,-0.3203 0,-0.8008 -0.321,-1.2812 -0.32,-0.4805 -0.961,-0.8008 -1.601,-0.9609 -1.441,-0.3203 -3.043,0.6406 -4.004,1.7616 -1.121,1.1211 -2.082,2.7226 -2.562,4.6444 -0.961,3.5232 -0.16,7.4202 2.242,9.0217 1.121,0.6406 2.242,0.6406 2.883,0.3203 0.48,-0.4804 0.64,-0.8007 0.64,-0.8007 z"
       fill="#b65b52"
       id="path1847" />
    <path
       d="m 190.50951,89.850192 c -0.641,1.921 -2.723,3.043 -4.805,2.562 -2.082,-0.641 -3.203,-2.562 -2.722,-4.4841 0.64,-1.9218 2.722,-3.0428 4.804,-2.5624 2.242,0.6406 3.363,2.5624 2.723,4.4845 z"
       fill="#263238"
       id="path1849" />
    <path
       d="m 195.31351,87.447692 c -0.64,0.3203 -2.722,-2.5624 -6.566,-4.003698 -3.843,-1.2812 -7.367,-0.3203 -7.687,-0.9609 -0.16,-0.3203 0.641,-0.9609 2.242,-1.4414 1.601,-0.4804 4.004,-0.6406 6.406,0.1602 2.402,0.8007 4.164,2.4022 5.125,3.683398 0.64,1.4414 0.801,2.4023 0.48,2.5624 z"
       fill="#263238"
       id="path1851" />
    <path
       d="m 152.07351,76.984694 c -0.641,1.9218 -2.723,3.0428 -4.805,2.5624 -2.082,-0.6406 -3.203,-2.5624 -2.722,-4.4842 0.64,-1.9218 2.722,-3.0428 4.804,-2.5624 2.242,0.4805 3.363,2.5624 2.723,4.4842 z"
       fill="#263238"
       id="path1853" />
    <path
       d="m 156.71751,75.222694 c -0.641,0.3203 -2.723,-2.5624 -6.566,-4.0037 -3.844,-1.2812 -7.367,-0.3203 -7.687,-0.9609 -0.16,-0.3203 0.64,-0.9609 2.242,-1.4414 1.601,-0.4804 4.004,-0.6406 6.406,0.1602 2.402,0.8007 4.164,2.4022 5.125,3.6834 0.64,1.4414 0.64,2.4022 0.48,2.5624 z"
       fill="#263238"
       id="path1855" />
    <path
       d="m 148.71051,108.00019 c 0.64,0.16 -0.801,4.484 1.922,8.701 2.562,4.164 7.366,5.285 7.206,5.926 0,0.32 -1.281,0.48 -3.203,-0.16 -1.922,-0.641 -4.484,-2.082 -6.085,-4.644 -1.602,-2.563 -1.762,-5.446 -1.282,-7.261 0.321,-1.921 1.121,-2.722 1.442,-2.562 z"
       fill="#263238"
       id="path1857" />
    <path
       d="m 196.11451,80.027394 c -0.961,0.6406 -3.363,-1.121 -6.566,-2.242 -3.203,-1.2812 -6.246,-1.4414 -6.566,-2.5624 -0.161,-0.4805 0.64,-1.2812 2.082,-1.7617 1.441,-0.4804 3.683,-0.4804 5.925,0.3203 2.242,0.8008 3.844,2.2421 4.644,3.5233 0.961,1.2812 0.961,2.4022 0.481,2.7225 z"
       fill="#263238"
       id="path1859" />
    <path
       d="m 156.23651,59.314794 c -0.64,0.3203 -1.601,-0.1602 -2.722,-0.9609 -1.281,-0.6406 -2.723,-1.6015 -4.644,-2.2421 -1.922,-0.6406 -3.524,-1.1211 -4.965,-1.2812 -1.441,-0.3203 -2.402,-0.4805 -2.723,-1.121 -0.16,-0.6406 0.481,-1.6015 2.243,-2.2421 1.761,-0.6406 4.324,-0.8008 7.046,0.1601 2.723,0.9609 4.644,2.8827 5.445,4.4842 0.961,1.7616 0.961,2.8827 0.32,3.203 z"
       fill="#263238"
       id="path1861" />
    <path
       d="m 210.79451,61.396694 c 0,0 -18.897,0 -36.46,-14.4668 -11.531,-9.5022 -25.945,-16.0683 -29.788,-14.1465 -4.004,1.9218 -7.687,15.1074 -21.46,16.0683 0,0 -4.965,25.7307 -14.894,22.5277 -9.929,-3.203 5.285,-41.4787 5.285,-41.4787 l 27.706,-6.5661 28.346,0.9609 25.464,5.7653 21.94,12.7052 z"
       fill="#263238"
       id="path1863" />
    <path
       d="m 70.45051,401.07319 17.456,59.309 135.54,-41.319 c 29.147,-8.861 45.322,-40.197 35.874,-69.291 l -33.312,-103.83 -72.174,17.99 39.718,96.143 z"
       fill="#021442"
       id="path1865"
       style="fill:#be1527;fill-opacity:1" />
    <path
       d="m 226.54251,417.94319 c 0,0 -0.16,0.16 -0.64,0.16 -0.481,0.16 -1.121,0.32 -1.922,0.64 -1.762,0.481 -4.324,1.282 -7.527,2.403 -6.726,2.082 -16.335,4.964 -28.507,8.701 -24.342,7.42 -58.721,17.83 -98.759,30.055 l -0.32,0.16 -0.16,-0.32 c -6.086,-18.151 -11.851,-38.116 -18.738,-58.508 l -0.16,-0.321 0.321,-0.16 c 1.121,-0.32 2.242,-0.8 3.363,-1.121 45.109,-15.107 86.908,-28.933 119.738,-39.877 l -0.16,0.481 c -9.609,-23.329 -17.456,-42.44 -22.901,-55.786 -2.723,-6.566 -4.805,-11.744 -6.246,-15.428 -0.641,-1.761 -1.281,-3.042 -1.602,-4.003 -0.32,-0.961 -0.48,-1.442 -0.48,-1.442 0,0 0.16,0.481 0.64,1.281 0.321,0.961 0.961,2.243 1.762,4.004 1.441,3.524 3.684,8.702 6.406,15.268 5.445,13.346 13.453,32.297 23.062,55.625 l 0.16,0.32 -0.321,0.161 c -32.83,10.943 -74.416,24.929 -119.578,40.037 -1.121,0.32 -2.402,0.801 -3.363,1.121 l 0.32,-0.481 c 6.727,20.393 12.652,40.518 18.578,58.508 l -0.481,-0.32 c 40.038,-12.064 74.416,-22.367 98.759,-29.734 12.171,-3.684 21.941,-6.566 28.507,-8.542 3.363,-0.961 5.925,-1.761 7.687,-2.242 0.801,-0.32 1.441,-0.48 1.922,-0.48 0.48,-0.16 0.64,-0.16 0.64,-0.16 z"
       fill="#263238"
       id="path1867" />
    <path
       d="m 218.69551,377.10419 c -0.16,0 -0.961,-1.441 -2.883,-3.683 -1.761,-2.242 -4.644,-5.125 -8.327,-7.581 -3.684,-2.402 -7.367,-3.843 -10.25,-4.644 -2.723,-0.801 -4.644,-0.961 -4.484,-1.121 0,0 0.48,0 1.281,0 0.801,0 1.922,0.32 3.363,0.641 2.883,0.64 6.726,2.082 10.57,4.644 3.683,2.562 6.566,5.445 8.328,7.901 0.8,1.121 1.441,2.242 1.922,2.882 0.32,0.641 0.48,0.961 0.48,0.961 z"
       fill="#263238"
       id="path1869" />
    <path
       d="m 185.70451,268.79019 c -0.16,0 -0.48,-3.844 -0.48,-8.862 0,-4.804 0.16,-8.861 0.48,-8.861 0.16,0 0.481,3.843 0.481,8.861 0,4.965 -0.161,8.862 -0.481,8.862 z"
       fill="#fafafa"
       id="path1871" />
    <path
       d="m 212.93051,270.23119 c -0.161,0 -1.602,-3.683 -2.883,-8.381 -1.441,-4.644 -2.402,-8.701 -2.082,-8.701 0.16,0 1.601,3.683 2.883,8.381 1.441,4.698 2.402,8.701 2.082,8.701 z"
       fill="#fafafa"
       id="path1873" />
    <path
       d="m 196.11451,294.84119 c 0,0.16 -3.844,0.16 -8.168,-1.281 -4.484,-1.281 -7.687,-3.203 -7.527,-3.363 0.16,-0.161 3.524,1.281 7.848,2.562 4.164,1.388 7.847,1.922 7.847,2.082 z"
       fill="#fafafa"
       id="path1875" />
    <path
       d="m 226.86351,308.45419 c -0.161,0 0.16,-3.844 0.96,-8.381 0.801,-4.645 1.602,-8.382 1.922,-8.221 0.16,0 -0.16,3.843 -0.961,8.381 -0.8,4.537 -1.601,8.221 -1.921,8.221 z"
       fill="#fafafa"
       id="path1877" />
    <path
       d="m 215.81251,330.66119 c -0.16,0.16 -1.922,-3.363 -4.003,-7.74 -1.922,-4.324 -3.364,-8.061 -3.203,-8.061 0.16,-0.16 1.921,3.363 4.003,7.74 2.082,4.378 3.524,7.901 3.203,8.061 z"
       fill="#fafafa"
       id="path1879" />
    <path
       d="m 211.32851,349.93219 c -0.16,0.161 -3.523,-1.281 -7.527,-3.203 -4.164,-1.921 -7.367,-3.683 -7.207,-4.003 0.161,-0.16 3.524,1.281 7.527,3.203 4.164,2.082 7.367,3.843 7.207,4.003 z"
       fill="#fafafa"
       id="path1881" />
    <path
       d="m 246.08151,344.80819 c 0.16,0.16 -1.282,3.363 -3.043,7.42 -1.762,4.057 -3.043,7.42 -3.203,7.207 -0.16,0 0.64,-3.524 2.402,-7.581 1.762,-4.004 3.523,-7.046 3.844,-7.046 z"
       fill="#fafafa"
       id="path1883" />
    <path
       d="m 236.31151,391.57119 c -0.16,0 -0.8,-4.003 -1.281,-9.021 -0.48,-4.965 -0.64,-9.022 -0.48,-9.022 0.16,0 0.801,4.004 1.281,9.022 0.641,4.857 0.801,8.861 0.48,9.021 z"
       fill="#fafafa"
       id="path1885" />
    <path
       d="m 211.96951,406.19819 c -0.161,0.16 -3.043,-2.242 -6.406,-5.285 -3.363,-3.043 -5.926,-5.765 -5.766,-5.925 0.16,-0.161 3.043,2.242 6.406,5.285 3.203,3.203 5.926,5.765 5.766,5.925 z"
       fill="#fafafa"
       id="path1887" />
    <path
       d="m 169.68951,410.57519 c 0.16,0.161 -2.082,3.364 -4.964,7.421 -2.883,4.003 -5.445,7.1 -5.606,6.94 -0.16,-0.161 2.082,-3.364 4.965,-7.421 2.883,-4.057 5.445,-7.1 5.605,-6.94 z"
       fill="#fafafa"
       id="path1889" />
    <path
       d="m 182.98251,390.61019 c -0.161,0.16 -3.203,-2.242 -6.566,-5.765 -3.203,-3.523 -5.446,-6.726 -5.125,-6.887 0.16,-0.16 2.562,2.883 5.765,6.406 3.363,3.524 6.086,6.086 5.926,6.246 z"
       fill="#fafafa"
       id="path1891" />
    <path
       d="m 151.11251,395.14819 c 0,0.16 -2.723,1.121 -6.406,0.801 -3.684,-0.321 -6.246,-1.442 -6.246,-1.762 0.16,-0.16 2.722,0.64 6.246,0.801 3.523,0.32 6.406,0 6.406,0.16 z"
       fill="#fafafa"
       id="path1893" />
    <path
       d="m 130.98651,430.32719 c -0.16,0 -0.96,-3.042 -1.601,-6.939 -0.641,-3.844 -0.961,-7.047 -0.801,-7.047 0.16,0 0.961,3.043 1.602,6.887 0.64,3.897 1.121,7.099 0.8,7.099 z"
       fill="#fafafa"
       id="path1895" />
    <path
       d="m 107.12451,442.39219 c -0.16,0.16 -3.683,-1.922 -8.007,-4.644 -4.324,-2.723 -7.688,-5.125 -7.688,-5.285 0.161,-0.16 3.684,1.922 8.008,4.644 4.484,2.723 7.847,5.125 7.687,5.285 z"
       fill="#fafafa"
       id="path1897" />
    <path
       d="m 115.77251,399.63219 c 0.16,0.16 -2.082,2.883 -4.804,6.566 -2.563,3.524 -4.484,6.727 -4.644,6.566 -0.161,-0.16 1.441,-3.363 4.003,-7.1 2.563,-3.63 5.285,-6.192 5.445,-6.032 z"
       fill="#fafafa"
       id="path1899" />
    <path
       d="m 97.19551,407.85319 c -0.16,0.16 -2.242,-0.641 -4.645,-1.922 -2.562,-1.281 -4.484,-2.402 -4.324,-2.562 0.161,-0.16 2.242,0.64 4.645,1.922 2.562,1.067 4.484,2.242 4.324,2.562 z"
       fill="#fafafa"
       id="path1901" />
    <g
       opacity="0.2"
       id="g1907"
       transform="translate(-380.95749,-11.524806)">
      <g
         opacity="0.2"
         id="g1905">
        <path
           opacity="0.2"
           d="m 573.388,369.038 c 7.207,0.801 14.574,1.441 21.781,2.402 2.562,0.32 4.964,0.641 7.367,1.602 2.242,0.96 4.484,2.722 5.285,5.124 0.8,2.403 0.16,5.445 -2.082,6.727 -1.922,1.281 -4.485,0.8 -6.567,-0.321 -2.081,-1.121 -3.683,-2.722 -5.445,-4.324 -3.203,-2.722 -7.046,-4.644 -11.05,-5.765 -1.762,-0.481 -3.683,-0.801 -5.285,-1.922 -1.601,-0.961 -2.722,-2.883 -2.242,-4.804"
           fill="#000000"
           id="path1903" />
      </g>
    </g>
    <path
       d="m 162.48251,111.84319 c 1.602,-0.16 3.257,-0.16 4.858,0.107 0.748,0 1.495,0 1.709,-0.427 0.213,-0.747 0.213,-1.548 0,-2.295 -0.321,-1.869 -0.694,-3.951 -1.068,-6.086 -1.441,-8.594998 -2.296,-15.587998 -1.975,-15.641398 0.32,-0.0533 1.868,6.8864 3.203,15.481398 0.32,2.135 0.694,4.11 0.961,6.085 0.266,0.961 0.213,2.029 -0.214,2.99 -0.16,0.213 -0.374,0.427 -0.587,0.587 -0.267,0.16 -0.534,0.214 -0.801,0.267 -0.427,0.053 -0.854,0.053 -1.281,0 -1.655,-0.214 -3.256,-0.534 -4.805,-1.068 z"
       fill="#263238"
       id="path1909" />
    <path
       d="m 71.57151,454.45719 18.577,-9.022 -10.249,-30.375 -22.421,-5.125 c -2.082,-0.48 -4.484,-0.961 -7.047,-1.761 -3.043,-0.801 -5.925,-2.243 -8.488,-4.004 -3.203,-2.242 -7.206,-5.285 -8.968,-7.581 -2.082,-2.882 -6.726,-1.761 -6.566,1.442 0,3.203 5.605,11.424 15.855,17.189 10.089,5.765 -7.688,8.541 -14.254,9.662 -6.406,1.121 -26.424,5.606 -27.545,7.901 -1.762,3.363 1.601,5.766 8.007,4.484 6.566,-1.281 26.104,-3.683 26.585,-0.32 0,0 0,0 0,0.16 -3.203,4.965 -2.883,11.744 0.801,16.389 3.683,4.484 8.968,10.303 12.972,9.342 7.58,-1.815 22.741,-8.381 22.741,-8.381 z"
       fill="#b65b52"
       id="path1913" />
  </g>
</svg>
