<svg width="27" height="13" viewBox="0 0 27 13" fill="none" xmlns="http://www.w3.org/2000/svg">
<path d="M7.11899 2.40459C7.34103 1.82484 8.16123 1.82484 8.38328 2.40459L9.10734 4.29509C9.20764 4.55698 9.45905 4.7299 9.73949 4.7299L11.8132 4.7299C12.4955 4.7299 12.7492 5.62507 12.1684 5.98308L10.6926 6.89268C10.4156 7.06344 10.2993 7.40715 10.4157 7.71105L11.0223 9.29503C11.2539 9.8996 10.5861 10.4531 10.035 10.1134L8.10632 8.92463C7.88855 8.79041 7.61372 8.79041 7.39595 8.92463L5.46727 10.1134C4.91615 10.4531 4.24839 9.8996 4.47994 9.29503L5.08661 7.71105C5.203 7.40715 5.08668 7.06344 4.80965 6.89268L3.33388 5.98308C2.75305 5.62507 3.00676 4.7299 3.68907 4.7299L5.76278 4.7299C6.04322 4.7299 6.29462 4.55698 6.39493 4.29509L7.11899 2.40459Z" fill="#E30B22"/>
<path d="M19.0877 2.40459C19.3098 1.82484 20.13 1.82484 20.352 2.40459L21.0761 4.29509C21.1764 4.55698 21.4278 4.7299 21.7082 4.7299L23.782 4.7299C24.4643 4.7299 24.718 5.62507 24.1371 5.98308L22.6614 6.89268C22.3843 7.06344 22.268 7.40715 22.3844 7.71105L22.9911 9.29503C23.2226 9.8996 22.5549 10.4531 22.0037 10.1134L20.0751 8.92463C19.8573 8.79041 19.5825 8.79041 19.3647 8.92463L17.436 10.1134C16.8849 10.4531 16.2171 9.8996 16.4487 9.29503L17.0554 7.71105C17.1718 7.40715 17.0554 7.06344 16.7784 6.89268L15.3026 5.98308C14.7218 5.62507 14.9755 4.7299 15.6578 4.7299L17.7315 4.7299C18.012 4.7299 18.2634 4.55698 18.3637 4.29509L19.0877 2.40459Z" fill="#E30B22"/>
</svg>
