<svg width="375" height="386" viewBox="0 0 375 386" fill="none" xmlns="http://www.w3.org/2000/svg">
<g clip-path="url(#clip0_2_1999)">
<path d="M30.6343 46.64C33.7413 44.7705 37.6646 44.5599 41.1578 45.5429C44.651 46.5259 47.7492 48.5973 50.4438 51.0197C55.666 55.7154 59.0978 63.0265 61.1516 69.7321C53.5683 71.5401 45.5024 67.4501 41.544 65.1154C35.2948 61.4379 26.2195 50.9758 30.6343 46.64Z" fill="#EBEBEB"/>
<path d="M74.4909 70.8653C70.7344 69.3381 68.1628 65.4938 67.7239 61.4652C67.2851 57.4366 68.8123 53.329 71.4102 50.222C72.6127 48.7825 74.2276 47.4572 76.0971 47.4748C77.8525 47.4923 79.4148 48.7474 80.2135 50.3097C81.0034 51.872 81.1351 53.6888 81.0297 55.4354C80.6787 61.4389 79.2392 67.179 74.4909 70.8653Z" fill="#EBEBEB"/>
<path d="M83.5948 85.8813C83.5245 85.9428 82.2431 84.7315 80.3297 82.5812C79.3731 81.5016 78.3725 80.0622 77.486 78.3858C76.6171 76.7007 75.6165 74.8751 74.8529 72.7862C73.2907 68.6435 73.001 64.5271 73.4399 61.6658C73.6417 60.2264 74.0016 59.1029 74.2737 58.3481C74.5809 57.6021 74.7827 57.2071 74.8354 57.2247C74.967 57.2686 74.2737 58.9186 73.9928 61.7272C73.7119 64.5271 74.0718 68.4855 75.5902 72.5141C76.3275 74.524 77.3017 76.3671 78.1267 78.0435C78.9693 79.7199 79.8733 81.1154 80.7598 82.2301C82.5327 84.4507 83.6825 85.8023 83.5948 85.8813Z" fill="#E0E0E0"/>
<path d="M38.2454 53.9956C38.2717 53.9517 39.0002 54.3642 40.2816 55.1629C41.5631 55.9529 43.4062 57.129 45.6707 58.5947C50.1908 61.535 56.4048 65.6689 63.1455 70.3909C69.8862 75.1216 75.872 79.5803 80.1288 82.8892C82.2616 84.548 83.9643 85.9085 85.1317 86.8739C86.299 87.8394 86.9222 88.3836 86.8871 88.4274C86.8519 88.4713 86.1586 87.9974 84.9386 87.1109C83.6133 86.1367 81.8754 84.864 79.7953 83.3281C75.4507 80.1333 69.4298 75.7536 62.6891 71.0228C55.9748 66.3798 49.9099 62.1845 45.3547 59.0423C43.2307 57.5678 41.4577 56.339 40.1061 55.3999C38.8861 54.5485 38.219 54.0395 38.2454 53.9956Z" fill="#E0E0E0"/>
<path d="M71.527 79.633C63.4259 76.9121 54.0346 78.413 47.1974 83.5387C45.4596 84.8465 43.7218 86.83 44.2747 88.9365C44.8189 91.043 47.3115 91.9382 49.4794 92.184C58.4933 93.1845 67.8671 88.1115 71.9747 80.0279" fill="#EBEBEB"/>
<path d="M53.3505 85.1876C53.3241 85.135 53.684 84.8892 54.3686 84.4767C55.0356 84.0554 56.045 83.5113 57.3176 82.8705C59.8629 81.6593 63.5405 80.0444 67.9377 79.6757C70.1232 79.5002 72.2384 79.7109 74.0815 80.176C75.9335 80.6324 77.4782 81.4048 78.7245 82.107C79.9445 82.853 80.8837 83.5288 81.4717 84.0642C82.0685 84.582 82.3845 84.8892 82.3494 84.9331C82.2529 85.056 80.9188 83.9062 78.4612 82.5897C77.2149 81.9665 75.7053 81.2819 73.9148 80.8782C72.1331 80.4744 70.1144 80.2901 68.0079 80.4569C63.7774 80.808 60.135 82.3 57.5546 83.3708C54.9742 84.503 53.4119 85.293 53.3505 85.1876Z" fill="#E0E0E0"/>
<path d="M150.47 381.215C162.126 371.052 163.223 354.393 161.143 339.745C160.792 337.305 160.783 334.689 159.388 332.662C157.992 330.634 155.105 329.458 153.024 330.731C151.295 331.784 150.734 333.987 149.9 335.848C148.794 338.323 146.986 340.473 144.739 341.965C143.265 342.948 141.386 343.65 139.754 342.966C137.516 342.027 136.945 339.13 136.699 336.69C136.234 332.144 135.778 327.589 135.313 323.042C135.067 320.602 134.804 318.109 133.794 315.871C132.785 313.633 130.88 311.667 128.484 311.263C126.097 310.86 123.367 312.51 123.13 314.95C123.034 315.968 123.35 316.977 123.385 317.995C123.429 319.013 123.078 320.19 122.147 320.576C121.208 320.971 120.155 320.383 119.347 319.742C116.565 317.548 114.511 314.564 112.572 311.579C110.632 308.595 108.736 305.532 106.165 303.092C103.593 300.652 100.196 298.862 96.6855 299.037C93.1659 299.213 89.6815 301.776 89.1636 305.295C88.6458 308.832 91.0331 312.106 93.517 314.651C97.2033 318.434 101.425 321.673 106.024 324.236C106.849 324.701 107.753 325.201 108.139 326.07C108.841 327.641 107.481 329.423 105.928 330.125C104.172 330.924 102.18 330.95 100.302 331.38C98.4233 331.81 96.4485 332.872 95.9306 334.75C95.2022 337.348 97.5632 339.745 99.8013 341.228C104.277 344.212 109.263 346.415 114.467 347.714C116.337 348.179 118.285 348.548 119.865 349.654C121.445 350.76 122.56 352.857 121.866 354.674C121.173 356.491 118.988 357.281 117.074 357.132C115.161 356.982 113.362 356.149 111.501 355.666C108.008 354.762 103.707 355.455 101.873 358.589C100.67 360.642 100.828 363.311 101.785 365.505C102.742 367.699 104.4 369.498 106.129 371.14C112.185 376.862 119.611 381.198 127.677 383.059C135.76 384.919 143.045 384.875 150.47 381.215Z" fill="#EBEBEB"/>
<path d="M145.689 372.41C142.722 365.23 138.825 357.621 134.472 349.809C133.375 347.861 132.295 345.93 131.225 344.034C130.154 342.138 129.092 340.269 127.942 338.496C125.66 334.941 123.185 331.703 120.745 328.692C118.305 325.682 115.883 322.917 113.601 320.354C111.31 317.791 109.124 315.439 107.044 313.385C102.893 309.251 99.1625 306.32 96.5206 304.415C95.2041 303.458 94.1509 302.747 93.4312 302.273C93.0889 302.054 92.8168 301.879 92.6149 301.747C92.4306 301.633 92.334 301.571 92.3253 301.58C92.3165 301.589 92.413 301.659 92.5886 301.791C92.7817 301.931 93.045 302.116 93.3785 302.361C94.0806 302.853 95.1075 303.59 96.4153 304.564C99.022 306.513 102.708 309.471 106.816 313.622C108.879 315.685 111.038 318.046 113.311 320.617C115.584 323.198 117.989 325.962 120.42 328.973C122.843 331.975 125.291 335.213 127.565 338.75C128.706 340.515 129.759 342.375 130.83 344.271C131.892 346.167 132.98 348.098 134.068 350.046C138.413 357.858 142.319 365.432 145.294 372.585" fill="#E0E0E0"/>
<path d="M127.817 338.489C127.852 338.489 127.887 338.111 127.94 337.418C127.993 336.733 128.045 335.733 128.08 334.495C128.159 332.029 128.159 328.615 128.151 324.858C128.133 321.093 128.186 317.696 128.3 315.239C128.361 314.01 128.414 313.018 128.458 312.325C128.502 311.64 128.51 311.254 128.484 311.254C128.449 311.254 128.388 311.623 128.291 312.307C128.186 312.992 128.08 313.984 127.984 315.212C127.782 317.679 127.685 321.084 127.703 324.849C127.729 328.562 127.747 331.915 127.764 334.478C127.764 335.636 127.764 336.611 127.764 337.4C127.773 338.103 127.782 338.489 127.817 338.489Z" fill="#E0E0E0"/>
<path d="M95.821 336.007C95.821 336.043 96.2774 336.043 97.0849 336.025C97.9012 336.007 99.0773 335.981 100.525 335.99C103.431 335.99 107.45 336.13 111.874 336.481C116.298 336.841 120.291 337.333 123.161 337.772C124.601 337.982 125.759 338.184 126.567 338.316C127.365 338.456 127.813 338.518 127.822 338.483C127.83 338.447 127.392 338.333 126.602 338.14C125.812 337.956 124.653 337.701 123.214 337.447C120.344 336.92 116.35 336.376 111.909 336.016C107.477 335.665 103.439 335.577 100.525 335.656C99.0685 335.683 97.8924 335.762 97.0761 335.832C96.2687 335.92 95.821 335.981 95.821 336.007Z" fill="#E0E0E0"/>
<path d="M145.243 371.879C145.26 371.888 145.313 371.747 145.418 371.475C145.532 371.15 145.664 370.755 145.831 370.281C146.182 369.246 146.665 367.727 147.226 365.849C148.35 362.093 149.745 356.853 151.202 351.051C152.659 345.25 154.002 340.001 155.047 336.227C155.564 334.393 155.986 332.883 156.302 331.76C156.433 331.277 156.547 330.873 156.635 330.54C156.705 330.259 156.741 330.109 156.723 330.109C156.705 330.109 156.653 330.241 156.547 330.513C156.433 330.838 156.302 331.224 156.135 331.707C155.784 332.743 155.301 334.261 154.739 336.139C153.616 339.896 152.22 345.136 150.763 350.937C149.306 356.739 147.964 361.979 146.919 365.761C146.401 367.596 145.98 369.105 145.664 370.229C145.532 370.712 145.418 371.115 145.331 371.449C145.26 371.721 145.225 371.87 145.243 371.879Z" fill="#E0E0E0"/>
<path d="M102.117 362.932C102.117 362.95 102.266 362.994 102.547 363.055C102.881 363.125 103.302 363.222 103.802 363.327C104.961 363.573 106.523 363.898 108.419 364.293C112.316 365.109 117.696 366.294 123.629 367.619C129.571 368.944 134.96 370.085 138.875 370.814C140.832 371.182 142.421 371.463 143.527 371.639C144.036 371.718 144.457 371.779 144.799 371.832C145.089 371.867 145.247 371.885 145.247 371.867C145.247 371.849 145.098 371.806 144.817 371.744C144.483 371.674 144.062 371.577 143.562 371.472C142.403 371.226 140.841 370.902 138.945 370.507C135.048 369.69 129.668 368.505 123.735 367.18C117.802 365.855 112.404 364.714 108.489 363.985C106.532 363.617 104.943 363.336 103.837 363.16C103.328 363.081 102.907 363.02 102.565 362.967C102.266 362.932 102.117 362.915 102.117 362.932Z" fill="#E0E0E0"/>
<path d="M354.3 181.41L345.401 193.926L342.092 192.46L316.849 207.477L312.364 194.215C312.364 194.215 326.53 190.441 329.699 186.053C332.858 181.664 330.173 180.172 330.173 180.172L337.493 173.967L354.3 181.41Z" fill="#EBEBEB"/>
<path d="M349.402 152.446C349.402 152.446 339.624 148.724 327.416 132.952C315.207 117.18 311.196 98.0374 309.44 97.8707C307.685 97.7039 300.602 93.0521 281.521 122.376C262.431 151.7 267.057 159.836 269.936 160.204C272.823 160.573 293.159 158.001 305.157 161.187C317.155 164.373 331.901 173.036 331.901 173.036L349.402 152.446Z" fill="#EBEBEB"/>
<path d="M368.351 172.747L363.936 178.794L361.961 181.506C359.249 185.219 354.106 186.167 350.253 183.656L329.697 172.922L346.558 145.977L366.499 160.696C370.326 163.522 371.151 168.902 368.351 172.747Z" fill="#E0E0E0"/>
<path d="M282.596 123.123C272.398 139.026 266.956 153.737 270.449 155.975C273.942 158.213 285.045 147.145 295.253 131.241C305.452 115.338 310.893 100.627 307.4 98.3894C303.907 96.1425 292.804 107.219 282.596 123.123Z" fill="#E0E0E0"/>
<path d="M368.814 182.498L363.205 179.786L367.857 173.414L371.859 176.802L368.814 182.498Z" fill="#E0E0E0"/>
<path d="M363.581 174.415C363.467 174.59 360.703 173.019 357.411 170.904C354.111 168.789 351.539 166.928 351.654 166.752C351.768 166.577 354.532 168.148 357.824 170.263C361.115 172.378 363.695 174.239 363.581 174.415Z" fill="#EBEBEB"/>
<path d="M365.987 170.562C365.864 170.737 363.381 169.227 360.432 167.191C357.483 165.155 355.192 163.364 355.306 163.198C355.429 163.022 357.913 164.532 360.862 166.568C363.819 168.604 366.11 170.395 365.987 170.562Z" fill="#EBEBEB"/>
<path d="M360.665 178.39C360.621 178.487 359.945 178.223 358.883 177.714C358.357 177.46 357.725 177.144 357.031 176.784C356.347 176.415 355.653 175.924 354.899 175.441C351.906 173.475 349.668 171.658 349.773 171.492C349.896 171.298 352.344 172.852 355.311 174.8C356.057 175.283 356.742 175.783 357.391 176.178C358.049 176.565 358.638 176.924 359.129 177.232C360.121 177.864 360.709 178.302 360.665 178.39Z" fill="#EBEBEB"/>
<path d="M298.844 121.639C298.844 121.639 290.866 114.898 284.31 126.062C277.753 137.227 286.714 140.535 286.714 140.535C291.357 135.225 295.421 128.959 298.844 121.639Z" fill="#EBEBEB"/>
<path d="M310.271 108.868C310.323 108.886 310.078 109.676 309.595 111.089C309.103 112.502 308.401 114.547 307.453 117.048C306.892 118.268 306.286 119.593 305.628 121.024C305.294 121.735 304.952 122.472 304.601 123.236C304.425 123.613 304.25 123.999 304.066 124.394C303.872 124.781 303.644 125.149 303.434 125.544C302.565 127.08 301.643 128.695 300.695 130.372C300.458 130.793 300.221 131.214 299.975 131.635C299.739 132.065 299.431 132.452 299.159 132.873C298.598 133.698 298.036 134.532 297.457 135.374C296.877 136.217 296.316 137.051 295.754 137.876C295.464 138.28 295.21 138.71 294.902 139.087C294.595 139.464 294.288 139.851 293.99 140.219C292.778 141.711 291.611 143.159 290.496 144.537C290.216 144.88 289.952 145.231 289.663 145.547C289.364 145.863 289.075 146.17 288.776 146.468C288.197 147.074 287.635 147.662 287.091 148.233C286.003 149.365 284.985 150.418 284.054 151.383C282.071 153.174 280.429 154.569 279.297 155.544C278.156 156.509 277.515 157.027 277.48 156.983C277.445 156.948 278.024 156.351 279.095 155.324C280.21 154.271 281.772 152.797 283.686 150.989C284.59 150.005 285.573 148.943 286.635 147.794C287.17 147.223 287.714 146.626 288.276 146.021C288.557 145.714 288.846 145.406 289.136 145.099C289.417 144.783 289.68 144.432 289.952 144.09C291.049 142.712 292.199 141.272 293.393 139.78C293.691 139.403 293.99 139.034 294.297 138.648C294.604 138.271 294.859 137.849 295.139 137.446C295.692 136.629 296.263 135.804 296.833 134.962C297.404 134.128 297.966 133.294 298.527 132.478C298.799 132.065 299.098 131.679 299.335 131.249C299.581 130.828 299.818 130.407 300.054 129.994C301.011 128.335 301.933 126.747 302.81 125.219C303.03 124.833 303.258 124.473 303.451 124.087C303.635 123.701 303.82 123.324 303.995 122.946C304.355 122.2 304.706 121.472 305.049 120.761C305.733 119.357 306.365 118.049 306.944 116.846C307.927 114.406 308.726 112.414 309.297 111.001C309.876 109.614 310.218 108.851 310.271 108.868Z" fill="#E0E0E0"/>
<path d="M293.804 286.25C293.804 286.25 299.606 288.602 292.918 300.925C286.221 313.248 281.648 319.313 281.648 319.313C281.648 319.313 280.446 322.183 282.868 322.692C285.299 323.21 290.688 322.49 291.698 325.5C292.742 328.625 290.416 331.486 285.791 333.935C281.165 336.384 271.221 342.106 270.326 342.624C269.448 343.133 268.544 344.459 270.141 345.073C271.739 345.687 283.79 347.258 282.701 352.937C281.613 358.607 267.605 363.303 266.078 363.847C264.559 364.391 264.182 365.014 264.278 365.848C264.384 366.682 268.483 366.822 271.888 367.41C275.294 367.998 279.147 369.28 278.243 372.501C277.339 375.722 268.939 382.322 248.928 383.762L239.615 383.823L234.753 375.827C225.388 358.08 226.547 347.469 228.802 344.994C231.058 342.528 234.182 345.117 236.482 347.697C238.782 350.278 241.081 353.683 241.836 353.332C242.591 352.981 242.933 352.323 242.582 350.752C242.24 349.172 238.808 334.804 243.047 330.881C247.286 326.957 254.993 336.349 256.362 337.384C257.731 338.411 258.38 336.946 258.345 335.927C258.31 334.892 257.915 323.429 257.547 318.207C257.178 312.985 258.372 309.5 261.584 308.737C264.673 307.999 266.92 312.958 268.641 314.749C270.361 316.539 272.16 313.994 272.16 313.994C272.16 313.994 274.89 306.902 281.806 294.702C288.722 282.502 293.892 286.303 293.892 286.303" fill="#EBEBEB"/>
<path d="M239.084 386.001C244.131 377.022 252.829 360.917 260.368 347.128C267.908 333.34 274.736 320.868 279.739 311.862C282.241 307.369 284.259 303.735 285.672 301.207C286.366 299.961 286.91 298.978 287.279 298.311C287.454 297.986 287.594 297.732 287.691 297.556C287.779 297.38 287.823 297.293 287.823 297.293C287.823 297.293 287.761 297.372 287.665 297.538C287.559 297.714 287.419 297.96 287.226 298.285C286.84 298.952 286.287 299.917 285.567 301.155C284.128 303.647 282.074 307.272 279.555 311.766C274.508 320.745 267.645 333.199 260.114 346.988C252.575 360.776 243.903 376.899 238.909 385.904" fill="#E0E0E0"/>
<path d="M284.192 326.809C284.183 326.792 283.955 326.853 283.542 326.976C283.13 327.099 282.533 327.292 281.796 327.538C280.33 328.029 278.32 328.766 276.117 329.618C273.949 330.469 271.992 331.233 270.491 331.821C269.815 332.084 269.245 332.304 268.78 332.479C268.376 332.628 268.156 332.725 268.156 332.742C268.165 332.76 268.393 332.707 268.815 332.584C269.227 332.461 269.824 332.268 270.561 332.014C272.027 331.505 274.019 330.741 276.222 329.89C278.399 329.056 280.356 328.301 281.866 327.731C282.542 327.476 283.121 327.257 283.578 327.081C283.981 326.923 284.201 326.827 284.192 326.809Z" fill="#E0E0E0"/>
<path d="M267.545 332.128C267.624 332.102 266.29 327.897 264.561 322.728C262.841 317.558 261.384 313.398 261.305 313.424C261.226 313.451 262.56 317.655 264.289 322.824C266.009 327.985 267.466 332.154 267.545 332.128Z" fill="#E0E0E0"/>
<path d="M256.924 353.823C256.942 353.815 256.81 353.604 256.564 353.235C256.283 352.823 255.923 352.305 255.502 351.699C254.607 350.4 253.378 348.601 252.088 346.565C250.798 344.529 249.692 342.65 248.911 341.281C248.542 340.64 248.226 340.096 247.98 339.657C247.761 339.28 247.629 339.069 247.612 339.078C247.594 339.087 247.691 339.315 247.884 339.71C248.077 340.105 248.366 340.676 248.735 341.378C249.481 342.773 250.552 344.678 251.851 346.714C253.141 348.759 254.396 350.541 255.335 351.813C255.809 352.445 256.195 352.954 256.476 353.297C256.748 353.648 256.906 353.832 256.924 353.823Z" fill="#E0E0E0"/>
<path d="M273.047 352.322C273.047 352.305 272.818 352.305 272.415 352.314C271.949 352.34 271.37 352.366 270.686 352.401C269.229 352.489 267.219 352.638 264.998 352.814C262.778 352.989 260.768 353.165 259.32 353.314C258.644 353.384 258.064 353.446 257.599 353.498C257.195 353.551 256.967 353.586 256.976 353.604C256.976 353.621 257.204 353.621 257.608 353.613C258.073 353.586 258.652 353.56 259.337 353.525C260.794 353.437 262.804 353.288 265.025 353.112C267.245 352.937 269.255 352.761 270.703 352.612C271.379 352.542 271.958 352.48 272.423 352.428C272.818 352.384 273.047 352.349 273.047 352.322Z" fill="#E0E0E0"/>
<path d="M266.102 372.668C266.102 372.65 265.812 372.65 265.286 372.668C264.707 372.694 263.969 372.729 263.074 372.773C261.205 372.879 258.624 373.045 255.78 373.247C252.937 373.449 250.356 373.642 248.496 373.8C247.609 373.879 246.863 373.949 246.293 374.002C245.775 374.055 245.485 374.099 245.485 374.116C245.485 374.134 245.775 374.134 246.301 374.116C246.881 374.09 247.618 374.055 248.513 374.002C250.383 373.897 252.963 373.73 255.807 373.528C258.65 373.326 261.231 373.133 263.092 372.975C263.978 372.896 264.724 372.826 265.295 372.773C265.812 372.729 266.102 372.694 266.102 372.668Z" fill="#E0E0E0"/>
<path d="M245.965 373.948C245.982 373.939 245.824 373.667 245.526 373.193C245.192 372.676 244.762 372.008 244.244 371.192C243.165 369.507 241.69 367.164 240.128 364.539C238.566 361.915 237.214 359.501 236.24 357.746C235.775 356.903 235.389 356.201 235.09 355.666C234.818 355.174 234.66 354.911 234.643 354.92C234.625 354.929 234.748 355.209 234.994 355.719C235.239 356.228 235.599 356.947 236.064 357.843C236.986 359.624 238.311 362.055 239.882 364.689C241.445 367.322 242.954 369.647 244.078 371.306C244.639 372.131 245.105 372.798 245.438 373.255C245.763 373.711 245.956 373.957 245.965 373.948Z" fill="#E0E0E0"/>
<path d="M403.643 -9.78394H-32.5247V80.2707H403.643V-9.78394Z" fill="#EC4456"/>
<path d="M403.64 80.2711C403.64 80.2711 403.621 79.7282 403.602 78.672C403.602 77.6158 403.583 76.0561 403.564 74.0227C403.545 69.936 403.508 63.9047 403.489 56.1361C403.451 40.6088 403.375 18.1223 403.3 -9.78351L403.64 -9.60583C293.61 -9.58609 138.831 -9.55647 -32.4898 -9.52686H-32.5276L-32.0361 -9.78351C-32.0361 21.7252 -32.055 52.1581 -32.055 80.2711L-32.5276 80.0243C93.7797 80.0737 202.751 80.1132 280.168 80.1428C318.906 80.1724 349.741 80.1922 370.915 80.2119C381.502 80.2218 389.669 80.2316 395.189 80.2415C397.949 80.2514 400.048 80.2514 401.466 80.2613C402.903 80.2613 403.64 80.2711 403.64 80.2711C403.64 80.2711 402.94 80.281 401.541 80.2909C400.124 80.2909 398.044 80.3007 395.322 80.3106C389.801 80.3205 381.672 80.3304 371.141 80.3402C349.986 80.36 319.189 80.3797 280.509 80.4093C203.015 80.4389 93.912 80.4784 -32.5087 80.5278H-32.9813V80.281C-32.9813 52.1679 -33.0002 21.7351 -33.0002 -9.77364V-10.0402H-32.5087H-32.4709C138.85 -10.0105 293.648 -9.98093 403.659 -9.96119H403.999V-9.78351C403.924 18.1618 403.848 40.6878 403.81 56.2447C403.772 63.9936 403.753 70.0051 403.734 74.0918C403.716 76.1154 403.697 77.6651 403.697 78.7115C403.659 79.748 403.64 80.2711 403.64 80.2711Z" fill="#263238"/>
<path d="M33.472 67.9849C30.0349 67.964 26.9701 66.4489 25.2702 63.9412C23.5578 61.423 23.5826 58.4242 25.3074 55.9165L52.9778 15.9811C54.715 13.4733 57.8046 11.9896 61.2541 12.0001C61.2665 12.0001 61.2789 12.0001 61.2789 12.0001C64.716 12.021 67.7809 13.536 69.4808 16.0438L96.7293 56.1881C98.4417 58.7063 98.4169 61.7051 96.6921 64.2128C94.955 66.7205 91.8653 68.2043 88.4158 68.1938L33.5092 67.9849C33.4844 67.9849 33.4844 67.9849 33.472 67.9849ZM61.2541 14.3928C61.2417 14.3928 61.2417 14.3928 61.2293 14.3928C58.8097 14.3824 56.6507 15.4273 55.4222 17.1827L27.7518 57.1181C26.5358 58.8735 26.5234 60.9737 27.727 62.75C28.9182 64.5158 31.0772 65.5712 33.4844 65.5816C33.4968 65.5816 33.4968 65.5816 33.5092 65.5816L88.4158 65.7906C90.8354 65.8011 93.0069 64.7562 94.2229 63.0008C95.4389 61.2454 95.4513 59.1347 94.2477 57.3688L66.9992 17.2245C65.808 15.4691 63.6613 14.4033 61.2541 14.3928Z" fill="white"/>
<path d="M57.0989 55.1434C57.0989 53.4925 58.6499 52.1968 60.7841 52.1968C62.8811 52.1968 64.3701 53.5029 64.3701 55.1434C64.3701 56.7943 62.8687 58.1317 60.7717 58.1317C58.6375 58.1317 57.0989 56.7943 57.0989 55.1434ZM57.4215 31.0588H64.1468L63.0052 48.9786H58.501L57.4215 31.0588Z" fill="white"/>
<path d="M67.5054 194.33C67.5054 194.33 44.4484 251.055 40.7358 265.598C36.6457 281.607 39.6387 294.43 60.045 296.423C76.9757 298.082 132.261 276.166 132.261 276.166L125.503 233.966L76.5895 253.688L88.4383 198.876L67.5054 194.33Z" fill="#FFBE9D"/>
<path d="M93.934 159.81C92.5648 159.055 89.2296 154.5 89.2296 154.5C89.2296 154.5 86.7984 138.719 85.7363 135.384C84.6743 132.049 81.6375 132.953 81.0056 134.173C80.3737 135.384 82.2519 162.092 82.2519 162.092L72.3867 167.253L65.5494 171.194C65.5494 171.194 64.0398 172.861 63.7414 174.836C63.4342 176.811 67.3838 196.383 67.3838 196.383L88.1939 200.061C93.5566 194.97 96.5846 187.018 98.0328 177.118V162.399C98.0328 162.39 95.3032 160.574 93.934 159.81Z" fill="#FFBE9D"/>
<path d="M76.7656 165.191C76.7656 165.173 76.9675 165.156 77.3537 165.147C77.7837 165.138 78.3455 165.12 79.0388 165.103C79.7937 165.094 80.6801 165.094 81.707 165.085C81.9703 165.085 82.2424 165.085 82.5145 165.094C82.6549 165.103 82.7954 165.085 82.9621 165.129C83.1201 165.173 83.2605 165.226 83.401 165.305C83.9627 165.612 84.384 166.191 84.542 166.876C84.8755 169.509 85.1827 172.59 85.6391 176.03C85.8673 177.742 86.1043 179.55 86.4641 181.384C86.5694 181.832 86.6484 182.314 86.8503 182.692C87.0434 183.078 87.3594 183.394 87.7631 183.552C88.5794 183.868 89.5887 183.631 90.4137 183.201C90.835 182.981 91.23 182.692 91.5372 182.358C91.7566 182.069 91.8356 181.551 91.8882 181.094C91.976 180.147 91.9585 179.19 91.9146 178.26C91.818 176.39 91.6249 174.582 91.3967 172.87C91.1685 171.159 90.914 169.535 90.6244 168.026C90.4752 167.28 90.326 166.542 90.0978 165.893C89.8608 165.235 89.5448 164.629 89.2025 164.085C88.8602 163.541 88.4828 163.049 88.1054 162.601C87.728 162.145 87.3594 161.768 86.903 161.548C86.0077 161.083 85.0686 161.127 84.4015 161.355C83.752 161.592 83.2254 161.785 82.8217 161.934C82.4618 162.066 82.26 162.128 82.26 162.11C82.2512 162.092 82.4355 162.005 82.7866 161.847C83.1377 161.689 83.6555 161.46 84.3401 161.188C85.0335 160.916 86.034 160.837 87.0171 161.32C87.5086 161.539 87.9474 161.97 88.3248 162.408C88.7198 162.856 89.1147 163.348 89.4746 163.909C89.8344 164.462 90.168 165.085 90.4313 165.77C90.6858 166.463 90.835 167.192 91.0018 167.955C91.309 169.474 91.5811 171.098 91.8268 172.818C92.0638 174.538 92.2744 176.346 92.371 178.242C92.4149 179.19 92.4412 180.155 92.3534 181.147C92.2832 181.639 92.2657 182.148 91.8882 182.674C91.5284 183.069 91.1071 183.368 90.6419 183.613C89.7291 184.087 88.632 184.377 87.6051 183.991C87.0961 183.798 86.6835 183.385 86.4553 182.911C86.2096 182.437 86.1481 181.955 86.034 181.489C85.6742 179.62 85.446 177.821 85.2353 176.1C84.8053 172.669 84.5156 169.535 84.2436 166.964C84.1119 166.367 83.752 165.849 83.2693 165.577C83.0148 165.428 82.8041 165.384 82.5145 165.384C82.2424 165.375 81.9703 165.366 81.707 165.357C80.6801 165.34 79.7849 165.314 79.0388 165.305C78.3455 165.287 77.7837 165.27 77.3537 165.261C76.9675 165.226 76.7656 165.208 76.7656 165.191Z" fill="#EB996E"/>
<path d="M86.8958 183.165C86.9046 183.165 86.9836 183.358 87.0187 183.736C87.045 184.113 87.0538 184.701 86.7554 185.377C86.4658 186.027 85.8865 186.834 84.842 187.106C83.8415 187.361 82.5337 187.062 81.6999 186.044L81.6911 186.027L81.6823 186.009C81.1557 184.947 80.8749 183.674 80.7783 182.34C80.673 181.006 80.6993 179.611 80.5589 178.189C80.3746 176.021 79.532 174.099 78.7157 172.387C78.2944 171.536 77.9258 170.702 77.5045 169.991C77.2939 169.64 77.0569 169.315 76.8024 169.034C76.5566 168.727 76.2757 168.604 75.9334 168.464C74.6081 167.99 73.432 167.858 72.6421 167.788C71.8434 167.718 71.4133 167.823 71.4046 167.797C71.3607 167.683 73.2302 167.297 76.0476 168.157C76.2231 168.218 76.3986 168.288 76.5829 168.394C76.7673 168.499 76.934 168.648 77.0657 168.789C77.3465 169.078 77.6011 169.421 77.838 169.789C78.2944 170.527 78.6806 171.343 79.1107 172.203C79.9445 173.906 80.831 175.898 81.0328 178.145C81.1733 179.602 81.1382 180.997 81.2347 182.305C81.3137 183.613 81.5682 184.824 82.051 185.825L82.0246 185.79C82.7268 186.676 83.8941 186.983 84.7894 186.781C85.6846 186.571 86.2727 185.86 86.5623 185.272C86.8695 184.657 86.9046 184.096 86.9134 183.736C86.9046 183.367 86.8695 183.174 86.8958 183.165Z" fill="#EB996E"/>
<path d="M80.8819 184.798C80.8995 184.763 81.1013 185.131 80.8292 185.684C80.7064 185.956 80.5045 186.255 80.2149 186.562C79.9252 186.852 79.5478 187.211 78.9773 187.308C78.4244 187.396 77.8012 187.247 77.2746 186.887C76.7392 186.518 76.3355 185.948 76.0546 185.307C75.5192 184.025 75.291 182.481 75.4753 180.892C75.5455 180.295 75.6772 179.707 75.8527 179.163L75.9229 179.409C74.7117 178.417 73.9043 177.162 73.4479 175.986L73.6761 176.1C72.0172 176.486 70.6041 176.021 69.7879 175.556C69.3666 175.319 69.077 175.082 68.8926 174.906C68.7083 174.731 68.6293 174.617 68.6381 174.608C68.6732 174.564 69.0594 174.959 69.8932 175.354C70.7095 175.74 72.0611 176.117 73.5795 175.723L73.7463 175.679L73.8077 175.837C74.2641 176.951 75.054 178.127 76.2038 179.058L76.3267 179.154L76.2828 179.303C76.116 179.83 75.9932 180.383 75.9229 180.954C75.7474 182.454 75.9581 183.938 76.4408 185.149C76.6865 185.746 77.0376 186.264 77.494 186.588C77.9416 186.913 78.477 187.062 78.9334 187.001C79.3898 186.948 79.7497 186.65 80.0393 186.395C80.329 186.132 80.5308 185.86 80.6713 185.623C80.9609 185.123 80.8468 184.807 80.8819 184.798Z" fill="#EB996E"/>
<path d="M72.8345 172.15C72.9661 172.176 72.852 173.028 73.1416 174.019C73.4401 175.011 73.7648 175.845 73.6332 175.898C73.5366 175.942 73.0275 175.222 72.7028 174.142C72.378 173.036 72.7204 172.106 72.8345 172.15Z" fill="#EB996E"/>
<path d="M74.7553 179.224C74.7202 179.356 73.2281 178.943 71.3586 179.057C69.4891 179.154 68.0585 179.742 68.0058 179.61C67.9444 179.514 69.3662 178.706 71.3323 178.601C73.3071 178.478 74.8079 179.119 74.7553 179.224Z" fill="#EB996E"/>
<path d="M94.266 166.621C94.266 166.648 94.029 166.7 93.5814 166.683C93.1425 166.665 92.493 166.551 91.7733 166.218C91.0536 165.893 90.2549 165.34 89.544 164.568C88.833 163.795 88.2187 162.812 87.6833 161.741C86.5159 159.661 86.2439 157.221 87.0952 155.773C87.499 155.062 88.1572 154.694 88.6224 154.676C89.0876 154.658 89.307 154.808 89.2982 154.816C89.2894 154.86 89.0525 154.781 88.6487 154.852C88.2538 154.922 87.7184 155.264 87.3849 155.931C87.025 156.572 86.9548 157.485 87.0689 158.476C87.1303 158.968 87.2356 159.486 87.4112 159.995C87.5867 160.495 87.85 161.022 88.1046 161.54C88.6224 162.584 89.2105 163.532 89.8687 164.287C90.527 165.042 91.2555 165.586 91.9225 165.928C93.2742 166.63 94.2747 166.534 94.266 166.621Z" fill="#EB996E"/>
<path d="M95.4949 179.698C95.3633 179.733 95.0034 178.154 93.9765 176.495C92.9672 174.827 91.7296 173.791 91.8174 173.677C91.8701 173.581 93.3007 174.494 94.3627 176.249C95.4423 178.004 95.609 179.69 95.4949 179.698Z" fill="#EB996E"/>
<path d="M86.0945 140.545C86.1999 140.606 85.8751 141.414 85.1993 142.23C84.5235 143.055 83.795 143.529 83.716 143.432C83.6282 143.336 84.1987 142.721 84.8482 141.94C85.4889 141.159 85.9804 140.483 86.0945 140.545Z" fill="#EB996E"/>
<path d="M90.9057 167.367C90.7828 167.349 90.7214 166.946 90.7741 166.463C90.8267 165.98 90.9759 165.603 91.0988 165.611C91.2217 165.629 91.2831 166.033 91.2305 166.515C91.1778 166.998 91.0286 167.384 90.9057 167.367Z" fill="#EB996E"/>
<path d="M63.2392 275.972C63.2129 275.946 63.4586 275.656 63.9063 275.156C64.3627 274.656 65.0034 273.918 65.7758 272.997C67.3293 271.154 69.3655 268.503 71.3052 265.378C73.2449 262.245 74.7107 259.252 75.6673 257.04C76.1501 255.934 76.5275 255.03 76.7732 254.407C77.0278 253.784 77.177 253.442 77.2121 253.451C77.2384 253.459 77.1419 253.819 76.94 254.469C76.7469 255.118 76.4134 256.04 75.9658 257.172C75.0793 259.428 73.6399 262.473 71.6914 265.624C69.7341 268.775 67.6452 271.408 66.0215 273.207C65.214 274.111 64.5294 274.814 64.0379 275.279C63.5376 275.744 63.2568 275.99 63.2392 275.972Z" fill="#EB996E"/>
<path d="M254.297 273.638L281.945 280.098L276.205 242.98L253.314 231.193C244.59 226.699 235.146 223.759 225.413 222.495L209.895 220.485L167.485 220.696C157.962 219.599 144.911 222.881 128.972 230.429L94.5488 245.429L114.174 285.127L135.642 278.553L137.538 296.028L142.19 352.981L138.214 384.499H242.624L234.865 368.113C231.337 360.67 230.424 352.253 232.25 344.222L245.749 279.106C246.574 275.191 250.427 272.734 254.297 273.638Z" fill="#EC4456"/>
<path d="M242.668 384.499H138.196V384.473L142.172 352.955L137.521 296.011L135.625 278.562L114.165 285.136L114.156 285.118L94.5225 245.403L94.54 245.394L128.963 230.394C136.889 226.638 144.173 223.908 150.625 222.284C157.067 220.661 162.737 220.108 167.485 220.661L209.886 220.45L225.404 222.469C235.173 223.733 244.555 226.664 253.314 231.167L276.213 242.954V242.963L281.953 280.116L281.918 280.107L254.271 273.647C252.402 273.208 250.488 273.542 248.873 274.569C247.258 275.595 246.161 277.202 245.766 279.071L232.267 344.187C231.355 348.181 231.118 352.271 231.565 356.352C232.013 360.424 233.128 364.365 234.883 368.069L242.668 384.499ZM138.249 384.456H242.607L234.865 368.104C233.11 364.4 231.995 360.451 231.548 356.369C231.1 352.288 231.337 348.198 232.25 344.196L245.749 279.08C246.144 277.193 247.25 275.587 248.873 274.542C250.497 273.507 252.428 273.173 254.297 273.612L281.91 280.063L276.178 242.989L253.297 231.211C244.546 226.708 235.164 223.777 225.404 222.513L209.886 220.503L167.485 220.713C162.737 220.169 157.076 220.713 150.642 222.337C144.191 223.97 136.906 226.69 128.989 230.447L94.5839 245.438L114.192 285.092L135.669 278.509V278.536L137.564 296.011L142.216 352.964L138.249 384.456Z" fill="#263238"/>
<path d="M137.547 296.01C137.512 296.01 137.45 295.475 137.354 294.492C137.248 293.438 137.117 292.043 136.95 290.349C136.599 286.856 136.011 282.037 135.115 276.745C134.22 271.461 133.184 266.713 132.377 263.298C131.973 261.648 131.649 260.279 131.394 259.252C131.157 258.296 131.043 257.769 131.078 257.76C131.104 257.751 131.28 258.269 131.57 259.208C131.859 260.148 132.245 261.517 132.693 263.219C133.588 266.625 134.668 271.373 135.572 276.675C136.467 281.976 137.002 286.812 137.275 290.323C137.415 292.078 137.503 293.5 137.529 294.483C137.573 295.457 137.573 296.01 137.547 296.01Z" fill="#263238"/>
<path d="M257.113 260.465C257.165 260.535 255.814 261.395 253.856 263.054C252.873 263.879 251.776 264.941 250.627 266.187C249.494 267.451 248.327 268.899 247.23 270.523C246.15 272.155 245.264 273.797 244.535 275.324C243.833 276.86 243.272 278.29 242.885 279.51C242.095 281.95 241.823 283.53 241.744 283.513C241.709 283.504 241.762 283.109 241.885 282.398C241.937 282.038 242.016 281.608 242.148 281.108C242.271 280.608 242.385 280.037 242.587 279.414C242.938 278.168 243.465 276.711 244.158 275.148C244.878 273.595 245.764 271.927 246.861 270.268C247.967 268.627 249.161 267.161 250.328 265.906C251.513 264.66 252.645 263.615 253.663 262.817C254.155 262.395 254.638 262.071 255.059 261.764C255.471 261.456 255.84 261.219 256.156 261.026C256.753 260.64 257.095 260.438 257.113 260.465Z" fill="#263238"/>
<path d="M198.731 295.817C198.74 295.817 198.722 295.87 198.696 295.966C198.661 296.08 198.608 296.23 198.547 296.405C198.397 296.818 198.196 297.388 197.941 298.117C197.388 299.644 196.589 301.838 195.589 304.62C193.517 310.246 190.586 318.242 187.066 327.818L186.882 328.327L186.698 327.818C183.442 318.848 179.624 308.324 175.56 297.107C175.402 296.66 175.235 296.221 175.077 295.782L175.051 295.703L175.086 295.624C179.404 284.469 183.442 274.05 186.865 265.203L187.049 264.729L187.233 265.212C190.709 274.393 193.605 282.046 195.65 287.426C196.642 290.086 197.423 292.183 197.967 293.64C198.222 294.343 198.424 294.887 198.564 295.273C198.626 295.448 198.669 295.58 198.713 295.694C198.722 295.764 198.74 295.817 198.731 295.817C198.722 295.817 198.705 295.773 198.661 295.677C198.617 295.563 198.555 295.431 198.485 295.255C198.327 294.86 198.108 294.325 197.827 293.623C197.256 292.175 196.44 290.086 195.396 287.435C193.324 282.081 190.375 274.472 186.847 265.344H187.216C183.81 274.2 179.79 284.627 175.498 295.782V295.624C175.656 296.063 175.814 296.502 175.981 296.949C180.027 308.175 183.828 318.707 187.066 327.686H186.689C190.261 318.163 193.245 310.211 195.352 304.603C196.405 301.829 197.239 299.644 197.818 298.117C198.099 297.388 198.327 296.818 198.485 296.405C198.555 296.221 198.617 296.08 198.661 295.966C198.705 295.87 198.722 295.817 198.731 295.817Z" fill="#FAFAFA"/>
<path d="M223.479 296.51C223.488 296.51 223.47 296.563 223.444 296.659C223.409 296.773 223.356 296.922 223.295 297.098C223.146 297.511 222.944 298.081 222.689 298.81C222.136 300.337 221.338 302.531 220.337 305.313C218.266 310.939 215.334 318.935 211.815 328.511L211.63 329.02L211.446 328.511C208.19 319.541 204.372 309.017 200.308 297.8C200.15 297.353 199.983 296.914 199.825 296.475L199.799 296.396L199.834 296.317C204.152 285.161 208.19 274.743 211.613 265.896L211.797 265.422L211.981 265.905C215.457 275.085 218.353 282.739 220.399 288.119C221.39 290.779 222.171 292.876 222.716 294.333C222.97 295.035 223.172 295.571 223.312 295.966C223.374 296.141 223.418 296.273 223.462 296.387C223.47 296.457 223.488 296.51 223.479 296.51C223.47 296.51 223.453 296.466 223.409 296.37C223.365 296.255 223.304 296.124 223.233 295.948C223.075 295.553 222.856 295.018 222.575 294.316C222.005 292.868 221.188 290.779 220.144 288.128C218.073 282.774 215.124 275.164 211.595 266.036H211.964C208.558 274.892 204.539 285.319 200.247 296.475V296.317C200.405 296.756 200.563 297.195 200.729 297.642C204.776 308.868 208.576 319.4 211.815 328.379H211.437C215.009 318.856 217.994 310.904 220.1 305.296C221.153 302.522 221.987 300.337 222.566 298.81C222.847 298.081 223.075 297.511 223.233 297.098C223.304 296.914 223.365 296.773 223.409 296.659C223.453 296.563 223.479 296.51 223.479 296.51Z" fill="#FAFAFA"/>
<path d="M236.166 328.756C236.148 328.765 236.06 328.545 235.893 328.133C235.718 327.677 235.481 327.071 235.191 326.316C234.586 324.692 233.734 322.41 232.69 319.619C230.61 313.914 227.757 306.094 224.606 297.466C224.519 297.229 224.44 296.992 224.361 296.782L224.334 296.703L224.369 296.624C227.643 288.215 230.601 280.632 232.751 275.103C233.831 272.4 234.7 270.196 235.332 268.625C235.63 267.897 235.876 267.318 236.051 266.879C236.218 266.484 236.315 266.273 236.332 266.282C236.35 266.291 236.28 266.501 236.139 266.914C235.981 267.362 235.762 267.95 235.498 268.696C234.902 270.284 234.077 272.496 233.058 275.226C230.934 280.773 228.029 288.365 224.799 296.799V296.641C224.878 296.861 224.966 297.098 225.045 297.326C228.143 305.971 230.952 313.8 233.006 319.523C233.989 322.34 234.796 324.631 235.367 326.272C235.621 327.036 235.832 327.65 235.99 328.115C236.122 328.528 236.183 328.756 236.166 328.756Z" fill="#FAFAFA"/>
<path d="M175.286 295.703C175.295 295.703 175.278 295.756 175.251 295.852C175.216 295.966 175.163 296.116 175.102 296.291C174.953 296.704 174.751 297.274 174.496 298.003C173.943 299.53 173.145 301.724 172.144 304.506C170.073 310.132 167.141 318.128 163.622 327.704L163.437 328.213L163.253 327.704C159.997 318.734 156.179 308.21 152.115 296.993C151.957 296.546 151.791 296.107 151.633 295.668L151.606 295.589L151.641 295.51C155.96 284.355 159.997 273.936 163.42 265.089L163.604 264.615L163.789 265.098C167.264 274.279 170.161 281.932 172.206 287.312C173.197 289.972 173.979 292.07 174.523 293.527C174.777 294.229 174.979 294.773 175.12 295.159C175.181 295.335 175.225 295.466 175.269 295.58C175.278 295.651 175.286 295.703 175.286 295.703C175.278 295.703 175.26 295.659 175.216 295.563C175.172 295.449 175.111 295.317 175.041 295.141C174.883 294.747 174.663 294.211 174.382 293.509C173.812 292.061 172.996 289.972 171.951 287.321C169.88 281.967 166.931 274.358 163.402 265.23H163.771C160.366 274.086 156.346 284.513 152.054 295.668V295.51C152.212 295.949 152.37 296.388 152.537 296.835C156.583 308.061 160.383 318.593 163.622 327.572H163.244C166.817 318.049 169.801 310.097 171.907 304.489C172.96 301.715 173.794 299.53 174.374 298.003C174.654 297.274 174.883 296.704 175.041 296.291C175.111 296.107 175.172 295.966 175.216 295.852C175.251 295.747 175.278 295.703 175.286 295.703Z" fill="#FAFAFA"/>
<path d="M136.185 283.513C136.176 283.513 136.194 283.39 136.229 283.17C136.273 282.916 136.334 282.591 136.413 282.179C136.598 281.275 136.843 280.019 137.159 278.431C137.835 275.166 138.801 270.549 139.95 265.002L140.082 264.37L140.31 264.976C142.768 271.365 145.726 279.045 148.903 287.313C149.974 290.122 151.027 292.869 152.036 295.502L152.063 295.581L152.036 295.66C148.631 304.744 145.647 312.705 143.496 318.436C142.425 321.253 141.557 323.518 140.942 325.115C140.644 325.87 140.416 326.467 140.24 326.906C140.073 327.31 139.986 327.52 139.968 327.52C139.959 327.511 140.021 327.301 140.161 326.879C140.319 326.432 140.53 325.826 140.793 325.063C141.372 323.448 142.197 321.174 143.215 318.34C145.322 312.599 148.262 304.612 151.606 295.511V295.669C150.597 293.027 149.544 290.288 148.464 287.48C145.313 279.203 142.382 271.506 139.942 265.107L140.301 265.081C139.081 270.619 138.063 275.219 137.352 278.475C136.993 280.055 136.703 281.31 136.501 282.205C136.405 282.609 136.326 282.933 136.264 283.179C136.229 283.399 136.194 283.513 136.185 283.513Z" fill="#FAFAFA"/>
<path d="M242.694 279.519L236.304 267.293L236.348 267.275L242.729 279.501L242.694 279.519Z" fill="#FAFAFA"/>
<path d="M205.691 340.702C205.7 340.711 205.603 340.851 205.393 341.123C205.156 341.422 204.849 341.799 204.471 342.273C203.672 343.265 202.461 344.669 200.925 346.354C199.389 348.048 197.493 349.997 195.308 352.086C193.114 354.157 190.639 356.369 187.927 358.572C185.215 360.757 182.529 362.723 180.045 364.444C177.544 366.138 175.244 367.595 173.269 368.744C171.303 369.903 169.679 370.789 168.538 371.369C168.003 371.641 167.564 371.86 167.222 372.027C166.923 372.176 166.757 372.246 166.748 372.229C166.739 372.22 166.888 372.123 167.178 371.948C167.512 371.755 167.933 371.518 168.451 371.219C169.565 370.605 171.163 369.675 173.102 368.49C175.051 367.314 177.333 365.839 179.808 364.128C182.274 362.399 184.942 360.433 187.646 358.256C190.34 356.062 192.824 353.867 195.018 351.814C197.204 349.742 199.126 347.82 200.679 346.161C202.242 344.503 203.479 343.142 204.322 342.177C204.726 341.729 205.05 341.369 205.305 341.079C205.559 340.816 205.682 340.693 205.691 340.702Z" fill="#263238"/>
<g opacity="0.3">
<g opacity="0.3">
<path opacity="0.3" d="M149.406 311.186C153.917 313.485 159.859 313.292 165.117 312.046C170.374 310.791 175.254 308.596 180.388 306.999C185.523 305.402 191.219 304.419 196.336 305.726C200.338 306.753 203.875 309.132 208.123 309.044C210.783 308.991 213.477 307.947 216.031 308.447C219.428 309.123 221.113 312.52 220.06 315.293C219.007 318.058 215.891 320.103 212.556 321.156C203.946 323.86 194.589 320.937 185.479 321.2C180.064 321.358 174.754 322.657 169.373 323.35C163.993 324.044 158.227 324.079 153.628 321.902C149.037 319.726 146.22 314.775 148.642 310.773" fill="black"/>
</g>
</g>
<path d="M245.826 229.577C245.853 229.595 245.686 229.999 245.361 230.727C245.195 231.087 244.993 231.526 244.791 232.053C244.58 232.579 244.317 233.158 244.097 233.834C243.597 235.16 243.106 236.775 242.658 238.591C242.237 240.417 241.877 242.444 241.675 244.595C241.491 246.745 241.491 248.808 241.587 250.677C241.71 252.547 241.912 254.223 242.167 255.619C242.272 256.321 242.43 256.944 242.544 257.497C242.649 258.05 242.772 258.524 242.877 258.901C243.071 259.674 243.167 260.104 243.141 260.112C243.114 260.121 242.956 259.709 242.711 258.954C242.579 258.576 242.439 258.111 242.307 257.558C242.167 257.005 241.991 256.391 241.868 255.68C241.57 254.285 241.333 252.591 241.183 250.712C241.069 248.825 241.061 246.736 241.236 244.56C241.438 242.383 241.815 240.338 242.263 238.495C242.737 236.66 243.272 235.046 243.808 233.72C244.054 233.053 244.343 232.465 244.571 231.956C244.8 231.438 245.028 230.999 245.221 230.657C245.581 229.937 245.8 229.56 245.826 229.577Z" fill="#263238"/>
<path d="M139.275 226.567C139.337 226.61 138.749 227.444 137.915 228.849C137.072 230.253 136.019 232.245 135.106 234.571C134.202 236.897 133.632 239.082 133.298 240.68C132.965 242.277 132.833 243.287 132.754 243.278C132.719 243.278 132.719 243.023 132.754 242.558C132.78 242.093 132.851 241.435 132.982 240.618C133.237 238.986 133.763 236.757 134.676 234.396C135.598 232.043 136.713 230.042 137.634 228.673C138.09 227.988 138.485 227.444 138.784 227.093C139.074 226.733 139.249 226.54 139.275 226.567Z" fill="#263238"/>
<g opacity="0.3">
<g opacity="0.3">
<path opacity="0.3" d="M131.357 259.893C130.382 263.176 129.426 266.555 129.742 269.96C130.066 273.366 131.962 276.85 135.175 278.035C134.244 272.014 133.094 266.028 131.725 260.095" fill="black"/>
</g>
</g>
<path d="M206.124 135.527C209.609 135.905 212.224 138.88 212.154 142.391L208.125 224.894C207.958 235.663 192.213 241.711 180.689 241.447C169.042 238.7 168.62 231.714 168.471 221.462C168.225 204.347 168.304 210.351 168.296 210.456C168.296 210.456 153.585 207.981 150.584 188.777C149.092 179.228 149.601 163.578 150.435 150.782C151.189 139.266 158.843 125.153 170.323 126.391L206.124 135.527Z" fill="#FFBE9D"/>
<path d="M156.811 163.26C156.758 164.559 157.82 165.674 159.18 165.753C160.532 165.832 161.673 164.84 161.726 163.541C161.778 162.242 160.716 161.128 159.356 161.049C157.996 160.97 156.863 161.961 156.811 163.26Z" fill="#263238"/>
<path d="M153.799 159.618C154.106 159.943 155.976 158.565 158.618 158.573C161.268 158.547 163.208 159.916 163.498 159.592C163.638 159.451 163.331 158.872 162.488 158.249C161.655 157.634 160.233 157.037 158.583 157.037C156.933 157.046 155.546 157.643 154.747 158.266C153.922 158.889 153.65 159.469 153.799 159.618Z" fill="#263238"/>
<path d="M182.464 163.533C182.411 164.832 183.473 165.947 184.834 166.026C186.185 166.105 187.326 165.113 187.379 163.814C187.432 162.515 186.37 161.401 185.009 161.322C183.649 161.243 182.508 162.234 182.464 163.533Z" fill="#263238"/>
<path d="M180.063 159.621C180.37 159.946 182.239 158.568 184.881 158.576C187.523 158.55 189.472 159.919 189.761 159.595C189.902 159.454 189.594 158.875 188.743 158.252C187.909 157.637 186.487 157.032 184.837 157.04C183.187 157.049 181.801 157.655 181.002 158.269C180.194 158.892 179.914 159.472 180.063 159.621Z" fill="#263238"/>
<path d="M170.174 179.11C170.183 178.961 168.542 178.671 165.874 178.32C165.198 178.25 164.557 178.109 164.443 177.653C164.285 177.162 164.566 176.433 164.9 175.652C165.54 174.019 166.207 172.299 166.909 170.509C169.701 163.18 171.728 157.159 171.43 157.045C171.131 156.931 168.63 162.785 165.83 170.114C165.154 171.922 164.513 173.642 163.899 175.292C163.644 176.064 163.197 176.933 163.539 177.943C163.723 178.452 164.215 178.82 164.654 178.934C165.084 179.066 165.47 179.075 165.804 179.092C168.498 179.242 170.166 179.259 170.174 179.11Z" fill="#263238"/>
<path d="M168.281 210.457C168.281 210.457 181.192 211.317 194.006 203.655C194.006 203.655 187.494 217.189 168.281 215.355V210.457Z" fill="#EB996E"/>
<path d="M170.607 185.546C171.923 183.58 173.907 182.263 175.698 182.184C176.944 182.123 178.102 182.667 178.682 183.852C179.261 185.028 179.138 186.871 178.252 188.258C177.251 189.82 175.557 190.452 174.241 190.197C172.924 189.952 171.897 188.995 170.923 188.038C170.66 187.775 170.388 187.494 170.247 187.09C170.115 186.687 170.159 186.116 170.458 185.704" fill="#EB996E"/>
<path d="M177.966 180.952C177.535 180.926 177.527 183.804 175.06 185.841C172.603 187.886 169.531 187.552 169.513 187.956C169.469 188.14 170.198 188.518 171.488 188.553C172.761 188.597 174.613 188.193 176.122 186.947C177.623 185.7 178.273 184.033 178.378 182.848C178.483 181.654 178.159 180.934 177.966 180.952Z" fill="#263238"/>
<path d="M178.559 153.536C178.893 154.23 181.491 153.624 184.615 153.694C187.749 153.703 190.329 154.361 190.68 153.677C190.829 153.352 190.329 152.72 189.258 152.123C188.187 151.526 186.529 151.026 184.65 151.009C182.772 150.991 181.104 151.447 180.025 152.018C178.928 152.58 178.41 153.203 178.559 153.536Z" fill="#263238"/>
<path d="M154.022 155.244C154.601 155.841 156.866 155.217 159.595 155.182C162.316 155.068 164.633 155.577 165.16 154.945C165.388 154.638 165.028 154.041 164.019 153.471C163.027 152.909 161.359 152.444 159.49 152.497C157.62 152.549 155.997 153.093 155.049 153.717C154.083 154.331 153.767 154.945 154.022 155.244Z" fill="#263238"/>
<path d="M219.704 200.307C219.704 200.325 219.59 200.307 219.371 200.263C219.16 200.219 218.844 200.14 218.449 200C217.668 199.728 216.51 199.271 215.377 198.262C214.254 197.279 213.236 195.506 213.499 193.444C213.648 192.443 214.14 191.355 215.158 190.758C215.649 190.477 216.352 190.345 216.931 190.67C217.466 190.96 217.931 191.609 217.721 192.32C217.624 192.654 217.37 192.926 217.08 193.084C216.79 193.233 216.483 193.294 216.185 193.312C215.588 193.347 215.009 193.18 214.508 192.978C213.482 192.575 212.604 191.96 211.893 191.249C210.454 189.827 209.786 188.019 209.69 186.519C209.576 185 209.918 183.798 210.234 183.034C210.401 182.648 210.559 182.367 210.673 182.183C210.796 181.998 210.866 181.911 210.875 181.919C210.91 181.937 210.673 182.332 210.392 183.104C210.138 183.877 209.848 185.053 209.997 186.501C210.129 187.94 210.796 189.626 212.174 190.96C212.85 191.627 213.692 192.197 214.658 192.566C215.14 192.759 215.632 192.891 216.141 192.864C216.641 192.847 217.142 192.636 217.264 192.197C217.396 191.785 217.098 191.293 216.685 191.074C216.281 190.846 215.772 190.916 215.351 191.153C214.5 191.635 214.026 192.61 213.885 193.514C213.745 194.435 213.92 195.348 214.236 196.12C214.552 196.902 215.053 197.525 215.57 198.034C216.624 199.034 217.738 199.526 218.484 199.842C219.274 200.14 219.713 200.263 219.704 200.307Z" fill="#263238"/>
<path d="M173.153 115.127C170.8 113.678 169.835 110.343 171.055 107.868C170.256 106.727 171.195 105.033 172.512 104.568C173.82 104.103 175.268 104.471 176.611 104.84C176.251 104.199 177.216 103.646 177.945 103.532C179.639 103.26 181.333 102.988 183.027 102.716C180.666 102.216 178.717 100.399 177.717 98.2047C176.716 96.0105 176.593 93.5003 176.988 91.1218C177.102 90.4372 177.304 89.6911 177.883 89.3049C179.411 91.0515 180.622 93.0702 181.429 95.2469C182.825 95.3083 184.185 95.993 185.063 97.0813C185.353 96.2914 186.494 95.9842 187.143 96.5196C188.214 93.5179 190.25 90.3494 193.419 89.9895C192.427 88.594 194.226 86.9176 195.762 86.154C196.885 85.5923 198.044 85.0218 199.29 84.9253C200.545 84.8199 201.923 85.3027 202.529 86.3998C203.135 87.4969 202.573 89.1733 201.335 89.3927C202.626 90.2528 203.17 92.0784 202.564 93.5091C203.53 92.3154 205.373 91.938 206.733 92.6577C208.91 91.701 211.359 91.3412 213.72 91.6396C214.325 91.7186 214.957 91.8502 215.431 92.2364C215.791 92.5348 216.028 92.9649 216.397 93.2458C216.923 93.6407 217.625 93.6846 218.284 93.7548C219.793 93.904 221.347 94.299 222.497 95.2908C223.646 96.2826 224.269 98.0029 223.638 99.3808C227.14 100.513 230.615 96.4845 234.231 97.2042C236.346 97.6255 237.812 99.5652 238.734 101.514C236.952 102.233 234.995 102.523 233.081 102.347C232.853 103.401 231.826 104.217 230.756 104.199C231.388 104.919 230.896 106.262 229.948 106.402C232.107 105.683 234.477 105.99 236.689 106.516C240.059 107.315 243.763 109.088 244.544 112.467C244.816 113.661 244.676 114.907 244.535 116.127C244.325 117.944 243.394 120.34 241.595 120.007C240.48 119.796 239.91 118.611 239.313 117.646C238.005 115.53 235.846 113.968 233.433 113.398C232.572 114.231 234.17 115.302 234.863 116.285C235.548 117.251 235.276 118.567 235.442 119.743C235.706 121.525 237.022 122.947 237.803 124.579C239.497 128.09 238.611 132.242 237.689 136.024C237.444 137.051 236.268 138.324 235.636 137.481C236.935 137.666 237.777 139.079 237.777 140.395C237.777 141.712 237.163 142.941 236.566 144.108C236.311 144.608 235.987 145.161 235.442 145.293C234.653 145.477 234.003 144.679 233.582 143.985C232.432 142.098 231.282 140.211 230.132 138.324C230.44 139.605 230.326 140.948 230.045 142.23C229.483 144.714 228.017 147.25 225.577 147.97C223.901 148.47 222.11 148.023 220.425 147.584" fill="#263238"/>
<path d="M210.936 174.818C210.19 174.511 207.189 175.739 206.697 175.099C204.196 171.842 202.835 162.548 202.212 158.493C201.589 154.438 204.126 149.9 203.739 145.81C203.432 142.536 202.827 139.087 200.65 136.612C199.342 135.12 197.552 134.119 195.691 133.435C189.968 131.337 183.236 132.232 178.269 135.76C176.215 137.217 174.266 139.166 171.765 139.403C169.272 139.64 167.008 138.104 164.866 136.822C162.716 135.532 160.065 134.409 157.792 135.453C156.906 135.866 156.186 136.568 155.537 137.305C153.974 139.096 150.753 146.951 150.7 150.067C150.7 150.067 149.112 142.826 151.85 136.138C155.15 128.046 164.041 118.9 178.207 116.6C200.896 112.914 211.533 125.553 215.562 134.576C217.291 138.446 218.73 148.601 217.475 156.43C215.799 166.831 210.936 174.818 210.936 174.818Z" fill="#263238"/>
<path d="M217.028 137.7C216.686 137.805 215.764 135.26 213.491 131.617C212.35 129.809 210.902 127.694 209.006 125.622C207.128 123.551 204.828 121.453 202.063 119.953C199.272 118.461 196.271 117.618 193.532 117.17C190.776 116.74 188.24 116.731 186.116 116.916C181.868 117.293 179.314 118.276 179.182 117.925C179.129 117.793 179.691 117.372 180.823 116.854C181.955 116.319 183.684 115.731 185.896 115.318C188.108 114.915 190.829 114.748 193.804 115.09C196.78 115.459 200.018 116.284 203.134 117.951C206.25 119.645 208.672 121.971 210.586 124.253C212.508 126.535 213.886 128.844 214.886 130.836C216.905 134.847 217.291 137.638 217.028 137.7Z" fill="#EC4456"/>
<path d="M194.866 117.988C194.866 118.023 194.374 118.058 193.497 118.146C192.619 118.234 191.346 118.409 189.81 118.76C186.747 119.445 182.569 121.033 178.795 124.035C175.021 127.037 172.528 130.749 171.168 133.576C170.475 134.997 170.018 136.191 169.737 137.034C169.448 137.868 169.307 138.341 169.272 138.333C169.255 138.333 169.272 138.21 169.325 137.982C169.378 137.753 169.439 137.411 169.571 136.981C169.808 136.121 170.22 134.892 170.878 133.435C172.177 130.53 174.661 126.73 178.506 123.675C182.35 120.621 186.615 119.05 189.731 118.444C191.293 118.128 192.584 118.005 193.479 117.97C193.927 117.944 194.269 117.953 194.506 117.953C194.743 117.961 194.866 117.97 194.866 117.988Z" fill="#455A64"/>
<path d="M200.905 120.726C200.932 120.788 199.887 121.288 198.246 122.174C196.605 123.061 194.375 124.36 192.05 125.992C189.724 127.625 187.74 129.275 186.353 130.521C184.967 131.768 184.142 132.575 184.089 132.522C184.063 132.505 184.247 132.277 184.598 131.882C184.94 131.487 185.467 130.943 186.143 130.284C187.486 128.977 189.452 127.265 191.795 125.615C194.147 123.974 196.412 122.701 198.106 121.885C198.948 121.472 199.642 121.165 200.133 120.981C200.625 120.788 200.897 120.7 200.905 120.726Z" fill="#455A64"/>
<path d="M213.183 130.907C213.218 130.916 213.2 131.179 213.139 131.671C213.086 132.153 212.963 132.856 212.788 133.716C212.428 135.427 211.752 137.762 210.682 140.219C209.602 142.668 208.347 144.757 207.338 146.179C206.828 146.89 206.398 147.452 206.082 147.829C205.766 148.198 205.582 148.399 205.556 148.382C205.494 148.338 206.144 147.469 207.074 146.003C208.013 144.546 209.207 142.457 210.269 140.035C211.331 137.613 212.042 135.322 212.481 133.637C212.902 131.96 213.104 130.898 213.183 130.907Z" fill="#455A64"/>
<path d="M206.854 158.352C206.793 158.291 207.785 157.238 209.11 155.324C209.777 154.376 210.497 153.183 211.208 151.831C211.901 150.462 212.577 148.917 213.139 147.232C213.683 145.547 214.069 143.897 214.323 142.387C214.56 140.869 214.692 139.491 214.718 138.332C214.797 136.006 214.631 134.567 214.718 134.558C214.753 134.558 214.806 134.909 214.894 135.559C214.982 136.208 215.043 137.156 215.043 138.332C215.052 139.508 214.955 140.912 214.736 142.448C214.499 143.984 214.122 145.661 213.569 147.372C212.998 149.075 212.296 150.646 211.576 152.024C210.83 153.393 210.075 154.578 209.373 155.517C208.671 156.456 208.057 157.185 207.6 157.659C207.135 158.124 206.872 158.379 206.854 158.352Z" fill="#455A64"/>
<path d="M134.418 138.21C134.444 138.184 134.778 138.588 135.453 139.22C136.129 139.843 137.182 140.72 138.718 141.308C140.21 141.879 142.352 142.072 144.213 140.984C145.126 140.457 145.872 139.544 146.249 138.465C146.626 137.394 146.583 136.086 145.898 135.112C145.564 134.629 145.047 134.322 144.502 134.348C143.958 134.357 143.546 134.752 143.423 135.279C143.195 136.358 143.59 137.526 144.169 138.377C144.766 139.255 145.608 139.887 146.486 140.238C147.364 140.58 148.276 140.615 149.066 140.431C150.664 140.062 151.682 139.062 152.182 138.324C152.709 137.57 152.805 137.043 152.849 137.06C152.867 137.06 152.84 137.192 152.779 137.429C152.709 137.666 152.577 138.017 152.331 138.421C151.849 139.22 150.831 140.308 149.137 140.747C148.303 140.966 147.311 140.957 146.354 140.598C145.398 140.238 144.485 139.571 143.827 138.623C143.186 137.684 142.729 136.472 142.993 135.173C143.072 134.857 143.23 134.524 143.502 134.278C143.774 134.032 144.134 133.901 144.485 133.892C145.205 133.848 145.889 134.278 146.275 134.84C147.065 135.981 147.092 137.438 146.679 138.605C146.267 139.79 145.442 140.773 144.432 141.344C142.405 142.493 140.158 142.248 138.604 141.607C137.024 140.957 135.989 140.01 135.339 139.342C135.015 139 134.786 138.719 134.637 138.526C134.479 138.333 134.409 138.228 134.418 138.21Z" fill="#263238"/>
<path d="M250.899 132.558C250.899 132.575 250.724 132.61 250.39 132.672C250.057 132.724 249.556 132.803 248.907 132.882C247.625 133.005 245.703 133.242 243.395 132.663C242.263 132.356 241.034 131.838 239.981 130.899C238.919 129.986 238.102 128.573 238.015 126.967C237.962 126.177 238.085 125.334 238.454 124.571C238.805 123.798 239.445 123.14 240.209 122.719C241.745 121.876 243.746 121.806 245.387 122.736C246.177 123.193 246.888 124.035 246.844 125.045C246.792 126.036 246.089 126.818 245.291 127.204C244.475 127.599 243.588 127.643 242.781 127.59C241.964 127.529 241.174 127.397 240.42 127.195C237.392 126.379 235.066 124.536 233.688 122.64C232.283 120.735 231.73 118.866 231.493 117.593C231.371 116.952 231.344 116.443 231.327 116.101C231.318 115.759 231.327 115.574 231.344 115.574C231.388 115.574 231.388 116.294 231.669 117.558C231.95 118.804 232.547 120.621 233.951 122.447C235.32 124.263 237.593 126.019 240.525 126.782C241.253 126.976 242.017 127.098 242.807 127.142C243.588 127.186 244.396 127.134 245.098 126.791C245.782 126.458 246.362 125.782 246.397 125.018C246.441 124.246 245.87 123.544 245.159 123.122C243.711 122.289 241.815 122.341 240.437 123.105C239.006 123.86 238.339 125.475 238.454 126.94C238.533 128.424 239.261 129.74 240.253 130.609C241.236 131.504 242.412 132.031 243.5 132.347C245.712 132.944 247.625 132.768 248.907 132.698C249.512 132.645 250.004 132.61 250.399 132.575C250.724 132.549 250.899 132.54 250.899 132.558Z" fill="#263238"/>
<path d="M162.173 91.0784C162.226 91.0959 161.848 91.6664 161.681 92.8338C161.532 93.9572 161.673 95.8092 163.007 97.4241C164.297 99.0127 166.93 100.084 169.589 99.3814C170.871 99.0566 172.249 98.214 172.661 96.8361C172.854 96.169 172.723 95.3879 172.337 94.791C171.95 94.1942 171.213 93.8343 170.511 94.0274C169.809 94.203 169.23 94.7823 168.931 95.4405C168.615 96.0988 168.642 96.8624 168.861 97.547C169.317 98.9337 170.397 100.005 171.468 100.847C173.653 102.541 176.137 103.287 178.217 103.48C180.306 103.664 182.018 103.366 183.141 103.041C184.273 102.708 184.852 102.401 184.879 102.453C184.888 102.471 184.738 102.55 184.458 102.69C184.185 102.839 183.755 103.015 183.194 103.217C182.07 103.603 180.332 103.963 178.191 103.814C176.067 103.656 173.495 102.927 171.213 101.189C170.107 100.32 168.957 99.2322 168.44 97.6874C168.194 96.9326 168.15 96.0286 168.519 95.2562C168.87 94.4926 169.519 93.8168 170.406 93.5886C171.301 93.3341 172.266 93.8168 172.714 94.5453C173.179 95.265 173.32 96.1602 173.091 96.9589C172.854 97.7576 172.319 98.3983 171.705 98.8547C171.09 99.3111 170.388 99.6183 169.686 99.7939C166.842 100.514 164.086 99.3462 162.743 97.6347C161.365 95.8969 161.286 93.966 161.497 92.8074C161.602 92.2106 161.787 91.7805 161.918 91.4909C162.076 91.21 162.164 91.0696 162.173 91.0784Z" fill="#263238"/>
<path d="M206.236 171.987C206.446 167.738 211.072 164.904 214.758 167.028C216.777 168.195 218.33 170.547 218.137 175.058C217.646 187.083 205.665 184.107 205.665 183.765C205.665 183.546 205.99 176.954 206.236 171.987Z" fill="#FFBE9D"/>
<path d="M209.515 179.356C209.567 179.321 209.717 179.514 210.068 179.69C210.41 179.865 210.998 179.997 211.63 179.786C212.92 179.374 214.07 177.399 214.219 175.231C214.298 174.134 214.105 173.09 213.754 172.203C213.42 171.308 212.876 170.667 212.244 170.527C211.612 170.351 211.147 170.72 210.98 171.053C210.805 171.387 210.875 171.624 210.805 171.641C210.77 171.668 210.559 171.431 210.673 170.939C210.735 170.702 210.884 170.421 211.174 170.202C211.472 169.983 211.902 169.877 212.341 169.947C213.262 170.053 214.07 170.939 214.456 171.905C214.895 172.879 215.132 174.055 215.044 175.284C214.869 177.706 213.535 179.918 211.77 180.348C210.919 180.532 210.217 180.252 209.866 179.953C209.523 179.655 209.471 179.383 209.515 179.356Z" fill="#EB996E"/>
<path d="M318.66 252.476C312.63 236.669 247.909 185.842 247.909 185.842L229.311 195.769L276.224 242.971L281.244 275.621C281.244 275.621 296.893 280.132 303.564 279.483C316.027 278.28 321.951 261.104 318.66 252.476Z" fill="#FFBE9D"/>
<path d="M289.556 264.316C289.53 264.333 289.311 264.009 288.933 263.412C288.512 262.727 287.994 261.876 287.371 260.866C286.019 258.628 284.238 255.697 282.272 252.449C280.262 249.176 278.383 246.244 277.014 244.138C276.365 243.146 275.821 242.303 275.39 241.636C275.013 241.039 274.811 240.706 274.837 240.688C274.864 240.671 275.11 240.969 275.54 241.531C275.97 242.093 276.567 242.918 277.286 243.953C278.734 246.016 280.657 248.93 282.667 252.204C284.685 255.477 286.423 258.497 287.652 260.691C288.266 261.788 288.758 262.683 289.082 263.306C289.416 263.947 289.583 264.298 289.556 264.316Z" fill="#EB996E"/>
<path d="M229.264 148.356C227.412 148.259 227.649 149.909 228.149 151.138C228.65 152.367 231.555 159.107 231.555 159.107C231.555 159.107 224.516 146.442 223.752 145.679C222.989 144.915 221.628 143.564 220.592 144.345C219.548 145.135 219.996 146.205 220.399 147.469C220.759 148.601 224.446 157.089 225.218 158.879C225.306 159.09 225.964 160.477 225.613 160.696C225.358 161.196 224.252 160.09 223.91 159.643L218.512 152.525C218.512 152.525 214.282 146.592 213.308 146.969C211.535 147.654 210.692 148.637 211.113 149.663C211.535 150.69 220.636 164.224 220.636 164.224L212.772 154.728C212.237 154.113 211.517 153.666 210.718 153.517C210.025 153.385 209.218 153.464 208.603 154.175C207.585 155.333 209.534 157.58 210.402 159.169C210.955 160.178 214.387 164.777 214.387 164.777L222.049 178.048L220.794 178.32L218.012 173.826L215.089 182.428C215.089 182.428 219.153 189.555 223.041 193.767C224.674 195.54 229.317 195.76 229.317 195.76L248.02 187.527C248.02 187.527 247.581 179.821 247.064 178.004C246.546 176.187 243.606 169.868 242.157 167.709C240.709 165.558 237.681 162.434 236.558 160.266C235.434 158.098 231.423 148.461 229.264 148.356Z" fill="#FFBE9D"/>
<path d="M235.943 166.137C236.004 166.198 235.179 167.059 234.152 168.647C233.625 169.437 233.09 170.438 232.581 171.579C232.09 172.728 231.651 174.036 231.335 175.449C231.036 176.862 230.896 178.24 230.861 179.487C230.852 180.742 230.922 181.865 231.071 182.804C231.343 184.683 231.738 185.806 231.659 185.832C231.633 185.841 231.519 185.569 231.335 185.06C231.238 184.805 231.133 184.498 231.045 184.121C230.957 183.752 230.826 183.331 230.755 182.848C230.562 181.9 230.457 180.751 230.448 179.469C230.466 178.188 230.589 176.783 230.896 175.335C231.221 173.896 231.686 172.562 232.212 171.394C232.757 170.236 233.336 169.235 233.898 168.454C234.161 168.05 234.451 167.717 234.687 167.418C234.924 167.12 235.144 166.874 235.337 166.681C235.697 166.312 235.916 166.111 235.943 166.137Z" fill="#EB996E"/>
<path d="M229.438 180.777C229.385 180.909 227.305 179.838 224.505 179.821C223.47 179.803 222.513 179.926 221.732 180.093L221.6 180.119L221.53 180.022C220.758 178.89 220.284 178.118 220.345 178.074C220.407 178.03 220.995 178.715 221.837 179.794L221.635 179.724C222.434 179.513 223.426 179.347 224.505 179.364C225.945 179.382 227.226 179.707 228.104 180.049C228.99 180.391 229.464 180.725 229.438 180.777Z" fill="#EB996E"/>
<path d="M236.126 162.241C236.134 162.311 235.143 162.522 233.554 162.952C231.965 163.382 229.797 164.066 227.489 165.049C225.181 166.032 223.188 167.13 221.784 167.972C220.371 168.815 219.528 169.394 219.485 169.333C219.449 169.289 220.231 168.622 221.609 167.7C222.987 166.778 224.979 165.629 227.314 164.628C229.648 163.636 231.86 162.996 233.475 162.645C235.099 162.285 236.117 162.188 236.126 162.241Z" fill="#EB996E"/>
<path d="M217.341 169.938C217.367 169.92 217.49 170.104 217.692 170.438C217.885 170.78 218.122 171.307 218.306 171.991C218.49 172.676 218.596 173.536 218.508 174.475C218.429 175.414 218.148 176.424 217.753 177.424C217.367 178.416 216.981 179.364 216.507 180.18C216.05 180.996 215.533 181.672 215.05 182.19C214.558 182.708 214.111 183.059 213.777 183.27C213.444 183.489 213.242 183.568 213.233 183.551C213.189 183.48 213.926 183.024 214.813 181.971C215.252 181.444 215.717 180.777 216.138 179.97C216.568 179.171 216.937 178.241 217.323 177.249C217.709 176.266 217.99 175.318 218.078 174.423C218.183 173.536 218.122 172.72 217.981 172.053C217.718 170.727 217.262 169.973 217.341 169.938Z" fill="#EB996E"/>
<path d="M379.694 384.472C379.694 384.595 293.346 384.701 186.856 384.701C80.3305 384.701 -5.99927 384.604 -5.99927 384.472C-5.99927 384.349 80.3305 384.244 186.856 384.244C293.346 384.244 379.694 384.349 379.694 384.472Z" fill="#263238"/>
<path d="M144.982 35H140.339L147.414 14.5042H152.998L160.064 35H155.42L150.286 19.1878H150.126L144.982 35ZM144.692 26.9438H155.66V30.3264H144.692V26.9438ZM162.531 35V14.5042H166.864V31.4273H175.651V35H162.531ZM178.52 35V14.5042H192.331V18.077H182.854V22.9607H191.621V26.5335H182.854V31.4273H192.371V35H178.52ZM195.776 35V14.5042H203.862C205.41 14.5042 206.731 14.7811 207.825 15.3349C208.926 15.882 209.764 16.6592 210.337 17.6667C210.918 18.6674 211.208 19.845 211.208 21.1994C211.208 22.5604 210.915 23.7313 210.327 24.7121C209.74 25.6862 208.89 26.4334 207.775 26.9538C206.668 27.4742 205.327 27.7344 203.752 27.7344H198.338V24.2517H203.052C203.879 24.2517 204.566 24.1383 205.113 23.9115C205.66 23.6846 206.067 23.3444 206.334 22.8907C206.608 22.437 206.745 21.8732 206.745 21.1994C206.745 20.5189 206.608 19.9451 206.334 19.4781C206.067 19.011 205.657 18.6574 205.103 18.4172C204.556 18.1704 203.866 18.047 203.032 18.047H200.11V35H195.776ZM206.845 25.6728L211.939 35H207.155L202.171 25.6728H206.845ZM213.49 18.077V14.5042H230.323V18.077H224.048V35H219.765V18.077H213.49ZM234.123 35H229.48L236.555 14.5042H242.139L249.205 35H244.561L239.427 19.1878H239.267L234.123 35ZM233.833 26.9438H244.801V30.3264H233.833V26.9438ZM265.46 35H258.194V14.5042H265.52C267.581 14.5042 269.356 14.9145 270.844 15.7352C272.332 16.5491 273.476 17.72 274.277 19.2479C275.084 20.7757 275.488 22.6038 275.488 24.7321C275.488 26.8671 275.084 28.7018 274.277 30.2363C273.476 31.7708 272.325 32.9484 270.824 33.7691C269.329 34.5897 267.541 35 265.46 35ZM262.528 31.2871H265.28C266.561 31.2871 267.638 31.0603 268.512 30.6066C269.393 30.1463 270.053 29.4357 270.494 28.475C270.941 27.5076 271.164 26.2599 271.164 24.7321C271.164 23.2176 270.941 21.98 270.494 21.0192C270.053 20.0585 269.396 19.3513 268.522 18.8976C267.648 18.4439 266.571 18.2171 265.29 18.2171H262.528V31.2871ZM278.697 35V14.5042H292.508V18.077H283.031V22.9607H291.798V26.5335H283.031V31.4273H292.548V35H278.697ZM152.499 69V48.5042H156.832V65.4273H165.619V69H152.499ZM172.545 69H167.901L174.976 48.5042H180.561L187.626 69H182.983L177.849 53.1878H177.689L172.545 69ZM172.254 60.9438H183.223V64.3264H172.254V60.9438ZM186.801 48.5042H191.654L196.328 57.331H196.528L201.202 48.5042H206.055L198.58 61.7544V69H194.276V61.7544L186.801 48.5042ZM226.018 58.7521C226.018 60.9872 225.595 62.8886 224.747 64.4565C223.907 66.0244 222.759 67.222 221.305 68.0493C219.857 68.8699 218.229 69.2802 216.421 69.2802C214.599 69.2802 212.965 68.8666 211.517 68.0393C210.069 67.212 208.925 66.0144 208.084 64.4465C207.244 62.8786 206.823 60.9805 206.823 58.7521C206.823 56.5171 207.244 54.6156 208.084 53.0477C208.925 51.4799 210.069 50.2856 211.517 49.465C212.965 48.6377 214.599 48.224 216.421 48.224C218.229 48.224 219.857 48.6377 221.305 49.465C222.759 50.2856 223.907 51.4799 224.747 53.0477C225.595 54.6156 226.018 56.5171 226.018 58.7521ZM221.625 58.7521C221.625 57.3043 221.408 56.0834 220.974 55.0893C220.547 54.0952 219.944 53.3413 219.163 52.8276C218.382 52.3138 217.468 52.057 216.421 52.057C215.373 52.057 214.459 52.3138 213.679 52.8276C212.898 53.3413 212.291 54.0952 211.857 55.0893C211.43 56.0834 211.217 57.3043 211.217 58.7521C211.217 60.1999 211.43 61.4208 211.857 62.4149C212.291 63.409 212.898 64.1629 213.679 64.6767C214.459 65.1904 215.373 65.4473 216.421 65.4473C217.468 65.4473 218.382 65.1904 219.163 64.6767C219.944 64.1629 220.547 63.409 220.974 62.4149C221.408 61.4208 221.625 60.1999 221.625 58.7521ZM231.775 48.5042L236.729 64.0762H236.919L241.883 48.5042H246.687L239.621 69H234.037L226.961 48.5042H231.775ZM249.154 69V48.5042H262.964V52.077H253.487V56.9607H262.254V60.5335H253.487V65.4273H263.004V69H249.154ZM266.409 69V48.5042H274.496C276.043 48.5042 277.364 48.7811 278.459 49.3349C279.559 49.882 280.397 50.6592 280.971 51.6667C281.551 52.6674 281.841 53.845 281.841 55.1994C281.841 56.5604 281.548 57.7313 280.96 58.7121C280.373 59.6862 279.523 60.4334 278.409 60.9538C277.301 61.4742 275.96 61.7344 274.385 61.7344H268.971V58.2517H273.685C274.512 58.2517 275.199 58.1383 275.746 57.9115C276.294 57.6846 276.701 57.3444 276.967 56.8907C277.241 56.437 277.378 55.8732 277.378 55.1994C277.378 54.5189 277.241 53.9451 276.967 53.4781C276.701 53.011 276.29 52.6574 275.736 52.4172C275.189 52.1704 274.499 52.047 273.665 52.047H270.743V69H266.409ZM277.478 59.6728L282.572 69H277.788L272.804 59.6728H277.478Z" fill="white"/>
</g>
<defs>
<clipPath id="clip0_2_1999">
<rect width="385.693" height="386" fill="white" transform="translate(-6)"/>
</clipPath>
</defs>
</svg>
