<svg width="240" height="227" viewBox="0 0 240 227" fill="none" xmlns="http://www.w3.org/2000/svg">
<g clip-path="url(#clip0_7_766)">
<path d="M44.5215 173.983C74.0356 173.233 93.1357 194.731 93.1357 194.731C90.2009 203.593 88.3784 210.184 88.3784 210.184C72.2132 207.275 53.8941 206.07 38.7465 202.298C25.0664 198.957 23.7173 181.209 25.1847 173.869C26.6522 166.506 34.4626 164.688 42.0364 162.302C50.7462 159.598 67.3612 159.28 79.2426 159.28C91.7866 159.28 108.189 160.37 116.78 162.188C116.78 162.188 134.862 161.438 148.33 161.643C156.14 160.348 151.501 172.551 138.957 183.05C126.058 193.867 109.443 198.185 93.3961 195.708H93.2777" fill="#193A52"/>
<path d="M186.412 173.983C156.898 173.233 130.674 194.731 130.674 194.731C133.608 203.593 135.431 210.184 135.431 210.184C151.596 207.275 176.921 206.07 192.068 202.298C205.749 198.957 207.098 181.209 205.63 173.869C204.163 166.506 196.352 164.688 188.779 162.302C180.069 159.598 163.454 159.28 151.572 159.28C139.028 159.28 122.626 160.37 114.035 162.188C114.035 162.188 95.9525 161.438 82.4854 161.643C74.6749 160.348 79.3138 172.551 91.8579 183.05C104.757 193.867 121.372 198.185 137.419 195.708H137.537" fill="#193A52"/>
<path d="M93.3725 97.3312C90.769 105.649 88.1655 113.989 85.349 122.192C83.9999 126.306 82.5325 130.419 81.0414 134.509C79.574 138.623 78.1066 142.736 76.4025 146.826L76.1658 147.372L75.8345 148.031C75.5978 148.462 75.5031 148.781 75.2664 149.212C74.8167 149.962 74.367 150.621 73.9173 151.258C73.018 152.553 71.8819 153.644 70.8642 154.598C68.7104 156.553 66.5566 157.939 64.3081 159.257C59.9059 161.847 55.4799 163.575 50.9593 165.211C42.0365 168.347 33.09 170.392 23.7174 171.801L22.0133 164.779C26.0842 163.37 30.3681 161.87 34.439 160.234C38.5099 158.621 42.5808 156.984 46.4151 155.144C50.2493 153.303 53.9888 151.258 57.1604 149.099C60.3319 146.94 62.9354 144.236 63.1484 142.622L70.7222 117.761C73.3256 109.444 75.9291 101.217 78.6273 92.8998L93.3725 97.3312Z" fill="#CE7A63"/>
<path d="M25.0901 165.233L11.2916 161.893L17.8477 174.528C17.8477 174.528 27.2202 174.96 30.2734 169.869L25.0901 165.233Z" fill="#CE7A63"/>
<path d="M122.768 7.18113C117.798 3.72693 109.656 0.909028 106.366 6.09033C103.076 11.2716 100.26 22.316 94.84 25.0203C89.42 27.6109 82.8639 38.3144 86.4852 47.7225C90.1064 57.1307 75.9765 54.54 75.1718 68.8113C74.4855 82.9463 95.621 90.1955 108.97 83.1735C122.319 76.1515 131.809 39.4961 130.91 25.0203C130.105 10.4081 122.768 7.18113 122.768 7.18113Z" fill="#263238"/>
<path d="M116.543 6.63573C116.543 6.63573 123.786 -3.8405 137.111 1.54533C152.708 7.93105 147.856 14.7258 150.673 29.2244C153.489 43.7002 170.909 46.3136 170.128 66.4252C168.779 100.695 136.993 94.3088 128.306 85.2415C119.597 76.1515 129.206 42.7458 129.206 42.7458L116.543 6.63573Z" fill="#263238"/>
<path d="M0.0966797 166.847L6.20304 177.232L17.8477 174.755L11.2917 162.007L0.0966797 166.847Z" fill="#CE7A63"/>
<path d="M83.7633 77.765C77.7753 79.2876 73.5861 102.853 73.5861 102.853L90.0827 113.67C90.0827 113.67 105.917 89.7865 101.396 83.5144C96.5204 76.9014 92.5678 75.6061 83.7633 77.765Z" fill="#C84B4F"/>
<path opacity="0.2" d="M83.1952 86.3096L96.0943 89.1275L97.3487 101.24C93.9642 107.83 90.1063 113.67 90.1063 113.67L80.0474 107.194C80.4734 101.558 81.6095 90.0819 83.1952 86.3096Z" fill="black"/>
<path d="M83.7632 77.765C83.7632 77.765 76.8758 80.1511 90.7689 161.87C114.295 161.87 138.602 161.87 150.01 161.87C148.992 138.85 148.992 124.578 160.519 77.3332C160.519 77.3332 148.093 74.7425 135.431 74.1971C125.49 73.7654 117.348 73.4472 108.52 74.1971C96.8753 75.1743 83.7632 77.765 83.7632 77.765Z" fill="#C84B4F"/>
<path opacity="0.2" d="M146.507 99.2856L154.199 105.558C152.613 113.784 151.477 120.693 150.815 126.851C149.324 120.693 145.608 104.035 146.507 99.2856Z" fill="black"/>
<path d="M132.59 45.2228C130.886 53.5401 129.206 68.675 135.312 74.1972C135.312 74.1972 129.656 86.6277 114.626 86.6277C99.5971 86.6277 108.402 74.1972 108.402 74.1972C118.011 72.0383 117.774 65.1072 116.094 58.7442L132.59 45.2228Z" fill="#CE7A63"/>
<path d="M135.312 74.1971C125.371 73.7654 117.23 73.4472 108.401 74.1971C104.212 74.5153 99.9283 75.1743 95.9758 75.7197C93.3723 80.1511 83.3133 100.035 108.188 100.035C134.294 100.035 145.158 78.1967 146.507 75.1743C143.004 74.7425 139.146 74.3108 135.312 74.1971Z" fill="#CE7A63"/>
<path opacity="0.2" d="M125.916 50.745L116.189 58.7442C116.638 60.2667 116.875 61.7666 116.97 63.2892C120.709 62.7438 125.679 58.9714 126.129 55.1763C126.271 53.3356 126.153 51.6085 125.916 50.745Z" fill="black"/>
<path d="M144.022 29.5425C141.3 43.1548 140.401 48.9042 132.259 55.0627C119.928 64.2436 103.1 58.0851 101.514 44.0411C100.165 31.3832 104.804 11.2943 119.597 7.49927C134.082 3.93145 146.744 16.0439 144.022 29.5425Z" fill="#CE7A63"/>
<path d="M118.697 6.09033C113.609 8.79461 116.993 13.6578 126.153 17.112C135.312 20.5662 135.88 21.2252 134.413 28.2472C132.945 35.3829 146.294 41.9731 146.507 34.6329C146.744 27.27 149.442 13.3396 142.2 9.45363C135.076 5.54493 124.117 3.27243 118.697 6.09033Z" fill="#263238"/>
<path d="M117.893 9.54453C113.372 10.9535 103.076 21.657 103.881 18.0891C104.662 14.6349 106.603 9.65815 112.023 7.93105C117.443 6.09033 120.046 6.09033 120.046 6.09033L117.893 9.54453Z" fill="#263238"/>
<path d="M146.72 41.0186C145.371 43.4957 142.886 45.2455 140.496 45.9954C136.993 47.0862 135.17 44.1547 136.188 41.0186C137.087 38.2007 139.928 34.1102 143.43 34.4284C146.957 34.7465 148.306 38.0871 146.72 41.0186Z" fill="#CE7A63"/>
<path d="M90.0826 208.479L95.5026 193.662C95.7393 193.117 98.1061 194.526 98.6741 194.64C98.6741 194.64 107.147 193.549 110.556 194.412C113.94 195.276 113.845 197.435 113.159 199.594C111.692 204.684 109.419 205.639 107.952 212.456C107.053 216.569 106.248 220.455 101.514 224.341C96.9937 228.136 92.6861 227.909 94.3902 223.25C98.6978 212.229 96.6624 213.842 93.9405 209.843C93.4908 209.343 89.7513 209.343 90.0826 208.479Z" fill="#CE7A63"/>
<path d="M132.59 208.479L127.17 193.662C126.934 193.117 124.567 194.526 123.999 194.64C123.999 194.64 115.526 193.549 112.118 194.412C108.733 195.276 108.828 197.435 109.514 199.594C110.981 204.684 113.254 205.639 114.721 212.456C115.62 216.569 116.425 220.455 121.159 224.341C125.679 228.136 129.987 227.909 128.283 223.25C123.975 212.229 126.011 213.842 128.733 209.843C129.324 209.343 132.945 209.343 132.59 208.479Z" fill="#CE7A63"/>
<path d="M91.9052 212.047L97.4435 192.481L90.2011 189.572L80.0238 210.661L91.9052 212.047Z" fill="#FFB0A1"/>
<path d="M131.241 212.479L122.65 192.685L129.206 189.981L142.649 209.343L131.241 212.479Z" fill="#FFB0A1"/>
<path d="M111.573 30.7469C111.573 30.7469 108.97 35.2919 106.484 37.3372C107.833 38.8598 110.555 38.6325 110.555 38.6325L111.573 30.7469Z" fill="#BA4D3C"/>
<path d="M114.058 44.3592C114.058 44.3592 114.177 44.3592 114.058 44.3592C118.129 44.9046 121.182 42.4049 121.301 42.314C121.419 42.2003 121.419 42.0867 121.301 41.9958C121.182 41.8822 121.064 41.8822 120.969 41.9958C120.969 41.9958 117.916 44.3819 114.177 43.9502C114.058 43.9502 113.94 44.0638 113.94 44.1774C113.94 44.2456 114.058 44.3592 114.058 44.3592Z" fill="#263238"/>
<path d="M126.934 25.3384C127.052 25.452 127.265 25.3384 127.383 25.3384C127.62 25.2248 127.62 24.9066 127.502 24.793C125.585 21.7706 122.531 21.7706 122.295 21.7706C122.058 21.7706 121.845 21.9978 121.845 22.2024C121.845 22.4296 122.082 22.6341 122.295 22.6341C122.413 22.6341 125.016 22.7478 126.697 25.3384C126.839 25.2248 126.934 25.3384 126.934 25.3384Z" fill="#263238"/>
<path d="M117.111 29.1108C116.993 29.1108 116.78 29.1108 116.662 29.2244C116.425 29.4516 116.543 29.6562 116.662 29.8834C119.265 32.3604 122.318 31.7241 122.437 31.7241C122.673 31.7241 122.768 31.406 122.768 31.1787C122.768 30.9515 122.437 30.8606 122.2 30.8606C122.082 30.8606 119.478 31.406 117.23 29.2471C117.325 29.2244 117.23 29.2244 117.111 29.1108Z" fill="#263238"/>
<path d="M101.609 27.6109C101.49 27.6109 101.277 27.6109 101.159 27.7245C100.922 27.9518 101.041 28.1563 101.159 28.3836C103.763 30.8606 106.816 30.2243 106.934 30.2243C107.171 30.2243 107.265 29.9061 107.265 29.6789C107.265 29.4516 106.934 29.3607 106.697 29.3607C106.579 29.3607 103.976 29.9061 101.727 27.7473L101.609 27.6109Z" fill="#263238"/>
<path d="M102.863 21.2252C102.982 21.3388 103.195 21.2252 103.313 21.2252C105.798 19.3844 108.283 20.1344 108.402 20.1344C108.638 20.248 108.851 20.1344 108.97 19.9071C109.088 19.6799 108.97 19.4753 108.733 19.3617C108.615 19.3617 105.68 18.3845 102.745 20.5434C102.508 20.657 102.508 20.9752 102.627 21.0888C102.745 21.1115 102.745 21.2252 102.863 21.2252Z" fill="#263238"/>
<path d="M150.791 158.53L151.241 163.62C151.477 164.052 151.004 164.37 150.223 164.37H90.3192C89.7511 164.37 89.3014 164.143 89.3014 163.825L88.7334 158.734C88.7334 158.416 89.1831 158.075 89.7511 158.075H149.679C150.341 158.098 150.696 158.302 150.791 158.53Z" fill="#D28273"/>
<path opacity="0.3" d="M150.791 158.53L151.241 163.62C151.477 164.052 151.004 164.37 150.223 164.37H90.3192C89.7511 164.37 89.3014 164.143 89.3014 163.825L88.7334 158.734C88.7334 158.416 89.1831 158.075 89.7511 158.075H149.679C150.341 158.098 150.696 158.302 150.791 158.53Z" fill="#D28273"/>
<path d="M142.768 164.915H144.353C144.685 164.915 144.921 164.802 144.921 164.597L144.14 158.007C144.14 157.78 143.809 157.689 143.572 157.689H141.987C141.655 157.689 141.419 157.802 141.419 158.007L142.2 164.597C142.2 164.802 142.436 164.915 142.768 164.915Z" fill="#263238"/>
<path d="M94.9583 164.915H96.5441C96.8754 164.915 97.1121 164.802 97.1121 164.597L96.3311 158.007C96.3311 157.78 95.9997 157.689 95.763 157.689H94.1773C93.8459 157.689 93.6093 157.802 93.6093 158.007L94.3903 164.597C94.3903 164.802 94.6033 164.915 94.9583 164.915Z" fill="#263238"/>
<path d="M118.816 164.915H120.401C120.733 164.915 120.969 164.802 120.969 164.597L120.188 158.007C120.188 157.78 119.857 157.689 119.62 157.689H118.034C117.703 157.689 117.466 157.802 117.466 158.007L118.247 164.597C118.247 164.802 118.579 164.915 118.816 164.915Z" fill="#263238"/>
<path d="M165.726 94.0815L170.578 119.056C171.359 123.17 172.282 127.374 173.063 131.487C173.513 133.532 173.962 135.6 174.412 137.532L175.193 140.441L175.879 142.918C176.116 143.577 176.897 144.758 177.915 145.94C179.051 147.122 180.518 148.212 182.104 149.281C185.276 151.439 188.992 153.394 192.849 155.234C196.684 157.075 200.66 158.689 204.731 160.325C208.802 161.938 212.991 163.347 216.943 164.756L215.239 171.778C206.08 170.369 197.252 168.324 188.447 165.302C184.045 163.779 179.619 161.961 175.335 159.575C173.181 158.28 171.027 156.984 168.897 155.144C166.862 153.303 164.708 151.144 163.241 147.781L163.004 147.122L162.767 146.69L162.436 145.826L161.868 144.213L160.85 140.963C160.164 138.804 159.596 136.736 159.051 134.577C157.915 130.351 156.779 126.146 155.88 121.92C153.963 113.489 152.259 105.058 150.791 96.5131L165.726 94.0815Z" fill="#CE7A63"/>
<path d="M160.4 77.3332C166.27 79.0603 173.631 97.3312 173.631 97.3312L150.578 113.125C150.578 113.125 141.987 98.1038 144.472 90.7409C147.194 83.0599 153.631 75.3788 160.4 77.3332Z" fill="#C84B4F"/>
<path d="M214.008 165.233L227.807 161.893L221.251 174.551C221.251 174.551 211.878 174.983 208.825 169.892L214.008 165.233Z" fill="#CE7A63"/>
<path d="M239.097 166.847L232.872 177.232L221.346 174.755L227.902 162.007L239.097 166.847Z" fill="#CE7A63"/>
</g>
<defs>
<clipPath id="clip0_7_766">
<rect width="239" height="227" fill="white" transform="translate(0.0966797)"/>
</clipPath>
</defs>
</svg>
