<svg width="42" height="43" viewBox="0 0 42 43" fill="none" xmlns="http://www.w3.org/2000/svg">
<path d="M31.9047 20.5784C31.9047 14.7793 26.964 10.0477 20.9087 10.0477C14.8533 10.0477 9.9126 14.7793 9.9126 20.5784C9.9126 21.4139 10.0091 22.2493 10.2513 23.0829C10.5427 24.4276 11.0745 25.263 11.8011 26.4228C11.9468 26.7019 12.1398 26.9792 12.3348 27.3036C12.577 27.6751 12.77 28.0466 13.0122 28.371C13.981 29.9023 14.562 30.7831 14.562 32.5935V36.9537C14.562 38.0664 15.3851 38.949 16.4997 39.1338C16.9841 41.5006 18.4374 42.9848 20.9088 42.9848C23.3801 42.9848 24.8807 41.5006 25.3179 39.1338C26.4324 38.949 27.2556 38.0211 27.2556 36.9537V32.5935C27.2556 30.7849 27.8365 29.857 28.8054 28.371C28.9984 28.0466 29.2406 27.6751 29.4828 27.3036C29.6758 26.9792 29.8707 26.7001 30.0164 26.4228C30.7431 25.263 31.2767 24.4276 31.5662 23.0829C31.8084 22.2493 31.9049 21.4138 31.9049 20.5784H31.9047ZM25.3649 33.7081H16.5488V32.6407C16.5488 32.4088 16.5488 32.2239 16.4996 32.0372H25.3651C25.3651 32.2221 25.3159 32.4087 25.3159 32.6407L25.3178 33.7081H25.3649ZM24.9297 37.3743H16.8872C16.645 37.3743 16.4993 37.1894 16.4993 37.0027V35.5638H25.3154V37.0027C25.3646 37.1876 25.1716 37.3743 24.9294 37.3743H24.9297ZM20.9085 41.1781C20.3749 41.1781 19.02 41.1781 18.4864 39.23H23.3801C22.8465 41.1781 21.4424 41.1781 20.9087 41.1781H20.9085ZM29.6777 22.7132C29.4355 23.7335 29.0475 24.4294 28.3701 25.4968C28.1771 25.7759 28.0314 26.0531 27.8365 26.3775C27.5943 26.749 27.4012 27.1206 27.2063 27.3978C26.6254 28.3257 26.0917 29.1611 25.753 30.1342H16.1608C15.8221 29.1592 15.3377 28.3257 14.7076 27.3978C14.5145 27.0734 14.2723 26.749 14.0774 26.3775C13.8844 26.0531 13.6895 25.7288 13.5438 25.4968C12.8663 24.3841 12.4784 23.7335 12.2362 22.6661C12.0432 21.9702 11.9448 21.2743 11.9448 20.5784C11.9448 15.7994 16.0132 11.9033 21.0031 11.9033C25.9932 11.9033 30.0615 15.7996 30.0615 20.5784C29.9669 21.2743 29.8704 21.9702 29.6773 22.7132H29.6777Z" fill="#021442"/>
<path d="M40.867 19.6506H36.8458C36.3122 19.6506 35.877 20.0674 35.877 20.5784C35.877 21.0895 36.3122 21.5063 36.8458 21.5063H40.867C41.4006 21.5063 41.8358 21.0895 41.8358 20.5784C41.8358 20.0692 41.4006 19.6506 40.867 19.6506Z" fill="#021442"/>
<path d="M32.1471 10.7436C32.3893 10.7436 32.6315 10.6512 32.8245 10.4645L35.6818 7.72809C36.0698 7.35659 36.0698 6.80023 35.6818 6.42872C35.2939 6.05721 34.713 6.05721 34.3251 6.42872L31.4677 9.16516C31.0798 9.53667 31.0798 10.093 31.4677 10.4645C31.6626 10.6512 31.9048 10.7436 32.147 10.7436H32.1471Z" fill="#021442"/>
<path d="M20.9088 6.24395C21.4424 6.24395 21.8777 5.82714 21.8777 5.31609V1.46509C21.8777 0.954027 21.4424 0.537231 20.9088 0.537231C20.3752 0.537231 19.9399 0.954045 19.9399 1.46509V5.31609C19.9399 5.82715 20.3752 6.24395 20.9088 6.24395Z" fill="#021442"/>
<path d="M8.99082 10.4667C9.18383 10.6515 9.42605 10.7458 9.66824 10.7458C9.91044 10.7458 10.1527 10.6533 10.3457 10.4667C10.7336 10.0952 10.7336 9.53882 10.3457 9.1673L7.48831 6.43085C7.10039 6.05935 6.51945 6.05935 6.13152 6.43085C5.7436 6.80236 5.7436 7.35871 6.13152 7.73023L8.99082 10.4667Z" fill="#021442"/>
<path d="M5.01906 19.6506H0.997912C0.464264 19.6506 0.0290527 20.0674 0.0290527 20.5784C0.0290527 21.0895 0.464284 21.5063 0.997912 21.5063H5.01906C5.55271 21.5063 5.98792 21.0895 5.98792 20.5784C5.98792 20.0692 5.55269 19.6506 5.01906 19.6506Z" fill="#021442"/>
<path d="M8.99083 30.6926L6.13347 33.4291C5.74555 33.8006 5.74555 34.3569 6.13347 34.7285C6.32649 34.9133 6.5687 35.0075 6.8109 35.0075C7.05309 35.0075 7.29533 34.9151 7.48832 34.7285L10.3457 31.992C10.7336 31.6205 10.7336 31.0641 10.3457 30.6926C9.95966 30.3211 9.33139 30.3211 8.99078 30.6926H8.99083Z" fill="#021442"/>
<path d="M32.8269 30.6926C32.439 30.3211 31.8581 30.3211 31.4701 30.6926C31.0822 31.0641 31.0822 31.6205 31.4701 31.992L34.3275 34.7285C34.5205 34.9133 34.7627 35.0075 35.0049 35.0075C35.2471 35.0075 35.4894 34.9151 35.6824 34.7285C36.0703 34.357 36.0703 33.8006 35.6824 33.4291L32.8269 30.6926Z" fill="#021442"/>
</svg>
