<svg width="41" height="41" viewBox="0 0 41 41" fill="none" xmlns="http://www.w3.org/2000/svg">
<path d="M34.1667 11.9583H6.83341C4.94644 11.9583 3.41675 13.488 3.41675 15.375V32.4583C3.41675 34.3453 4.94644 35.875 6.83341 35.875H34.1667C36.0537 35.875 37.5834 34.3453 37.5834 32.4583V15.375C37.5834 13.488 36.0537 11.9583 34.1667 11.9583Z" stroke="#021442" stroke-width="1.74732" stroke-linecap="round" stroke-linejoin="round"/>
<path d="M27.3334 35.875V8.54167C27.3334 7.63551 26.9734 6.76647 26.3327 6.12572C25.6919 5.48497 24.8229 5.125 23.9167 5.125H17.0834C16.1773 5.125 15.3082 5.48497 14.6675 6.12572C14.0267 6.76647 13.6667 7.63551 13.6667 8.54167V35.875" stroke="#021442" stroke-width="1.74732" stroke-linecap="round" stroke-linejoin="round"/>
</svg>
